<svg xmlns="http://www.w3.org/2000/svg" viewBox="0 0 175.95999 175.96001">
  <defs>
    <style>
      .cls-1 {
        fill: #00695b;
      }
    </style>
  </defs>
  <g id="Calque_2" data-name="Calque 2">
    <g id="Calque_1-2" data-name="Calque 1">
      <g>
        <path class="cls-1" d="M103.192,93.5083a2.7495,2.7495,0,1,0,2.75,2.752,2.75016,2.75016,0,0,0-2.75-2.752"/>
        <path class="cls-1" d="M105.9567,108.33929a2.74489,2.74489,0,0,0-1.403,2.889l.456,2.618-5.722-3.477a2.76165,2.76165,0,0,0-1.431-.398H86.9557a13.7125,13.7125,0,0,1,0-27.425h12.537a13.70429,13.70429,0,0,1,6.464,25.793m-38.195-11.337a13.703,13.703,0,0,1-3.515-25.466,2.74686,2.74686,0,0,0,1.406-2.889l-.456-2.62,5.723,3.475a2.7513,2.7513,0,0,0,1.429.4h10.902a13.86893,13.86893,0,0,1,12.015,7.147h-8.314a19.23232,19.23232,0,0,0-19.207,19.213c0,.249.006.493.017.74m33.572-19.862a19.1444,19.1444,0,0,0-18.081-12.735H73.1187l-10.235-6.217a2.75058,2.75058,0,0,0-4.136,2.822l1.172,6.736a19.19713,19.19713,0,0,0,8.952,34.989,19.24609,19.24609,0,0,0,18.084,12.737h10.136l10.238,6.217a2.74954,2.74954,0,0,0,4.134-2.821l-1.171-6.737a19.19751,19.19751,0,0,0-8.959-34.991"/>
        <path class="cls-1" d="M170.463,136.224a5.72223,5.72223,0,0,1-5.716,5.716h-3.098a28.51926,28.51926,0,0,0-55.972,0H70.285a28.52048,28.52048,0,0,0-55.974,0H11.215a5.7218,5.7218,0,0,1-5.714-5.716V53.401a5.72053,5.72053,0,0,1,5.714-5.716h9.972a28.48168,28.48168,0,0,0,42.226,0h49.138a28.48394,28.48394,0,0,0,42.228,0h9.97a5.72182,5.72182,0,0,1,5.714,5.716ZM152.89,160.085a20.68284,20.68284,0,0,0-10.67-11.08,11.848,11.848,0,1,0-17.11,0,20.71437,20.71437,0,0,0-10.672,11.08,23.028,23.028,0,1,1,38.452,0M127.314,140.82a6.351,6.351,0,1,1,6.352,6.35,6.35791,6.35791,0,0,1-6.352-6.35m6.352,29.641a22.9241,22.9241,0,0,1-14.957-5.54,15.25414,15.25414,0,0,1,29.912,0,22.92274,22.92274,0,0,1-14.955,5.54m-72.14-10.376a20.68636,20.68636,0,0,0-10.672-11.08,11.851,11.851,0,1,0-17.112,0,20.70375,20.70375,0,0,0-10.67,11.08,23.029,23.029,0,1,1,38.454,0M35.944,140.82a6.354,6.354,0,1,1,6.356,6.35,6.36262,6.36262,0,0,1-6.356-6.35m6.352,29.641a22.91679,22.91679,0,0,1-14.952-5.54,15.25231,15.25231,0,0,1,29.909,0,22.92211,22.92211,0,0,1-14.957,5.54M35.944,21.91A6.354,6.354,0,1,1,42.3,28.26a6.362,6.362,0,0,1-6.356-6.35M42.3,33.759A15.20859,15.20859,0,0,1,57.253,46.013a22.95385,22.95385,0,0,1-29.909,0A15.21086,15.21086,0,0,1,42.3,33.759m-.002-28.26A23.00893,23.00893,0,0,1,61.526,41.177a20.683,20.683,0,0,0-10.672-11.08,11.851,11.851,0,1,0-17.112,0,20.70042,20.70042,0,0,0-10.67,11.08A23.01477,23.01477,0,0,1,42.298,5.499M127.314,21.91a6.351,6.351,0,1,1,6.352,6.35,6.35856,6.35856,0,0,1-6.352-6.35m6.352,11.849a15.214,15.214,0,0,1,14.955,12.254,22.9579,22.9579,0,0,1-29.912,0,15.21033,15.21033,0,0,1,14.957-12.254m0-28.26A23.009,23.009,0,0,1,152.89,41.177a20.67952,20.67952,0,0,0-10.67-11.08,11.848,11.848,0,1,0-17.11,0,20.711,20.711,0,0,0-10.672,11.08A23.01361,23.01361,0,0,1,133.666,5.499m31.083,36.687h-6.052a28.524,28.524,0,1,0-50.064,0H67.331a28.523,28.523,0,1,0-50.066,0H11.213A11.22853,11.22853,0,0,0,0,53.401v82.823a11.22552,11.22552,0,0,0,11.213,11.213h2.562a28.525,28.525,0,0,0,57.05,0h34.314a28.525,28.525,0,0,0,57.05,0h2.558a11.22553,11.22553,0,0,0,11.213-11.213V53.401a11.22554,11.22554,0,0,0-11.211-11.215"/>
        <path class="cls-1" d="M93.22219,93.5083a2.7495,2.7495,0,1,0,2.75,2.752,2.75015,2.75015,0,0,0-2.75-2.752"/>
        <path class="cls-1" d="M83.25239,93.5083a2.7495,2.7495,0,1,0,2.75,2.752,2.75015,2.75015,0,0,0-2.75-2.752"/>
      </g>
    </g>
  </g>
</svg>
