<svg xmlns="http://www.w3.org/2000/svg" viewBox="0 0 165.373 144.16">
  <defs>
    <style>
      .cls-1 {
        fill: #00695b;
      }
    </style>
  </defs>
  <g id="Calque_2" data-name="Calque 2">
    <g id="Calque_1-2" data-name="Calque 1">
      <g>
        <path class="cls-1" d="M159.671,138.457H129.162V57.766l30.509,18.02Zm-36.212,0H109.916V111.484a2.85109,2.85109,0,0,0-2.851-2.851H58.308a2.85044,2.85044,0,0,0-2.851,2.851v26.973H41.913V42.74l3.935-3.222V55.485a2.85132,2.85132,0,0,0,2.84,2.863c.089,0,.179-.003.268-.011,17.991,0,30.566,6.757,30.879,12.887v.228a2.27752,2.27752,0,0,0,0,.628v.171a2.81215,2.81215,0,0,0,.2.427,2.46009,2.46009,0,0,0,.285.457l.313.342.514.313.342.2a2.44983,2.44983,0,0,0,1.939,0l.342-.2.485-.313a1.751,1.751,0,0,0,.313-.342,2.592,2.592,0,0,0,.314-.457,2.80707,2.80707,0,0,0,.199-.427V72.08a2.20234,2.20234,0,0,0,0-.628v-.228c.314-6.13,12.917-12.859,30.937-12.887a2.85215,2.85215,0,0,0,2.851-2.31,1.87232,1.87232,0,0,0,0-.684V39.518l3.935,3.222Zm-62.3-24.122h43.054v24.122H61.159ZM36.211,138.457H5.702V75.729L36.211,57.766ZM79.835,18.561V61.33c-6.016-4.847-16.281-8.126-28.284-8.553V5.645c16.68.798,28.113,7.071,28.284,12.916M113.822,5.645V52.662c-12.032.457-22.268,3.736-28.284,8.554V18.447c.142-5.731,11.604-12.004,28.284-12.802m50.154,66.064L129.162,51.094V41.4a2.85334,2.85334,0,0,0-1.027-2.196l-8.553-7.099V2.851A2.85109,2.85109,0,0,0,116.731,0C101.248,0,88.218,4.647,82.743,11.405,77.212,4.647,64.239,0,48.756,0a2.85108,2.85108,0,0,0-2.851,2.851V32.105l-8.554,7.071a2.85035,2.85035,0,0,0-1.026,2.195v9.695L1.397,71.709A2.84956,2.84956,0,0,0,0,74.161v67.147a2.85129,2.85129,0,0,0,2.851,2.852H162.522a2.85129,2.85129,0,0,0,2.851-2.852V74.161a2.84958,2.84958,0,0,0-1.397-2.452"/>
        <path class="cls-1" d="M70.7681,89.13021h-9.609a2.8515,2.8515,0,0,0,0,5.703h9.609a2.8515,2.8515,0,0,0,0-5.703"/>
        <path class="cls-1" d="M104.21349,89.13021h-9.609a2.8515,2.8515,0,0,0,0,5.703h9.609a2.8515,2.8515,0,0,0,0-5.703"/>
        <path class="cls-1" d="M16.1379,127.16611h9.523a2.8515,2.8515,0,0,0,0-5.703h-9.523a2.8515,2.8515,0,0,0,0,5.703"/>
        <path class="cls-1" d="M16.1379,110.201h9.523a2.851,2.851,0,0,0,0-5.702h-9.523a2.851,2.851,0,0,0,0,5.702"/>
        <path class="cls-1" d="M16.1379,93.26461h9.523a2.8515,2.8515,0,0,0,0-5.703h-9.523a2.8515,2.8515,0,0,0,0,5.703"/>
        <path class="cls-1" d="M139.7117,127.16611h9.637a2.8515,2.8515,0,0,0,0-5.703h-9.637a2.8515,2.8515,0,0,0,0,5.703"/>
        <path class="cls-1" d="M139.7117,110.201h9.637a2.851,2.851,0,1,0,0-5.702h-9.637a2.851,2.851,0,0,0,0,5.702"/>
        <path class="cls-1" d="M139.7117,93.26461h9.637a2.8515,2.8515,0,0,0,0-5.703h-9.637a2.8515,2.8515,0,0,0,0,5.703"/>
        <path class="cls-1" d="M70.7681,72.02261h-9.609a2.8515,2.8515,0,0,0,0,5.703h9.609a2.8515,2.8515,0,0,0,0-5.703"/>
        <path class="cls-1" d="M104.21349,72.02261h-9.609a2.8515,2.8515,0,0,0,0,5.703h9.609a2.8515,2.8515,0,0,0,0-5.703"/>
      </g>
    </g>
  </g>
</svg>
