<?xml version="1.0" encoding="UTF-8"?>
<svg id="Calque_2" data-name="Calque 2" xmlns="http://www.w3.org/2000/svg" xmlns:xlink="http://www.w3.org/1999/xlink" viewBox="0 0 411.199005126953125 123.219054851217152">
  <defs>
    <linearGradient id="New_Gradient_Swatch_3" data-name="New Gradient Swatch 3" x1="0" y1="62.591605677799635" x2="113.377511848266295" y2="62.591605677799635" gradientUnits="userSpaceOnUse">
      <stop offset="0" stop-color="#298744"/>
      <stop offset="1" stop-color="#1c4d3e"/>
    </linearGradient>
    <linearGradient id="New_Gradient_Swatch_3-2" data-name="New Gradient Swatch 3" x1="122.661013656881551" y1="44.239858439083037" x2="203.035950134797531" y2="44.239858439083037" xlink:href="#New_Gradient_Swatch_3"/>
    <linearGradient id="New_Gradient_Swatch_3-3" data-name="New Gradient Swatch 3" x1="211.65235103793384" y1="61.609527425608576" x2="340.096541464497932" y2="61.609527425608576" xlink:href="#New_Gradient_Swatch_3"/>
    <linearGradient id="New_Gradient_Swatch_3-4" data-name="New Gradient Swatch 3" x1="350.884198804993503" y1="84.810240559069825" x2="411.199005126953125" y2="84.810240559069825" xlink:href="#New_Gradient_Swatch_3"/>
  </defs>
  <g id="Calque_1-2" data-name="Calque 1">
    <g>
      <path d="m64.013423467007669,35.135079702750772c-4.126451835183616-6.685255006495026-10.950717940697359-10.098115752655758-20.62628513796335-10.098115752655758-5.687360727681153,0-13.657569858200077,3.412860746160732-18.351708479998706,10.098115752655758v-8.392757642825927H0v36.700430868147123h25.035429849045613v-3.129400296845233c0-7.680008942111272,3.982079251163668-12.516988465519717,10.100339165794139-12.516988465519717,5.549802122593974,0,9.104048347577191,4.693372838060895,9.104048347577191,12.092142447590049v40.257740792207187h25.038418531985371v-39.83289477427752c0-7.680008942111272,3.982079251163668-12.516988465519717,9.956729932513554-12.516988465519717,5.690424336891738,0,9.107114508347877,4.693372838060895,9.107114508347877,12.092142447590049v40.257740792207187h25.03543151300255v-42.393918958077847c0-21.052586891369174-9.531960515545506-32.715364497331393-25.747490883637511-32.715364497331393-9.67549060703459,0-17.214879692395698,3.412860746160732-23.616597497621115,10.098115752655758" style="fill: url(#New_Gradient_Swatch_3);"/>
      <path d="m122.661013656881551,63.442752928071968h25.319657857462516c.002987018981003-8.963431462836525,6.402483707526699-15.64638876236495,14.794475236029029-15.64638876236495,8.535674800456036,0,14.935094898772149,6.682957299528425,14.938158507982735,15.64638876236495h25.3226448764417c-.003063609210585-21.90970817975267-17.499106036853846-38.405788977976954-40.260803384424435-38.405788977976954-22.758633738356366,0-40.11106948428278,16.496080798224284-40.114133093491546,38.405788977976954" style="fill: url(#New_Gradient_Swatch_3-2);"/>
      <path d="m266.701579030195717,0v35.135079702750772c-4.125754225933633-6.543869437880858-11.096622329325328-10.098115752655758-20.200673228464439-10.098115752655758-19.632297129779545,0-34.845567744818254,16.074221799350198-34.848554763797438,38.405788977976954h25.319581267231115c.003063609208766-8.963431462836525,6.402483707526699-15.64638876236495,14.794551826260431-15.64638876236495,8.511633707288638,0,14.896195462224568,6.650023499689269,14.932031289561564,15.577610733862457h-.011948075920373v25.277763640084231c0,20.912733127400315,14.369629228835038,34.567316311563445,36.706489897514984,34.567316311563445,22.193235330341849,0,36.703484221916369-13.65458318416313,36.703484221916369-34.567316311563445v-40.544954162901377h-25.037729219911853v39.54866842264164c0,7.823539037224691-4.694827933870329,12.945510814592126-11.665755002004516,12.945510814592126-7.114552406470466,0-11.668071365531432-5.121971777367435-11.668071365531432-12.945510814592126v-24.212699871322002h.01501168512732V0h-25.038418531981733Z" style="fill: url(#New_Gradient_Swatch_3-3);"/>
      <path d="m351.594037058952381,71.86469144935927c0,9.531884166111922,5.262591310714924,18.635935295239506,21.33758969129849,21.624792516023263l8.109975215722443,1.5617514244841c3.698618809006803.711982798391546,4.838511205820396,2.276721241927589,4.838511205820396,3.985066370813001,0,2.133114556583678-2.704542866807969,4.127141251517969-6.97085980621523,4.127141251517969-7.54236505886729,0-18.638998433663801-3.413626648482023-28.025054560584977-10.1047791028559v21.340566164386473c4.12269891390315,3.129400296846143,14.223801430438471,8.819824777488975,28.025054560584977,8.819824777488975,20.912656008871636,0,32.289751761374646-8.535598425849457,32.289751761374646-23.898526738897999,0-10.812396258012086-5.12120574567416-20.344280424124008-20.059287663425494-23.614376977491702l-10.525182621429849-2.276721241930318c-2.98579353607056-.565465684220726-4.269281443364889-1.992571480523111-4.269281443364889-3.696397785708541,0-2.276721241931227,2.563999966845586-3.986598175460131,6.402472536290588-3.986598175460131,6.970859806213412,0,17.354733452833898,2.561024183801237,25.038418531985371,7.539389275821122v-20.056301151107618c-5.831043999633039-4.122775608282609-15.2223082622113-6.828095789519466-25.322644876443519-6.828095789519466-14.650102652009082,0-30.869462531612953,5.549804814353593-30.869462531612953,25.463265182436771" style="fill: url(#New_Gradient_Swatch_3-4);"/>
    </g>
  </g>
</svg>