<?xml version="1.0" encoding="UTF-8"?>
<svg id="Calque_2" data-name="Calque 2" xmlns="http://www.w3.org/2000/svg" viewBox="0 0 103.633995056152344 34.2449951171875">
  <g id="Calque_1-2" data-name="Calque 1">
    <path d="m94.903999328613281,10.259979248046875c-4.590003967285156,0-9.180000305175781,1.845001220703125-9.180000305175781,7.470001220703125,0,2.925018310546875,1.665000915527344,5.535003662109375,6.525001525878906,6.5250244140625l2.609992980957031.53997802734375c1.800003051757812.360015869140625,2.385002136230469,1.125,2.385002136230469,2.160003662109375,0,1.214996337890625-1.214996337890625,2.07000732421875-3.194999694824219,2.07000732421875-2.474998474121094,0-5.805000305175781-1.125-8.549995422363281-3.19500732421875v5.625c1.529998779296875,1.125,4.634994506835938,2.790008544921875,8.549995422363281,2.790008544921875,6.165000915527344,0,9.584999084472656-2.654998779296875,9.584999084472656-7.20001220703125,0-3.375-1.665000915527344-6.1199951171875-6.254997253417969-7.154998779296875l-3.239997863769531-.720001220703125c-1.530006408691406-.3599853515625-2.115005493164062-1.079986572265625-2.115005493164062-1.97998046875,0-1.170013427734375,1.125-1.800018310546875,2.925003051757812-1.800018310546875,2.205001831054688,0,5.355003356933594.80999755859375,7.605003356933594,2.385009765625v-5.30999755859375c-1.845001220703125-1.350006103515625-4.725006103515625-2.20501708984375-7.650001525878906-2.20501708984375m-20.833999633789062-6.029998779296875c0,2.07000732421875,1.6199951171875,3.82501220703125,3.8699951171875,3.82501220703125,2.205001831054688,0,3.915000915527344-1.7550048828125,3.915000915527344-3.82501220703125,0-2.069976806640625-1.709999084472656-3.8699951171875-3.915000915527344-3.8699951171875-2.25,0-3.8699951171875,1.800018310546875-3.8699951171875,3.8699951171875m7.064994812011719,6.57000732421875h-16.739997863769531v-.720001220703125c0-3.19500732421875,1.889999389648438-4.54498291015625,3.870002746582031-4.54498291015625,1.620002746582031,0,2.745002746582031.404998779296875,3.735000610351562.989990234375V1.035003662109375c-1.620002746582031-.675018310546875-3.375-1.035003662109375-4.860000610351562-1.035003662109375-5.129997253417969,0-9.044998168945312,3.149993896484375-9.044998168945312,9.764984130859375v1.035003662109375h-3.689998626708984v5.220001220703125h3.689998626708984v17.68499755859375h6.299995422363281v-17.68499755859375h10.44000244140625v17.68499755859375h6.299995422363281V10.79998779296875Zm-43.199993133544922-2.6099853515625h5.579998016357422l4.635002136230469-7.06500244140625h-6.659999847412109l-3.555000305175781,7.06500244140625Zm-1.889999389648438,11.204986572265625c.719997406005859-2.834991455078125,2.564998626708984-4.18499755859375,5.129997253417969-4.18499755859375,2.655002593994141,0,4.365001678466797,1.8900146484375,4.5,4.18499755859375h-9.629997253417969Zm6.254997253417969,14.850006103515625c3.960002899169922,0,7.06500244140625-1.125,8.865001678466797-2.7449951171875v-5.58001708984375c-2.159999847412109,1.845001220703125-4.950000762939453,3.0150146484375-7.784999847412109,3.0150146484375-4.275001525878906,0-6.795001983642578-2.024993896484375-7.424999237060547-5.220001220703125h15.974998474121094c1.034999847412109-7.3800048828125-2.520000457763672-13.45501708984375-10.305000305175781-13.45501708984375-6.884998321533203,0-11.520000457763672,5.310028076171875-11.520000457763672,12.0150146484375,0,7.154998779296875,4.860000610351562,11.970001220703125,12.194999694824219,11.970001220703125M6.570000171661377,27.720001220703125V8.009979248046875h4.184999942779541c6.029999732971191,0,9.945000648498535,3.870025634765625,9.945000648498535,9.855010986328125,0,5.94000244140625-3.915000915527344,9.855010986328125-9.945000648498535,9.855010986328125h-4.184999942779541ZM10.755000114440918,2.024993896484375H0v31.67999267578125h10.755000114440918c9.765000343322754,0,16.515000343322754-6.47998046875,16.515000343322754-15.839996337890625,0-9.3599853515625-6.75-15.839996337890625-16.515000343322754-15.839996337890625" style="fill: #e15028; stroke-width: 0px;"/>
  </g>
</svg>
