<?xml version="1.0" encoding="UTF-8"?>
<svg id="Calque_2" data-name="Calque 2" xmlns="http://www.w3.org/2000/svg" viewBox="0 0 304.3359375 304.337005615233466">
  <g id="Calque_1-2" data-name="Calque 1">
    <g>
      <path d="m152.16796875,0C68.12799072265625,0,0,68.12799072265625,0,152.167999267578125c0,84.040985107420966,68.12799072265625,152.169006347655341,152.16796875,152.169006347655341,84.0400390625,0,152.16796875-68.128021240234375,152.16796875-152.169006347655341C304.3359375,68.12799072265625,236.2080078125,0,152.16796875,0" style="fill: #289548; stroke-width: 0px;"/>
      <path d="m234.6279296875,163.28179931640625c-2.9580078125,0-5.916015625,1.188995361328125-5.916015625,4.813995361328125,0,1.884979248046875,1.072998046875,3.566986083984375,4.2049560546875,4.204986572265625l1.68212890625.347991943359375c1.159912109375.232025146484375,1.5369873046875.725006103515625,1.5369873046875,1.391998291015625,0,.78302001953125-.7830810546875,1.334014892578125-2.05908203125,1.334014892578125-1.594970703125,0-3.740966796875-.725006103515625-5.510009765625-2.058990478515625v3.625c.986083984375.7249755859375,2.987060546875,1.798004150390625,5.510009765625,1.798004150390625,3.9730224609375,0,6.177001953125-1.711029052734375,6.177001953125-4.6400146484375,0-2.17498779296875-1.072998046875-3.944000244140625-4.031005859375-4.610992431640625l-2.0880126953125-.464019775390625c-.9859619140625-.23199462890625-1.3629150390625-.69598388671875-1.3629150390625-1.2760009765625,0-.753997802734375.7249755859375-1.15997314453125,1.885009765625-1.15997314453125,1.4210205078125,0,3.450927734375.52197265625,4.9010009765625,1.5369873046875v-3.4219970703125c-1.1890869140625-.8699951171875-3.0450439453125-1.420989990234375-4.9300537109375-1.420989990234375m-18.4139404296875,5.886993408203125c.4639892578125-1.826995849609375,1.6529541015625-2.696990966796875,3.305908203125-2.696990966796875,1.7110595703125,0,2.81298828125,1.217987060546875,2.9000244140625,2.696990966796875h-6.2059326171875Zm4.031005859375,9.57000732421875c2.552001953125,0,4.552978515625-.725006103515625,5.712890625-1.769012451171875v-3.59600830078125c-1.3919677734375,1.188995361328125-3.18994140625,1.9429931640625-5.0169677734375,1.9429931640625-2.7550048828125,0-4.3790283203125-1.30499267578125-4.7850341796875-3.363983154296875h10.2950439453125c.6669921875-4.756011962890625-1.6240234375-8.670989990234375-6.6409912109375-8.670989990234375-4.43701171875,0-7.4239501953125,3.4219970703125-7.4239501953125,7.74298095703125,0,4.610992431640625,3.1319580078125,7.714019775390625,7.8590087890625,7.714019775390625m-22.214111328125-8.0040283203125c0-2.23297119140625,1.6820068359375-3.885986328125,3.8280029296875-3.885986328125,2.1461181640625,0,3.799072265625,1.65301513671875,3.799072265625,3.885986328125,0,2.233001708984375-1.6529541015625,3.886016845703125-3.799072265625,3.886016845703125-2.14599609375,0-3.8280029296875-1.65301513671875-3.8280029296875-3.886016845703125m2.9580078125,7.4530029296875c2.1170654296875,0,3.799072265625-.89898681640625,4.6690673828125-2.522979736328125v1.30499267578125c0,2.78399658203125-1.9720458984375,4.147003173828125-4.4949951171875,4.147003173828125-1.6820068359375,0-3.654052734375-.58001708984375-5.3070068359375-1.6820068359375v3.4219970703125c1.739990234375,1.072998046875,4.0599365234375,1.623992919921875,6.0029296875,1.623992919921875,4.466064453125,0,7.8590087890625-2.696990966796875,7.8590087890625-7.3079833984375v-13.542999267578125h-4.0599365234375v2.17498779296875c-.8699951171875-1.595001220703125-2.552001953125-2.522979736328125-4.6690673828125-2.522979736328125-3.972900390625,0-7.075927734375,3.160980224609375-7.075927734375,7.452972412109375,0,4.292022705078125,3.10302734375,7.4530029296875,7.075927734375,7.4530029296875m-18.5889892578125-4.32098388671875c0-1.04400634765625.8699951171875-1.769012451171875,2.2330322265625-1.769012451171875.9859619140625,0,1.9429931640625.319000244140625,2.7550048828125.84100341796875v.02899169921875c-.0870361328125,1.595001220703125-1.333984375,2.610015869140625-2.928955078125,2.610015869140625-1.2470703125,0-2.05908203125-.6669921875-2.05908203125-1.71099853515625m4.988037109375-4.20501708984375v.696014404296875c-.8699951171875-.63800048828125-2.2330322265625-1.072998046875-3.625-1.072998046875-3.10302734375,0-5.3070068359375,1.91400146484375-5.3070068359375,4.697998046875,0,2.72601318359375,2.0880126953125,4.756011962890625,4.958984375,4.756011962890625,1.7979736328125,0,3.3060302734375-.870025634765625,3.9730224609375-2.233001708984375v1.884979248046875h4.0599365234375v-8.96099853515625c0-3.625-2.8709716796875-6.147979736328125-7.075927734375-6.147979736328125-1.7979736328125,0-3.654052734375.49298095703125-5.0460205078125,1.56597900390625v3.59600830078125c1.2760009765625-1.072998046875,2.81298828125-1.71099853515625,4.466064453125-1.71099853515625,2.14599609375,0,3.595947265625,1.072998046875,3.595947265625,2.928985595703125m-21.633056640625-6.031982421875h-4.0599365234375v14.760986328125h4.0599365234375v-7.7139892578125c0-2.14599609375,1.3050537109375-3.683013916015625,3.10302734375-3.683013916015625s3.0159912109375,1.334014892578125,3.0159912109375,3.364013671875v8.032989501953125h4.06005859375v-8.583984375c0-4.031005859375-2.320068359375-6.524993896484375-5.800048828125-6.524993896484375-1.9139404296875,0-3.450927734375.927978515625-4.3790283203125,2.522979736328125v-2.17498779296875Zm-15.949951171875-1.6820068359375h3.5960693359375l2.9869384765625-4.553009033203125h-4.2919921875l-2.291015625,4.553009033203125Zm-1.218017578125,7.22100830078125c.4639892578125-1.826995849609375,1.653076171875-2.696990966796875,3.3060302734375-2.696990966796875,1.7109375,0,2.81298828125,1.217987060546875,2.9000244140625,2.696990966796875h-6.2060546875Zm4.031005859375,9.57000732421875c2.552001953125,0,4.552978515625-.725006103515625,5.7130126953125-1.769012451171875v-3.59600830078125c-1.3919677734375,1.188995361328125-3.18994140625,1.9429931640625-5.0169677734375,1.9429931640625-2.7550048828125,0-4.3790283203125-1.30499267578125-4.7850341796875-3.363983154296875h10.2950439453125c.6669921875-4.756011962890625-1.6240234375-8.670989990234375-6.6409912109375-8.670989990234375-4.43701171875,0-7.424072265625,3.4219970703125-7.424072265625,7.74298095703125,0,4.610992431640625,3.132080078125,7.714019775390625,7.8590087890625,7.714019775390625m-26.0709228515625-11.774017333984375c1.4788818359375,0,2.4359130859375,1.218017578125,2.4359130859375,3.19000244140625v8.235992431640625h4.06005859375v-7.975006103515625c0-2.116973876953125,1.072998046875-3.45098876953125,2.7259521484375-3.45098876953125,1.508056640625,0,2.4649658203125,1.218017578125,2.4649658203125,3.19000244140625v8.235992431640625h4.06005859375v-8.583984375c0-4.20501708984375-1.9429931640625-6.524993896484375-5.219970703125-6.524993896484375-2.05908203125,0-3.654052734375.8699951171875-4.8140869140625,2.522979736328125-.81201171875-1.652984619140625-2.2908935546875-2.522979736328125-4.407958984375-2.522979736328125-1.5079345703125,0-3.218994140625.927978515625-4.0599365234375,2.6099853515625v-2.261993408203125h-4.06005859375v14.760986328125h4.06005859375v-7.975006103515625c0-2.116973876953125,1.072998046875-3.45098876953125,2.7550048828125-3.45098876953125m-21.60400390625-3.6829833984375c-2.9580078125,0-5.916015625,1.188995361328125-5.916015625,4.813995361328125,0,1.884979248046875,1.072998046875,3.566986083984375,4.2049560546875,4.204986572265625l1.6820068359375.347991943359375c1.1600341796875.232025146484375,1.5369873046875.725006103515625,1.5369873046875,1.391998291015625,0,.78302001953125-.782958984375,1.334014892578125-2.0589599609375,1.334014892578125-1.594970703125,0-3.7410888671875-.725006103515625-5.510009765625-2.058990478515625v3.625c.9859619140625.7249755859375,2.9869384765625,1.798004150390625,5.510009765625,1.798004150390625,3.9730224609375,0,6.177001953125-1.711029052734375,6.177001953125-4.6400146484375,0-2.17498779296875-1.072998046875-3.944000244140625-4.031005859375-4.610992431640625l-2.0880126953125-.464019775390625c-.9859619140625-.23199462890625-1.363037109375-.69598388671875-1.363037109375-1.2760009765625,0-.753997802734375.7249755859375-1.15997314453125,1.885009765625-1.15997314453125,1.4210205078125,0,3.4510498046875.52197265625,4.9010009765625,1.5369873046875v-3.4219970703125c-1.18896484375-.8699951171875-3.0450439453125-1.420989990234375-4.929931640625-1.420989990234375m-18.4150390625,5.886993408203125c.4639892578125-1.826995849609375,1.6529541015625-2.696990966796875,3.3060302734375-2.696990966796875,1.7109375,0,2.81298828125,1.217987060546875,2.89990234375,2.696990966796875h-6.2059326171875Zm4.031005859375,9.57000732421875c2.552001953125,0,4.552978515625-.725006103515625,5.7130126953125-1.769012451171875v-3.59600830078125c-1.39208984375,1.188995361328125-3.1900634765625,1.9429931640625-5.01708984375,1.9429931640625-2.7550048828125,0-4.37890625-1.30499267578125-4.784912109375-3.363983154296875h10.294921875c.6669921875-4.756011962890625-1.6239013671875-8.670989990234375-6.6409912109375-8.670989990234375-4.43701171875,0-7.4239501953125,3.4219970703125-7.4239501953125,7.74298095703125,0,4.610992431640625,3.1319580078125,7.714019775390625,7.8590087890625,7.714019775390625m-26.47705078125-7.714019775390625c0,4.43701171875,3.13201904296875,7.714019775390625,7.16302490234375,7.714019775390625,2.14599609375,0,3.85699462890625-.957000732421875,4.72698974609375-2.610015869140625v2.261993408203125h4.06005859375v-20.415985107421875h-4.06005859375v7.94598388671875c-.8699951171875-1.681976318359375-2.58099365234375-2.63897705078125-4.72698974609375-2.63897705078125-4.031005859375,0-7.16302490234375,3.2769775390625-7.16302490234375,7.74298095703125m8.0040283203125,4.031005859375c-2.2039794921875,0-3.885986328125-1.71099853515625-3.885986328125-4.031005859375s1.6820068359375-4.05999755859375,3.885986328125-4.05999755859375,3.885986328125,1.739990234375,3.885986328125,4.05999755859375-1.6820068359375,4.031005859375-3.885986328125,4.031005859375" style="fill: #fff; stroke-width: 0px;"/>
      <path d="m247.606201171875,131.6297607421875h-4.06005859375v14.760986328125h4.06005859375v-7.7139892578125c0-2.14599609375,1.304931640625-3.6829833984375,3.1029052734375-3.6829833984375,1.798095703125,0,3.01611328125,1.333984375,3.01611328125,3.363983154296875v8.032989501953125h4.0599365234375v-8.583984375c0-4.031005859375-2.3199462890625-6.524993896484375-5.800048828125-6.524993896484375-1.9139404296875,0-3.450927734375.927978515625-4.37890625,2.522979736328125v-2.17498779296875Zm-18.5889892578125,7.394989013671875c0-2.319976806640625,1.681884765625-4.05999755859375,3.885986328125-4.05999755859375,2.2039794921875,0,3.885986328125,1.740020751953125,3.885986328125,4.05999755859375,0,2.32000732421875-1.6820068359375,4.031005859375-3.885986328125,4.031005859375-2.2041015625,0-3.885986328125-1.71099853515625-3.885986328125-4.031005859375m3.885986328125,7.714019775390625c4.4949951171875,0,8.00390625-3.364013671875,8.00390625-7.714019775390625,0-4.407989501953125-3.5089111328125-7.74298095703125-8.00390625-7.74298095703125-4.5240478515625,0-8.0040283203125,3.334991455078125-8.0040283203125,7.74298095703125,0,4.350006103515625,3.47998046875,7.714019775390625,8.0040283203125,7.714019775390625m-15.196044921875-19.343017578125c0,1.334014892578125,1.0439453125,2.464996337890625,2.4940185546875,2.464996337890625,1.4210205078125,0,2.52294921875-1.1309814453125,2.52294921875-2.464996337890625,0-1.333984375-1.1019287109375-2.493988037109375-2.52294921875-2.493988037109375-1.4500732421875,0-2.4940185546875,1.160003662109375-2.4940185546875,2.493988037109375m4.552978515625,4.2340087890625h-4.0599365234375v14.760986328125h4.0599365234375v-14.760986328125Zm-15.427001953125-3.972991943359375v3.972991943359375h-2.3779296875v3.364013671875h2.3779296875v5.480987548828125c0,4.26300048828125,2.5230712890625,6.264007568359375,5.8289794921875,6.264007568359375.95703125,0,2.0880126953125-.2030029296875,3.132080078125-.63800048828125v-3.537994384765625c-.6380615234375.347991943359375-1.363037109375.63800048828125-2.4071044921875.63800048828125-1.27587890625,0-2.4649658203125-.870025634765625-2.4649658203125-2.9580078125v-5.248992919921875h4.8720703125v-3.364013671875h-4.8720703125v-3.972991943359375h-4.0889892578125Zm-13.136962890625,14.209991455078125c0-1.04400634765625.8699951171875-1.769012451171875,2.2330322265625-1.769012451171875.9859619140625,0,1.9429931640625.319000244140625,2.7550048828125.84100341796875v.029022216796875c-.0870361328125,1.595001220703125-1.333984375,2.6099853515625-2.9290771484375,2.6099853515625-1.2469482421875,0-2.0589599609375-.6669921875-2.0589599609375-1.71099853515625m4.988037109375-4.204986572265625v.69598388671875c-.8701171875-.63800048828125-2.2330322265625-1.072998046875-3.625-1.072998046875-3.10302734375,0-5.3070068359375,1.91400146484375-5.3070068359375,4.697998046875,0,2.72601318359375,2.0880126953125,4.756011962890625,4.958984375,4.756011962890625,1.7979736328125,0,3.3060302734375-.8699951171875,3.9730224609375-2.233001708984375v1.884979248046875h4.0599365234375v-8.96099853515625c0-3.625-2.8709716796875-6.147979736328125-7.0760498046875-6.147979736328125-1.7979736328125,0-3.6539306640625.49298095703125-5.0458984375,1.56597900390625v3.59600830078125c1.2760009765625-1.072998046875,2.81298828125-1.71099853515625,4.4659423828125-1.71099853515625,2.14599609375,0,3.5960693359375,1.072998046875,3.5960693359375,2.92901611328125m-16.4140625-6.3800048828125c-2.9580078125,0-5.916015625,1.188995361328125-5.916015625,4.813995361328125,0,1.885009765625,1.072998046875,3.566986083984375,4.205078125,4.204986572265625l1.681884765625.3480224609375c1.1600341796875.23199462890625,1.537109375.7249755859375,1.537109375,1.391998291015625,0,.782989501953125-.7830810546875,1.333984375-2.05908203125,1.333984375-1.594970703125,0-3.740966796875-.725006103515625-5.510009765625-2.058990478515625v3.625c.986083984375.725006103515625,2.987060546875,1.798004150390625,5.510009765625,1.798004150390625,3.9730224609375,0,6.177001953125-1.71099853515625,6.177001953125-4.6400146484375,0-2.17498779296875-1.072998046875-3.944000244140625-4.031005859375-4.610992431640625l-2.0880126953125-.4639892578125c-.9859619140625-.232025146484375-1.3629150390625-.696014404296875-1.3629150390625-1.2760009765625,0-.753997802734375.7249755859375-1.160003662109375,1.885009765625-1.160003662109375,1.4208984375,0,3.450927734375.522003173828125,4.9010009765625,1.5369873046875v-3.4219970703125c-1.1890869140625-.8699951171875-3.0450439453125-1.420989990234375-4.9300537109375-1.420989990234375m-13.4559326171875-3.886016845703125c0,1.334014892578125,1.0439453125,2.464996337890625,2.493896484375,2.464996337890625,1.4210205078125,0,2.5230712890625-1.1309814453125,2.5230712890625-2.464996337890625,0-1.333984375-1.10205078125-2.493988037109375-2.5230712890625-2.493988037109375-1.449951171875,0-2.493896484375,1.160003662109375-2.493896484375,2.493988037109375m4.552978515625,4.2340087890625h-4.06005859375v14.760986328125h4.06005859375v-14.760986328125Zm-16.5880126953125,14.760986328125h4.0599365234375v-6.61199951171875c.029052734375-2.899993896484375,1.7110595703125-4.72698974609375,3.8570556640625-4.72698974609375.7540283203125,0,1.6820068359375.14501953125,2.4940185546875.63800048828125v-3.85699462890625c-.696044921875-.37701416015625-1.5369873046875-.550994873046875-2.2620849609375-.550994873046875-1.971923828125,0-3.56689453125,1.420989990234375-4.0889892578125,3.363983154296875v-3.0159912109375h-4.0599365234375v14.760986328125Zm-14.529052734375-7.365997314453125c0-2.319976806640625,1.6820068359375-4.05999755859375,3.885986328125-4.05999755859375,2.2041015625,0,3.885986328125,1.740020751953125,3.885986328125,4.05999755859375,0,2.32000732421875-1.681884765625,4.031005859375-3.885986328125,4.031005859375-2.2039794921875,0-3.885986328125-1.71099853515625-3.885986328125-4.031005859375m3.885986328125,7.714019775390625c4.4949951171875,0,8.0040283203125-3.364013671875,8.0040283203125-7.714019775390625,0-4.407989501953125-3.509033203125-7.74298095703125-8.0040283203125-7.74298095703125-4.52392578125,0-8.00390625,3.334991455078125-8.00390625,7.74298095703125,0,4.350006103515625,3.47998046875,7.714019775390625,8.00390625,7.714019775390625m-18.1820068359375-19.082000732421875v3.972991943359375h-2.3779296875v3.364013671875h2.3779296875v5.480987548828125c0,4.26300048828125,2.5230712890625,6.264007568359375,5.8291015625,6.264007568359375.9559326171875,0,2.0880126953125-.2030029296875,3.1319580078125-.63800048828125v-3.537994384765625c-.6380615234375.347991943359375-1.364013671875.63800048828125-2.406982421875.63800048828125-1.2760009765625,0-2.465087890625-.870025634765625-2.465087890625-2.9580078125v-5.248992919921875h4.8720703125v-3.364013671875h-4.8720703125v-3.972991943359375h-4.0889892578125Zm-15.2259521484375,11.36798095703125c0-2.319976806640625,1.6820068359375-4.05999755859375,3.885986328125-4.05999755859375s3.885986328125,1.740020751953125,3.885986328125,4.05999755859375c0,2.32000732421875-1.6820068359375,4.031005859375-3.885986328125,4.031005859375s-3.885986328125-1.71099853515625-3.885986328125-4.031005859375m3.885986328125,7.714019775390625c4.4949951171875,0,8.0040283203125-3.364013671875,8.0040283203125-7.714019775390625,0-4.407989501953125-3.509033203125-7.74298095703125-8.0040283203125-7.74298095703125-4.52392578125,0-8.0040283203125,3.334991455078125-8.0040283203125,7.74298095703125,0,4.350006103515625,3.4801025390625,7.714019775390625,8.0040283203125,7.714019775390625m-26.18701171875-11.774017333984375c1.47900390625,0,2.43603515625,1.218017578125,2.43603515625,3.19000244140625v8.235992431640625h4.0599365234375v-7.9749755859375c0-2.11700439453125,1.0731201171875-3.451019287109375,2.72705078125-3.451019287109375,1.5069580078125,0,2.4639892578125,1.218017578125,2.4639892578125,3.19000244140625v8.235992431640625h4.06103515625v-8.583984375c0-4.204986572265625-1.9439697265625-6.524993896484375-5.2210693359375-6.524993896484375-2.0589599609375,0-3.6529541015625.8699951171875-4.81396484375,2.522979736328125-.81201171875-1.652984619140625-2.291015625-2.522979736328125-4.406982421875-2.522979736328125-1.509033203125,0-3.218994140625.927978515625-4.06103515625,2.6099853515625v-2.261993408203125h-4.0589599609375v14.760986328125h4.0589599609375v-7.9749755859375c0-2.11700439453125,1.072998046875-3.451019287109375,2.7550048828125-3.451019287109375m-18.7039794921875-5.016998291015625h3.5960693359375l2.9869384765625-4.552978515625h-4.2919921875l-2.291015625,4.552978515625Zm-1.218017578125,7.22100830078125c.46405029296875-1.826995849609375,1.65301513671875-2.696990966796875,3.3060302734375-2.696990966796875,1.7109375,0,2.81298828125,1.217987060546875,2.9000244140625,2.696990966796875h-6.2060546875Zm4.031005859375,9.57000732421875c2.552001953125,0,4.552978515625-.725006103515625,5.7130126953125-1.769012451171875v-3.59600830078125c-1.3919677734375,1.18902587890625-3.18994140625,1.943023681640625-5.0169677734375,1.943023681640625-2.7550048828125,0-4.3790283203125-1.305023193359375-4.7850341796875-3.364013671875h10.2950439453125c.6669921875-4.7559814453125-1.6240234375-8.670989990234375-6.6409912109375-8.670989990234375-4.43707275390625,0-7.424072265625,3.4219970703125-7.424072265625,7.74298095703125,0,4.61102294921875,3.13201904296875,7.714019775390625,7.8590087890625,7.714019775390625m-23.0260009765625-4.20501708984375v-12.701995849609375h2.697021484375c3.885986328125,0,6.40899658203125,2.4940185546875,6.40899658203125,6.35101318359375,0,3.8280029296875-2.52301025390625,6.350982666015625-6.40899658203125,6.350982666015625h-2.697021484375Zm2.697021484375-16.558990478515625h-6.9310302734375v20.415985107421875h6.9310302734375c6.29302978515625,0,10.64300537109375-4.175994873046875,10.64300537109375-10.207977294921875,0-6.032012939453125-4.3499755859375-10.2080078125-10.64300537109375-10.2080078125" style="fill: #fff; stroke-width: 0px;"/>
    </g>
  </g>
</svg>