<?xml version="1.0" encoding="UTF-8"?>
<svg id="Calque_2" data-name="Calque 2" xmlns="http://www.w3.org/2000/svg" viewBox="0 0 304.336257934570312 304.336236000061035">
  <g id="Calque_1-2" data-name="Calque 1">
    <g>
      <path d="m44.568740844726562,259.767486572265625c59.42498779296875,59.424999237060547,155.77301025390625,59.424999237060547,215.197998046875,0,59.426025390625-59.425003051757812,59.426025390625-155.772994995117188,0-215.198013305664062-59.42498779296875-59.42596435546875-155.77301025390625-59.42596435546875-215.197998046875,0-59.42498779296875,59.425018310546875-59.42498779296875,155.77301025390625,0,215.198013305664062" style="fill: #289548; stroke-width: 0px;"/>
      <path d="m225.291275024414062,169.16888427734375c.46405029296875-1.827011108398438,1.65301513671875-2.697006225585938,3.3060302734375-2.697006225585938,1.71099853515625,0,2.81298828125,1.218002319335938,2.9000244140625,2.697006225585938h-6.2060546875Zm4.031005859375,9.569992065429688c2.552001953125,0,4.55303955078125-.724998474121094,5.7130126953125-1.768997192382812v-3.59600830078125c-1.3919677734375,1.189010620117188-3.19000244140625,1.943008422851562-5.0169677734375,1.943008422851562-2.7550048828125,0-4.3790283203125-1.305007934570312-4.7850341796875-3.363998413085938h10.2950439453125c.6669921875-4.755996704101562-1.6240234375-8.671005249023438-6.6409912109375-8.671005249023438-4.43701171875,0-7.42401123046875,3.4219970703125-7.42401123046875,7.742996215820312,0,4.611007690429688,3.1319580078125,7.714004516601562,7.85894775390625,7.714004516601562m-18.9949951171875-.347999572753906h4.06005859375v-6.611991882324219c.0289306640625-2.900009155273438,1.7109375-4.727005004882812,3.85693359375-4.727005004882812.7540283203125,0,1.6820068359375.145004272460938,2.4940185546875.63800048828125v-3.857009887695312c-.69598388671875-.376998901367188-1.5369873046875-.550994873046875-2.261962890625-.550994873046875-1.9720458984375,0-3.5670166015625,1.421005249023438-4.0889892578125,3.363998413085938v-3.0159912109375h-4.06005859375v14.760993957519531Zm-10.43994140625.347999572753906c4.32098388671875,0,7.13397216796875-2.725997924804688,7.13397216796875-6.901992797851562v-8.207000732421875h-4.05999755859375v8.061996459960938c0,2.029998779296875-1.218017578125,3.363998413085938-3.073974609375,3.363998413085938-1.85601806640625,0-3.07403564453125-1.333999633789062-3.07403564453125-3.363998413085938v-8.061996459960938h-4.05999755859375v8.207000732421875c0,4.175994873046875,2.81298828125,6.901992797851562,7.134033203125,6.901992797851562m-18.24102783203125-19.082000732421875v3.973007202148438h-2.37799072265625v3.363998413085938h2.37799072265625v5.481002807617188c0,4.262992858886719,2.52301025390625,6.263992309570312,5.8289794921875,6.263992309570312.95703125,0,2.0880126953125-.202995300292969,3.13201904296875-.63800048828125v-3.537994384765625c-.63800048828125.347991943359375-1.36297607421875.63800048828125-2.406982421875.63800048828125-1.2760009765625,0-2.46502685546875-.870010375976562-2.46502685546875-2.9580078125v-5.248992919921875h4.87200927734375v-3.363998413085938h-4.87200927734375v-3.973007202148438h-4.0889892578125Zm-9.04803466796875-.261001586914062c0,1.333999633789062,1.04400634765625,2.465011596679688,2.4940185546875,2.465011596679688,1.4210205078125,0,2.52301025390625-1.131011962890625,2.52301025390625-2.465011596679688s-1.10198974609375-2.494003295898438-2.52301025390625-2.494003295898438c-1.45001220703125,0-2.4940185546875,1.160003662109375-2.4940185546875,2.494003295898438m4.55303955078125,4.2340087890625h-4.05999755859375v14.760993957519531h4.05999755859375v-14.760993957519531Zm-18.5889892578125,7.394989013671875c0-2.319992065429688,1.6820068359375-4.05999755859375,3.885986328125-4.05999755859375s3.885986328125,1.740005493164062,3.885986328125,4.05999755859375c0,2.32000732421875-1.6820068359375,4.031005859375-3.885986328125,4.031005859375s-3.885986328125-1.71099853515625-3.885986328125-4.031005859375m3.885986328125,7.714004516601562c4.4949951171875,0,8.00396728515625-3.363998413085938,8.00396728515625-7.714004516601562,0-4.407989501953125-3.50897216796875-7.742996215820312-8.00396728515625-7.742996215820312-4.52398681640625,0-8.0040283203125,3.335006713867188-8.0040283203125,7.742996215820312,0,4.350006103515625,3.48004150390625,7.714004516601562,8.0040283203125,7.714004516601562m-18.09600830078125-.347999572753906h3.3060302734375l6.52496337890625-14.760993957519531h-4.40802001953125l-3.76995849609375,9.453994750976562-3.7120361328125-9.453994750976562h-4.46600341796875l6.5250244140625,14.760993957519531Zm-22.968017578125-4.523994445800781c0-1.04400634765625.8699951171875-1.768997192382812,2.2330322265625-1.768997192382812.9859619140625,0,1.9429931640625.319000244140625,2.7550048828125.840988159179688v.029006958007812c-.0870361328125,1.595001220703125-1.33404541015625,2.610000610351562-2.92901611328125,2.610000610351562-1.24700927734375,0-2.05902099609375-.667007446289062-2.05902099609375-1.71099853515625m4.988037109375-4.205001831054688v.695999145507812c-.8699951171875-.63800048828125-2.2330322265625-1.072998046875-3.625-1.072998046875-3.10302734375,0-5.3070068359375,1.91400146484375-5.3070068359375,4.697998046875,0,2.725997924804688,2.0880126953125,4.755996704101562,4.958984375,4.755996704101562,1.7979736328125,0,3.3060302734375-.8699951171875,3.9730224609375-2.233001708984375v1.885002136230469h4.05999755859375v-8.961006164550781c0-3.625-2.87103271484375-6.147994995117188-7.07598876953125-6.147994995117188-1.79803466796875,0-3.654052734375.492996215820312-5.0460205078125,1.566009521484375v3.595993041992188c1.2760009765625-1.072998046875,2.81298828125-1.71099853515625,4.46600341796875-1.71099853515625,2.14599609375,0,3.59600830078125,1.072998046875,3.59600830078125,2.929000854492188m-11.65704345703125-11.686996459960938h-4.05999755859375v20.415992736816406h4.05999755859375v-20.415992736816406Zm-23.60595703125,11.194000244140625c.4639892578125-1.827011108398438,1.6529541015625-2.697006225585938,3.30596923828125-2.697006225585938,1.71099853515625,0,2.81298828125,1.218002319335938,2.9000244140625,2.697006225585938h-6.20599365234375Zm4.031005859375,9.569992065429688c2.552001953125,0,4.552978515625-.724998474121094,5.71295166015625-1.768997192382812v-3.59600830078125c-1.3919677734375,1.189010620117188-3.19000244140625,1.943008422851562-5.0169677734375,1.943008422851562-2.7550048828125,0-4.3790283203125-1.305007934570312-4.7850341796875-3.363998413085938h10.2950439453125c.6669921875-4.755996704101562-1.6240234375-8.671005249023438-6.6409912109375-8.671005249023438-4.43701171875,0-7.42401123046875,3.4219970703125-7.42401123046875,7.742996215820312,0,4.611007690429688,3.1319580078125,7.714004516601562,7.8590087890625,7.714004516601562m-26.47705078125-7.714004516601562c0,4.43701171875,3.13201904296875,7.714004516601562,7.16302490234375,7.714004516601562,2.14599609375,0,3.85699462890625-.957000732421875,4.72698974609375-2.610000610351562v2.262001037597656h4.05999755859375v-20.415992736816406h-4.05999755859375v7.945999145507812c-.8699951171875-1.6820068359375-2.58099365234375-2.639007568359375-4.72698974609375-2.639007568359375-4.031005859375,0-7.16302490234375,3.277008056640625-7.16302490234375,7.742996215820312m8.0040283203125,4.031005859375c-2.2039794921875,0-3.885986328125-1.71099853515625-3.885986328125-4.031005859375,0-2.319992065429688,1.6820068359375-4.05999755859375,3.885986328125-4.05999755859375s3.885986328125,1.740005493164062,3.885986328125,4.05999755859375c0,2.32000732421875-1.6820068359375,4.031005859375-3.885986328125,4.031005859375" style="fill: #fff; stroke-width: 0px;"/>
      <path d="m249.292129516601562,137.16888427734375c.4639892578125-1.826995849609375,1.6529541015625-2.697006225585938,3.30596923828125-2.697006225585938,1.71099853515625,0,2.81304931640625,1.218002319335938,2.9000244140625,2.697006225585938h-6.20599365234375Zm4.031005859375,9.569992065429688c2.552001953125,0,4.552978515625-.724990844726562,5.7130126953125-1.768997192382812v-3.595993041992188c-1.39202880859375,1.188995361328125-3.1900634765625,1.9429931640625-5.01702880859375,1.9429931640625-2.7550048828125,0-4.3790283203125-1.30499267578125-4.78497314453125-3.363998413085938h10.29498291015625c.6669921875-4.755996704101562-1.6240234375-8.670989990234375-6.64105224609375-8.670989990234375-4.43695068359375,0-7.4239501953125,3.4219970703125-7.4239501953125,7.742996215820312,0,4.610992431640625,3.1319580078125,7.7139892578125,7.8590087890625,7.7139892578125m-22.2139892578125-8.003997802734375c0-2.233001708984375,1.68194580078125-3.886001586914062,3.8280029296875-3.886001586914062,2.14599609375,0,3.7989501953125,1.652999877929688,3.7989501953125,3.886001586914062s-1.6529541015625,3.886001586914062-3.7989501953125,3.886001586914062c-2.14605712890625,0-3.8280029296875-1.652999877929688-3.8280029296875-3.886001586914062m2.95794677734375,7.4530029296875c2.11700439453125,0,3.79901123046875-.899002075195312,4.66900634765625-2.522994995117188v1.30499267578125c0,2.784011840820312-1.97198486328125,4.147003173828125-4.4949951171875,4.147003173828125-1.6820068359375,0-3.65399169921875-.580001831054688-5.3070068359375-1.681991577148438v3.4219970703125c1.739990234375,1.072998046875,4.05999755859375,1.623992919921875,6.0030517578125,1.623992919921875,4.4659423828125,0,7.85894775390625-2.696990966796875,7.85894775390625-7.307998657226562v-13.542999267578125h-4.05999755859375v2.175003051757812c-.8699951171875-1.595001220703125-2.552001953125-2.522994995117188-4.66900634765625-2.522994995117188-3.97296142578125,0-7.07598876953125,3.160995483398438-7.07598876953125,7.452987670898438,0,4.292007446289062,3.10302734375,7.4530029296875,7.07598876953125,7.4530029296875m-18.5889892578125-4.320999145507812c0-1.043991088867188.8699951171875-1.768997192382812,2.23297119140625-1.768997192382812.98602294921875,0,1.94305419921875.319000244140625,2.7550048828125.84100341796875v.02899169921875c-.08697509765625,1.595001220703125-1.333984375,2.610000610351562-2.928955078125,2.610000610351562-1.24700927734375,0-2.05902099609375-.6669921875-2.05902099609375-1.71099853515625m4.98797607421875-4.205001831054688v.695999145507812c-.8699951171875-.63800048828125-2.23297119140625-1.072998046875-3.625-1.072998046875-3.10296630859375,0-5.30694580078125,1.91400146484375-5.30694580078125,4.697998046875,0,2.725997924804688,2.08795166015625,4.755996704101562,4.958984375,4.755996704101562,1.7979736328125,0,3.30596923828125-.8699951171875,3.97296142578125-2.232986450195312v1.884994506835938h4.06005859375v-8.96099853515625c0-3.625-2.87103271484375-6.147994995117188-7.0760498046875-6.147994995117188-1.7979736328125,0-3.65399169921875.492996215820312-5.04595947265625,1.565994262695312v3.595993041992188c1.2760009765625-1.072998046875,2.81298828125-1.71099853515625,4.46600341796875-1.71099853515625,2.14599609375,0,3.595947265625,1.072998046875,3.595947265625,2.929000854492188m-16.4129638671875-6.379989624023438c-2.9580078125,0-5.916015625,1.188995361328125-5.916015625,4.813995361328125,0,1.884994506835938,1.072998046875,3.567001342773438,4.20501708984375,4.205001831054688l1.6820068359375.347991943359375c1.15997314453125.232009887695312,1.5369873046875.725006103515625,1.5369873046875,1.391998291015625,0,.783004760742188-.78302001953125,1.333999633789062-2.05902099609375,1.333999633789062-1.594970703125,0-3.740966796875-.724990844726562-5.510009765625-2.058990478515625v3.625c.98602294921875.724990844726562,2.987060546875,1.797988891601562,5.510009765625,1.797988891601562,3.9730224609375,0,6.177001953125-1.71099853515625,6.177001953125-4.639984130859375,0-2.175003051757812-1.072998046875-3.944000244140625-4.031005859375-4.611007690429688l-2.08795166015625-.464004516601562c-.98602294921875-.23199462890625-1.363037109375-.695999145507812-1.363037109375-1.2760009765625,0-.753997802734375.72503662109375-1.159988403320312,1.885009765625-1.159988403320312,1.4210205078125,0,3.45098876953125.521987915039062,4.9010009765625,1.5369873046875v-3.4219970703125c-1.18902587890625-.8699951171875-3.04498291015625-1.420989990234375-4.92999267578125-1.420989990234375m-15.80499267578125,15.456985473632812c4.32098388671875,0,7.13397216796875-2.725997924804688,7.13397216796875-6.901992797851562v-8.207000732421875h-4.05999755859375v8.061996459960938c0,2.029998779296875-1.21795654296875,3.363998413085938-3.073974609375,3.363998413085938s-3.07403564453125-1.333999633789062-3.07403564453125-3.363998413085938v-8.061996459960938h-4.05999755859375v8.207000732421875c0,4.175994873046875,2.81304931640625,6.901992797851562,7.134033203125,6.901992797851562m-11.77398681640625-22.097991943359375c-1.71099853515625,0-2.92901611328125,1.160003662109375-2.92901611328125,2.871002197265625,0,1.130996704101562.58001708984375,2.029998779296875,1.45001220703125,2.464996337890625l-1.59503173828125,4.089004516601562h2.81298828125l2.14605712890625-3.654006958007812c.8409423828125-1.362991333007812,1.1309814453125-2.000991821289062,1.1309814453125-2.899993896484375,0-1.71099853515625-1.218017578125-2.871002197265625-3.0159912109375-2.871002197265625m-6.09002685546875,1.333999633789062h-4.05999755859375v20.416000366210938h4.05999755859375v-20.416000366210938Zm-23.2039794921875,11.194000244140625c.4639892578125-1.826995849609375,1.65301513671875-2.697006225585938,3.30596923828125-2.697006225585938,1.71099853515625,0,2.81298828125,1.218002319335938,2.9000244140625,2.697006225585938h-6.20599365234375Zm4.031005859375,9.569992065429688c2.552001953125,0,4.552978515625-.724990844726562,5.71295166015625-1.768997192382812v-3.595993041992188c-1.3919677734375,1.188995361328125-3.18994140625,1.9429931640625-5.0169677734375,1.9429931640625-2.7550048828125,0-4.3790283203125-1.30499267578125-4.7850341796875-3.363998413085938h10.2950439453125c.6669921875-4.755996704101562-1.6240234375-8.670989990234375-6.6409912109375-8.670989990234375-4.43701171875,0-7.42401123046875,3.4219970703125-7.42401123046875,7.742996215820312,0,4.610992431640625,3.13201904296875,7.7139892578125,7.8590087890625,7.7139892578125m-26.47698974609375-7.7139892578125c0,4.436996459960938,3.1319580078125,7.7139892578125,7.1629638671875,7.7139892578125,2.14599609375,0,3.85699462890625-.957000732421875,4.72698974609375-2.6099853515625v2.261993408203125h4.05999755859375v-20.416000366210938h-4.05999755859375v7.945999145507812c-.8699951171875-1.6820068359375-2.58099365234375-2.638992309570312-4.72698974609375-2.638992309570312-4.031005859375,0-7.1629638671875,3.276992797851562-7.1629638671875,7.742996215820312m8.00396728515625,4.030990600585938c-2.2039794921875,0-3.885986328125-1.71099853515625-3.885986328125-4.030990600585938,0-2.32000732421875,1.6820068359375-4.05999755859375,3.885986328125-4.05999755859375s3.885986328125,1.739990234375,3.885986328125,4.05999755859375c0,2.319992065429688-1.6820068359375,4.030990600585938-3.885986328125,4.030990600585938m-16.7659912109375-17.08099365234375h-4.05999755859375v20.416000366210938h4.05999755859375v-20.416000366210938Zm-14.5,20.763992309570312c4.32098388671875,0,7.13397216796875-2.725997924804688,7.13397216796875-6.901992797851562v-8.207000732421875h-4.05999755859375v8.061996459960938c0,2.029998779296875-1.21795654296875,3.363998413085938-3.073974609375,3.363998413085938s-3.07403564453125-1.333999633789062-3.07403564453125-3.363998413085938v-8.061996459960938h-4.05999755859375v8.207000732421875c0,4.175994873046875,2.81304931640625,6.901992797851562,7.134033203125,6.901992797851562m-14.26702880859375,0c1.2760009765625,0,3.218994140625-.43499755859375,4.4949951171875-1.565994262695312v-4.089004516601562c-1.10198974609375,1.2760009765625-2.63897705078125,1.972000122070312-4.2919921875,1.972000122070312-2.406982421875,0-4.26300048828125-1.71099853515625-4.26300048828125-4.030990600585938,0-2.32000732421875,1.85601806640625-4.05999755859375,4.26300048828125-4.05999755859375,1.6820068359375,0,3.10302734375.6669921875,4.20501708984375,1.91400146484375v-4.060012817382812c-1.2760009765625-1.130996704101562-3.13201904296875-1.5369873046875-4.40802001953125-1.5369873046875-4.697998046875,0-8.14898681640625,3.073989868164062-8.14898681640625,7.742996215820312,0,4.639999389648438,3.45098876953125,7.7139892578125,8.14898681640625,7.7139892578125m-20.3289794921875-9.569992065429688c.4639892578125-1.826995849609375,1.65301513671875-2.697006225585938,3.30596923828125-2.697006225585938,1.71099853515625,0,2.81304931640625,1.218002319335938,2.9000244140625,2.697006225585938h-6.20599365234375Zm4.031005859375,9.569992065429688c2.552001953125,0,4.552978515625-.724990844726562,5.7130126953125-1.768997192382812v-3.595993041992188c-1.39202880859375,1.188995361328125-3.19000244140625,1.9429931640625-5.01702880859375,1.9429931640625-2.7550048828125,0-4.37896728515625-1.30499267578125-4.78497314453125-3.363998413085938h10.29498291015625c.6669921875-4.755996704101562-1.6240234375-8.670989990234375-6.6409912109375-8.670989990234375-4.43701171875,0-7.42401123046875,3.4219970703125-7.42401123046875,7.742996215820312,0,4.610992431640625,3.13201904296875,7.7139892578125,7.8590087890625,7.7139892578125m-20.6190185546875-12.295989990234375v-4.611007690429688h3.509033203125c1.62396240234375,0,2.66796875.899002075195312,2.66796875,2.32000732421875,0,1.391998291015625-1.04400634765625,2.291000366210938-2.66796875,2.291000366210938h-3.509033203125Zm3.79901123046875-8.468002319335938h-8.03302001953125v20.416000366210938h4.2340087890625v-8.09100341796875h2.92901611328125l4.9010009765625,8.09100341796875h4.87200927734375l-5.4520263671875-8.873992919921875c1.97198486328125-1.0150146484375,3.19000244140625-2.929000854492188,3.19000244140625-5.365005493164062,0-3.654006958007812-2.72601318359375-6.177001953125-6.6409912109375-6.177001953125" style="fill: #fff; stroke-width: 0px;"/>
    </g>
  </g>
</svg>