<?xml version="1.0" encoding="UTF-8"?>
<svg id="Calque_2" data-name="Calque 2" xmlns="http://www.w3.org/2000/svg" viewBox="0 0 334.765512466430664 334.76548957824707">
  <g id="Calque_1-2" data-name="Calque 1">
    <g>
      <path d="m49.025247573852539,285.740242004394531c65.366989135742188,65.366996765136719,171.348007202148438,65.366996765136719,236.715011596679688,0s65.36700439453125-171.348014831542969,0-236.714988708496094c-65.36700439453125-65.36700439453125-171.3480224609375-65.36700439453125-236.715011596679688,0-65.366996765136719,65.366973876953125-65.366996765136719,171.347991943359375,0,236.714988708496094" style="fill: #e15028; stroke-width: 0px;"/>
      <path d="m209.577447891235352,215.397140502929688c0-4.205001831054688,1.47900390625-6.669998168945312,3.712005615234375-6.669998168945312,2.261993408203125,0,3.740997314453125,2.435997009277344,3.740997314453125,6.669998168945312s-1.47900390625,6.669998168945312-3.740997314453125,6.669998168945312c-2.233001708984375,0-3.712005615234375-2.464996337890625-3.712005615234375-6.669998168945312m3.712005615234375-10.555999755859375c-4.785003662109375,0-8.06201171875,4.205001831054688-8.06201171875,10.555999755859375s3.277008056640625,10.555999755859375,8.06201171875,10.555999755859375,8.09100341796875-4.205001831054688,8.09100341796875-10.555999755859375-3.305999755859375-10.555999755859375-8.09100341796875-10.555999755859375m-24.12799072265625,11.918998718261719c1.91400146484375-.782997131347656,3.595977783203125-1.218002319335938,5.13299560546875-1.218002319335938,2.3489990234375,0,4.031005859375,1.362998962402344,4.031005859375,3.364006042480469,0,2.000999450683594-1.537017822265625,3.363998413085938-3.712005615234375,3.363998413085938-2.204010009765625,0-3.8280029296875-.957000732421875-5.53900146484375-2.000999450683594v4.030998229980469c1.478973388671875.899002075195312,3.19000244140625,1.652999877929688,5.683990478515625,1.652999877929688,4.697998046875,0,7.9169921875-2.754997253417969,7.9169921875-6.959999084472656,0-4.26300048828125-2.63897705078125-7.047004699707031-6.756988525390625-7.047004699707031-.985992431640625,0-1.972015380859375.261001586914062-2.78399658203125.63800048828125v-3.711997985839844h8.641998291015625v-3.683006286621094h-12.614990234375v11.571006774902344Zm-14.964019775390625-1.362998962402344c0-4.205001831054688,1.47900390625-6.669998168945312,3.712005615234375-6.669998168945312,2.261993408203125,0,3.740997314453125,2.435997009277344,3.740997314453125,6.669998168945312s-1.47900390625,6.669998168945312-3.740997314453125,6.669998168945312c-2.233001708984375,0-3.712005615234375-2.464996337890625-3.712005615234375-6.669998168945312m3.712005615234375-10.555999755859375c-4.785003662109375,0-8.061996459960938,4.205001831054688-8.061996459960938,10.555999755859375s3.276992797851562,10.555999755859375,8.061996459960938,10.555999755859375,8.09100341796875-4.205001831054688,8.09100341796875-10.555999755859375-3.305999755859375-10.555999755859375-8.09100341796875-10.555999755859375m-24.33099365234375,17.371002197265625v3.392997741699219h13.513992309570312v-3.682998657226562h-7.4530029296875c5.510009765625-4.001998901367188,7.366012573242188-7.336997985839844,7.366012573242188-10.555999755859375,0-3.886001586914062-3.451004028320312-6.525001525878906-7.569000244140625-6.525001525878906-2.0880126953125,0-4.26300048828125.957000732421875-5.858001708984375,2.464996337890625v4.495002746582031c1.768997192382812-2.029998779296875,3.798995971679688-3.044998168945312,5.597000122070312-3.044998168945312,2.058990478515625,0,3.508987426757812,1.101997375488281,3.508987426757812,2.958000183105469,0,2.087997436523438-1.130996704101562,5.162002563476562-9.105987548828125,10.498001098632812m-19.6610107421875-11.368003845214844h-4.05999755859375v14.761001586914062h4.05999755859375v-7.713996887207031c0-2.146003723144531,1.305007934570312-3.683006286621094,3.102996826171875-3.683006286621094,1.798004150390625,0,3.016006469726562,1.333999633789062,3.016006469726562,3.364006042480469v8.032997131347656h4.05999755859375v-8.583999633789062c0-4.030998229980469-2.319992065429688-6.525001525878906-5.800003051757812-6.525001525878906-1.913986206054688,0-3.45098876953125.928001403808594-4.378997802734375,2.523002624511719v-2.175003051757812Zm-17.110000610351562,5.53900146484375c.464004516601562-1.827003479003906,1.652999877929688-2.696998596191406,3.305999755859375-2.696998596191406,1.71099853515625,0,2.813003540039062,1.218002319335938,2.900009155273438,2.696998596191406h-6.206008911132812Zm4.031005859375,9.569999694824219c2.552001953125,0,4.552993774414062-.724998474121094,5.712997436523438-1.768997192382812v-3.596000671386719c-1.391998291015625,1.188995361328125-3.19000244140625,1.943000793457031-5.016998291015625,1.943000793457031-2.7550048828125,0-4.378997802734375-1.305000305175781-4.785003662109375-3.364006042480469h10.294998168945312c.667007446289062-4.755996704101562-1.623992919921875-8.670997619628906-6.6409912109375-8.670997619628906-4.436996459960938,0-7.423995971679688,3.4219970703125-7.423995971679688,7.743003845214844,0,4.611000061035156,3.131988525390625,7.713996887207031,7.858993530273438,7.713996887207031" style="fill: #fff; stroke-width: 0px;"/>
      <path d="m234.241449356079102,193.604644775390625h4.147003173828125v-13.949005126953125l5.33599853515625,9.541000366210938h3.4219970703125l5.33599853515625-9.57000732421875v13.978012084960938h4.118011474609375v-20.416000366210938h-5.220001220703125l-5.94500732421875,10.961990356445312-5.9739990234375-10.961990356445312h-5.220001220703125v20.416000366210938Zm-3.6820068359375-20.416000366210938h-7.858978271484375v3.85699462890625h1.82598876953125v12.701995849609375h-1.82598876953125v3.857009887695312h7.858978271484375v-3.857009887695312h-1.798980712890625v-12.701995849609375h1.798980712890625v-3.85699462890625Zm-9.68597412109375,0h-16.41400146484375v3.85699462890625h6.118988037109375v16.559005737304688h4.2340087890625v-16.559005737304688h6.061004638671875v-3.85699462890625Zm-33.756011962890625,11.194000244140625c.4639892578125-1.827011108398438,1.652984619140625-2.697006225585938,3.305999755859375-2.697006225585938,1.71099853515625,0,2.81298828125,1.218002319335938,2.899993896484375,2.697006225585938h-6.20599365234375Zm4.031005859375,9.569992065429688c2.552001953125,0,4.552978515625-.724990844726562,5.712982177734375-1.768997192382812v-3.595993041992188c-1.391998291015625,1.188995361328125-3.19000244140625,1.9429931640625-5.016998291015625,1.9429931640625-2.7550048828125,0-4.378997802734375-1.30499267578125-4.785003662109375-3.363998413085938h10.295013427734375c.6669921875-4.755996704101562-1.623992919921875-8.671005249023438-6.6409912109375-8.671005249023438-4.43701171875,0-7.42401123046875,3.4219970703125-7.42401123046875,7.743011474609375,0,4.610992431640625,3.131988525390625,7.7139892578125,7.8590087890625,7.7139892578125m-26.477005004882812-7.7139892578125c0,4.436996459960938,3.132003784179688,7.7139892578125,7.162994384765625,7.7139892578125,2.14599609375,0,3.857009887695312-.957000732421875,4.727005004882812-2.610000610351562v2.262008666992188h4.05999755859375v-20.416000366210938h-4.05999755859375v7.945999145507812c-.8699951171875-1.6820068359375-2.581008911132812-2.639007568359375-4.727005004882812-2.639007568359375-4.030990600585938,0-7.162994384765625,3.277008056640625-7.162994384765625,7.743011474609375m8.003997802734375,4.030990600585938c-2.203994750976562,0-3.886001586914062-1.71099853515625-3.886001586914062-4.030990600585938,0-2.32000732421875,1.6820068359375-4.060012817382812,3.886001586914062-4.060012817382812s3.886001586914062,1.740005493164062,3.886001586914062,4.060012817382812c0,2.319992065429688-1.6820068359375,4.030990600585938-3.886001586914062,4.030990600585938m-23.083999633789062-1.391998291015625c0-1.246994018554688.783004760742188-2.203994750976562,1.856002807617188-2.203994750976562s1.856002807617188.957000732421875,1.856002807617188,2.203994750976562c0,1.2760009765625-.783004760742188,2.233001708984375-1.856002807617188,2.233001708984375s-1.856002807617188-.957000732421875-1.856002807617188-2.233001708984375m-13.397994995117188,4.727005004882812h3.276992797851562l12.643997192382812-20.416000366210938h-3.276992797851562l-12.643997192382812,20.416000366210938Zm-.870010375976562-15.718002319335938c0-1.24700927734375.783004760742188-2.203994750976562,1.856002807617188-2.203994750976562s1.856002807617188.956985473632812,1.856002807617188,2.203994750976562c0,1.2760009765625-.783004760742188,2.233001708984375-1.856002807617188,2.233001708984375s-1.856002807617188-.957000732421875-1.856002807617188-2.233001708984375m-3.305999755859375,0c0,2.899993896484375,2.204010009765625,5.074996948242188,5.162002563476562,5.074996948242188,2.9580078125,0,5.190994262695312-2.175003051757812,5.190994262695312-5.074996948242188,0-2.900009155273438-2.232986450195312-5.046005249023438-5.190994262695312-5.046005249023438-2.957992553710938,0-5.162002563476562,2.14599609375-5.162002563476562,5.046005249023438m19.430007934570312,5.944992065429688c-2.9580078125,0-5.162002563476562,2.146011352539062-5.162002563476562,5.046005249023438s2.203994750976562,5.074996948242188,5.162002563476562,5.074996948242188c2.957992553710938,0,5.190994262695312-2.175003051757812,5.190994262695312-5.074996948242188s-2.233001708984375-5.046005249023438-5.190994262695312-5.046005249023438m-33.175003051757812-.43499755859375c0-4.205001831054688,1.47900390625-6.669998168945312,3.712005615234375-6.669998168945312,2.261993408203125,0,3.740997314453125,2.436004638671875,3.740997314453125,6.669998168945312,0,4.2340087890625-1.47900390625,6.669998168945312-3.740997314453125,6.669998168945312-2.233001708984375,0-3.712005615234375-2.464996337890625-3.712005615234375-6.669998168945312m3.712005615234375-10.555999755859375c-4.785003662109375,0-8.06201171875,4.205001831054688-8.06201171875,10.555999755859375s3.277008056640625,10.555999755859375,8.06201171875,10.555999755859375c4.784988403320312,0,8.090988159179688-4.205001831054688,8.090988159179688-10.555999755859375s-3.305999755859375-10.555999755859375-8.090988159179688-10.555999755859375m-20.590011596679688,5.94500732421875c0-1.2760009765625,1.072998046875-2.262008666992188,2.52301025390625-2.262008666992188,1.391998291015625,0,2.493988037109375.986007690429688,2.493988037109375,2.262008666992188s-1.10198974609375,2.203994750976562-2.493988037109375,2.203994750976562c-1.45001220703125,0-2.52301025390625-.927993774414062-2.52301025390625-2.203994750976562m-4.92999267578125,8.815994262695312c0,3.712005615234375,3.19000244140625,6.350997924804688,7.4530029296875,6.350997924804688,4.233993530273438,0,7.423995971679688-2.638992309570312,7.423995971679688-6.350997924804688,0-2.11700439453125-1.2760009765625-3.85699462890625-3.248001098632812-4.871994018554688,1.50799560546875-.928009033203125,2.464996337890625-2.378005981445312,2.464996337890625-4.118011474609375,0-3.392990112304688-2.871002197265625-5.77099609375-6.6409912109375-5.77099609375-3.8280029296875,0-6.670013427734375,2.378005981445312-6.670013427734375,5.77099609375,0,1.740005493164062.957000732421875,3.19000244140625,2.465011596679688,4.118011474609375-2.001007080078125,1.014999389648438-3.248001098632812,2.754989624023438-3.248001098632812,4.871994018554688m7.4530029296875-3.044998168945312c1.884994506835938,0,3.305999755859375,1.246994018554688,3.305999755859375,2.841995239257812,0,1.624008178710938-1.421005249023438,2.871002197265625-3.305999755859375,2.871002197265625-1.91400146484375,0-3.335006713867188-1.246994018554688-3.335006713867188-2.871002197265625,0-1.595001220703125,1.421005249023438-2.841995239257812,3.335006713867188-2.841995239257812m-13.6300048828125,0h-13.136993408203125v3.625h13.136993408203125v-3.625Z" style="fill: #fff; stroke-width: 0px;"/>
      <path d="m225.063745498657227,152.383132934570312c.464019775390625-1.826995849609375,1.652008056640625-2.696990966796875,3.3060302734375-2.696990966796875,1.71099853515625,0,2.81298828125,1.218002319335938,2.899993896484375,2.696990966796875h-6.206024169921875Zm4.030029296875,9.57000732421875c2.552001953125,0,4.553985595703125-.725006103515625,5.7139892578125-1.768997192382812v-3.59600830078125c-1.391998291015625,1.189010620117188-3.191009521484375,1.943008422851562-5.016998291015625,1.943008422851562-2.7550048828125,0-4.378997802734375-1.305007934570312-4.785003662109375-3.363998413085938h10.29498291015625c.6669921875-4.755996704101562-1.623992919921875-8.671005249023438-6.6419677734375-8.671005249023438-4.43603515625,0-7.42303466796875,3.4219970703125-7.42303466796875,7.742996215820312,0,4.611007690429688,3.131011962890625,7.714004516601562,7.8580322265625,7.714004516601562m-20.50201416015625-15.108993530273438h-4.05999755859375v14.761001586914062h4.05999755859375v-7.714004516601562c0-2.14599609375,1.30499267578125-3.682998657226562,3.102996826171875-3.682998657226562s3.0159912109375,1.333999633789062,3.0159912109375,3.363998413085938v8.033004760742188h4.060028076171875v-8.584014892578125c0-4.030990600585938-2.32000732421875-6.524993896484375-5.800018310546875-6.524993896484375-1.91400146484375,0-3.45098876953125.928009033203125-4.378997802734375,2.522994995117188v-2.17498779296875Zm-18.5889892578125,7.394989013671875c0-2.319992065429688,1.681976318359375-4.05999755859375,3.885986328125-4.05999755859375s3.885986328125,1.740005493164062,3.885986328125,4.05999755859375c0,2.32000732421875-1.681976318359375,4.031005859375-3.885986328125,4.031005859375s-3.885986328125-1.71099853515625-3.885986328125-4.031005859375m3.885986328125,7.714004516601562c4.4949951171875,0,8.003997802734375-3.363998413085938,8.003997802734375-7.714004516601562,0-4.407989501953125-3.509002685546875-7.742996215820312-8.003997802734375-7.742996215820312-4.52398681640625,0-8.003997802734375,3.335006713867188-8.003997802734375,7.742996215820312,0,4.350006103515625,3.480010986328125,7.714004516601562,8.003997802734375,7.714004516601562m-21.662994384765625-7.714004516601562c0-2.319992065429688,1.681991577148438-4.05999755859375,3.885986328125-4.05999755859375,2.204010009765625,0,3.886016845703125,1.740005493164062,3.886016845703125,4.05999755859375,0,2.32000732421875-1.6820068359375,4.031005859375-3.886016845703125,4.031005859375-2.203994750976562,0-3.885986328125-1.71099853515625-3.885986328125-4.031005859375m4.72698974609375,7.714004516601562c4.00201416015625,0,7.162994384765625-3.277008056640625,7.162994384765625-7.714004516601562,0-4.465988159179688-3.160980224609375-7.742996215820312-7.162994384765625-7.742996215820312-2.14599609375,0-3.8280029296875.928009033203125-4.72698974609375,2.58099365234375v-7.887985229492188h-4.05999755859375v20.416000366210938h4.05999755859375v-2.233001708984375c.89898681640625,1.652999877929688,2.58099365234375,2.58099365234375,4.72698974609375,2.58099365234375m-21.31500244140625-.347991943359375h4.060012817382812v-6.61199951171875c.02899169921875-2.900009155273438,1.71099853515625-4.727005004882812,3.85699462890625-4.727005004882812.753997802734375,0,1.681991577148438.145004272460938,2.494003295898438.63800048828125v-3.857009887695312c-.695999145507812-.376998901367188-1.537002563476562-.550994873046875-2.261993408203125-.550994873046875-1.972015380859375,0-3.5670166015625,1.421005249023438-4.089004516601562,3.363998413085938v-3.0159912109375h-4.060012817382812v14.761001586914062Zm-12.381988525390625-4.524002075195312c0-1.04400634765625.8699951171875-1.769012451171875,2.233001708984375-1.769012451171875.985992431640625,0,1.9429931640625.319000244140625,2.754989624023438.84100341796875v.029006958007812c-.086990356445312,1.595001220703125-1.333999633789062,2.610000610351562-2.929000854492188,2.610000610351562-1.246994018554688,0-2.058990478515625-.667007446289062-2.058990478515625-1.71099853515625m4.987991333007812-4.205001831054688v.695999145507812c-.8699951171875-.63800048828125-2.232986450195312-1.072998046875-3.625-1.072998046875-3.102996826171875,0-5.306991577148438,1.91400146484375-5.306991577148438,4.697998046875,0,2.725997924804688,2.087997436523438,4.755996704101562,4.958999633789062,4.755996704101562,1.797988891601562,0,3.305999755859375-.8699951171875,3.972991943359375-2.233001708984375v1.885009765625h4.060012817382812v-8.961013793945312c0-3.625-2.871002197265625-6.147994995117188-7.076004028320312-6.147994995117188-1.798004150390625,0-3.654006958007812.492996215820312-5.046005249023438,1.565994262695312v3.59600830078125c1.2760009765625-1.072998046875,2.813003540039062-1.71099853515625,4.46600341796875-1.71099853515625,2.14599609375,0,3.595993041992188,1.072998046875,3.595993041992188,2.929000854492188m-15.485992431640625,9.076995849609375c1.2760009765625,0,3.218994140625-.43499755859375,4.4949951171875-1.565994262695312v-4.089004516601562c-1.102005004882812,1.2760009765625-2.638992309570312,1.972000122070312-4.2919921875,1.972000122070312-2.406997680664062,0-4.26300048828125-1.71099853515625-4.26300048828125-4.031005859375,0-2.319992065429688,1.856002807617188-4.05999755859375,4.26300048828125-4.05999755859375,1.681991577148438,0,3.102996826171875.667007446289062,4.205001831054688,1.91400146484375v-4.05999755859375c-1.2760009765625-1.130996704101562-3.132003784179688-1.537002563476562-4.408004760742188-1.537002563476562-4.697998046875,0-8.149002075195312,3.074005126953125-8.149002075195312,7.742996215820312,0,4.639999389648438,3.451004028320312,7.714004516601562,8.149002075195312,7.714004516601562m-28.652008056640625-10.555999755859375c0-4.205001831054688,1.47900390625-6.669998168945312,3.712005615234375-6.669998168945312,2.261993408203125,0,3.740997314453125,2.436004638671875,3.740997314453125,6.669998168945312s-1.47900390625,6.669998168945312-3.740997314453125,6.669998168945312c-2.233001708984375,0-3.712005615234375-2.464996337890625-3.712005615234375-6.669998168945312m3.712005615234375-10.555999755859375c-4.785003662109375,0-8.061996459960938,4.205001831054688-8.061996459960938,10.555999755859375s3.276992797851562,10.555999755859375,8.061996459960938,10.555999755859375,8.09100341796875-4.205001831054688,8.09100341796875-10.555999755859375-3.305999755859375-10.555999755859375-8.09100341796875-10.555999755859375" style="fill: #fff; stroke-width: 0px;"/>
      <path d="m214.913476943969727,114.177139282226562v.667007446289062h-2.378021240234375v3.363998413085938h2.378021240234375v11.396987915039062h4.05999755859375v-11.396987915039062h4.9010009765625v-3.363998413085938h-4.9010009765625v-.464004516601562c0-2.059005737304688,1.217987060546875-2.929000854492188,2.493988037109375-2.929000854492188,1.04400634765625,0,1.769012451171875.261001586914062,2.407012939453125.63800048828125v-3.538009643554688c-1.04400634765625-.43499755859375-2.175018310546875-.6669921875-3.13201904296875-.6669921875-3.305999755859375,0-5.8289794921875,2.029998779296875-5.8289794921875,6.292999267578125m-9.3380126953125-3.567001342773438c0,1.333999633789062,1.04400634765625,2.464996337890625,2.493988037109375,2.464996337890625,1.420989990234375,0,2.52301025390625-1.130996704101562,2.52301025390625-2.464996337890625s-1.102020263671875-2.494003295898438-2.52301025390625-2.494003295898438c-1.449981689453125,0-2.493988037109375,1.160003662109375-2.493988037109375,2.494003295898438m4.552978515625,4.2340087890625h-4.05999755859375v14.760986328125h4.05999755859375v-14.760986328125Zm-15.427978515625-3.973007202148438v3.973007202148438h-2.37799072265625v3.363998413085938h2.37799072265625v5.480987548828125c0,4.26300048828125,2.52301025390625,6.264007568359375,5.8289794921875,6.264007568359375.95703125,0,2.0880126953125-.2030029296875,3.13201904296875-.63800048828125v-3.537994384765625c-.63800048828125.347991943359375-1.363006591796875.63800048828125-2.407012939453125.63800048828125-1.2760009765625,0-2.464996337890625-.870010375976562-2.464996337890625-2.9580078125v-5.248992919921875h4.87200927734375v-3.363998413085938h-4.87200927734375v-3.973007202148438h-4.0889892578125Zm-8.322998046875,19.082000732421875c1.2760009765625,0,3.218994140625-.43499755859375,4.4949951171875-1.565994262695312v-4.089004516601562c-1.10198974609375,1.2760009765625-2.639007568359375,1.972000122070312-4.2919921875,1.972000122070312-2.407012939453125,0-4.26300048828125-1.71099853515625-4.26300048828125-4.031005859375,0-2.319992065429688,1.855987548828125-4.05999755859375,4.26300048828125-4.05999755859375,1.6820068359375,0,3.102996826171875.667007446289062,4.204986572265625,1.91400146484375v-4.05999755859375c-1.2760009765625-1.130996704101562-3.131988525390625-1.537002563476562-4.407989501953125-1.537002563476562-4.697998046875,0-8.149017333984375,3.074005126953125-8.149017333984375,7.742996215820312,0,4.639999389648438,3.451019287109375,7.714004516601562,8.149017333984375,7.714004516601562m-20.3280029296875-9.57000732421875c.4639892578125-1.826995849609375,1.652999877929688-2.696990966796875,3.305999755859375-2.696990966796875,1.71099853515625,0,2.81298828125,1.218002319335938,2.899993896484375,2.696990966796875h-6.20599365234375Zm4.030990600585938,9.57000732421875c2.552001953125,0,4.553009033203125-.725006103515625,5.712997436523438-1.768997192382812v-3.59600830078125c-1.391998291015625,1.189010620117188-3.19000244140625,1.943008422851562-5.016998291015625,1.943008422851562-2.754989624023438,0-4.378997802734375-1.305007934570312-4.785003662109375-3.363998413085938h10.295013427734375c.6669921875-4.755996704101562-1.624008178710938-8.671005249023438-6.641006469726562-8.671005249023438-4.436996459960938,0-7.423995971679688,3.4219970703125-7.423995971679688,7.742996215820312,0,4.611007690429688,3.131988525390625,7.714004516601562,7.858993530273438,7.714004516601562m-15.13800048828125-19.343002319335938c0,1.333999633789062,1.04400634765625,2.464996337890625,2.494003295898438,2.464996337890625,1.421005249023438,0,2.52301025390625-1.130996704101562,2.52301025390625-2.464996337890625s-1.102005004882812-2.494003295898438-2.52301025390625-2.494003295898438c-1.449996948242188,0-2.494003295898438,1.160003662109375-2.494003295898438,2.494003295898438m4.611007690429688,4.2340087890625h-4.05999755859375v15.514999389648438c0,1.072998046875-.493011474609375,1.826995849609375-1.595001220703125,1.826995849609375-.232009887695312,0-.6090087890625-.057998657226562-.84100341796875-.145004272460938l-.029006958007812,3.4219970703125c.348007202148438.145004272460938,1.04400634765625.232009887695312,1.6820068359375.232009887695312,3.19000244140625,0,4.843002319335938-1.972000122070312,4.843002319335938-5.162002563476562v-15.688995361328125Zm-18.617996215820312,7.394989013671875c0-2.319992065429688,1.681991577148438-4.05999755859375,3.886001586914062-4.05999755859375,2.203994750976562,0,3.885986328125,1.740005493164062,3.885986328125,4.05999755859375,0,2.32000732421875-1.681991577148438,4.031005859375-3.885986328125,4.031005859375-2.204010009765625,0-3.886001586914062-1.71099853515625-3.886001586914062-4.031005859375m4.72698974609375,7.714004516601562c4.001998901367188,0,7.163009643554688-3.276992797851562,7.163009643554688-7.714004516601562,0-4.465988159179688-3.1610107421875-7.742996215820312-7.163009643554688-7.742996215820312-2.14599609375,0-3.827987670898438.927993774414062-4.72698974609375,2.58099365234375v-7.88800048828125h-4.060012817382812v20.416000366210938h4.060012817382812v-2.232986450195312c.899002075195312,1.652999877929688,2.58099365234375,2.58099365234375,4.72698974609375,2.58099365234375m-28.767990112304688-10.527008056640625c0-3.85699462890625,2.754989624023438-6.698989868164062,6.524993896484375-6.698989868164062s6.524993896484375,2.841995239257812,6.524993896484375,6.698989868164062c0,3.8280029296875-2.754989624023438,6.641006469726562-6.524993896484375,6.641006469726562s-6.524993896484375-2.813003540039062-6.524993896484375-6.641006469726562m6.524993896484375,10.527008056640625c6.20599365234375,0,10.904006958007812-4.524002075195312,10.904006958007812-10.527008056640625,0-6.031997680664062-4.698013305664062-10.584991455078125-10.904006958007812-10.584991455078125-6.177001953125,0-10.904006958007812,4.552993774414062-10.904006958007812,10.584991455078125,0,6.003005981445312,4.727005004882812,10.527008056640625,10.904006958007812,10.527008056640625" style="fill: #fff; stroke-width: 0px;"/>
    </g>
  </g>
</svg>
