<?xml version="1.0" encoding="UTF-8"?>
<svg id="Calque_2" data-name="Calque 2" xmlns="http://www.w3.org/2000/svg" viewBox="0 0 273.011844650384774 273.01183823862084">
  <g id="Calque_1-2" data-name="Calque 1">
    <g>
      <path d="m18.90691878846701,205.776921033588224c38.256988525390625,64.947998046875,121.9219970703125,86.584999084472656,186.8699951171875,48.327999114990234,64.948028564453125-38.256999969482422,86.584991455078125-121.922000885009766,48.328033447265625-186.870014190673828C215.84692122987326,2.28690791102963,132.18291976502951-19.350085497173495,67.23492171815451,18.906933545795255,2.28692367127951,57.16392207118588-19.350084995712677,140.828930616107755,18.90691878846701,205.776921033588224" style="fill: #72ab9d; stroke-width: 0px;"/>
      <path d="m204.765713954482635,134.85581660243588h-4.6199951171875v16.797004699707031h4.6199951171875v-8.777992248535156c0-2.442001342773438,1.485015869140625-4.191009521484375,3.531005859375-4.191009521484375,2.0460205078125,0,3.4320068359375,1.51800537109375,3.4320068359375,3.8280029296875v9.140998840332031h4.6199951171875v-9.767997741699219c0-4.587005615234375-2.639984130859375-7.425003051757812-6.5999755859375-7.425003051757812-2.178009033203125,0-3.927001953125,1.055999755859375-4.9830322265625,2.871002197265625v-2.475006103515625Zm-21.152984619140625,8.415008544921875c0-2.639999389648438,1.91400146484375-4.620010375976562,4.422027587890625-4.620010375976562,2.50799560546875,0,4.4219970703125,1.980010986328125,4.4219970703125,4.620010375976562s-1.91400146484375,4.586997985839844-4.4219970703125,4.586997985839844c-2.508026123046875,0-4.422027587890625-1.946998596191406-4.422027587890625-4.586997985839844m4.422027587890625,8.777999877929688c5.114990234375,0,9.10797119140625-3.8280029296875,9.10797119140625-8.777999877929688,0-5.016006469726562-3.99298095703125-8.811004638671875-9.10797119140625-8.811004638671875-5.14801025390625,0-9.1080322265625,3.794998168945312-9.1080322265625,8.811004638671875,0,4.949996948242188,3.96002197265625,8.777999877929688,9.1080322265625,8.777999877929688m-17.292022705078125-22.011001586914062c0,1.51800537109375,1.188018798828125,2.80499267578125,2.8380126953125,2.80499267578125,1.616973876953125,0,2.871002197265625-1.2869873046875,2.871002197265625-2.80499267578125s-1.2540283203125-2.837997436523438-2.871002197265625-2.837997436523438c-1.649993896484375,0-2.8380126953125,1.319992065429688-2.8380126953125,2.837997436523438m5.180999755859375,4.8179931640625h-4.6199951171875v16.797004699707031h4.6199951171875v-16.797004699707031Zm-17.555999755859375-4.52099609375v4.52099609375h-2.70599365234375v3.8280029296875h2.70599365234375v6.23699951171875c0,4.851005554199219,2.871002197265625,7.128005981445312,6.63299560546875,7.128005981445312,1.089019775390625,0,2.376007080078125-.231002807617188,3.563995361328125-.726005554199219v-4.0260009765625c-.725982666015625.396003723144531-1.550994873046875.726005554199219-2.738983154296875.726005554199219-1.451995849609375,0-2.805023193359375-.990005493164062-2.805023193359375-3.365997314453125v-5.973007202148438h5.54400634765625v-3.8280029296875h-5.54400634765625v-4.52099609375h-4.652984619140625Zm-14.949005126953125,16.169998168945312c0-1.187995910644531.989990234375-2.01300048828125,2.541015625-2.01300048828125,1.12200927734375,0,2.21099853515625.363006591796875,3.135009765625.957000732421875v.033004760742188c-.0989990234375,1.814994812011719-1.51800537109375,2.970001220703125-3.3330078125,2.970001220703125-1.41900634765625,0-2.343017578125-.759002685546875-2.343017578125-1.947006225585938m5.676025390625-4.785003662109375v.792007446289062c-.990020751953125-.725997924804688-2.541015625-1.22100830078125-4.125-1.22100830078125-3.531005859375,0-6.03900146484375,2.178009033203125-6.03900146484375,5.34600830078125,0,3.101997375488281,2.3759765625,5.412002563476562,5.642974853515625,5.412002563476562,2.045989990234375,0,3.761993408203125-.990005493164062,4.521026611328125-2.541000366210938v2.144996643066406h4.6199951171875v-10.196998596191406c0-4.125-3.26702880859375-6.996002197265625-8.052001953125-6.996002197265625-2.0460205078125,0-4.15802001953125.561004638671875-5.74200439453125,1.781997680664062v4.091995239257812c1.451995849609375-1.220993041992188,3.20098876953125-1.946990966796875,5.082000732421875-1.946990966796875,2.441986083984375,0,4.092010498046875,1.220993041992188,4.092010498046875,3.332992553710938m-21.1190185546875,10.329010009765625c4.9169921875,0,8.118011474609375-3.102005004882812,8.118011474609375-7.85400390625v-9.339004516601562h-4.621002197265625v9.17401123046875c0,2.309989929199219-1.385009765625,3.827995300292969-3.49700927734375,3.827995300292969s-3.498992919921875-1.51800537109375-3.498992919921875-3.827995300292969v-9.17401123046875h-4.6199951171875v9.339004516601562c0,4.751998901367188,3.20098876953125,7.85400390625,8.118988037109375,7.85400390625m-11.8800048828125-23.628005981445312h-4.6199951171875v23.232002258300781h4.6199951171875v-23.232002258300781Zm-18.71099853515625,18.083999633789062c0-1.187995910644531.989990234375-2.01300048828125,2.541015625-2.01300048828125,1.121978759765625,0,2.21099853515625.363006591796875,3.134979248046875.957000732421875v.033004760742188c-.0989990234375,1.814994812011719-1.517974853515625,2.970001220703125-3.332977294921875,2.970001220703125-1.41900634765625,0-2.343017578125-.759002685546875-2.343017578125-1.947006225585938m5.675994873046875-4.785003662109375v.792007446289062c-.989990234375-.725997924804688-2.540985107421875-1.22100830078125-4.125-1.22100830078125-3.530975341796875,0-6.03900146484375,2.178009033203125-6.03900146484375,5.34600830078125,0,3.101997375488281,2.376007080078125,5.412002563476562,5.64300537109375,5.412002563476562,2.045989990234375,0,3.761993408203125-.990005493164062,4.52099609375-2.541000366210938v2.144996643066406h4.620025634765625v-10.196998596191406c0-4.125-3.26702880859375-6.996002197265625-8.052001953125-6.996002197265625-2.0460205078125,0-4.15802001953125.561004638671875-5.74200439453125,1.781997680664062v4.091995239257812c1.451995849609375-1.220993041992188,3.20098876953125-1.946990966796875,5.082000732421875-1.946990966796875,2.441986083984375,0,4.09197998046875,1.220993041992188,4.09197998046875,3.332992553710938m-21.944000244140625,9.933006286621094h3.761016845703125l7.425994873046875-16.797004699707031h-5.016998291015625l-4.28900146484375,10.758003234863281-4.2239990234375-10.758003234863281h-5.082000732421875l7.42498779296875,16.797004699707031Zm-18.71099853515625-25.146003723144531h4.25701904296875l3.39898681640625-4.4219970703125h-5.082000732421875l-2.574005126953125,4.4219970703125Zm-4.9169921875,25.146003723144531h16.07098388671875v-4.388999938964844h-11.25299072265625v-5.54400634765625h8.613006591796875v-4.388992309570312h-8.613006591796875v-4.52099609375h10.46099853515625v-4.389007568359375h-15.27899169921875v23.232002258300781Z" style="fill: #fff; stroke-width: 0px;"/>
    </g>
  </g>
</svg>
