<?xml version="1.0" encoding="UTF-8"?>
<svg id="Calque_2" data-name="Calque 2" xmlns="http://www.w3.org/2000/svg" viewBox="0 0 398.968994140625 398.968017578125909">
  <g id="Calque_1-2" data-name="Calque 1">
    <g>
      <path d="m398.968994140625,199.4840087890625C398.968994140625,89.31201171875,309.657012939453125,0,199.485000610351562,0S0,89.31201171875,0,199.4840087890625s89.31298828125,199.484008789063409,199.485000610351562,199.484008789063409,199.483993530273438-89.312011718750909,199.483993530273438-199.484008789063409" style="fill: #234f41; stroke-width: 0px;"/>
      <path d="m291.305694580078125,215.333526611328125c-3.365997314453125,0-6.73199462890625,1.352996826171875-6.73199462890625,5.477996826171875,0,2.144989013671875,1.22100830078125,4.058990478515625,4.785003662109375,4.785003662109375l1.91400146484375.39599609375c1.319976806640625.264007568359375,1.748992919921875.82501220703125,1.748992919921875,1.584014892578125,0,.8909912109375-.8909912109375,1.517974853515625-2.342987060546875,1.517974853515625-1.81500244140625,0-4.25701904296875-.824981689453125-6.27001953125-2.342987060546875v4.125c1.12200927734375.82501220703125,3.399017333984375,2.045989990234375,6.27001953125,2.045989990234375,4.52099609375,0,7.02899169921875-1.946990966796875,7.02899169921875-5.279998779296875,0-2.4749755859375-1.22100830078125-4.48797607421875-4.587005615234375-5.246978759765625l-2.376007080078125-.52801513671875c-1.121978759765625-.264007568359375-1.550994873046875-.7919921875-1.550994873046875-1.451995849609375,0-.858001708984375.82501220703125-1.32000732421875,2.144989013671875-1.32000732421875,1.61700439453125,0,3.927001953125.593994140625,5.5770263671875,1.748992919921875v-3.89398193359375c-1.35302734375-.989990234375-3.46502685546875-1.61700439453125-5.610015869140625-1.61700439453125m-20.954010009765625,6.699005126953125c.52801513671875-2.079010009765625,1.881011962890625-3.069000244140625,3.76202392578125-3.069000244140625,1.946990966796875,0,3.20098876953125,1.385986328125,3.29998779296875,3.069000244140625h-7.06201171875Zm4.587005615234375,10.889984130859375c2.90399169921875,0,5.180999755859375-.824981689453125,6.501007080078125-2.01300048828125v-4.09197998046875c-1.584014892578125,1.352996826171875-3.6300048828125,2.21099853515625-5.709014892578125,2.21099853515625-3.134979248046875,0-4.98297119140625-1.485015869140625-5.444976806640625-3.8280029296875h11.714996337890625c.759002685546875-5.412017822265625-1.847991943359375-9.86700439453125-7.5570068359375-9.86700439453125-5.04901123046875,0-8.447998046875,3.894012451171875-8.447998046875,8.811004638671875,0,5.24700927734375,3.563995361328125,8.777984619140625,8.9429931640625,8.777984619140625m-19.8330078125,0c4.917022705078125,0,8.118011474609375-3.10198974609375,8.118011474609375-7.85400390625v-9.3389892578125h-4.6199951171875v9.17401123046875c0,2.30999755859375-1.386016845703125,3.8280029296875-3.498016357421875,3.8280029296875s-3.49798583984375-1.51800537109375-3.49798583984375-3.8280029296875v-9.17401123046875h-4.6199951171875v9.3389892578125c0,4.75201416015625,3.20098876953125,7.85400390625,8.11798095703125,7.85400390625m-25.343994140625-8.777984619140625c0-2.6400146484375,1.91400146484375-4.6199951171875,4.422012329101562-4.6199951171875s4.421981811523438,1.97998046875,4.421981811523438,4.6199951171875c0,2.639984130859375-1.913970947265625,4.587005615234375-4.421981811523438,4.587005615234375s-4.422012329101562-1.947021484375-4.422012329101562-4.587005615234375m3.465011596679688,8.777984619140625c2.442001342773438,0,4.388992309570312-1.0889892578125,5.378982543945312-2.970001220703125v9.108001708984375h4.620025634765625v-23.33099365234375h-4.620025634765625v2.60699462890625c-.989990234375-1.91400146484375-2.936981201171875-3.00299072265625-5.378982543945312-3.00299072265625-4.587005615234375,0-8.1510009765625,3.72900390625-8.1510009765625,8.811004638671875,0,5.048980712890625,3.563995361328125,8.777984619140625,8.1510009765625,8.777984619140625m-16.335006713867188-22.010986328125c0,1.51800537109375,1.188003540039062,2.80499267578125,2.8380126953125,2.80499267578125,1.616989135742188,0,2.871002197265625-1.2869873046875,2.871002197265625-2.80499267578125s-1.254013061523438-2.8380126953125-2.871002197265625-2.8380126953125c-1.650009155273438,0-2.8380126953125,1.32000732421875-2.8380126953125,2.8380126953125m5.180999755859375,4.8179931640625h-12.2760009765625v-.527984619140625c0-2.343017578125,1.386001586914062-3.3330078125,2.8380126953125-3.3330078125,1.18798828125,0,2.01300048828125.2969970703125,2.738983154296875.725982666015625v-4.0260009765625c-1.18798828125-.4949951171875-2.474990844726562-.75897216796875-3.563995361328125-.75897216796875-3.761993408203125,0-6.63299560546875,2.30999755859375-6.63299560546875,7.160980224609375v.759002685546875h-2.70599365234375v3.8280029296875h2.70599365234375v12.968994140625h4.6199951171875v-12.968994140625h7.656005859375v12.968994140625h4.6199951171875v-16.7969970703125Zm-27.522003173828125-4.8179931640625c0,1.51800537109375,1.188018798828125,2.80499267578125,2.8380126953125,2.80499267578125,1.61700439453125,0,2.871002197265625-1.2869873046875,2.871002197265625-2.80499267578125s-1.253997802734375-2.8380126953125-2.871002197265625-2.8380126953125c-1.649993896484375,0-2.8380126953125,1.32000732421875-2.8380126953125,2.8380126953125m5.180999755859375,4.8179931640625h-4.6199951171875v16.7969970703125h4.6199951171875v-16.7969970703125Zm-17.55499267578125-4.52099609375v4.52099609375h-2.70599365234375v3.8280029296875h2.70599365234375v6.23699951171875c0,4.85101318359375,2.871002197265625,7.12799072265625,6.63299560546875,7.12799072265625,1.089004516601562,0,2.376007080078125-.230987548828125,3.563995361328125-.725982666015625v-4.0260009765625c-.725982666015625.39599609375-1.550994873046875.725982666015625-2.738983154296875.725982666015625-1.452011108398438,0-2.805007934570312-.989990234375-2.805007934570312-3.365997314453125v-5.972991943359375h5.543991088867188v-3.8280029296875h-5.543991088867188v-4.52099609375h-4.652999877929688Zm-16.235992431640625,4.52099609375h-4.620010375976562v16.7969970703125h4.620010375976562v-8.777984619140625c0-2.4420166015625,1.4849853515625-4.191009521484375,3.530990600585938-4.191009521484375s3.431991577148438,1.51800537109375,3.431991577148438,3.8280029296875v9.1409912109375h4.620010375976562v-9.76800537109375c0-4.58697509765625-2.639999389648438-7.42498779296875-6.599990844726562-7.42498779296875-2.178009033203125,0-3.927001953125,1.055999755859375-4.983001708984375,2.871002197265625v-2.475006103515625Zm-19.470001220703125,6.303009033203125c.527984619140625-2.079010009765625,1.880996704101562-3.069000244140625,3.761993408203125-3.069000244140625,1.947006225585938,0,3.201004028320312,1.385986328125,3.300003051757812,3.069000244140625h-7.061996459960938Zm4.586990356445312,10.889984130859375c2.904006958007812,0,5.180999755859375-.824981689453125,6.501007080078125-2.01300048828125v-4.09197998046875c-1.583999633789062,1.352996826171875-3.6300048828125,2.21099853515625-5.708999633789062,2.21099853515625-3.135009765625,0-4.983001708984375-1.485015869140625-5.44500732421875-3.8280029296875h11.714996337890625c.759002685546875-5.412017822265625-1.847991943359375-9.86700439453125-7.556991577148438-9.86700439453125-5.048995971679688,0-8.447998046875,3.894012451171875-8.447998046875,8.811004638671875,0,5.24700927734375,3.563995361328125,8.777984619140625,8.9429931640625,8.777984619140625m-17.159988403320312-22.010986328125c0,1.51800537109375,1.18798828125,2.80499267578125,2.837997436523438,2.80499267578125,1.616989135742188,0,2.870986938476562-1.2869873046875,2.870986938476562-2.80499267578125s-1.253997802734375-2.8380126953125-2.870986938476562-2.8380126953125c-1.650009155273438,0-2.837997436523438,1.32000732421875-2.837997436523438,2.8380126953125m5.180999755859375,4.8179931640625h-4.620010375976562v16.7969970703125h4.620010375976562v-16.7969970703125Zm-13.001007080078125,17.1929931640625c1.451995849609375,0,3.662994384765625-.4949951171875,5.115005493164062-1.781982421875v-4.65301513671875c-1.254013061523438,1.451995849609375-3.003005981445312,2.2440185546875-4.884002685546875,2.2440185546875-2.739006042480469,0-4.851005554199219-1.947021484375-4.851005554199219-4.587005615234375,0-2.6400146484375,2.11199951171875-4.6199951171875,4.851005554199219-4.6199951171875,1.91400146484375,0,3.530990600585938.759002685546875,4.784988403320312,2.177978515625v-4.6199951171875c-1.451995849609375-1.2869873046875-3.563995361328125-1.748992919921875-5.0159912109375-1.748992919921875-5.346000671386719,0-9.273002624511719,3.49798583984375-9.273002624511719,8.811004638671875,0,5.279998779296875,3.927001953125,8.777984619140625,9.273002624511719,8.777984619140625m-17.721000671386719-17.5889892578125c-3.365997314453125,0-6.732002258300781,1.352996826171875-6.732002258300781,5.477996826171875,0,2.144989013671875,1.221000671386719,4.058990478515625,4.785003662109375,4.785003662109375l1.91400146484375.39599609375c1.319999694824219.264007568359375,1.749000549316406.82501220703125,1.749000549316406,1.584014892578125,0,.8909912109375-.891006469726562,1.517974853515625-2.343002319335938,1.517974853515625-1.81500244140625,0-4.257003784179688-.824981689453125-6.270004272460938-2.342987060546875v4.125c1.122001647949219.82501220703125,3.399002075195312,2.045989990234375,6.270004272460938,2.045989990234375,4.52099609375,0,7.028999328613281-1.946990966796875,7.028999328613281-5.279998779296875,0-2.4749755859375-1.221000671386719-4.48797607421875-4.586997985839844-5.246978759765625l-2.375999450683594-.52801513671875c-1.122001647949219-.264007568359375-1.551002502441406-.7919921875-1.551002502441406-1.451995849609375,0-.858001708984375.824996948242188-1.32000732421875,2.144996643066406-1.32000732421875,1.61700439453125,0,3.927001953125.593994140625,5.577003479003906,1.748992919921875v-3.89398193359375c-1.353004455566406-.989990234375-3.465003967285156-1.61700439453125-5.610000610351562-1.61700439453125" style="fill: #fff; stroke-width: 0px;"/>
      <path d="m305.77569580078125,179.33349609375c-3.365997314453125,0-6.73199462890625,1.35296630859375-6.73199462890625,5.47796630859375,0,2.14501953125,1.220977783203125,4.05902099609375,4.785003662109375,4.7850341796875l1.91400146484375.39599609375c1.32000732421875.26397705078125,1.748992919921875.82501220703125,1.748992919921875,1.583984375,0,.8909912109375-.891021728515625,1.51800537109375-2.342987060546875,1.51800537109375-1.81500244140625,0-4.25701904296875-.82501220703125-6.27001953125-2.343017578125v4.125c1.12200927734375.82501220703125,3.39898681640625,2.0460205078125,6.27001953125,2.0460205078125,4.52099609375,0,7.02899169921875-1.947021484375,7.02899169921875-5.280029296875,0-2.4749755859375-1.22100830078125-4.48797607421875-4.587005615234375-5.2469482421875l-2.376007080078125-.52801513671875c-1.12200927734375-.26397705078125-1.550994873046875-.7919921875-1.550994873046875-1.4520263671875,0-.85797119140625.824981689453125-1.32000732421875,2.144989013671875-1.32000732421875,1.61700439453125,0,3.927001953125.59405517578125,5.5770263671875,1.7490234375v-3.89398193359375c-1.35302734375-.989990234375-3.46502685546875-1.61700439453125-5.610015869140625-1.61700439453125m-20.954010009765625,6.698974609375c.52801513671875-2.0789794921875,1.881011962890625-3.0689697265625,3.76202392578125-3.0689697265625,1.946990966796875,0,3.20098876953125,1.385986328125,3.29998779296875,3.0689697265625h-7.06201171875Zm4.587005615234375,10.8900146484375c2.904022216796875,0,5.180999755859375-.82501220703125,6.501007080078125-2.01300048828125v-4.09197998046875c-1.583984375,1.35296630859375-3.6300048828125,2.21099853515625-5.708984375,2.21099853515625-3.135009765625,0-4.9830322265625-1.48504638671875-5.44500732421875-3.8280029296875h11.7149658203125c.759033203125-5.4119873046875-1.84796142578125-9.86700439453125-7.556976318359375-9.86700439453125-5.048980712890625,0-8.447998046875,3.89398193359375-8.447998046875,8.81097412109375,0,5.24700927734375,3.563995361328125,8.77801513671875,8.9429931640625,8.77801513671875m-16.269012451171875,0c1.4520263671875,0,3.66302490234375-.4949951171875,5.115020751953125-1.781982421875v-4.65301513671875c-1.253997802734375,1.4520263671875-3.003021240234375,2.2440185546875-4.884002685546875,2.2440185546875-2.739013671875,0-4.85101318359375-1.947021484375-4.85101318359375-4.5870361328125s2.11199951171875-4.6199951171875,4.85101318359375-4.6199951171875c1.91400146484375,0,3.531005859375.759033203125,4.785003662109375,2.17803955078125v-4.62005615234375c-1.451995849609375-1.2869873046875-3.563995361328125-1.74896240234375-5.016021728515625-1.74896240234375-5.345977783203125,0-9.272979736328125,3.49798583984375-9.272979736328125,8.81097412109375,0,5.280029296875,3.927001953125,8.77801513671875,9.272979736328125,8.77801513671875m-23.660980224609375-17.1929931640625h-4.620010375976562v16.7969970703125h4.620010375976562v-8.77801513671875c0-2.4420166015625,1.485000610351562-4.19097900390625,3.530990600585938-4.19097900390625,2.046005249023438,0,3.431991577148438,1.51800537109375,3.431991577148438,3.8280029296875v9.1409912109375h4.6199951171875v-9.76800537109375c0-4.58697509765625-2.639984130859375-7.42498779296875-6.5999755859375-7.42498779296875-2.178009033203125,0-3.927001953125,1.05596923828125-4.983001708984375,2.8709716796875v-2.4749755859375Zm-18.710006713867188,11.64898681640625c0-1.18798828125.990005493164062-2.01300048828125,2.541000366210938-2.01300048828125,1.12200927734375,0,2.21099853515625.363037109375,3.135009765625.95703125v.032958984375c-.099014282226562,1.81500244140625-1.51800537109375,2.97003173828125-3.3330078125,2.97003173828125-1.41900634765625,0-2.343002319335938-.759033203125-2.343002319335938-1.947021484375m5.676010131835938-4.78497314453125v.7919921875c-.990005493164062-.72601318359375-2.541000366210938-1.22100830078125-4.125-1.22100830078125-3.531005859375,0-6.03900146484375,2.177978515625-6.03900146484375,5.34600830078125,0,3.10198974609375,2.375991821289062,5.4119873046875,5.642990112304688,5.4119873046875,2.046005249023438,0,3.762008666992188-.989990234375,4.521011352539062-2.541015625v2.14501953125h4.6199951171875v-10.197021484375c0-4.125-3.266998291015625-6.9959716796875-8.052001953125-6.9959716796875-2.046005249023438,0-4.158004760742188.56097412109375-5.74200439453125,1.781982421875v4.09197998046875c1.452011108398438-1.220947265625,3.201004028320312-1.94696044921875,5.082000732421875-1.94696044921875,2.442001342773438,0,4.092010498046875,1.22100830078125,4.092010498046875,3.3330078125m-18.678009033203125-7.260009765625c-3.365997314453125,0-6.73199462890625,1.35296630859375-6.73199462890625,5.47796630859375,0,2.14501953125,1.22100830078125,4.05902099609375,4.785003662109375,4.7850341796875l1.91400146484375.39599609375c1.319992065429688.26397705078125,1.748992919921875.82501220703125,1.748992919921875,1.583984375,0,.8909912109375-.8909912109375,1.51800537109375-2.343002319335938,1.51800537109375-1.81500244140625,0-4.257003784179688-.82501220703125-6.270004272460938-2.343017578125v4.125c1.12200927734375.82501220703125,3.399002075195312,2.0460205078125,6.270004272460938,2.0460205078125,4.521011352539062,0,7.029006958007812-1.947021484375,7.029006958007812-5.280029296875,0-2.4749755859375-1.22100830078125-4.48797607421875-4.587005615234375-5.2469482421875l-2.376007080078125-.52801513671875c-1.121994018554688-.26397705078125-1.550994873046875-.7919921875-1.550994873046875-1.4520263671875,0-.85797119140625.82501220703125-1.32000732421875,2.145004272460938-1.32000732421875,1.616989135742188,0,3.926986694335938.59405517578125,5.576995849609375,1.7490234375v-3.89398193359375c-1.352996826171875-.989990234375-3.464996337890625-1.61700439453125-5.610000610351562-1.61700439453125m-15.542999267578125,0c-3.365997314453125,0-6.73199462890625,1.35296630859375-6.73199462890625,5.47796630859375,0,2.14501953125,1.220993041992188,4.05902099609375,4.785003662109375,4.7850341796875l1.91400146484375.39599609375c1.319992065429688.26397705078125,1.748992919921875.82501220703125,1.748992919921875,1.583984375,0,.8909912109375-.8909912109375,1.51800537109375-2.343002319335938,1.51800537109375-1.81500244140625,0-4.257003784179688-.82501220703125-6.270004272460938-2.343017578125v4.125c1.12200927734375.82501220703125,3.399002075195312,2.0460205078125,6.270004272460938,2.0460205078125,4.521011352539062,0,7.029006958007812-1.947021484375,7.029006958007812-5.280029296875,0-2.4749755859375-1.22100830078125-4.48797607421875-4.587005615234375-5.2469482421875l-2.376007080078125-.52801513671875c-1.121994018554688-.26397705078125-1.550994873046875-.7919921875-1.550994873046875-1.4520263671875,0-.85797119140625.82501220703125-1.32000732421875,2.145004272460938-1.32000732421875,1.616989135742188,0,3.926986694335938.59405517578125,5.576995849609375,1.7490234375v-3.89398193359375c-1.352996826171875-.989990234375-3.464996337890625-1.61700439453125-5.610000610351562-1.61700439453125m-15.311996459960938-4.4219970703125c0,1.51800537109375,1.188003540039062,2.80499267578125,2.837997436523438,2.80499267578125,1.61700439453125,0,2.871002197265625-1.2869873046875,2.871002197265625-2.80499267578125s-1.253997802734375-2.8380126953125-2.871002197265625-2.8380126953125c-1.649993896484375,0-2.837997436523438,1.32000732421875-2.837997436523438,2.8380126953125m5.180999755859375,4.8179931640625h-4.620010375976562v16.7969970703125h4.620010375976562v-16.7969970703125Zm-18.710006713867188,11.64898681640625c0-1.18798828125.990005493164062-2.01300048828125,2.541015625-2.01300048828125,1.121978759765625,0,2.21099853515625.363037109375,3.134979248046875.95703125v.032958984375c-.0989990234375,1.81500244140625-1.517990112304688,2.97003173828125-3.332992553710938,2.97003173828125-1.418991088867188,0-2.343002319335938-.759033203125-2.343002319335938-1.947021484375m5.675994873046875-4.78497314453125v.7919921875c-.989990234375-.72601318359375-2.540985107421875-1.22100830078125-4.125-1.22100830078125-3.530990600585938,0-6.038986206054688,2.177978515625-6.038986206054688,5.34600830078125,0,3.10198974609375,2.375991821289062,5.4119873046875,5.642990112304688,5.4119873046875,2.046005249023438,0,3.762008666992188-.989990234375,4.52099609375-2.541015625v2.14501953125h4.620010375976562v-10.197021484375c0-4.125-3.266998291015625-6.9959716796875-8.052001953125-6.9959716796875-2.046005249023438,0-4.158004760742188.56097412109375-5.741989135742188,1.781982421875v4.09197998046875c1.451995849609375-1.220947265625,3.20098876953125-1.94696044921875,5.082000732421875-1.94696044921875,2.441986083984375,0,4.09197998046875,1.22100830078125,4.09197998046875,3.3330078125m-24.61798095703125-6.864013671875h-4.620010375976562v16.7969970703125h4.620010375976562v-8.77801513671875c0-2.4420166015625,1.4849853515625-4.19097900390625,3.530990600585938-4.19097900390625s3.431991577148438,1.51800537109375,3.431991577148438,3.8280029296875v9.1409912109375h4.620010375976562v-9.76800537109375c0-4.58697509765625-2.639999389648438-7.42498779296875-6.600006103515625-7.42498779296875-2.177993774414062,0-3.926986694335938,1.05596923828125-4.982986450195312,2.8709716796875v-2.4749755859375Zm-19.99700927734375,0h-4.6199951171875v16.7969970703125h4.6199951171875v-8.77801513671875c0-2.4420166015625,1.485000610351562-4.19097900390625,3.531005859375-4.19097900390625,2.045989990234375,0,3.431991577148438,1.51800537109375,3.431991577148438,3.8280029296875v9.1409912109375h4.620010375976562v-9.76800537109375c0-4.58697509765625-2.6400146484375-7.42498779296875-6.600006103515625-7.42498779296875-2.178009033203125,0-3.927001953125,1.05596923828125-4.983001708984375,2.8709716796875v-2.4749755859375Zm-21.152999877929688,8.41497802734375c0-2.6400146484375,1.91400146484375-4.6199951171875,4.4219970703125-4.6199951171875,2.508003234863281,0,4.422004699707031,1.97998046875,4.422004699707031,4.6199951171875s-1.91400146484375,4.5870361328125-4.422004699707031,4.5870361328125c-2.50799560546875,0-4.4219970703125-1.947021484375-4.4219970703125-4.5870361328125m4.4219970703125,8.77801513671875c5.115005493164062,0,9.108001708984375-3.8280029296875,9.108001708984375-8.77801513671875,0-5.0159912109375-3.992996215820312-8.81097412109375-9.108001708984375-8.81097412109375-5.147994995117188,0-9.107994079589844,3.79498291015625-9.107994079589844,8.81097412109375,0,4.95001220703125,3.959999084472656,8.77801513671875,9.107994079589844,8.77801513671875m-17.852996826171875,0c2.21099853515625,0,4.751998901367188-.72601318359375,6.698997497558594-2.0460205078125v-5.114990234375c-1.749000549316406,1.7490234375-4.190994262695312,2.739013671875-6.566993713378906,2.739013671875-4.752006530761719,0-7.986007690429688-3.20098876953125-7.986007690429688-7.5570068359375,0-4.38897705078125,3.234001159667969-7.62298583984375,7.986007690429688-7.62298583984375,2.375999450683594,0,4.784996032714844.989990234375,6.566993713378906,2.739013671875v-5.11505126953125c-1.946998596191406-1.3199462890625-4.487998962402344-2.04595947265625-6.698997497558594-2.04595947265625-7.359001159667969,0-12.836997985839844,5.18096923828125-12.836997985839844,12.04498291015625,0,6.83099365234375,5.477996826171875,11.97900390625,12.836997985839844,11.97900390625" style="fill: #fff; stroke-width: 0px;"/>
    </g>
  </g>
</svg>
