<?xml version="1.0" encoding="UTF-8"?>
<svg id="Calque_2" data-name="Calque 2" xmlns="http://www.w3.org/2000/svg" viewBox="0 0 342.66595458984375 338.968994140625">
  <g id="Calque_1-2" data-name="Calque 1">
    <g>
      <path d="m171.3330078125,0C76.7080078125,0,0,75.8809814453125,0,169.4840087890625c0,93.60400390625,76.7080078125,169.4849853515625,171.3330078125,169.4849853515625s171.33294677734375-75.8809814453125,171.33294677734375-169.4849853515625C342.66595458984375,75.8809814453125,265.9580078125,0,171.3330078125,0" style="fill: #acb8b9; stroke-width: 0px;"/>
      <path d="m234.44464111328125,182.31988525390625h-4.62005615234375v16.7969970703125h4.62005615234375v-8.7779541015625c0-2.4420166015625,1.4849853515625-4.1910400390625,3.531005859375-4.1910400390625,2.04595947265625,0,3.43194580078125,1.51800537109375,3.43194580078125,3.8280029296875v9.1409912109375h4.6199951171875v-9.76800537109375c0-4.58697509765625-2.63995361328125-7.42498779296875-6.5999755859375-7.42498779296875-2.17803955078125,0-3.927001953125,1.0560302734375-4.98297119140625,2.87103271484375v-2.47503662109375Zm-13.8270263671875-4.8179931640625c0,1.51800537109375,1.18798828125,2.80499267578125,2.8380126953125,2.80499267578125,1.61700439453125,0,2.8709716796875-1.2869873046875,2.8709716796875-2.80499267578125s-1.25396728515625-2.8380126953125-2.8709716796875-2.8380126953125c-1.6500244140625,0-2.8380126953125,1.32000732421875-2.8380126953125,2.8380126953125m5.18096923828125,4.8179931640625h-4.6199951171875v16.7969970703125h4.6199951171875v-16.7969970703125Zm-18.7099609375,11.64898681640625c0-1.18798828125.989990234375-2.01300048828125,2.54095458984375-2.01300048828125,1.12200927734375,0,2.2110595703125.363037109375,3.135009765625.95703125v.03302001953125c-.0989990234375,1.81500244140625-1.5179443359375,2.969970703125-3.3330078125,2.969970703125-1.4189453125,0-2.34295654296875-.75897216796875-2.34295654296875-1.947021484375m5.67596435546875-4.78497314453125v.7919921875c-.989990234375-.72601318359375-2.54095458984375-1.22100830078125-4.125-1.22100830078125-3.531005859375,0-6.03900146484375,2.17803955078125-6.03900146484375,5.34600830078125,0,3.10198974609375,2.37603759765625,5.4119873046875,5.64300537109375,5.4119873046875,2.0460205078125,0,3.76202392578125-.989990234375,4.52099609375-2.54095458984375v2.14495849609375h4.6199951171875v-10.19696044921875c0-4.125-3.2669677734375-6.99603271484375-8.052001953125-6.99603271484375-2.04595947265625,0-4.157958984375.56103515625-5.741943359375,1.781982421875v4.092041015625c1.45196533203125-1.22100830078125,3.20098876953125-1.947021484375,5.08197021484375-1.947021484375,2.4420166015625,0,4.09197998046875,1.22100830078125,4.09197998046875,3.3330078125m-23.0999755859375,9.9329833984375h4.6199951171875v-7.52398681640625c.03302001953125-3.29998779296875,1.947021484375-5.37896728515625,4.38897705078125-5.37896728515625.8580322265625,0,1.91400146484375.16497802734375,2.8380126953125.7259521484375v-4.38897705078125c-.7919921875-.42901611328125-1.74896240234375-.62701416015625-2.573974609375-.62701416015625-2.2440185546875,0-4.05902099609375,1.61700439453125-4.65301513671875,3.8280029296875v-3.4320068359375h-4.6199951171875v16.7969970703125Zm-14.2559814453125,0h4.6199951171875v-7.52398681640625c.032958984375-3.29998779296875,1.94696044921875-5.37896728515625,4.38897705078125-5.37896728515625.8580322265625,0,1.91400146484375.16497802734375,2.8380126953125.7259521484375v-4.38897705078125c-.7919921875-.42901611328125-1.7490234375-.62701416015625-2.57403564453125-.62701416015625-2.24395751953125,0-4.0589599609375,1.61700439453125-4.6529541015625,3.8280029296875v-3.4320068359375h-4.6199951171875v16.7969970703125Zm-14.8489990234375-10.49395751953125c.5279541015625-2.07904052734375,1.8809814453125-3.06903076171875,3.761962890625-3.06903076171875,1.947021484375,0,3.20098876953125,1.385986328125,3.29998779296875,3.06903076171875h-7.06195068359375Zm4.58697509765625,10.88995361328125c2.90399169921875,0,5.18096923828125-.824951171875,6.50103759765625-2.01300048828125v-4.09197998046875c-1.58404541015625,1.35302734375-3.6300048828125,2.21099853515625-5.70904541015625,2.21099853515625-3.135009765625,0-4.98297119140625-1.4849853515625-5.44500732421875-3.8280029296875h11.71502685546875c.75897216796875-5.4119873046875-1.8480224609375-9.86700439453125-7.5570068359375-9.86700439453125-5.04901123046875,0-8.447998046875,3.89398193359375-8.447998046875,8.81103515625,0,5.2469482421875,3.56402587890625,8.7779541015625,8.9429931640625,8.7779541015625m-20.55902099609375-21.7139892578125v4.52099609375h-2.70599365234375v3.8280029296875h2.70599365234375v6.23699951171875c0,4.85101318359375,2.87103271484375,7.12799072265625,6.633056640625,7.12799072265625,1.0889892578125,0,2.3759765625-.23095703125,3.56396484375-.7259521484375v-4.0260009765625c-.72601318359375.39599609375-1.551025390625.7259521484375-2.739013671875.7259521484375-1.45196533203125,0-2.80499267578125-.989990234375-2.80499267578125-3.365966796875v-5.9730224609375h5.54400634765625v-3.8280029296875h-5.54400634765625v-4.52099609375h-4.65301513671875Zm-23.16595458984375,10.82403564453125c.5279541015625-2.07904052734375,1.8809814453125-3.06903076171875,3.761962890625-3.06903076171875,1.947021484375,0,3.20098876953125,1.385986328125,3.29998779296875,3.06903076171875h-7.06195068359375Zm4.58697509765625,10.88995361328125c2.90399169921875,0,5.1810302734375-.824951171875,6.5009765625-2.01300048828125v-4.09197998046875c-1.583984375,1.35302734375-3.62994384765625,2.21099853515625-5.708984375,2.21099853515625-3.135009765625,0-4.98297119140625-1.4849853515625-5.44500732421875-3.8280029296875h11.71502685546875c.75897216796875-5.4119873046875-1.8480224609375-9.86700439453125-7.5570068359375-9.86700439453125-5.04901123046875,0-8.447998046875,3.89398193359375-8.447998046875,8.81103515625,0,5.2469482421875,3.56402587890625,8.7779541015625,8.9429931640625,8.7779541015625m-30.12896728515625-8.7779541015625c0,5.0489501953125,3.56396484375,8.7779541015625,8.1510009765625,8.7779541015625,2.44195556640625,0,4.38897705078125-1.0889892578125,5.37896728515625-2.969970703125v2.573974609375h4.6199951171875v-23.23199462890625h-4.6199951171875v9.0419921875c-.989990234375-1.91400146484375-2.93701171875-3.00299072265625-5.37896728515625-3.00299072265625-4.5870361328125,0-8.1510009765625,3.72900390625-8.1510009765625,8.81103515625m9.10797119140625,4.58697509765625c-2.50799560546875,0-4.4219970703125-1.947021484375-4.4219970703125-4.58697509765625,0-2.6400146484375,1.91400146484375-4.6199951171875,4.4219970703125-4.6199951171875s4.4219970703125,1.97998046875,4.4219970703125,4.6199951171875c0,2.63995361328125-1.91400146484375,4.58697509765625-4.4219970703125,4.58697509765625" style="fill: #fff; stroke-width: 0px;"/>
      <path d="m257.75872802734375,145.92376708984375c-3.36602783203125,0-6.73199462890625,1.35296630859375-6.73199462890625,5.47796630859375,0,2.14501953125,1.22100830078125,4.05902099609375,4.78497314453125,4.7850341796875l1.91400146484375.39599609375c1.32000732421875.26397705078125,1.7490234375.82501220703125,1.7490234375,1.583984375,0,.8909912109375-.8909912109375,1.51800537109375-2.343017578125,1.51800537109375-1.81500244140625,0-4.25701904296875-.82501220703125-6.26995849609375-2.343017578125v4.125c1.1219482421875.82501220703125,3.39898681640625,2.0460205078125,6.26995849609375,2.0460205078125,4.52099609375,0,7.02899169921875-1.947021484375,7.02899169921875-5.27996826171875,0-2.47503662109375-1.220947265625-4.488037109375-4.58697509765625-5.24700927734375l-2.37603759765625-.52801513671875c-1.1219482421875-.26397705078125-1.55096435546875-.7919921875-1.55096435546875-1.4520263671875,0-.85797119140625.82501220703125-1.32000732421875,2.14495849609375-1.32000732421875,1.6170654296875,0,3.927001953125.59405517578125,5.5770263671875,1.7490234375v-3.89398193359375c-1.35302734375-.989990234375-3.4649658203125-1.61700439453125-5.6099853515625-1.61700439453125m-20.95501708984375,6.698974609375c.52801513671875-2.0789794921875,1.88104248046875-3.0689697265625,3.76202392578125-3.0689697265625,1.947021484375,0,3.20098876953125,1.385986328125,3.29998779296875,3.0689697265625h-7.06201171875Zm4.58697509765625,10.8900146484375c2.904052734375,0,5.1810302734375-.82501220703125,6.50103759765625-2.01300048828125v-4.09197998046875c-1.583984375,1.35296630859375-3.6300048828125,2.21099853515625-5.708984375,2.21099853515625-3.135009765625,0-4.9830322265625-1.4849853515625-5.44500732421875-3.8280029296875h11.7149658203125c.759033203125-5.4119873046875-1.84796142578125-9.86700439453125-7.5570068359375-9.86700439453125-5.0489501953125,0-8.447998046875,3.89398193359375-8.447998046875,8.81097412109375,0,5.24700927734375,3.56402587890625,8.77801513671875,8.9429931640625,8.77801513671875m-16.2679443359375,0c1.45196533203125,0,3.6629638671875-.4949951171875,5.114990234375-1.781982421875v-4.65301513671875c-1.2540283203125,1.4520263671875-3.00299072265625,2.2440185546875-4.884033203125,2.2440185546875-2.739013671875,0-4.8509521484375-1.947021484375-4.8509521484375-4.5870361328125,0-2.63995361328125,2.1119384765625-4.6199951171875,4.8509521484375-4.6199951171875,1.91400146484375,0,3.531005859375.759033203125,4.7850341796875,2.17803955078125v-4.6199951171875c-1.4520263671875-1.28704833984375-3.56402587890625-1.7490234375-5.0159912109375-1.7490234375-5.34600830078125,0-9.27301025390625,3.49798583984375-9.27301025390625,8.81097412109375,0,5.280029296875,3.927001953125,8.77801513671875,9.27301025390625,8.77801513671875m-23.6610107421875-17.1929931640625h-4.6199951171875v16.7969970703125h4.6199951171875v-8.77801513671875c0-2.44195556640625,1.4849853515625-4.19097900390625,3.531005859375-4.19097900390625,2.04595947265625,0,3.4320068359375,1.51800537109375,3.4320068359375,3.8280029296875v9.1409912109375h4.6199951171875v-9.76800537109375c0-4.58697509765625-2.6400146484375-7.42498779296875-6.60003662109375-7.42498779296875-2.177978515625,0-3.927001953125,1.05596923828125-4.98297119140625,2.8709716796875v-2.4749755859375Zm-19.47003173828125,6.302978515625c.52801513671875-2.0789794921875,1.88104248046875-3.0689697265625,3.76202392578125-3.0689697265625,1.947021484375,0,3.20098876953125,1.385986328125,3.29998779296875,3.0689697265625h-7.06201171875Zm4.5870361328125,10.8900146484375c2.90399169921875,0,5.18096923828125-.82501220703125,6.5009765625-2.01300048828125v-4.09197998046875c-1.583984375,1.35296630859375-3.6300048828125,2.21099853515625-5.708984375,2.21099853515625-3.135009765625,0-4.9830322265625-1.4849853515625-5.44500732421875-3.8280029296875h11.71502685546875c.75897216796875-5.4119873046875-1.8480224609375-9.86700439453125-7.5570068359375-9.86700439453125-5.04901123046875,0-8.447998046875,3.89398193359375-8.447998046875,8.81097412109375,0,5.24700927734375,3.56396484375,8.77801513671875,8.9429931640625,8.77801513671875m-17.15899658203125-22.010986328125c0,1.51800537109375,1.18798828125,2.80499267578125,2.8380126953125,2.80499267578125,1.616943359375,0,2.8709716796875-1.2869873046875,2.8709716796875-2.80499267578125s-1.2540283203125-2.8380126953125-2.8709716796875-2.8380126953125c-1.6500244140625,0-2.8380126953125,1.32000732421875-2.8380126953125,2.8380126953125m5.18096923828125,4.8179931640625h-4.6199951171875v16.7969970703125h4.6199951171875v-16.7969970703125Zm-18.8759765625,16.7969970703125h4.6199951171875v-7.52398681640625c.03302001953125-3.29998779296875,1.947021484375-5.3790283203125,4.38897705078125-5.3790283203125.8580322265625,0,1.91400146484375.1650390625,2.8380126953125.72601318359375v-4.38897705078125c-.7919921875-.42901611328125-1.7490234375-.62701416015625-2.573974609375-.62701416015625-2.2440185546875,0-4.05902099609375,1.61700439453125-4.65301513671875,3.8280029296875v-3.4320068359375h-4.6199951171875v16.7969970703125Zm-13.530029296875-18.71099853515625h4.092041015625l3.39898681640625-5.1810302734375h-4.884033203125l-2.60699462890625,5.1810302734375Zm-1.385986328125,8.21697998046875c.52801513671875-2.0789794921875,1.8809814453125-3.0689697265625,3.76202392578125-3.0689697265625,1.94696044921875,0,3.20098876953125,1.385986328125,3.29998779296875,3.0689697265625h-7.06201171875Zm4.58697509765625,10.8900146484375c2.904052734375,0,5.1810302734375-.82501220703125,6.50103759765625-2.01300048828125v-4.09197998046875c-1.583984375,1.35296630859375-3.6300048828125,2.21099853515625-5.708984375,2.21099853515625-3.135009765625,0-4.9830322265625-1.4849853515625-5.44500732421875-3.8280029296875h11.7149658203125c.759033203125-5.4119873046875-1.84796142578125-9.86700439453125-7.5570068359375-9.86700439453125-5.0489501953125,0-8.447998046875,3.89398193359375-8.447998046875,8.81097412109375,0,5.24700927734375,3.56402587890625,8.77801513671875,8.9429931640625,8.77801513671875m-24.51898193359375-8.77801513671875c0-2.63995361328125,1.91400146484375-4.6199951171875,4.4219970703125-4.6199951171875s4.4219970703125,1.98004150390625,4.4219970703125,4.6199951171875c0,2.6400146484375-1.91400146484375,4.5870361328125-4.4219970703125,4.5870361328125s-4.4219970703125-1.947021484375-4.4219970703125-4.5870361328125m5.3790283203125,8.77801513671875c4.55401611328125,0,8.1510009765625-3.72900390625,8.1510009765625-8.77801513671875,0-5.08197021484375-3.59698486328125-8.81097412109375-8.1510009765625-8.81097412109375-2.4420166015625,0-4.35601806640625,1.05596923828125-5.3790283203125,2.93701171875v-2.541015625h-4.6199951171875v23.33099365234375h4.6199951171875v-9.07501220703125c1.02301025390625,1.88104248046875,2.93701171875,2.93701171875,5.3790283203125,2.93701171875m-29.10601806640625-.39599609375h5.34600830078125l3.16900634765625-4.8179931640625,3.2340087890625,4.8179931640625h5.37896728515625l-5.84197998046875-8.67901611328125,5.47900390625-8.11798095703125h-5.4119873046875l-2.8060302734375,4.19097900390625-2.8380126953125-4.19097900390625h-5.37799072265625l5.44500732421875,8.052001953125-5.7760009765625,8.7449951171875Zm-17.05999755859375,0h16.07098388671875v-4.38897705078125h-11.25299072265625v-5.54400634765625h8.61297607421875v-4.3890380859375h-8.61297607421875v-4.52099609375h10.46099853515625v-4.38897705078125h-15.27899169921875v23.23199462890625Z" style="fill: #fff; stroke-width: 0px;"/>
    </g>
  </g>
</svg>
