<?xml version="1.0" encoding="UTF-8"?>
<svg id="Calque_2" data-name="Calque 2" xmlns="http://www.w3.org/2000/svg" xmlns:xlink="http://www.w3.org/1999/xlink" viewBox="0 0 1119.157623291015625 831.535888671875909">
  <defs>
    <linearGradient id="New_Gradient_Swatch_3" data-name="New Gradient Swatch 3" x1="418.57440185546875" y1="440.441122114189056" x2="531.951913703736864" y2="440.441122114189056" gradientUnits="userSpaceOnUse">
      <stop offset="0" stop-color="#298744"/>
      <stop offset="1" stop-color="#1c4d3e"/>
    </linearGradient>
    <linearGradient id="New_Gradient_Swatch_3-2" data-name="New Gradient Swatch 3" x1="541.23541551235212" y1="422.089374875472458" x2="621.610351990267191" y2="422.089374875472458" xlink:href="#New_Gradient_Swatch_3"/>
    <linearGradient id="New_Gradient_Swatch_3-3" data-name="New Gradient Swatch 3" x1="630.22675289340259" y1="439.459043861997998" x2="758.670943319967591" y2="439.459043861997998" xlink:href="#New_Gradient_Swatch_3"/>
    <linearGradient id="New_Gradient_Swatch_3-4" data-name="New Gradient Swatch 3" x1="769.458600660464072" y1="462.659756995459247" x2="829.773406982421875" y2="462.659756995459247" xlink:href="#New_Gradient_Swatch_3"/>
  </defs>
  <g id="Calque_1-2" data-name="Calque 1">
    <g>
      <circle cx="624.173614501953125" cy="439.826884269714583" r="358.49998998641945" style="fill: none; stroke: #289548; stroke-width: 6px;"/>
      <g>
        <path d="m482.587825322478238,412.984596139140194c-4.126451835184525-6.685255006495026-10.950717940699178-10.098115752655758-20.62628513796426-10.098115752655758-5.687360727682062,0-13.657569858199167,3.412860746160732-18.351708479997797,10.098115752655758v-8.392757642825927h-25.035429849047432v36.700430868147123h25.035429849047432v-3.129400296845233c0-7.680008942111272,3.982079251163668-12.516988465519717,10.10033916579232-12.516988465519717,5.549802122593974,0,9.10404834757901,4.693372838060895,9.10404834757901,12.092142447590049v40.257740792207187h25.038418531983552v-39.83289477427752c0-7.680008942111272,3.982079251163668-12.516988465519717,9.956729932513554-12.516988465519717,5.690424336892647,0,9.107114508348786,4.693372838060895,9.107114508348786,12.092142447590049v40.257740792207187h25.035431513003459v-42.393918958077847c0-21.052586891369174-9.531960515546416-32.715364497331393-25.74749088363842-32.715364497331393-9.675490607035499,0-17.214879692395698,3.412860746160732-23.616597497620205,10.098115752655758" style="fill: url(#New_Gradient_Swatch_3);"/>
        <path d="m541.23541551235212,441.29226936446139h25.319657857461607c.002987018980093-8.963431462836525,6.402483707526699-15.64638876236495,14.794475236029939-15.64638876236495,8.535674800454217,0,14.93509489877124,6.682957299528425,14.938158507980916,15.64638876236495h25.32264487644261c-.003063609211495-21.90970817975267-17.499106036854755-38.405788977976954-40.260803384423525-38.405788977976954-22.758633738357275,0-40.11106948428278,16.496080798224284-40.114133093491546,38.405788977976954" style="fill: url(#New_Gradient_Swatch_3-2);"/>
        <path d="m685.275980885666286,377.849516436389422v35.135079702750772c-4.125754225934543-6.543869437880858-11.096622329326237-10.098115752655758-20.200673228466258-10.098115752655758-19.632297129778635,0-34.845567744816435,16.074221799350198-34.848554763797438,38.405788977976954h25.319581267231115c.003063609210585-8.963431462836525,6.402483707527608-15.64638876236495,14.79455182626134-15.64638876236495,8.511633707288638,0,14.896195462225478,6.650023499689269,14.932031289560655,15.577610733862457h-.011948075918554v25.277763640084231c0,20.912733127400315,14.369629228834128,34.567316311563445,36.706489897513165,34.567316311563445,22.193235330343668,0,36.703484221917279-13.65458318416313,36.703484221917279-34.567316311563445v-40.544954162901377h-25.037729219911853v39.54866842264164c0,7.823539037224691-4.694827933870329,12.945510814592126-11.665755002005426,12.945510814592126-7.114552406470466,0-11.668071365530523-5.121971777367435-11.668071365530523-12.945510814592126v-24.212699871322002h.015011685128229v-63.442752928071968h-25.038418531981733Z" style="fill: url(#New_Gradient_Swatch_3-3);"/>
        <path d="m770.16843891442204,449.714207885748692c0,9.531884166111922,5.262591310714924,18.635935295239506,21.33758969129849,21.624792516023263l8.109975215722443,1.5617514244841c3.698618809007712.711982798391546,4.838511205820396,2.276721241927589,4.838511205820396,3.985066370813001,0,2.133114556583678-2.70454286680706,4.127141251517969-6.970859806214321,4.127141251517969-7.54236505886729,0-18.63899843366562-3.413626648482023-28.025054560584977-10.1047791028559v21.340566164386473c4.122698913902241,3.129400296846143,14.223801430437561,8.819824777488975,28.025054560584977,8.819824777488975,20.912656008870727,0,32.289751761372827-8.535598425849457,32.289751761372827-23.898526738897999,0-10.812396258012086-5.121205745673251-20.344280424124008-20.059287663423675-23.614376977491702l-10.525182621429849-2.276721241930318c-2.98579353607056-.565465684220726-4.269281443364889-1.992571480523111-4.269281443364889-3.696397785708541,0-2.276721241931227,2.563999966845586-3.986598175460131,6.402472536290588-3.986598175460131,6.970859806213412,0,17.354733452832079,2.561024183801237,25.038418531983552,7.539389275821122v-20.056301151107618c-5.831043999632129-4.122775608282609-15.222308262209481-6.828095789519466-25.3226448764417-6.828095789519466-14.650102652009991,0-30.869462531613863,5.549804814353593-30.869462531613863,25.463265182436771" style="fill: url(#New_Gradient_Swatch_3-4);"/>
      </g>
      <g>
        <path d="m921.278289794921875,0c-94.625,0-171.3330078125,75.8809814453125-171.3330078125,169.4840087890625,0,93.60400390625,76.7080078125,169.4849853515625,171.3330078125,169.4849853515625s171.33294677734375-75.8809814453125,171.33294677734375-169.4849853515625c0-93.60302734375-76.70794677734375-169.4840087890625-171.33294677734375-169.4840087890625" style="fill: #acb8b9; stroke-width: 0px;"/>
        <path d="m984.389923095703125,182.31988525390625h-4.62005615234375v16.7969970703125h4.62005615234375v-8.7779541015625c0-2.4420166015625,1.4849853515625-4.1910400390625,3.531005859375-4.1910400390625,2.04595947265625,0,3.43194580078125,1.51800537109375,3.43194580078125,3.8280029296875v9.1409912109375h4.6199951171875v-9.76800537109375c0-4.58697509765625-2.63995361328125-7.42498779296875-6.5999755859375-7.42498779296875-2.17803955078125,0-3.927001953125,1.0560302734375-4.98297119140625,2.87103271484375v-2.47503662109375Zm-13.8270263671875-4.8179931640625c0,1.51800537109375,1.18798828125,2.80499267578125,2.8380126953125,2.80499267578125,1.61700439453125,0,2.8709716796875-1.2869873046875,2.8709716796875-2.80499267578125s-1.25396728515625-2.8380126953125-2.8709716796875-2.8380126953125c-1.6500244140625,0-2.8380126953125,1.32000732421875-2.8380126953125,2.8380126953125m5.18096923828125,4.8179931640625h-4.6199951171875v16.7969970703125h4.6199951171875v-16.7969970703125Zm-18.7099609375,11.64898681640625c0-1.18798828125.989990234375-2.01300048828125,2.54095458984375-2.01300048828125,1.12200927734375,0,2.2110595703125.363037109375,3.135009765625.95703125v.03302001953125c-.0989990234375,1.81500244140625-1.5179443359375,2.969970703125-3.3330078125,2.969970703125-1.4189453125,0-2.34295654296875-.75897216796875-2.34295654296875-1.947021484375m5.67596435546875-4.78497314453125v.7919921875c-.989990234375-.72601318359375-2.54095458984375-1.22100830078125-4.125-1.22100830078125-3.531005859375,0-6.03900146484375,2.17803955078125-6.03900146484375,5.34600830078125,0,3.10198974609375,2.37603759765625,5.4119873046875,5.64300537109375,5.4119873046875,2.0460205078125,0,3.76202392578125-.989990234375,4.52099609375-2.54095458984375v2.14495849609375h4.6199951171875v-10.19696044921875c0-4.125-3.2669677734375-6.99603271484375-8.052001953125-6.99603271484375-2.04595947265625,0-4.157958984375.56103515625-5.741943359375,1.781982421875v4.092041015625c1.45196533203125-1.22100830078125,3.20098876953125-1.947021484375,5.08197021484375-1.947021484375,2.4420166015625,0,4.09197998046875,1.22100830078125,4.09197998046875,3.3330078125m-23.0999755859375,9.9329833984375h4.6199951171875v-7.52398681640625c.03302001953125-3.29998779296875,1.947021484375-5.37896728515625,4.38897705078125-5.37896728515625.8580322265625,0,1.91400146484375.16497802734375,2.8380126953125.7259521484375v-4.38897705078125c-.7919921875-.42901611328125-1.74896240234375-.62701416015625-2.573974609375-.62701416015625-2.2440185546875,0-4.05902099609375,1.61700439453125-4.65301513671875,3.8280029296875v-3.4320068359375h-4.6199951171875v16.7969970703125Zm-14.2559814453125,0h4.6199951171875v-7.52398681640625c.032958984375-3.29998779296875,1.94696044921875-5.37896728515625,4.38897705078125-5.37896728515625.8580322265625,0,1.91400146484375.16497802734375,2.8380126953125.7259521484375v-4.38897705078125c-.7919921875-.42901611328125-1.7490234375-.62701416015625-2.57403564453125-.62701416015625-2.24395751953125,0-4.0589599609375,1.61700439453125-4.6529541015625,3.8280029296875v-3.4320068359375h-4.6199951171875v16.7969970703125Zm-14.8489990234375-10.49395751953125c.5279541015625-2.07904052734375,1.8809814453125-3.06903076171875,3.761962890625-3.06903076171875,1.947021484375,0,3.20098876953125,1.385986328125,3.29998779296875,3.06903076171875h-7.06195068359375Zm4.58697509765625,10.88995361328125c2.90399169921875,0,5.18096923828125-.824951171875,6.50103759765625-2.01300048828125v-4.09197998046875c-1.58404541015625,1.35302734375-3.6300048828125,2.21099853515625-5.70904541015625,2.21099853515625-3.135009765625,0-4.98297119140625-1.4849853515625-5.44500732421875-3.8280029296875h11.71502685546875c.75897216796875-5.4119873046875-1.8480224609375-9.86700439453125-7.5570068359375-9.86700439453125-5.04901123046875,0-8.447998046875,3.89398193359375-8.447998046875,8.81103515625,0,5.2469482421875,3.56402587890625,8.7779541015625,8.9429931640625,8.7779541015625m-20.55902099609375-21.7139892578125v4.52099609375h-2.70599365234375v3.8280029296875h2.70599365234375v6.23699951171875c0,4.85101318359375,2.87103271484375,7.12799072265625,6.633056640625,7.12799072265625,1.0889892578125,0,2.3759765625-.23095703125,3.56396484375-.7259521484375v-4.0260009765625c-.72601318359375.39599609375-1.551025390625.7259521484375-2.739013671875.7259521484375-1.45196533203125,0-2.80499267578125-.989990234375-2.80499267578125-3.365966796875v-5.9730224609375h5.54400634765625v-3.8280029296875h-5.54400634765625v-4.52099609375h-4.65301513671875Zm-23.16595458984375,10.82403564453125c.5279541015625-2.07904052734375,1.8809814453125-3.06903076171875,3.761962890625-3.06903076171875,1.947021484375,0,3.20098876953125,1.385986328125,3.29998779296875,3.06903076171875h-7.06195068359375Zm4.58697509765625,10.88995361328125c2.90399169921875,0,5.1810302734375-.824951171875,6.5009765625-2.01300048828125v-4.09197998046875c-1.583984375,1.35302734375-3.62994384765625,2.21099853515625-5.708984375,2.21099853515625-3.135009765625,0-4.98297119140625-1.4849853515625-5.44500732421875-3.8280029296875h11.71502685546875c.75897216796875-5.4119873046875-1.8480224609375-9.86700439453125-7.5570068359375-9.86700439453125-5.04901123046875,0-8.447998046875,3.89398193359375-8.447998046875,8.81103515625,0,5.2469482421875,3.56402587890625,8.7779541015625,8.9429931640625,8.7779541015625m-30.12896728515625-8.7779541015625c0,5.0489501953125,3.56396484375,8.7779541015625,8.1510009765625,8.7779541015625,2.44195556640625,0,4.38897705078125-1.0889892578125,5.37896728515625-2.969970703125v2.573974609375h4.6199951171875v-23.23199462890625h-4.6199951171875v9.0419921875c-.989990234375-1.91400146484375-2.93701171875-3.00299072265625-5.37896728515625-3.00299072265625-4.5870361328125,0-8.1510009765625,3.72900390625-8.1510009765625,8.81103515625m9.10797119140625,4.58697509765625c-2.50799560546875,0-4.4219970703125-1.947021484375-4.4219970703125-4.58697509765625,0-2.6400146484375,1.91400146484375-4.6199951171875,4.4219970703125-4.6199951171875s4.4219970703125,1.97998046875,4.4219970703125,4.6199951171875c0,2.63995361328125-1.91400146484375,4.58697509765625-4.4219970703125,4.58697509765625" style="fill: #fff; stroke-width: 0px;"/>
        <path d="m1007.704010009765625,145.92376708984375c-3.36602783203125,0-6.73199462890625,1.35296630859375-6.73199462890625,5.47796630859375,0,2.14501953125,1.22100830078125,4.05902099609375,4.78497314453125,4.7850341796875l1.91400146484375.39599609375c1.32000732421875.26397705078125,1.7490234375.82501220703125,1.7490234375,1.583984375,0,.8909912109375-.8909912109375,1.51800537109375-2.343017578125,1.51800537109375-1.81500244140625,0-4.25701904296875-.82501220703125-6.26995849609375-2.343017578125v4.125c1.1219482421875.82501220703125,3.39898681640625,2.0460205078125,6.26995849609375,2.0460205078125,4.52099609375,0,7.02899169921875-1.947021484375,7.02899169921875-5.27996826171875,0-2.47503662109375-1.220947265625-4.488037109375-4.58697509765625-5.24700927734375l-2.37603759765625-.52801513671875c-1.1219482421875-.26397705078125-1.55096435546875-.7919921875-1.55096435546875-1.4520263671875,0-.85797119140625.82501220703125-1.32000732421875,2.14495849609375-1.32000732421875,1.6170654296875,0,3.927001953125.59405517578125,5.5770263671875,1.7490234375v-3.89398193359375c-1.35302734375-.989990234375-3.4649658203125-1.61700439453125-5.6099853515625-1.61700439453125m-20.95501708984375,6.698974609375c.52801513671875-2.0789794921875,1.88104248046875-3.0689697265625,3.76202392578125-3.0689697265625,1.947021484375,0,3.20098876953125,1.385986328125,3.29998779296875,3.0689697265625h-7.06201171875Zm4.58697509765625,10.8900146484375c2.904052734375,0,5.1810302734375-.82501220703125,6.50103759765625-2.01300048828125v-4.09197998046875c-1.583984375,1.35296630859375-3.6300048828125,2.21099853515625-5.708984375,2.21099853515625-3.135009765625,0-4.9830322265625-1.4849853515625-5.44500732421875-3.8280029296875h11.7149658203125c.759033203125-5.4119873046875-1.84796142578125-9.86700439453125-7.5570068359375-9.86700439453125-5.0489501953125,0-8.447998046875,3.89398193359375-8.447998046875,8.81097412109375,0,5.24700927734375,3.56402587890625,8.77801513671875,8.9429931640625,8.77801513671875m-16.2679443359375,0c1.45196533203125,0,3.6629638671875-.4949951171875,5.114990234375-1.781982421875v-4.65301513671875c-1.2540283203125,1.4520263671875-3.00299072265625,2.2440185546875-4.884033203125,2.2440185546875-2.739013671875,0-4.8509521484375-1.947021484375-4.8509521484375-4.5870361328125,0-2.63995361328125,2.1119384765625-4.6199951171875,4.8509521484375-4.6199951171875,1.91400146484375,0,3.531005859375.759033203125,4.7850341796875,2.17803955078125v-4.6199951171875c-1.4520263671875-1.28704833984375-3.56402587890625-1.7490234375-5.0159912109375-1.7490234375-5.34600830078125,0-9.27301025390625,3.49798583984375-9.27301025390625,8.81097412109375,0,5.280029296875,3.927001953125,8.77801513671875,9.27301025390625,8.77801513671875m-23.6610107421875-17.1929931640625h-4.6199951171875v16.7969970703125h4.6199951171875v-8.77801513671875c0-2.44195556640625,1.4849853515625-4.19097900390625,3.531005859375-4.19097900390625,2.04595947265625,0,3.4320068359375,1.51800537109375,3.4320068359375,3.8280029296875v9.1409912109375h4.6199951171875v-9.76800537109375c0-4.58697509765625-2.6400146484375-7.42498779296875-6.60003662109375-7.42498779296875-2.177978515625,0-3.927001953125,1.05596923828125-4.98297119140625,2.8709716796875v-2.4749755859375Zm-19.47003173828125,6.302978515625c.52801513671875-2.0789794921875,1.88104248046875-3.0689697265625,3.76202392578125-3.0689697265625,1.947021484375,0,3.20098876953125,1.385986328125,3.29998779296875,3.0689697265625h-7.06201171875Zm4.5870361328125,10.8900146484375c2.90399169921875,0,5.18096923828125-.82501220703125,6.5009765625-2.01300048828125v-4.09197998046875c-1.583984375,1.35296630859375-3.6300048828125,2.21099853515625-5.708984375,2.21099853515625-3.135009765625,0-4.9830322265625-1.4849853515625-5.44500732421875-3.8280029296875h11.71502685546875c.75897216796875-5.4119873046875-1.8480224609375-9.86700439453125-7.5570068359375-9.86700439453125-5.04901123046875,0-8.447998046875,3.89398193359375-8.447998046875,8.81097412109375,0,5.24700927734375,3.56396484375,8.77801513671875,8.9429931640625,8.77801513671875m-17.15899658203125-22.010986328125c0,1.51800537109375,1.18798828125,2.80499267578125,2.8380126953125,2.80499267578125,1.616943359375,0,2.8709716796875-1.2869873046875,2.8709716796875-2.80499267578125s-1.2540283203125-2.8380126953125-2.8709716796875-2.8380126953125c-1.6500244140625,0-2.8380126953125,1.32000732421875-2.8380126953125,2.8380126953125m5.18096923828125,4.8179931640625h-4.6199951171875v16.7969970703125h4.6199951171875v-16.7969970703125Zm-18.8759765625,16.7969970703125h4.6199951171875v-7.52398681640625c.03302001953125-3.29998779296875,1.947021484375-5.3790283203125,4.38897705078125-5.3790283203125.8580322265625,0,1.91400146484375.1650390625,2.8380126953125.72601318359375v-4.38897705078125c-.7919921875-.42901611328125-1.7490234375-.62701416015625-2.573974609375-.62701416015625-2.2440185546875,0-4.05902099609375,1.61700439453125-4.65301513671875,3.8280029296875v-3.4320068359375h-4.6199951171875v16.7969970703125Zm-13.530029296875-18.71099853515625h4.092041015625l3.39898681640625-5.1810302734375h-4.884033203125l-2.60699462890625,5.1810302734375Zm-1.385986328125,8.21697998046875c.52801513671875-2.0789794921875,1.8809814453125-3.0689697265625,3.76202392578125-3.0689697265625,1.94696044921875,0,3.20098876953125,1.385986328125,3.29998779296875,3.0689697265625h-7.06201171875Zm4.58697509765625,10.8900146484375c2.904052734375,0,5.1810302734375-.82501220703125,6.50103759765625-2.01300048828125v-4.09197998046875c-1.583984375,1.35296630859375-3.6300048828125,2.21099853515625-5.708984375,2.21099853515625-3.135009765625,0-4.9830322265625-1.4849853515625-5.44500732421875-3.8280029296875h11.7149658203125c.759033203125-5.4119873046875-1.84796142578125-9.86700439453125-7.5570068359375-9.86700439453125-5.0489501953125,0-8.447998046875,3.89398193359375-8.447998046875,8.81097412109375,0,5.24700927734375,3.56402587890625,8.77801513671875,8.9429931640625,8.77801513671875m-24.51898193359375-8.77801513671875c0-2.63995361328125,1.91400146484375-4.6199951171875,4.4219970703125-4.6199951171875s4.4219970703125,1.98004150390625,4.4219970703125,4.6199951171875c0,2.6400146484375-1.91400146484375,4.5870361328125-4.4219970703125,4.5870361328125s-4.4219970703125-1.947021484375-4.4219970703125-4.5870361328125m5.3790283203125,8.77801513671875c4.55401611328125,0,8.1510009765625-3.72900390625,8.1510009765625-8.77801513671875,0-5.08197021484375-3.59698486328125-8.81097412109375-8.1510009765625-8.81097412109375-2.4420166015625,0-4.35601806640625,1.05596923828125-5.3790283203125,2.93701171875v-2.541015625h-4.6199951171875v23.33099365234375h4.6199951171875v-9.07501220703125c1.02301025390625,1.88104248046875,2.93701171875,2.93701171875,5.3790283203125,2.93701171875m-29.10601806640625-.39599609375h5.34600830078125l3.16900634765625-4.8179931640625,3.2340087890625,4.8179931640625h5.37896728515625l-5.84197998046875-8.67901611328125,5.47900390625-8.11798095703125h-5.4119873046875l-2.8060302734375,4.19097900390625-2.8380126953125-4.19097900390625h-5.37799072265625l5.44500732421875,8.052001953125-5.7760009765625,8.7449951171875Zm-17.05999755859375,0h16.07098388671875v-4.38897705078125h-11.25299072265625v-5.54400634765625h8.61297607421875v-4.3890380859375h-8.61297607421875v-4.52099609375h10.46099853515625v-4.38897705078125h-15.27899169921875v23.23199462890625Z" style="fill: #fff; stroke-width: 0px;"/>
      </g>
      <g>
        <path d="m398.968994140625,319.08258056640625c0-110.1719970703125-89.311981201171875-199.4840087890625-199.483993530273438-199.4840087890625S0,208.91058349609375,0,319.08258056640625s89.31298828125,199.484008789063409,199.485000610351562,199.484008789063409,199.483993530273438-89.312011718750909,199.483993530273438-199.484008789063409" style="fill: #234f41; stroke-width: 0px;"/>
        <path d="m291.305694580078125,334.932098388671875c-3.365997314453125,0-6.73199462890625,1.352996826171875-6.73199462890625,5.477996826171875,0,2.144989013671875,1.22100830078125,4.058990478515625,4.785003662109375,4.785003662109375l1.91400146484375.39599609375c1.319976806640625.264007568359375,1.748992919921875.82501220703125,1.748992919921875,1.584014892578125,0,.8909912109375-.8909912109375,1.517974853515625-2.342987060546875,1.517974853515625-1.81500244140625,0-4.25701904296875-.824981689453125-6.27001953125-2.342987060546875v4.125c1.12200927734375.82501220703125,3.399017333984375,2.045989990234375,6.27001953125,2.045989990234375,4.52099609375,0,7.02899169921875-1.946990966796875,7.02899169921875-5.279998779296875,0-2.4749755859375-1.22100830078125-4.48797607421875-4.587005615234375-5.246978759765625l-2.376007080078125-.52801513671875c-1.121978759765625-.264007568359375-1.550994873046875-.7919921875-1.550994873046875-1.451995849609375,0-.858001708984375.82501220703125-1.32000732421875,2.144989013671875-1.32000732421875,1.61700439453125,0,3.927001953125.593994140625,5.5770263671875,1.748992919921875v-3.89398193359375c-1.35302734375-.989990234375-3.46502685546875-1.61700439453125-5.610015869140625-1.61700439453125m-20.954010009765625,6.699005126953125c.52801513671875-2.079010009765625,1.881011962890625-3.069000244140625,3.76202392578125-3.069000244140625,1.946990966796875,0,3.20098876953125,1.385986328125,3.29998779296875,3.069000244140625h-7.06201171875Zm4.587005615234375,10.889984130859375c2.90399169921875,0,5.180999755859375-.824981689453125,6.501007080078125-2.01300048828125v-4.09197998046875c-1.584014892578125,1.352996826171875-3.6300048828125,2.21099853515625-5.709014892578125,2.21099853515625-3.134979248046875,0-4.98297119140625-1.485015869140625-5.444976806640625-3.8280029296875h11.714996337890625c.759002685546875-5.412017822265625-1.847991943359375-9.86700439453125-7.5570068359375-9.86700439453125-5.04901123046875,0-8.447998046875,3.894012451171875-8.447998046875,8.811004638671875,0,5.24700927734375,3.563995361328125,8.777984619140625,8.9429931640625,8.777984619140625m-19.8330078125,0c4.917022705078125,0,8.118011474609375-3.10198974609375,8.118011474609375-7.85400390625v-9.3389892578125h-4.6199951171875v9.17401123046875c0,2.30999755859375-1.386016845703125,3.8280029296875-3.498016357421875,3.8280029296875s-3.49798583984375-1.51800537109375-3.49798583984375-3.8280029296875v-9.17401123046875h-4.6199951171875v9.3389892578125c0,4.75201416015625,3.20098876953125,7.85400390625,8.11798095703125,7.85400390625m-25.343994140625-8.777984619140625c0-2.6400146484375,1.91400146484375-4.6199951171875,4.422012329101562-4.6199951171875s4.421981811523438,1.97998046875,4.421981811523438,4.6199951171875c0,2.639984130859375-1.913970947265625,4.587005615234375-4.421981811523438,4.587005615234375s-4.422012329101562-1.947021484375-4.422012329101562-4.587005615234375m3.465011596679688,8.777984619140625c2.442001342773438,0,4.388992309570312-1.0889892578125,5.378982543945312-2.970001220703125v9.108001708984375h4.620025634765625v-23.33099365234375h-4.620025634765625v2.60699462890625c-.989990234375-1.91400146484375-2.936981201171875-3.00299072265625-5.378982543945312-3.00299072265625-4.587005615234375,0-8.1510009765625,3.72900390625-8.1510009765625,8.811004638671875,0,5.048980712890625,3.563995361328125,8.777984619140625,8.1510009765625,8.777984619140625m-16.335006713867188-22.010986328125c0,1.51800537109375,1.188003540039062,2.80499267578125,2.8380126953125,2.80499267578125,1.616989135742188,0,2.871002197265625-1.2869873046875,2.871002197265625-2.80499267578125s-1.254013061523438-2.8380126953125-2.871002197265625-2.8380126953125c-1.650009155273438,0-2.8380126953125,1.32000732421875-2.8380126953125,2.8380126953125m5.180999755859375,4.8179931640625h-12.2760009765625v-.527984619140625c0-2.343017578125,1.386001586914062-3.3330078125,2.8380126953125-3.3330078125,1.18798828125,0,2.01300048828125.2969970703125,2.738983154296875.725982666015625v-4.0260009765625c-1.18798828125-.4949951171875-2.474990844726562-.75897216796875-3.563995361328125-.75897216796875-3.761993408203125,0-6.63299560546875,2.30999755859375-6.63299560546875,7.160980224609375v.759002685546875h-2.70599365234375v3.8280029296875h2.70599365234375v12.968994140625h4.6199951171875v-12.968994140625h7.656005859375v12.968994140625h4.6199951171875v-16.7969970703125Zm-27.522003173828125-4.8179931640625c0,1.51800537109375,1.188018798828125,2.80499267578125,2.8380126953125,2.80499267578125,1.61700439453125,0,2.871002197265625-1.2869873046875,2.871002197265625-2.80499267578125s-1.253997802734375-2.8380126953125-2.871002197265625-2.8380126953125c-1.649993896484375,0-2.8380126953125,1.32000732421875-2.8380126953125,2.8380126953125m5.180999755859375,4.8179931640625h-4.6199951171875v16.7969970703125h4.6199951171875v-16.7969970703125Zm-17.55499267578125-4.52099609375v4.52099609375h-2.70599365234375v3.8280029296875h2.70599365234375v6.23699951171875c0,4.85101318359375,2.871002197265625,7.12799072265625,6.63299560546875,7.12799072265625,1.089004516601562,0,2.376007080078125-.230987548828125,3.563995361328125-.725982666015625v-4.0260009765625c-.725982666015625.39599609375-1.550994873046875.725982666015625-2.738983154296875.725982666015625-1.452011108398438,0-2.805007934570312-.989990234375-2.805007934570312-3.365997314453125v-5.972991943359375h5.543991088867188v-3.8280029296875h-5.543991088867188v-4.52099609375h-4.652999877929688Zm-16.235992431640625,4.52099609375h-4.620010375976562v16.7969970703125h4.620010375976562v-8.777984619140625c0-2.4420166015625,1.4849853515625-4.191009521484375,3.530990600585938-4.191009521484375s3.431991577148438,1.51800537109375,3.431991577148438,3.8280029296875v9.1409912109375h4.620010375976562v-9.76800537109375c0-4.58697509765625-2.639999389648438-7.42498779296875-6.599990844726562-7.42498779296875-2.178009033203125,0-3.927001953125,1.055999755859375-4.983001708984375,2.871002197265625v-2.475006103515625Zm-19.470001220703125,6.303009033203125c.527984619140625-2.079010009765625,1.880996704101562-3.069000244140625,3.761993408203125-3.069000244140625,1.947006225585938,0,3.201004028320312,1.385986328125,3.300003051757812,3.069000244140625h-7.061996459960938Zm4.586990356445312,10.889984130859375c2.904006958007812,0,5.180999755859375-.824981689453125,6.501007080078125-2.01300048828125v-4.09197998046875c-1.583999633789062,1.352996826171875-3.6300048828125,2.21099853515625-5.708999633789062,2.21099853515625-3.135009765625,0-4.983001708984375-1.485015869140625-5.44500732421875-3.8280029296875h11.714996337890625c.759002685546875-5.412017822265625-1.847991943359375-9.86700439453125-7.556991577148438-9.86700439453125-5.048995971679688,0-8.447998046875,3.894012451171875-8.447998046875,8.811004638671875,0,5.24700927734375,3.563995361328125,8.777984619140625,8.9429931640625,8.777984619140625m-17.159988403320312-22.010986328125c0,1.51800537109375,1.18798828125,2.80499267578125,2.837997436523438,2.80499267578125,1.616989135742188,0,2.870986938476562-1.2869873046875,2.870986938476562-2.80499267578125s-1.253997802734375-2.8380126953125-2.870986938476562-2.8380126953125c-1.650009155273438,0-2.837997436523438,1.32000732421875-2.837997436523438,2.8380126953125m5.180999755859375,4.8179931640625h-4.620010375976562v16.7969970703125h4.620010375976562v-16.7969970703125Zm-13.001007080078125,17.1929931640625c1.451995849609375,0,3.662994384765625-.4949951171875,5.115005493164062-1.781982421875v-4.65301513671875c-1.254013061523438,1.451995849609375-3.003005981445312,2.2440185546875-4.884002685546875,2.2440185546875-2.739006042480469,0-4.851005554199219-1.947021484375-4.851005554199219-4.587005615234375,0-2.6400146484375,2.11199951171875-4.6199951171875,4.851005554199219-4.6199951171875,1.91400146484375,0,3.530990600585938.759002685546875,4.784988403320312,2.177978515625v-4.6199951171875c-1.451995849609375-1.2869873046875-3.563995361328125-1.748992919921875-5.0159912109375-1.748992919921875-5.346000671386719,0-9.273002624511719,3.49798583984375-9.273002624511719,8.811004638671875,0,5.279998779296875,3.927001953125,8.777984619140625,9.273002624511719,8.777984619140625m-17.721000671386719-17.5889892578125c-3.365997314453125,0-6.732002258300781,1.352996826171875-6.732002258300781,5.477996826171875,0,2.144989013671875,1.221000671386719,4.058990478515625,4.785003662109375,4.785003662109375l1.91400146484375.39599609375c1.319999694824219.264007568359375,1.749000549316406.82501220703125,1.749000549316406,1.584014892578125,0,.8909912109375-.891006469726562,1.517974853515625-2.343002319335938,1.517974853515625-1.81500244140625,0-4.257003784179688-.824981689453125-6.270004272460938-2.342987060546875v4.125c1.122001647949219.82501220703125,3.399002075195312,2.045989990234375,6.270004272460938,2.045989990234375,4.52099609375,0,7.028999328613281-1.946990966796875,7.028999328613281-5.279998779296875,0-2.4749755859375-1.221000671386719-4.48797607421875-4.586997985839844-5.246978759765625l-2.375999450683594-.52801513671875c-1.122001647949219-.264007568359375-1.551002502441406-.7919921875-1.551002502441406-1.451995849609375,0-.858001708984375.824996948242188-1.32000732421875,2.144996643066406-1.32000732421875,1.61700439453125,0,3.927001953125.593994140625,5.577003479003906,1.748992919921875v-3.89398193359375c-1.353004455566406-.989990234375-3.465003967285156-1.61700439453125-5.610000610351562-1.61700439453125" style="fill: #fff; stroke-width: 0px;"/>
        <path d="m305.77569580078125,298.93206787109375c-3.365997314453125,0-6.73199462890625,1.35296630859375-6.73199462890625,5.47796630859375,0,2.14501953125,1.220977783203125,4.05902099609375,4.785003662109375,4.7850341796875l1.91400146484375.39599609375c1.32000732421875.26397705078125,1.748992919921875.82501220703125,1.748992919921875,1.583984375,0,.8909912109375-.891021728515625,1.51800537109375-2.342987060546875,1.51800537109375-1.81500244140625,0-4.25701904296875-.82501220703125-6.27001953125-2.343017578125v4.125c1.12200927734375.82501220703125,3.39898681640625,2.0460205078125,6.27001953125,2.0460205078125,4.52099609375,0,7.02899169921875-1.947021484375,7.02899169921875-5.280029296875,0-2.4749755859375-1.22100830078125-4.48797607421875-4.587005615234375-5.2469482421875l-2.376007080078125-.52801513671875c-1.12200927734375-.26397705078125-1.550994873046875-.7919921875-1.550994873046875-1.4520263671875,0-.85797119140625.824981689453125-1.32000732421875,2.144989013671875-1.32000732421875,1.61700439453125,0,3.927001953125.59405517578125,5.5770263671875,1.7490234375v-3.89398193359375c-1.35302734375-.989990234375-3.46502685546875-1.61700439453125-5.610015869140625-1.61700439453125m-20.954010009765625,6.698974609375c.52801513671875-2.0789794921875,1.881011962890625-3.0689697265625,3.76202392578125-3.0689697265625,1.946990966796875,0,3.20098876953125,1.385986328125,3.29998779296875,3.0689697265625h-7.06201171875Zm4.587005615234375,10.8900146484375c2.904022216796875,0,5.180999755859375-.82501220703125,6.501007080078125-2.01300048828125v-4.09197998046875c-1.583984375,1.35296630859375-3.6300048828125,2.21099853515625-5.708984375,2.21099853515625-3.135009765625,0-4.9830322265625-1.48504638671875-5.44500732421875-3.8280029296875h11.7149658203125c.759033203125-5.4119873046875-1.84796142578125-9.86700439453125-7.556976318359375-9.86700439453125-5.048980712890625,0-8.447998046875,3.89398193359375-8.447998046875,8.81097412109375,0,5.24700927734375,3.563995361328125,8.77801513671875,8.9429931640625,8.77801513671875m-16.269012451171875,0c1.4520263671875,0,3.66302490234375-.4949951171875,5.115020751953125-1.781982421875v-4.65301513671875c-1.253997802734375,1.4520263671875-3.003021240234375,2.2440185546875-4.884002685546875,2.2440185546875-2.739013671875,0-4.85101318359375-1.947021484375-4.85101318359375-4.5870361328125s2.11199951171875-4.6199951171875,4.85101318359375-4.6199951171875c1.91400146484375,0,3.531005859375.759033203125,4.785003662109375,2.17803955078125v-4.62005615234375c-1.451995849609375-1.2869873046875-3.563995361328125-1.74896240234375-5.016021728515625-1.74896240234375-5.345977783203125,0-9.272979736328125,3.49798583984375-9.272979736328125,8.81097412109375,0,5.280029296875,3.927001953125,8.77801513671875,9.272979736328125,8.77801513671875m-23.660980224609375-17.1929931640625h-4.620010375976562v16.7969970703125h4.620010375976562v-8.77801513671875c0-2.4420166015625,1.485000610351562-4.19097900390625,3.530990600585938-4.19097900390625,2.046005249023438,0,3.431991577148438,1.51800537109375,3.431991577148438,3.8280029296875v9.1409912109375h4.6199951171875v-9.76800537109375c0-4.58697509765625-2.639984130859375-7.42498779296875-6.5999755859375-7.42498779296875-2.178009033203125,0-3.927001953125,1.05596923828125-4.983001708984375,2.8709716796875v-2.4749755859375Zm-18.710006713867188,11.64898681640625c0-1.18798828125.990005493164062-2.01300048828125,2.541000366210938-2.01300048828125,1.12200927734375,0,2.21099853515625.363037109375,3.135009765625.95703125v.032958984375c-.099014282226562,1.81500244140625-1.51800537109375,2.97003173828125-3.3330078125,2.97003173828125-1.41900634765625,0-2.343002319335938-.759033203125-2.343002319335938-1.947021484375m5.676010131835938-4.78497314453125v.7919921875c-.990005493164062-.72601318359375-2.541000366210938-1.22100830078125-4.125-1.22100830078125-3.531005859375,0-6.03900146484375,2.177978515625-6.03900146484375,5.34600830078125,0,3.10198974609375,2.375991821289062,5.4119873046875,5.642990112304688,5.4119873046875,2.046005249023438,0,3.762008666992188-.989990234375,4.521011352539062-2.541015625v2.14501953125h4.6199951171875v-10.197021484375c0-4.125-3.266998291015625-6.9959716796875-8.052001953125-6.9959716796875-2.046005249023438,0-4.158004760742188.56097412109375-5.74200439453125,1.781982421875v4.09197998046875c1.452011108398438-1.220947265625,3.201004028320312-1.94696044921875,5.082000732421875-1.94696044921875,2.442001342773438,0,4.092010498046875,1.22100830078125,4.092010498046875,3.3330078125m-18.678009033203125-7.260009765625c-3.365997314453125,0-6.73199462890625,1.35296630859375-6.73199462890625,5.47796630859375,0,2.14501953125,1.22100830078125,4.05902099609375,4.785003662109375,4.7850341796875l1.91400146484375.39599609375c1.319992065429688.26397705078125,1.748992919921875.82501220703125,1.748992919921875,1.583984375,0,.8909912109375-.8909912109375,1.51800537109375-2.343002319335938,1.51800537109375-1.81500244140625,0-4.257003784179688-.82501220703125-6.270004272460938-2.343017578125v4.125c1.12200927734375.82501220703125,3.399002075195312,2.0460205078125,6.270004272460938,2.0460205078125,4.521011352539062,0,7.029006958007812-1.947021484375,7.029006958007812-5.280029296875,0-2.4749755859375-1.22100830078125-4.48797607421875-4.587005615234375-5.2469482421875l-2.376007080078125-.52801513671875c-1.121994018554688-.26397705078125-1.550994873046875-.7919921875-1.550994873046875-1.4520263671875,0-.85797119140625.82501220703125-1.32000732421875,2.145004272460938-1.32000732421875,1.616989135742188,0,3.926986694335938.59405517578125,5.576995849609375,1.7490234375v-3.89398193359375c-1.352996826171875-.989990234375-3.464996337890625-1.61700439453125-5.610000610351562-1.61700439453125m-15.542999267578125,0c-3.365997314453125,0-6.73199462890625,1.35296630859375-6.73199462890625,5.47796630859375,0,2.14501953125,1.220993041992188,4.05902099609375,4.785003662109375,4.7850341796875l1.91400146484375.39599609375c1.319992065429688.26397705078125,1.748992919921875.82501220703125,1.748992919921875,1.583984375,0,.8909912109375-.8909912109375,1.51800537109375-2.343002319335938,1.51800537109375-1.81500244140625,0-4.257003784179688-.82501220703125-6.270004272460938-2.343017578125v4.125c1.12200927734375.82501220703125,3.399002075195312,2.0460205078125,6.270004272460938,2.0460205078125,4.521011352539062,0,7.029006958007812-1.947021484375,7.029006958007812-5.280029296875,0-2.4749755859375-1.22100830078125-4.48797607421875-4.587005615234375-5.2469482421875l-2.376007080078125-.52801513671875c-1.121994018554688-.26397705078125-1.550994873046875-.7919921875-1.550994873046875-1.4520263671875,0-.85797119140625.82501220703125-1.32000732421875,2.145004272460938-1.32000732421875,1.616989135742188,0,3.926986694335938.59405517578125,5.576995849609375,1.7490234375v-3.89398193359375c-1.352996826171875-.989990234375-3.464996337890625-1.61700439453125-5.610000610351562-1.61700439453125m-15.311996459960938-4.4219970703125c0,1.51800537109375,1.188003540039062,2.80499267578125,2.837997436523438,2.80499267578125,1.61700439453125,0,2.871002197265625-1.2869873046875,2.871002197265625-2.80499267578125s-1.253997802734375-2.8380126953125-2.871002197265625-2.8380126953125c-1.649993896484375,0-2.837997436523438,1.32000732421875-2.837997436523438,2.8380126953125m5.180999755859375,4.8179931640625h-4.620010375976562v16.7969970703125h4.620010375976562v-16.7969970703125Zm-18.710006713867188,11.64898681640625c0-1.18798828125.990005493164062-2.01300048828125,2.541015625-2.01300048828125,1.121978759765625,0,2.21099853515625.363037109375,3.134979248046875.95703125v.032958984375c-.0989990234375,1.81500244140625-1.517990112304688,2.97003173828125-3.332992553710938,2.97003173828125-1.418991088867188,0-2.343002319335938-.759033203125-2.343002319335938-1.947021484375m5.675994873046875-4.78497314453125v.7919921875c-.989990234375-.72601318359375-2.540985107421875-1.22100830078125-4.125-1.22100830078125-3.530990600585938,0-6.038986206054688,2.177978515625-6.038986206054688,5.34600830078125,0,3.10198974609375,2.375991821289062,5.4119873046875,5.642990112304688,5.4119873046875,2.046005249023438,0,3.762008666992188-.989990234375,4.52099609375-2.541015625v2.14501953125h4.620010375976562v-10.197021484375c0-4.125-3.266998291015625-6.9959716796875-8.052001953125-6.9959716796875-2.046005249023438,0-4.158004760742188.56097412109375-5.741989135742188,1.781982421875v4.09197998046875c1.451995849609375-1.220947265625,3.20098876953125-1.94696044921875,5.082000732421875-1.94696044921875,2.441986083984375,0,4.09197998046875,1.22100830078125,4.09197998046875,3.3330078125m-24.61798095703125-6.864013671875h-4.620010375976562v16.7969970703125h4.620010375976562v-8.77801513671875c0-2.4420166015625,1.4849853515625-4.19097900390625,3.530990600585938-4.19097900390625s3.431991577148438,1.51800537109375,3.431991577148438,3.8280029296875v9.1409912109375h4.620010375976562v-9.76800537109375c0-4.58697509765625-2.639999389648438-7.42498779296875-6.600006103515625-7.42498779296875-2.177993774414062,0-3.926986694335938,1.05596923828125-4.982986450195312,2.8709716796875v-2.4749755859375Zm-19.99700927734375,0h-4.6199951171875v16.7969970703125h4.6199951171875v-8.77801513671875c0-2.4420166015625,1.485000610351562-4.19097900390625,3.531005859375-4.19097900390625,2.045989990234375,0,3.431991577148438,1.51800537109375,3.431991577148438,3.8280029296875v9.1409912109375h4.620010375976562v-9.76800537109375c0-4.58697509765625-2.6400146484375-7.42498779296875-6.600006103515625-7.42498779296875-2.178009033203125,0-3.927001953125,1.05596923828125-4.983001708984375,2.8709716796875v-2.4749755859375Zm-21.152999877929688,8.41497802734375c0-2.6400146484375,1.91400146484375-4.6199951171875,4.4219970703125-4.6199951171875,2.508003234863281,0,4.422004699707031,1.97998046875,4.422004699707031,4.6199951171875s-1.91400146484375,4.5870361328125-4.422004699707031,4.5870361328125c-2.50799560546875,0-4.4219970703125-1.947021484375-4.4219970703125-4.5870361328125m4.4219970703125,8.77801513671875c5.115005493164062,0,9.108001708984375-3.8280029296875,9.108001708984375-8.77801513671875,0-5.0159912109375-3.992996215820312-8.81097412109375-9.108001708984375-8.81097412109375-5.147994995117188,0-9.107994079589844,3.79498291015625-9.107994079589844,8.81097412109375,0,4.95001220703125,3.959999084472656,8.77801513671875,9.107994079589844,8.77801513671875m-17.852996826171875,0c2.21099853515625,0,4.751998901367188-.72601318359375,6.698997497558594-2.0460205078125v-5.114990234375c-1.749000549316406,1.7490234375-4.190994262695312,2.739013671875-6.566993713378906,2.739013671875-4.752006530761719,0-7.986007690429688-3.20098876953125-7.986007690429688-7.5570068359375,0-4.38897705078125,3.234001159667969-7.62298583984375,7.986007690429688-7.62298583984375,2.375999450683594,0,4.784996032714844.989990234375,6.566993713378906,2.739013671875v-5.11505126953125c-1.946998596191406-1.3199462890625-4.487998962402344-2.04595947265625-6.698997497558594-2.04595947265625-7.359001159667969,0-12.836997985839844,5.18096923828125-12.836997985839844,12.04498291015625,0,6.83099365234375,5.477996826171875,11.97900390625,12.836997985839844,11.97900390625" style="fill: #fff; stroke-width: 0px;"/>
      </g>
      <g>
        <path d="m284.5806884765625,764.300682067872003c38.256988525390625,64.947998046875,121.9219970703125,86.584999084472656,186.8699951171875,48.327999114990234,64.948028564453125-38.256999969482422,86.584991455078125-121.922000885009766,48.328033447265625-186.870014190673828-38.258026123046875-64.947998046875-121.922027587890625-86.584991455078125-186.870025634765625-48.327972412109375-64.947998046875,38.256988525390625-86.585006713867188,121.9219970703125-48.3280029296875,186.869987487792969" style="fill: #deb19e; stroke-width: 0px;"/>
        <path d="m470.439483642578125,693.379577636719659h-4.6199951171875v16.797004699707031h4.6199951171875v-8.777992248535156c0-2.442001342773438,1.485015869140625-4.191009521484375,3.531005859375-4.191009521484375,2.0460205078125,0,3.4320068359375,1.51800537109375,3.4320068359375,3.8280029296875v9.140998840332031h4.6199951171875v-9.767997741699219c0-4.587005615234375-2.639984130859375-7.425003051757812-6.5999755859375-7.425003051757812-2.178009033203125,0-3.927001953125,1.055999755859375-4.9830322265625,2.871002197265625v-2.475006103515625Zm-21.152984619140625,8.415008544921875c0-2.639999389648438,1.91400146484375-4.620010375976562,4.422027587890625-4.620010375976562,2.50799560546875,0,4.4219970703125,1.980010986328125,4.4219970703125,4.620010375976562s-1.91400146484375,4.586997985839844-4.4219970703125,4.586997985839844c-2.508026123046875,0-4.422027587890625-1.946998596191406-4.422027587890625-4.586997985839844m4.422027587890625,8.777999877929688c5.114990234375,0,9.10797119140625-3.8280029296875,9.10797119140625-8.777999877929688,0-5.016006469726562-3.99298095703125-8.811004638671875-9.10797119140625-8.811004638671875-5.14801025390625,0-9.1080322265625,3.794998168945312-9.1080322265625,8.811004638671875,0,4.949996948242188,3.96002197265625,8.777999877929688,9.1080322265625,8.777999877929688m-17.292022705078125-22.011001586914062c0,1.51800537109375,1.188018798828125,2.80499267578125,2.8380126953125,2.80499267578125,1.616973876953125,0,2.871002197265625-1.2869873046875,2.871002197265625-2.80499267578125s-1.2540283203125-2.837997436523438-2.871002197265625-2.837997436523438c-1.649993896484375,0-2.8380126953125,1.319992065429688-2.8380126953125,2.837997436523438m5.180999755859375,4.8179931640625h-4.6199951171875v16.797004699707031h4.6199951171875v-16.797004699707031Zm-17.555999755859375-4.52099609375v4.52099609375h-2.70599365234375v3.8280029296875h2.70599365234375v6.23699951171875c0,4.851005554199219,2.871002197265625,7.128005981445312,6.63299560546875,7.128005981445312,1.089019775390625,0,2.376007080078125-.231002807617188,3.563995361328125-.726005554199219v-4.0260009765625c-.725982666015625.396003723144531-1.550994873046875.726005554199219-2.738983154296875.726005554199219-1.451995849609375,0-2.805023193359375-.990005493164062-2.805023193359375-3.365997314453125v-5.973007202148438h5.54400634765625v-3.8280029296875h-5.54400634765625v-4.52099609375h-4.652984619140625Zm-14.949005126953125,16.169998168945312c0-1.187995910644531.989990234375-2.01300048828125,2.541015625-2.01300048828125,1.12200927734375,0,2.21099853515625.363006591796875,3.135009765625.957000732421875v.033004760742188c-.0989990234375,1.814994812011719-1.51800537109375,2.970001220703125-3.3330078125,2.970001220703125-1.41900634765625,0-2.343017578125-.759002685546875-2.343017578125-1.947006225585938m5.676025390625-4.785003662109375v.792007446289062c-.990020751953125-.725997924804688-2.541015625-1.22100830078125-4.125-1.22100830078125-3.531005859375,0-6.03900146484375,2.178009033203125-6.03900146484375,5.34600830078125,0,3.101997375488281,2.3759765625,5.412002563476562,5.642974853515625,5.412002563476562,2.045989990234375,0,3.761993408203125-.990005493164062,4.521026611328125-2.541000366210938v2.144996643066406h4.6199951171875v-10.196998596191406c0-4.125-3.26702880859375-6.996002197265625-8.052001953125-6.996002197265625-2.0460205078125,0-4.15802001953125.561004638671875-5.74200439453125,1.781997680664062v4.091995239257812c1.451995849609375-1.220993041992188,3.20098876953125-1.946990966796875,5.082000732421875-1.946990966796875,2.441986083984375,0,4.092010498046875,1.220993041992188,4.092010498046875,3.332992553710938m-21.1190185546875,10.329010009765625c4.9169921875,0,8.118011474609375-3.102005004882812,8.118011474609375-7.85400390625v-9.339004516601562h-4.621002197265625v9.17401123046875c0,2.309989929199219-1.385009765625,3.827995300292969-3.49700927734375,3.827995300292969s-3.498992919921875-1.51800537109375-3.498992919921875-3.827995300292969v-9.17401123046875h-4.6199951171875v9.339004516601562c0,4.751998901367188,3.20098876953125,7.85400390625,8.118988037109375,7.85400390625m-11.8800048828125-23.628005981445312h-4.6199951171875v23.232002258300781h4.6199951171875v-23.232002258300781Zm-18.71099853515625,18.083999633789062c0-1.187995910644531.989990234375-2.01300048828125,2.541015625-2.01300048828125,1.121978759765625,0,2.21099853515625.363006591796875,3.134979248046875.957000732421875v.033004760742188c-.0989990234375,1.814994812011719-1.517974853515625,2.970001220703125-3.332977294921875,2.970001220703125-1.41900634765625,0-2.343017578125-.759002685546875-2.343017578125-1.947006225585938m5.675994873046875-4.785003662109375v.792007446289062c-.989990234375-.725997924804688-2.540985107421875-1.22100830078125-4.125-1.22100830078125-3.530975341796875,0-6.03900146484375,2.178009033203125-6.03900146484375,5.34600830078125,0,3.101997375488281,2.376007080078125,5.412002563476562,5.64300537109375,5.412002563476562,2.045989990234375,0,3.761993408203125-.990005493164062,4.52099609375-2.541000366210938v2.144996643066406h4.620025634765625v-10.196998596191406c0-4.125-3.26702880859375-6.996002197265625-8.052001953125-6.996002197265625-2.0460205078125,0-4.15802001953125.561004638671875-5.74200439453125,1.781997680664062v4.091995239257812c1.451995849609375-1.220993041992188,3.20098876953125-1.946990966796875,5.082000732421875-1.946990966796875,2.441986083984375,0,4.09197998046875,1.220993041992188,4.09197998046875,3.332992553710938m-21.944000244140625,9.933006286621094h3.761016845703125l7.425994873046875-16.797004699707031h-5.016998291015625l-4.28900146484375,10.758003234863281-4.2239990234375-10.758003234863281h-5.082000732421875l7.42498779296875,16.797004699707031Zm-18.71099853515625-25.146003723144531h4.25701904296875l3.39898681640625-4.4219970703125h-5.082000732421875l-2.574005126953125,4.4219970703125Zm-4.9169921875,25.146003723144531h16.07098388671875v-4.388999938964844h-11.25299072265625v-5.54400634765625h8.613006591796875v-4.388992309570312h-8.613006591796875v-4.52099609375h10.46099853515625v-4.389007568359375h-15.27899169921875v23.232002258300781Z" style="fill: #fff; stroke-width: 0px;"/>
      </g>
      <g>
        <path d="m982.673614501953125,558.566894531250909c-75.37799072265625,0-136.4840087890625,61.106002807617188-136.4840087890625,136.483993530273438,0,75.379013061523438,61.10601806640625,136.485000610351562,136.4840087890625,136.485000610351562,75.3780517578125,0,136.4840087890625-61.105987548828125,136.4840087890625-136.485000610351562,0-75.37799072265625-61.10595703125-136.483993530273438-136.4840087890625-136.483993530273438" style="fill: #edc034; stroke-width: 0px;"/>
        <path d="m1056.740509033203125,701.451782226563409h-4.6199951171875v23.232002258300781h4.6199951171875v-23.232002258300781Zm-18.7099609375,18.083999633789062c0-1.187995910644531.989990234375-2.01300048828125,2.541015625-2.01300048828125,1.1219482421875,0,2.2109375.363006591796875,3.135009765625.957000732421875v.033004760742188c-.0989990234375,1.814994812011719-1.51806640625,2.970001220703125-3.3330078125,2.970001220703125-1.4190673828125,0-2.343017578125-.759002685546875-2.343017578125-1.947006225585938m5.676025390625-4.784996032714844v.791999816894531c-.9901123046875-.725997924804688-2.541015625-1.221000671386719-4.125-1.221000671386719-3.531005859375,0-6.0390625,2.178001403808594-6.0390625,5.346000671386719,0,3.101997375488281,2.3759765625,5.412002563476562,5.64306640625,5.412002563476562,2.0458984375,0,3.761962890625-.990005493164062,4.52099609375-2.541000366210938v2.144996643066406h4.6199951171875v-10.196998596191406c0-4.125-3.26708984375-6.996002197265625-8.052001953125-6.996002197265625-2.0460205078125,0-4.1580810546875.560997009277344-5.7420654296875,1.781997680664062v4.092002868652344c1.4520263671875-1.221000671386719,3.2010498046875-1.946998596191406,5.08203125-1.946998596191406,2.4420166015625,0,4.092041015625,1.221000671386719,4.092041015625,3.333000183105469m-18.447021484375-11.681999206542969c0,1.517997741699219,1.18798828125,2.805000305175781,2.8380126953125,2.805000305175781,1.616943359375,0,2.8709716796875-1.287002563476562,2.8709716796875-2.805000305175781,0-1.51800537109375-1.2540283203125-2.837997436523438-2.8709716796875-2.837997436523438-1.6500244140625,0-2.8380126953125,1.319992065429688-2.8380126953125,2.837997436523438m5.1810302734375,4.8179931640625h-4.6201171875v16.797004699707031h4.6201171875v-16.797004699707031Zm-18.87603759765625,16.797004699707031h4.6199951171875v-7.524002075195312c.03302001953125-3.299995422363281,1.94696044921875-5.378997802734375,4.38897705078125-5.378997802734375.8580322265625,0,1.91400146484375.165000915527344,2.8380126953125.725997924804688v-4.388999938964844c-.7919921875-.429000854492188-1.7490234375-.626998901367188-2.573974609375-.626998901367188-2.2440185546875,0-4.05902099609375,1.616996765136719-4.65301513671875,3.8280029296875v-3.4320068359375h-4.6199951171875v16.797004699707031Zm-16.53302001953125-8.382003784179688c0-2.639999389648438,1.91400146484375-4.6199951171875,4.4219970703125-4.6199951171875s4.4219970703125,1.979995727539062,4.4219970703125,4.6199951171875c0,2.640007019042969-1.91400146484375,4.587005615234375-4.4219970703125,4.587005615234375s-4.4219970703125-1.946998596191406-4.4219970703125-4.587005615234375m4.4219970703125,8.778007507324219c5.114990234375,0,9.1080322265625-3.8280029296875,9.1080322265625-8.778007507324219,0-5.015998840332031-3.9930419921875-8.810997009277344-9.1080322265625-8.810997009277344-5.14801025390625,0-9.10797119140625,3.794998168945312-9.10797119140625,8.810997009277344,0,4.950004577636719,3.9599609375,8.778007507324219,9.10797119140625,8.778007507324219m-20.69000244140625-21.714004516601562v4.52099609375h-2.70599365234375v3.8280029296875h2.70599365234375v6.23699951171875c0,4.850997924804688,2.87103271484375,7.128005981445312,6.63299560546875,7.128005981445312,1.0889892578125,0,2.37603759765625-.231002807617188,3.56402587890625-.726005554199219v-4.0260009765625c-.72601318359375.396003723144531-1.551025390625.726005554199219-2.739013671875.726005554199219-1.4520263671875,0-2.80499267578125-.990005493164062-2.80499267578125-3.366004943847656v-5.972999572753906h5.54400634765625v-3.8280029296875h-5.54400634765625v-4.52099609375h-4.65301513671875Zm-10.2960205078125-.2969970703125c0,1.517997741699219,1.18804931640625,2.805000305175781,2.8380126953125,2.805000305175781,1.61700439453125,0,2.87103271484375-1.287002563476562,2.87103271484375-2.805000305175781,0-1.51800537109375-1.2540283203125-2.837997436523438-2.87103271484375-2.837997436523438-1.64996337890625,0-2.8380126953125,1.319992065429688-2.8380126953125,2.837997436523438m5.1810302734375,4.8179931640625h-4.6199951171875v16.797004699707031h4.6199951171875v-16.797004699707031Zm-18.8759765625,16.797004699707031h4.6199951171875v-7.524002075195312c.032958984375-3.299995422363281,1.94696044921875-5.378997802734375,4.38897705078125-5.378997802734375.8580322265625,0,1.91400146484375.165000915527344,2.8380126953125.725997924804688v-4.388999938964844c-.7919921875-.429000854492188-1.7490234375-.626998901367188-2.57403564453125-.626998901367188-2.24395751953125,0-4.0589599609375,1.616996765136719-4.6529541015625,3.8280029296875v-3.4320068359375h-4.6199951171875v16.797004699707031Zm-14.25604248046875,0h4.6199951171875v-7.524002075195312c.03302001953125-3.299995422363281,1.947021484375-5.378997802734375,4.3890380859375-5.378997802734375.85797119140625,0,1.91400146484375.165000915527344,2.8380126953125.725997924804688v-4.388999938964844c-.79205322265625-.429000854492188-1.7490234375-.626998901367188-2.57403564453125-.626998901367188-2.2440185546875,0-4.05902099609375,1.616996765136719-4.65301513671875,3.8280029296875v-3.4320068359375h-4.6199951171875v16.797004699707031Zm-14.8489990234375-10.494003295898438c.52801513671875-2.078994750976562,1.88104248046875-3.069000244140625,3.76202392578125-3.069000244140625,1.94696044921875,0,3.20098876953125,1.386001586914062,3.29998779296875,3.069000244140625h-7.06201171875Zm4.5870361328125,10.890007019042969c2.90399169921875,0,5.18096923828125-.825004577636719,6.5009765625-2.01300048828125v-4.092002868652344c-1.583984375,1.352996826171875-3.6300048828125,2.21099853515625-5.708984375,2.21099853515625-3.135009765625,0-4.9830322265625-1.485000610351562-5.44500732421875-3.8280029296875h11.7149658203125c.759033203125-5.411994934082031-1.84796142578125-9.866996765136719-7.55694580078125-9.866996765136719-5.04901123046875,0-8.447998046875,3.893997192382812-8.447998046875,8.810997009277344,0,5.247001647949219,3.56396484375,8.778007507324219,8.9429931640625,8.778007507324219m-20.55902099609375-21.714004516601562v4.52099609375h-2.70599365234375v3.8280029296875h2.70599365234375v6.23699951171875c0,4.850997924804688,2.8709716796875,7.128005981445312,6.63299560546875,7.128005981445312,1.0889892578125,0,2.3759765625-.231002807617188,3.56402587890625-.726005554199219v-4.0260009765625c-.72601318359375.396003723144531-1.551025390625.726005554199219-2.739013671875.726005554199219-1.4520263671875,0-2.80499267578125-.990005493164062-2.80499267578125-3.366004943847656v-5.972999572753906h5.54400634765625v-3.8280029296875h-5.54400634765625v-4.52099609375h-4.65301513671875Z" style="fill: #fff; stroke-width: 0px;"/>
        <path d="m1035.687164306640625,678.189773559571222c.528076171875-2.078994750976562,1.881103515625-3.069000244140625,3.7620849609375-3.069000244140625,1.9468994140625,0,3.200927734375,1.386001586914062,3.2999267578125,3.069000244140625h-7.06201171875Zm4.5870361328125,10.889999389648438c2.904052734375,0,5.1810302734375-.824996948242188,6.5009765625-2.01300048828125v-4.091995239257812c-1.583984375,1.352996826171875-3.6300048828125,2.21099853515625-5.708984375,2.21099853515625-3.135009765625,0-4.9830322265625-1.485000610351562-5.4449462890625-3.8280029296875h11.7149658203125c.759033203125-5.412002563476562-1.8480224609375-9.866989135742188-7.5570068359375-9.866989135742188-5.0489501953125,0-8.447998046875,3.893997192382812-8.447998046875,8.810989379882812,0,5.24700927734375,3.56396484375,8.777999877929688,8.9429931640625,8.777999877929688m-25.2769775390625-9.108001708984375c0-2.541000366210938,1.91400146484375-4.4219970703125,4.35595703125-4.4219970703125,2.4420166015625,0,4.322998046875,1.880996704101562,4.322998046875,4.4219970703125s-1.8809814453125,4.422012329101562-4.322998046875,4.422012329101562c-2.44195556640625,0-4.35595703125-1.881011962890625-4.35595703125-4.422012329101562m3.365966796875,8.481002807617188c2.40899658203125,0,4.322998046875-1.022994995117188,5.31298828125-2.871002197265625v1.485000610351562c0,3.167999267578125-2.24395751953125,4.719009399414062-5.114990234375,4.719009399414062-1.91400146484375,0-4.157958984375-.660003662109375-6.03900146484375-1.91400146484375v3.893997192382812c1.98004150390625,1.220993041992188,4.62005615234375,1.847991943359375,6.83099365234375,1.847991943359375,5.08203125,0,8.9429931640625-3.069000244140625,8.9429931640625-8.315994262695312v-15.410995483398438h-4.6199951171875v2.474990844726562c-.989990234375-1.814987182617188-2.90399169921875-2.870986938476562-5.31298828125-2.870986938476562-4.52099609375,0-8.052001953125,3.597000122070312-8.052001953125,8.480987548828125,0,4.884002685546875,3.531005859375,8.481002807617188,8.052001953125,8.481002807617188m-21.1529541015625-4.9169921875c0-1.188003540039062.989990234375-2.01300048828125,2.54095458984375-2.01300048828125,1.12200927734375,0,2.21099853515625.362991333007812,3.135009765625.957000732421875v.032989501953125c-.0989990234375,1.81500244140625-1.51800537109375,2.970001220703125-3.3330078125,2.970001220703125-1.41900634765625,0-2.34295654296875-.759002685546875-2.34295654296875-1.946990966796875m5.67596435546875-4.785003662109375v.7919921875c-.989990234375-.725997924804688-2.54095458984375-1.220993041992188-4.125-1.220993041992188-3.531005859375,0-6.03900146484375,2.177993774414062-6.03900146484375,5.345993041992188,0,3.102005004882812,2.37603759765625,5.412002563476562,5.64300537109375,5.412002563476562,2.0460205078125,0,3.76202392578125-.989990234375,4.52099609375-2.541000366210938v2.145004272460938h4.6199951171875v-10.197006225585938c0-4.125-3.2669677734375-6.995986938476562-8.052001953125-6.995986938476562-2.04595947265625,0-4.157958984375.560989379882812-5.74200439453125,1.781997680664062v4.091995239257812c1.4520263671875-1.220993041992188,3.2010498046875-1.947006225585938,5.08203125-1.947006225585938,2.4420166015625,0,4.09197998046875,1.22100830078125,4.09197998046875,3.3330078125m-23.0999755859375,9.932998657226562h4.6199951171875v-7.524002075195312c.03302001953125-3.300003051757812,1.94696044921875-5.378997802734375,4.38897705078125-5.378997802734375.8580322265625,0,1.91400146484375.164993286132812,2.8380126953125.725997924804688v-4.388992309570312c-.7919921875-.429000854492188-1.7490234375-.626998901367188-2.573974609375-.626998901367188-2.2440185546875,0-4.05902099609375,1.616989135742188-4.65301513671875,3.827987670898438v-3.431991577148438h-4.6199951171875v16.7969970703125Zm-8.38201904296875.39599609375c1.4520263671875,0,3.66302490234375-.4949951171875,5.114990234375-1.781997680664062v-4.652999877929688c-1.25396728515625,1.451995849609375-3.00299072265625,2.244003295898438-4.88397216796875,2.244003295898438-2.739013671875,0-4.85101318359375-1.947006225585938-4.85101318359375-4.587005615234375s2.11199951171875-4.6199951171875,4.85101318359375-4.6199951171875c1.91400146484375,0,3.531005859375.759002685546875,4.78497314453125,2.177993774414062v-4.6199951171875c-1.45196533203125-1.287002563476562-3.56396484375-1.748992919921875-5.0159912109375-1.748992919921875-5.34600830078125,0-9.27301025390625,3.49798583984375-9.27301025390625,8.810989379882812,0,5.279998779296875,3.927001953125,8.777999877929688,9.27301025390625,8.777999877929688m-23.65997314453125-17.1929931640625h-4.6199951171875v16.7969970703125h4.6199951171875v-8.777999877929688c0-2.442001342773438,1.4849853515625-4.190994262695312,3.531005859375-4.190994262695312,2.04595947265625,0,3.43194580078125,1.517990112304688,3.43194580078125,3.827987670898438v9.141006469726562h4.62005615234375v-9.76800537109375c0-4.586990356445312-2.6400146484375-7.42498779296875-6.60003662109375-7.42498779296875-2.177978515625,0-3.927001953125,1.055999755859375-4.98297119140625,2.870986938476562v-2.474990844726562Zm-21.84600830078125,7.02899169921875l3.135009765625-7.623001098632812,3.16796875,7.623001098632812h-6.302978515625Zm-9.07501220703125,9.76800537109375h5.04901123046875l2.21099853515625-5.378997802734375h9.9329833984375l2.21099853515625,5.378997802734375h5.0159912109375l-9.66900634765625-23.23199462890625h-5.08197021484375l-9.66900634765625,23.23199462890625Z" style="fill: #fff; stroke-width: 0px;"/>
      </g>
    </g>
  </g>
</svg>
