<?xml version="1.0" encoding="UTF-8"?>
<svg id="Calque_2" data-name="Calque 2" xmlns="http://www.w3.org/2000/svg" xmlns:xlink="http://www.w3.org/1999/xlink" viewBox="0 0 328.177027858788279 316.941698539028948">
  <defs>
    <linearGradient id="New_Gradient_Swatch_3" data-name="New Gradient Swatch 3" x1="-45.525748170611223" y1="20.627581957590337" x2="287.562154153213669" y2="20.627581957590337" gradientTransform="translate(50.700064976512408 95.17738594176592) rotate(20.089515167689182)" gradientUnits="userSpaceOnUse">
      <stop offset="0" stop-color="#298744"/>
      <stop offset="1" stop-color="#1c4d3e"/>
    </linearGradient>
  </defs>
  <g id="Calque_1-2" data-name="Calque 1">
    <path d="m205.186428061313563,87.753903253111275c-4.639133303697236-22.609493824211313-20.02409538289794-38.912488803451197-46.720122112046738-48.676308195264937-15.692096484783178-5.73923593615109-41.126829860379075-4.365658659900873-60.824742003800566,9.342790874577986l8.469309152953429-23.156604444591721L37.035180604158086,0,0,101.260800886606376l69.075692494261602,25.263781487832603,3.157943992338915-8.634383108244947c7.750059372179749-21.19004703482824,23.618182187605271-30.517441511352445,40.499180157725277-24.343376096820066,15.312556130880694,5.600422639887256,20.382957327494296,22.136654747784632,12.916702510980031,42.550729419768686l-40.624937246959234,111.075836933638129,69.08393862163939,25.266797430953375,40.196216149386601-109.903636852826821c7.750059372181568-21.190047034830059,23.61818218760709-30.517441511350626,40.10294540972609-24.488295209896023,15.70054934255495,5.742327488966112,20.391417225315308,22.139748875433725,12.925162408802862,42.553823547419597l-40.624937246957415,111.075836933634491,69.075697085310821,25.263783166963549,42.780599791080022-116.969803483769283c21.244610465413643-58.086560809433649,6.713966867338968-99.884437397266083-38.026586663852868-116.247871873880285-26.695815407703776-9.763742102997639-50.941865659460746-7.955415212016305-75.351189402168529,4.029880071731895" style="fill: url(#New_Gradient_Swatch_3);"/>
  </g>
</svg>