<?xml version="1.0" encoding="UTF-8"?>
<svg id="Calque_2" data-name="Calque 2" xmlns="http://www.w3.org/2000/svg" xmlns:xlink="http://www.w3.org/1999/xlink" viewBox="0 0 202.98435357197377 236.493834794722716">
  <defs>
    <linearGradient id="New_Gradient_Swatch_3" data-name="New Gradient Swatch 3" x1="56.881934522620213" y1="-111.997213283755627" x2="236.756703347278744" y2="-111.997213283755627" gradientTransform="translate(-4.565025919781306 270.449459618846731) rotate(-18.151071746108858)" gradientUnits="userSpaceOnUse">
      <stop offset="0" stop-color="#298744"/>
      <stop offset="1" stop-color="#1c4d3e"/>
    </linearGradient>
  </defs>
  <g id="Calque_1-2" data-name="Calque 1">
    <path d="m4.581176553165278,108.95995157917605c8.855558875835413,27.012056905994541,32.227105661164387,47.922504044257948,80.55823978762055,41.458103912795195l24.433500204522716-3.108749973967861c11.14284494873209-1.418525080724066,15.826858195574459,1.95671732539995,17.413989407566987,6.797933923540768,1.981761550545343,6.04495509861772-3.830000747497252,14.208398945489535-15.920159832297941,18.172003641211631-21.374031684128568,7.007204103392723-55.991790167161525,7.642735629362505-88.806978778262419-2.598997958568361l19.826367674955691,60.476247674927436c14.59052206465276,5.038115770574223,48.502332088108233,11.779612071253723,87.613197099552053-1.042386971585074,59.263608781082439-19.428819455768462,83.574779526814382-54.187384069462496,69.301912398914283-97.723823099018773-10.045213515302748-30.640853153665375-33.413569506443309-52.89507433633662-78.784122048844438-48.283915727912245l-31.94210773146915,3.326462017825179c-8.986674415253219,1.171487086356137-13.949750651467184-1.680316374266113-15.532683668367099-6.508727243675821-2.115178767428006-6.451916816691664,3.562292361362779-13.679548258089198,14.439998979592929-17.245665852431557,19.754463911613129-6.476249433309931,51.560251834111114-8.865753234393196,77.959895325184334-1.896243911269266L146.508998972945847,3.94537585002945c-20.354629902049055-6.266074456469141-49.481556119837478-5.207665569463643-78.10452956755762,4.176011780611589C26.888080869990517,21.732006928050396-13.919344187340357,52.527926673727052,4.581176553165278,108.95995157917605" style="fill: url(#New_Gradient_Swatch_3);"/>
  </g>
</svg>