<svg width="1000" height="1000" viewBox="0 0 1000 1000" fill="none" xmlns="http://www.w3.org/2000/svg">
<rect width="1000" height="1000" fill="#D9D9D9"/>
<path d="M282.26 403.672C282.26 474.294 321.256 541.756 440.372 563.902L500.467 575.468C527.874 580.75 536.321 592.344 536.321 605.002C536.321 620.807 516.28 635.577 484.666 635.577C428.777 635.577 346.551 610.283 277 560.71V718.834C307.549 742.022 382.399 784.186 484.666 784.186C639.63 784.186 723.935 720.94 723.935 607.108C723.935 526.992 685.987 456.365 575.295 432.136L497.303 415.266C475.178 411.076 465.667 400.496 465.667 387.872C465.667 371.002 484.666 358.338 513.11 358.338C564.764 358.338 641.709 377.314 698.645 414.202V265.593C655.437 235.045 585.847 215 511.003 215C402.445 215 282.26 256.122 282.26 403.672Z" fill="white"/>
</svg>
