<svg width="1000" height="1000" viewBox="0 0 1000 1000" fill="none" xmlns="http://www.w3.org/2000/svg">
<rect width="1000" height="1000" fill="#D9D9D9"/>
<path d="M554.342 296.823C523.765 247.288 473.196 222 401.501 222C359.357 222 300.297 247.288 265.513 296.823V234.636H80V506.571H265.513V483.383C265.513 426.478 295.021 390.638 340.357 390.638C381.482 390.638 407.819 425.414 407.819 480.23V778.528H593.354V483.383C593.354 426.478 622.862 390.638 667.134 390.638C709.3 390.638 734.618 425.414 734.618 480.23V778.528H920.131V464.407C920.131 308.416 849.5 222 729.342 222C657.646 222 601.779 247.288 554.342 296.823Z" fill="white"/>
</svg>
