<svg width="1000" height="1000" viewBox="0 0 1000 1000" fill="none" xmlns="http://www.w3.org/2000/svg">
<rect width="1000" height="1000" fill="#D9D9D9"/>
<path d="M431.917 44V304.335C401.345 255.848 349.691 229.513 282.229 229.513C136.754 229.513 24.0222 348.616 24 514.083H211.62C211.642 447.668 259.062 398.15 321.247 398.15C384.319 398.15 431.629 447.424 431.895 513.574H431.806V700.871C431.806 855.825 538.286 957 703.802 957C868.255 957 975.776 855.825 975.776 700.871V400.45H790.246V693.489C790.246 751.458 755.457 789.41 703.802 789.41C651.083 789.41 617.342 751.458 617.342 693.489V514.083H617.452V44H431.917Z" fill="white"/>
</svg>
