<?xml version="1.0" encoding="UTF-8"?>
<svg id="Calque_2" data-name="Calque 2" xmlns="http://www.w3.org/2000/svg" viewBox="0 0 257.93701171875 43.694992065429688">
  <g id="Calque_1-2" data-name="Calque 1">
    <path d="m249.20703125,9.899993896484375c-4.5899658203125,0-9.1800537109375,1.845001220703125-9.1800537109375,7.470001220703125,0,2.925003051757812,1.6650390625,5.535003662109375,6.5250244140625,6.524993896484375l2.6099853515625.540008544921875c1.800048828125.360000610351562,2.385009765625,1.125,2.385009765625,2.159988403320312,0,1.215011596679688-1.2149658203125,2.07000732421875-3.1949462890625,2.07000732421875-2.47509765625,0-5.8050537109375-1.125-8.550048828125-3.19500732421875v5.625c1.530029296875,1.125,4.635009765625,2.790008544921875,8.550048828125,2.790008544921875,6.1649169921875,0,9.5849609375-2.654998779296875,9.5849609375-7.199996948242188,0-3.375-1.6650390625-6.120010375976562-6.2550048828125-7.154998779296875l-3.239990234375-.720001220703125c-1.530029296875-.360000610351562-2.114990234375-1.080001831054688-2.114990234375-1.980010986328125,0-1.169998168945312,1.125-1.79998779296875,2.9249267578125-1.79998779296875,2.205078125,0,5.3551025390625.80999755859375,7.6051025390625,2.384994506835938v-5.30999755859375c-1.8450927734375-1.350006103515625-4.72509765625-2.205001831054688-7.6500244140625-2.205001831054688m-28.5750732421875,9.134994506835938c.7200927734375-2.834991455078125,2.5650634765625-4.18499755859375,5.1300048828125-4.18499755859375,2.655029296875,0,4.364990234375,1.889999389648438,4.5,4.18499755859375h-9.6300048828125Zm6.2550048828125,14.850006103515625c3.9600830078125,0,7.0650634765625-1.125,8.864990234375-2.7449951171875v-5.580001831054688c-2.159912109375,1.845001220703125-4.949951171875,3.014999389648438-7.784912109375,3.014999389648438-4.2750244140625,0-6.7950439453125-2.025009155273438-7.425048828125-5.220001220703125h15.9749755859375c1.0350341796875-7.3800048828125-2.52001953125-13.455001831054688-10.304931640625-13.455001831054688-6.885009765625,0-11.52001953125,5.30999755859375-11.52001953125,12.014999389648438,0,7.154998779296875,4.8599853515625,11.970001220703125,12.1949462890625,11.970001220703125m-27.0439453125,0c6.7049560546875,0,11.0699462890625-4.229995727539062,11.0699462890625-10.710006713867188v-12.735000610351562h-6.2999267578125v12.510009765625c0,3.149993896484375-1.8900146484375,5.220001220703125-4.77001953125,5.220001220703125s-4.77001953125-2.07000732421875-4.77001953125-5.220001220703125v-12.510009765625h-6.2999267578125v12.735000610351562c0,6.480010986328125,4.364990234375,10.710006713867188,11.0699462890625,10.710006713867188m-34.56005859375-11.970001220703125c0-3.600006103515625,2.6099853515625-6.300003051757812,6.030029296875-6.300003051757812s6.030029296875,2.699996948242188,6.030029296875,6.300003051757812-2.6099853515625,6.2550048828125-6.030029296875,6.2550048828125-6.030029296875-2.654998779296875-6.030029296875-6.2550048828125m4.72509765625,11.970001220703125c3.3299560546875,0,5.9849853515625-1.485000610351562,7.3349609375-4.050003051757812v12.419998168945312h6.2999267578125V10.439987182617188h-6.2999267578125v3.555007934570312c-1.3499755859375-2.610000610351562-4.0050048828125-4.095001220703125-7.3349609375-4.095001220703125-6.2550048828125,0-11.1151123046875,5.085006713867188-11.1151123046875,12.014999389648438,0,6.884994506835938,4.860107421875,11.970001220703125,11.1151123046875,11.970001220703125m-22.320068359375-30.014999389648438c0,2.069992065429688,1.6199951171875,3.824996948242188,3.8699951171875,3.824996948242188,2.205078125,0,3.9150390625-1.7550048828125,3.9150390625-3.824996948242188,0-2.07000732421875-1.7099609375-3.8699951171875-3.9150390625-3.8699951171875-2.25,0-3.8699951171875,1.79998779296875-3.8699951171875,3.8699951171875m7.0650634765625,6.569992065429688h-6.300048828125v22.904998779296875h6.300048828125V10.439987182617188Zm-35.9100341796875,5.175003051757812c2.2950439453125,0,3.780029296875,1.889999389648438,3.780029296875,4.949996948242188v12.779998779296875h6.2999267578125v-12.375c0-3.284988403320312,1.6650390625-5.354995727539062,4.22998046875-5.354995727539062,2.340087890625,0,3.8250732421875,1.889999389648438,3.8250732421875,4.949996948242188v12.779998779296875h6.2999267578125v-13.319992065429688c0-6.524993896484375-3.014892578125-10.125-8.0999755859375-10.125-3.1949462890625,0-5.669921875,1.350006103515625-7.469970703125,3.914993286132812-1.260009765625-2.564987182617188-3.5550537109375-3.914993286132812-6.8399658203125-3.914993286132812-2.340087890625,0-4.9949951171875,1.44000244140625-6.300048828125,4.050003051757812v-3.510009765625h-6.300048828125v22.904998779296875h6.300048828125v-12.375c0-3.284988403320312,1.6650390625-5.354995727539062,4.2750244140625-5.354995727539062m-29.7890625,10.710006713867188c0-1.6199951171875,1.35009765625-2.7449951171875,3.465087890625-2.7449951171875,1.5299072265625,0,3.0150146484375.4949951171875,4.2750244140625,1.30499267578125v.044998168945312c-.135009765625,2.475006103515625-2.070068359375,4.050003051757812-4.5450439453125,4.050003051757812-1.93505859375,0-3.195068359375-1.035003662109375-3.195068359375-2.654998779296875m7.7401123046875-6.525009155273438v1.080001831054688c-1.35009765625-.989990234375-3.465087890625-1.664993286132812-5.625-1.664993286132812-4.8150634765625,0-8.235107421875,2.970001220703125-8.235107421875,7.289993286132812,0,4.230010986328125,3.239990234375,7.3800048828125,7.695068359375,7.3800048828125,2.7900390625,0,5.1300048828125-1.350006103515625,6.1650390625-3.464996337890625v2.92498779296875h6.2999267578125v-13.904998779296875c0-5.625-4.4549560546875-9.539993286132812-10.97998046875-9.539993286132812-2.7900390625,0-5.6700439453125.764999389648438-7.8299560546875,2.42999267578125v5.580001831054688c1.97998046875-1.664993286132812,4.364990234375-2.654998779296875,6.929931640625-2.654998779296875,3.330078125,0,5.580078125,1.665008544921875,5.580078125,4.544998168945312m-33.570068359375-9.360000610351562h-6.300048828125v22.904998779296875h6.300048828125v-11.970001220703125c0-3.329986572265625,2.0260009765625-5.714996337890625,4.8150634765625-5.714996337890625,2.7899169921875,0,4.679931640625,2.07000732421875,4.679931640625,5.220001220703125v12.464996337890625h6.300048828125v-13.319992065429688c0-6.2550048828125-3.5999755859375-10.125-9-10.125-2.9700927734375,0-5.35498046875,1.44000244140625-6.7950439453125,3.914993286132812v-3.375Zm-29.4739990234375,33.2550048828125h5.760009765625l14.6700439453125-33.2550048828125h-6.885009765625l-5.9400634765625,14.535003662109375-5.669921875-14.535003662109375h-7.110107421875l9.7650146484375,22.050003051757812-4.5899658203125,11.205001831054688ZM6.5699462890625,27.360000610351562V7.649993896484375h4.18505859375c6.030029296875,0,9.9449462890625,3.8699951171875,9.9449462890625,9.854995727539062,0,5.94000244140625-3.9149169921875,9.855010986328125-9.9449462890625,9.855010986328125h-4.18505859375ZM10.7550048828125,1.664993286132812H0v31.67999267578125h10.7550048828125c9.7650146484375,0,16.5150146484375-6.479995727539062,16.5150146484375-15.839996337890625S20.52001953125,1.664993286132812,10.7550048828125,1.664993286132812" style="fill: #289548; stroke-width: 0px;"/>
  </g>
</svg>