<?xml version="1.0" encoding="UTF-8"?>
<svg id="Calque_2" data-name="Calque 2" xmlns="http://www.w3.org/2000/svg" viewBox="0 0 272.999336576240239 273.000142750807754">
  <g id="Calque_1-2" data-name="Calque 1">
    <g>
      <path d="m1.183161675549854,154.314966915102559c9.8389892578125,74.7330322265625,78.39801025390625,127.34100341796875,153.1309814453125,117.50201416015625,74.7340087890625-9.8389892578125,127.34100341796875-78.39801025390625,117.50201416015625-153.13201904296875C261.978144585706104,43.951990840883809,193.418147027112354-8.655003788022441,118.685175835706104,1.182947872133809,43.952143609143604,11.021998165102559-8.655827582262646,79.581934688540059,1.183161675549854,154.314966915102559" style="fill: #289548; stroke-width: 0px;"/>
      <path d="m242.435358941174854,152.369349239321309v-6.20599365234375h2.61004638671875c2.29095458984375,0,3.7989501953125,1.24700927734375,3.7989501953125,3.10302734375,0,1.88494873046875-1.50799560546875,3.10296630859375-3.7989501953125,3.10296630859375h-2.61004638671875Zm3.248046875-10.06298828125h-7.48199462890625v20.416015625h4.23394775390625v-6.49603271484375h3.248046875c4.3499755859375,0,7.39495849609375-2.84197998046875,7.39495849609375-6.9599609375,0-4.1180419921875-3.04498291015625-6.96002197265625-7.39495849609375-6.96002197265625m-10.2080078125,0h-16.41400146484375v3.85699462890625h6.11895751953125v16.55902099609375h4.2340087890625v-16.55902099609375h6.06103515625v-3.85699462890625Zm-37.49700927734375,20.416015625h4.697998046875l2.78399658203125-4.2340087890625,2.84197998046875,4.2340087890625h4.72698974609375l-5.13299560546875-7.62701416015625,4.81402587890625-7.134033203125h-4.7559814453125l-2.46502685546875,3.68304443359375-2.4940185546875-3.68304443359375h-4.72698974609375l4.7850341796875,7.0760498046875-5.07501220703125,7.68499755859375Zm-8.6409912109375.34796142578125c4.32098388671875,0,7.13397216796875-2.72601318359375,7.13397216796875-6.9019775390625v-8.20703125h-4.05999755859375v8.06201171875c0,2.030029296875-1.218017578125,3.364013671875-3.073974609375,3.364013671875-1.85601806640625,0-3.07403564453125-1.333984375-3.07403564453125-3.364013671875v-8.06201171875h-4.05999755859375v8.20703125c0,4.17596435546875,2.81298828125,6.9019775390625,7.134033203125,6.9019775390625m-19.2850341796875-4.87200927734375c0-1.0439453125.8699951171875-1.76898193359375,2.2330322265625-1.76898193359375.9859619140625,0,1.9429931640625.31903076171875,2.7550048828125.84100341796875v.02899169921875c-.0870361328125,1.59503173828125-1.33404541015625,2.6099853515625-2.92901611328125,2.6099853515625-1.24700927734375,0-2.05902099609375-.6669921875-2.05902099609375-1.71099853515625m4.988037109375-4.2049560546875v.69598388671875c-.8699951171875-.63800048828125-2.2330322265625-1.072998046875-3.625-1.072998046875-3.10302734375,0-5.3070068359375,1.91400146484375-5.3070068359375,4.697998046875,0,2.72601318359375,2.0880126953125,4.7559814453125,4.958984375,4.7559814453125,1.7979736328125,0,3.3060302734375-.8699951171875,3.9730224609375-2.23297119140625v1.885009765625h4.05999755859375v-8.96099853515625c0-3.625-2.87103271484375-6.14801025390625-7.07598876953125-6.14801025390625-1.79803466796875,0-3.654052734375.49298095703125-5.0460205078125,1.56597900390625v3.59600830078125c1.2760009765625-1.072998046875,2.81298828125-1.71099853515625,4.46600341796875-1.71099853515625,2.14599609375,0,3.59600830078125,1.072998046875,3.59600830078125,2.92901611328125m-28.1300048828125-6.03204345703125h-4.05999755859375v14.76104736328125h4.05999755859375v-7.71405029296875c0-2.14599609375,1.30499267578125-3.6829833984375,3.10296630859375-3.6829833984375,1.79803466796875,0,3.0159912109375,1.333984375,3.0159912109375,3.364013671875v8.03302001953125h4.06005859375v-8.58404541015625c0-4.031005859375-2.32000732421875-6.52496337890625-5.800048828125-6.52496337890625-1.91400146484375,0-3.45098876953125.927978515625-4.37896728515625,2.52301025390625v-2.175048828125Zm-18.5889892578125,7.39501953125c0-2.32000732421875,1.68194580078125-4.05999755859375,3.885986328125-4.05999755859375,2.2039794921875,0,3.885986328125,1.739990234375,3.885986328125,4.05999755859375s-1.6820068359375,4.031005859375-3.885986328125,4.031005859375c-2.20404052734375,0-3.885986328125-1.71099853515625-3.885986328125-4.031005859375m3.885986328125,7.7139892578125c4.4949951171875,0,8.00396728515625-3.364013671875,8.00396728515625-7.7139892578125,0-4.40802001953125-3.50897216796875-7.74298095703125-8.00396728515625-7.74298095703125-4.52398681640625,0-8.0040283203125,3.3349609375-8.0040283203125,7.74298095703125,0,4.3499755859375,3.48004150390625,7.7139892578125,8.0040283203125,7.7139892578125m-15.19500732421875-19.34295654296875c0,1.333984375,1.04400634765625,2.4649658203125,2.4940185546875,2.4649658203125,1.42095947265625,0,2.52294921875-1.1309814453125,2.52294921875-2.4649658203125,0-1.33404541015625-1.10198974609375-2.4940185546875-2.52294921875-2.4940185546875-1.45001220703125,0-2.4940185546875,1.15997314453125-2.4940185546875,2.4940185546875m4.552978515625,4.23394775390625h-4.05999755859375v14.760986328125h4.05999755859375v-14.760986328125Zm-12.35400390625-.34796142578125c-2.9580078125,0-5.91595458984375,1.18896484375-5.91595458984375,4.81396484375,0,1.885009765625,1.072998046875,3.5670166015625,4.2049560546875,4.20501708984375l1.6820068359375.3480224609375c1.1600341796875.23199462890625,1.5369873046875.7249755859375,1.5369873046875,1.3919677734375,0,.78302001953125-.782958984375,1.333984375-2.0589599609375,1.333984375-1.59503173828125,0-3.74102783203125-.7249755859375-5.510009765625-2.0589599609375v3.625c.98602294921875.7249755859375,2.98699951171875,1.7979736328125,5.510009765625,1.7979736328125,3.97296142578125,0,6.177001953125-1.71099853515625,6.177001953125-4.6400146484375,0-2.17498779296875-1.072998046875-3.9439697265625-4.031005859375-4.6109619140625l-2.0880126953125-.4639892578125c-.98602294921875-.23199462890625-1.36297607421875-.696044921875-1.36297607421875-1.2760009765625,0-.7540283203125.7249755859375-1.1600341796875,1.88494873046875-1.1600341796875,1.4210205078125,0,3.4510498046875.52203369140625,4.9010009765625,1.5369873046875v-3.4219970703125c-1.18896484375-.8699951171875-3.04498291015625-1.42095947265625-4.92999267578125-1.42095947265625m-17.2550048828125-1.333984375h3.59600830078125l2.98699951171875-4.55303955078125h-4.2919921875l-2.291015625,4.55303955078125Zm-1.21795654296875,7.220947265625c.4639892578125-1.82696533203125,1.6529541015625-2.69696044921875,3.30596923828125-2.69696044921875,1.71099853515625,0,2.81298828125,1.21795654296875,2.9000244140625,2.69696044921875h-6.20599365234375Zm4.031005859375,9.57000732421875c2.552001953125,0,4.552978515625-.7249755859375,5.71295166015625-1.76898193359375v-3.59600830078125c-1.3919677734375,1.18902587890625-3.19000244140625,1.9429931640625-5.0169677734375,1.9429931640625-2.7550048828125,0-4.3790283203125-1.30499267578125-4.7850341796875-3.364013671875h10.2950439453125c.6669921875-4.7559814453125-1.6240234375-8.67095947265625-6.6409912109375-8.67095947265625-4.43701171875,0-7.42401123046875,3.4219970703125-7.42401123046875,7.74298095703125,0,4.61102294921875,3.1319580078125,7.7139892578125,7.8590087890625,7.7139892578125m-20.50201416015625-20.76397705078125h-4.05999755859375v20.416015625h4.05999755859375v-7.71405029296875c0-2.14599609375,1.30499267578125-3.6829833984375,3.10296630859375-3.6829833984375,1.79803466796875,0,3.01605224609375,1.333984375,3.01605224609375,3.364013671875v8.03302001953125h4.05999755859375v-8.58404541015625c0-4.031005859375-2.32000732421875-6.52496337890625-5.800048828125-6.52496337890625-1.91400146484375,0-3.45098876953125.927978515625-4.37896728515625,2.52301025390625v-7.83001708984375Zm-23.54803466796875,13.04998779296875c0,4.43701171875,3.13201904296875,7.7139892578125,7.16302490234375,7.7139892578125,2.14599609375,0,3.85699462890625-.95697021484375,4.72698974609375-2.6099853515625v2.26202392578125h4.05999755859375v-20.416015625h-4.05999755859375v7.94598388671875c-.8699951171875-1.6820068359375-2.58099365234375-2.63897705078125-4.72698974609375-2.63897705078125-4.031005859375,0-7.16302490234375,3.2769775390625-7.16302490234375,7.74298095703125m8.0040283203125,4.031005859375c-2.2039794921875,0-3.885986328125-1.71099853515625-3.885986328125-4.031005859375s1.6820068359375-4.05999755859375,3.885986328125-4.05999755859375,3.885986328125,1.739990234375,3.885986328125,4.05999755859375-1.6820068359375,4.031005859375-3.885986328125,4.031005859375m-19.51702880859375-1.18902587890625c0-1.0439453125.87005615234375-1.76898193359375,2.2330322265625-1.76898193359375.98602294921875,0,1.9429931640625.31903076171875,2.7550048828125.84100341796875v.02899169921875c-.0870361328125,1.59503173828125-1.333984375,2.6099853515625-2.92901611328125,2.6099853515625-1.24700927734375,0-2.05902099609375-.6669921875-2.05902099609375-1.71099853515625m4.988037109375-4.2049560546875v.69598388671875c-.8699951171875-.63800048828125-2.2330322265625-1.072998046875-3.625-1.072998046875-3.10302734375,0-5.3070068359375,1.91400146484375-5.3070068359375,4.697998046875,0,2.72601318359375,2.0880126953125,4.7559814453125,4.958984375,4.7559814453125,1.79803466796875,0,3.3060302734375-.8699951171875,3.9730224609375-2.23297119140625v1.885009765625h4.05999755859375v-8.96099853515625c0-3.625-2.87103271484375-6.14801025390625-7.07598876953125-6.14801025390625-1.79803466796875,0-3.65399169921875.49298095703125-5.0460205078125,1.56597900390625v3.59600830078125c1.2760009765625-1.072998046875,2.81298828125-1.71099853515625,4.46600341796875-1.71099853515625,2.14599609375,0,3.59600830078125,1.072998046875,3.59600830078125,2.92901611328125m-12.208984375-13.02099609375c-1.71099853515625,0-2.92901611328125,1.15997314453125-2.92901611328125,2.8709716796875,0,1.1309814453125.58001708984375,2.030029296875,1.45001220703125,2.46502685546875l-1.59503173828125,4.0889892578125h2.81298828125l2.14599609375-3.65399169921875c.84100341796875-1.363037109375,1.13104248046875-2.00103759765625,1.13104248046875-2.9000244140625,0-1.71099853515625-1.218017578125-2.8709716796875-3.0159912109375-2.8709716796875m-6.09002685546875,1.333984375h-4.05999755859375v20.416015625h4.05999755859375v-20.416015625Z" style="fill: #fff; stroke-width: 0px;"/>
      <path d="m219.613032281018604,121.500635860415059c.4639892578125-1.82696533203125,1.6529541015625-2.697021484375,3.30596923828125-2.697021484375,1.71099853515625,0,2.81298828125,1.218017578125,2.9000244140625,2.697021484375h-6.20599365234375Zm4.031005859375,9.57000732421875c2.552001953125,0,4.552978515625-.7249755859375,5.71295166015625-1.76898193359375v-3.59600830078125c-1.3919677734375,1.18896484375-3.19000244140625,1.9429931640625-5.0169677734375,1.9429931640625-2.7550048828125,0-4.3790283203125-1.30499267578125-4.7850341796875-3.364013671875h10.29498291015625c.66705322265625-4.7559814453125-1.62396240234375-8.67095947265625-6.6409912109375-8.67095947265625-4.43695068359375,0-7.4239501953125,3.4219970703125-7.4239501953125,7.74298095703125,0,4.6109619140625,3.1319580078125,7.7139892578125,7.8590087890625,7.7139892578125m-26.47705078125-7.7139892578125c0,4.43701171875,3.13201904296875,7.7139892578125,7.16302490234375,7.7139892578125,2.14599609375,0,3.85699462890625-.95697021484375,4.72698974609375-2.6099853515625v2.261962890625h4.05999755859375v-20.41595458984375h-4.05999755859375v7.94598388671875c-.8699951171875-1.6820068359375-2.58099365234375-2.63897705078125-4.72698974609375-2.63897705078125-4.031005859375,0-7.16302490234375,3.2769775390625-7.16302490234375,7.74298095703125m8.0040283203125,4.031005859375c-2.2039794921875,0-3.885986328125-1.71099853515625-3.885986328125-4.031005859375s1.6820068359375-4.05999755859375,3.885986328125-4.05999755859375,3.885986328125,1.739990234375,3.885986328125,4.05999755859375-1.6820068359375,4.031005859375-3.885986328125,4.031005859375m-26.67901611328125-5.88702392578125c.4630126953125-1.82696533203125,1.65301513671875-2.697021484375,3.30499267578125-2.697021484375,1.71099853515625,0,2.81298828125,1.218017578125,2.9000244140625,2.697021484375h-6.20501708984375Zm4.030029296875,9.57000732421875c2.552001953125,0,4.552978515625-.7249755859375,5.71295166015625-1.76898193359375v-3.59600830078125c-1.3919677734375,1.18896484375-3.18896484375,1.9429931640625-5.0169677734375,1.9429931640625-2.7550048828125,0-4.3790283203125-1.30499267578125-4.7850341796875-3.364013671875h10.2960205078125c.666015625-4.7559814453125-1.625-8.67095947265625-6.6409912109375-8.67095947265625-4.43798828125,0-7.42498779296875,3.4219970703125-7.42498779296875,7.74298095703125,0,4.6109619140625,3.13299560546875,7.7139892578125,7.8590087890625,7.7139892578125m-14.2960205078125,0c1.2760009765625,0,3.218994140625-.43499755859375,4.4949951171875-1.56597900390625v-4.08905029296875c-1.10198974609375,1.2760009765625-2.63897705078125,1.9720458984375-4.2919921875,1.9720458984375-2.406982421875,0-4.26300048828125-1.71099853515625-4.26300048828125-4.031005859375s1.85601806640625-4.05999755859375,4.26300048828125-4.05999755859375c1.6820068359375,0,3.10296630859375.6669921875,4.20501708984375,1.91400146484375v-4.05999755859375c-1.2760009765625-1.13104248046875-3.13201904296875-1.5369873046875-4.40802001953125-1.5369873046875-4.697998046875,0-8.14898681640625,3.073974609375-8.14898681640625,7.74298095703125,0,4.6400146484375,3.45098876953125,7.7139892578125,8.14898681640625,7.7139892578125m-20.79302978515625-15.1090087890625h-4.0599365234375v14.760986328125h4.0599365234375v-7.7139892578125c0-2.14599609375,1.3050537109375-3.6829833984375,3.10302734375-3.6829833984375s3.0159912109375,1.333984375,3.0159912109375,3.364013671875v8.032958984375h4.05999755859375v-8.583984375c0-4.031005859375-2.32000732421875-6.52496337890625-5.79998779296875-6.52496337890625-1.91400146484375,0-3.45098876953125.927978515625-4.3790283203125,2.52294921875v-2.17498779296875Zm-16.4429931640625,10.23699951171875c0-1.04400634765625.8699951171875-1.76898193359375,2.2330322265625-1.76898193359375.9859619140625,0,1.9429931640625.3189697265625,2.7550048828125.84100341796875v.02899169921875c-.0870361328125,1.594970703125-1.333984375,2.6099853515625-2.92901611328125,2.6099853515625-1.24700927734375,0-2.05902099609375-.6669921875-2.05902099609375-1.71099853515625m4.988037109375-4.20501708984375v.696044921875c-.8699951171875-.63800048828125-2.2330322265625-1.072998046875-3.625-1.072998046875-3.10302734375,0-5.3070068359375,1.91400146484375-5.3070068359375,4.697998046875,0,2.7259521484375,2.0880126953125,4.7559814453125,4.958984375,4.7559814453125,1.79803466796875,0,3.3060302734375-.8699951171875,3.9730224609375-2.23297119140625v1.88494873046875h4.05999755859375v-8.96099853515625c0-3.625-2.87103271484375-6.14794921875-7.07598876953125-6.14794921875-1.79803466796875,0-3.654052734375.49298095703125-5.0460205078125,1.56597900390625v3.59600830078125c1.2760009765625-1.072998046875,2.81298828125-1.71099853515625,4.46600341796875-1.71099853515625,2.14599609375,0,3.59600830078125,1.072998046875,3.59600830078125,2.928955078125m-16.41302490234375-6.37994384765625c-2.9580078125,0-5.916015625,1.18896484375-5.916015625,4.81396484375,0,1.885009765625,1.07305908203125,3.5670166015625,4.20501708984375,4.20501708984375l1.6820068359375.34796142578125c1.1600341796875.2320556640625,1.5369873046875.72503662109375,1.5369873046875,1.39202880859375,0,.78302001953125-.782958984375,1.333984375-2.0589599609375,1.333984375-1.59503173828125,0-3.74102783203125-.7249755859375-5.510009765625-2.0589599609375v3.625c.9859619140625.7249755859375,2.98699951171875,1.7979736328125,5.510009765625,1.7979736328125,3.97296142578125,0,6.177001953125-1.71099853515625,6.177001953125-4.6400146484375,0-2.17498779296875-1.072998046875-3.9439697265625-4.031005859375-4.6109619140625l-2.0880126953125-.46405029296875c-.98602294921875-.23199462890625-1.363037109375-.69598388671875-1.363037109375-1.2760009765625,0-.75396728515625.72503662109375-1.15997314453125,1.885009765625-1.15997314453125,1.4210205078125,0,3.4510498046875.52197265625,4.9010009765625,1.5369873046875v-3.4219970703125c-1.18896484375-.8699951171875-3.04498291015625-1.42095947265625-4.92999267578125-1.42095947265625m-13.65899658203125,0c-2.9580078125,0-5.916015625,1.18896484375-5.916015625,4.81396484375,0,1.885009765625,1.072998046875,3.5670166015625,4.20501708984375,4.20501708984375l1.6820068359375.34796142578125c1.15997314453125.2320556640625,1.5369873046875.72503662109375,1.5369873046875,1.39202880859375,0,.78302001953125-.78302001953125,1.333984375-2.0589599609375,1.333984375-1.59503173828125,0-3.74102783203125-.7249755859375-5.510009765625-2.0589599609375v3.625c.9859619140625.7249755859375,2.98699951171875,1.7979736328125,5.510009765625,1.7979736328125,3.97296142578125,0,6.17694091796875-1.71099853515625,6.17694091796875-4.6400146484375,0-2.17498779296875-1.072998046875-3.9439697265625-4.03094482421875-4.6109619140625l-2.0880126953125-.46405029296875c-.98602294921875-.23199462890625-1.363037109375-.69598388671875-1.363037109375-1.2760009765625,0-.75396728515625.72503662109375-1.15997314453125,1.885009765625-1.15997314453125,1.4210205078125,0,3.45098876953125.52197265625,4.9010009765625,1.5369873046875v-3.4219970703125c-1.18896484375-.8699951171875-3.04498291015625-1.42095947265625-4.92999267578125-1.42095947265625m-13.45599365234375-3.88604736328125c0,1.33404541015625,1.04400634765625,2.46502685546875,2.4940185546875,2.46502685546875,1.42095947265625,0,2.52301025390625-1.1309814453125,2.52301025390625-2.46502685546875,0-1.333984375-1.10205078125-2.49395751953125-2.52301025390625-2.49395751953125-1.45001220703125,0-2.4940185546875,1.15997314453125-2.4940185546875,2.49395751953125m4.552978515625,4.2340087890625h-4.05999755859375v14.760986328125h4.05999755859375v-14.760986328125Zm-18.5889892578125,7.39501953125c0-2.32000732421875,1.6820068359375-4.05999755859375,3.885986328125-4.05999755859375,2.20404052734375,0,3.88604736328125,1.739990234375,3.88604736328125,4.05999755859375s-1.6820068359375,4.031005859375-3.88604736328125,4.031005859375c-2.2039794921875,0-3.885986328125-1.71099853515625-3.885986328125-4.031005859375m3.885986328125,7.7139892578125c4.49505615234375,0,8.0040283203125-3.364013671875,8.0040283203125-7.7139892578125,0-4.40802001953125-3.50897216796875-7.74298095703125-8.0040283203125-7.74298095703125-4.52398681640625,0-8.00396728515625,3.3349609375-8.00396728515625,7.74298095703125,0,4.3499755859375,3.47998046875,7.7139892578125,8.00396728515625,7.7139892578125m-19.1109619140625-.3480224609375h4.05999755859375v-6.61199951171875c.02899169921875-2.89996337890625,1.71099853515625-4.72698974609375,3.85699462890625-4.72698974609375.75396728515625,0,1.6820068359375.14501953125,2.4940185546875.63800048828125v-3.85699462890625c-.696044921875-.37701416015625-1.53704833984375-.55096435546875-2.26202392578125-.55096435546875-1.97198486328125,0-3.5670166015625,1.42095947265625-4.0889892578125,3.36395263671875v-3.0159912109375h-4.05999755859375v14.760986328125Zm-8.70001220703125.3480224609375c1.9429931640625,0,4.176025390625-.63800048828125,5.88702392578125-1.7979736328125v-4.49505615234375c-1.53704833984375,1.53704833984375-3.68304443359375,2.40704345703125-5.77099609375,2.40704345703125-4.176025390625,0-7.01800537109375-2.81298828125-7.01800537109375-6.6409912109375,0-3.85699462890625,2.84197998046875-6.69903564453125,7.01800537109375-6.69903564453125,2.08795166015625,0,4.2049560546875.8699951171875,5.77099609375,2.406982421875v-4.4949951171875c-1.71099853515625-1.15997314453125-3.94403076171875-1.7979736328125-5.88702392578125-1.7979736328125-6.46697998046875,0-11.281005859375,4.552978515625-11.281005859375,10.58502197265625,0,6.00299072265625,4.81402587890625,10.5269775390625,11.281005859375,10.5269775390625" style="fill: #fff; stroke-width: 0px;"/>
    </g>
  </g>
</svg>