<?xml version="1.0" encoding="UTF-8"?>
<svg id="Calque_2" data-name="Calque 2" xmlns="http://www.w3.org/2000/svg" viewBox="0 0 272.968421936981031 272.968364716466567">
  <g id="Calque_1-2" data-name="Calque 1">
    <g>
      <path d="m39.975379944793531,39.974990844725653c-53.301025390625,53.29998779296875-53.29998779296875,139.718002319335938,0,193.01800537109375,53.29998779296875,53.29998779296875,139.718017578125,53.300994873046875,193.01800537109375,0,53.300048828125-53.300003051757812,53.300048828125-139.718017578125,0-193.01800537109375-53.29998779296875-53.299987792967841-139.718017578125-53.299987792967841-193.01800537109375,0" style="fill: #289548; stroke-width: 0px;"/>
      <path d="m244.333839417449781,147.597610473631903c-2.9580078125,0-5.9150390625,1.188995361328125-5.9150390625,4.813995361328125,0,1.884979248046875,1.072998046875,3.566986083984375,4.2049560546875,4.204986572265625l1.6820068359375.348007202148438c1.1600341796875.23199462890625,1.5369873046875.724990844726562,1.5369873046875,1.391998291015625,0,.783004760742188-.782958984375,1.333999633789062-2.0589599609375,1.333999633789062-1.595947265625,0-3.741943359375-.725006103515625-5.510009765625-2.059005737304688v3.625c.9859619140625.725006103515625,2.9859619140625,1.798004150390625,5.510009765625,1.798004150390625,3.9730224609375,0,6.177001953125-1.71099853515625,6.177001953125-4.639999389648438,0-2.17498779296875-1.072998046875-3.944000244140625-4.031005859375-4.610992431640625l-2.0880126953125-.464019775390625c-.9869384765625-.23199462890625-1.363037109375-.69598388671875-1.363037109375-1.2760009765625,0-.753997802734375.72412109375-1.15997314453125,1.885009765625-1.15997314453125,1.4210205078125,0,3.4510498046875.52197265625,4.9010009765625,1.5369873046875v-3.4219970703125c-1.18896484375-.8699951171875-3.0460205078125-1.420989990234375-4.930908203125-1.420989990234375m-15.9210205078125-.319000244140625v.6669921875h-2.3780517578125v3.363983154296875h2.3780517578125v11.397018432617188h4.0599365234375v-11.397018432617188h4.9010009765625v-3.363983154296875h-4.9010009765625v-.464019775390625c0-2.058990478515625,1.218017578125-2.928985595703125,2.4940185546875-2.928985595703125,1.0440673828125,0,1.76904296875.260986328125,2.406982421875.63800048828125v-3.537994384765625c-1.0439453125-.43499755859375-2.1749267578125-.6669921875-3.1319580078125-.6669921875-3.3060302734375,0-5.8289794921875,2.029998779296875-5.8289794921875,6.292999267578125m-9.3380126953125-3.5670166015625c0,1.334014892578125,1.0439453125,2.464996337890625,2.4940185546875,2.464996337890625,1.4210205078125,0,2.52294921875-1.1309814453125,2.52294921875-2.464996337890625,0-1.333984375-1.1019287109375-2.493988037109375-2.52294921875-2.493988037109375-1.4500732421875,0-2.4940185546875,1.160003662109375-2.4940185546875,2.493988037109375m4.552978515625,4.2340087890625h-4.0599365234375v14.761001586914062h4.0599365234375v-14.761001586914062Zm-15.427001953125-3.972991943359375v3.972991943359375h-2.37799072265625v3.363983154296875h2.37799072265625v5.48101806640625c0,4.26300048828125,2.52301025390625,6.263992309570312,5.8289794921875,6.263992309570312.95703125,0,2.0880126953125-.2030029296875,3.132080078125-.63800048828125v-3.537994384765625c-.6380615234375.347991943359375-1.363037109375.63800048828125-2.406982421875.63800048828125-1.276123046875,0-2.465087890625-.870010375976562-2.465087890625-2.9580078125v-5.249008178710938h4.8720703125v-3.363983154296875h-4.8720703125v-3.972991943359375h-4.0889892578125Zm-8.322998046875,19.081985473632812c1.2760009765625,0,3.218994140625-.43499755859375,4.4949951171875-1.565994262695312v-4.089004516601562c-1.10198974609375,1.2760009765625-2.63897705078125,1.972000122070312-4.2919921875,1.972000122070312-2.406982421875,0-4.26300048828125-1.71099853515625-4.26300048828125-4.031005859375s1.85601806640625-4.05999755859375,4.26300048828125-4.05999755859375c1.6820068359375,0,3.10302734375.6669921875,4.20501708984375,1.91400146484375v-4.05999755859375c-1.2760009765625-1.131011962890625-3.13201904296875-1.5369873046875-4.40802001953125-1.5369873046875-4.697998046875,0-8.14898681640625,3.073974609375-8.14898681640625,7.74298095703125,0,4.639999389648438,3.45098876953125,7.714004516601562,8.14898681640625,7.714004516601562m-19.6619873046875-4.871994018554688c0-1.04400634765625.8699951171875-1.769012451171875,2.2330322265625-1.769012451171875.9859619140625,0,1.9429931640625.319000244140625,2.75494384765625.84100341796875v.029006958007812c-.08697509765625,1.595001220703125-1.333984375,2.610000610351562-2.92901611328125,2.610000610351562-1.2469482421875,0-2.0589599609375-.667007446289062-2.0589599609375-1.71099853515625m4.98797607421875-4.20501708984375v.696014404296875c-.8699951171875-.63800048828125-2.23297119140625-1.072998046875-3.625-1.072998046875-3.10296630859375,0-5.30694580078125,1.91400146484375-5.30694580078125,4.697998046875,0,2.725997924804688,2.08795166015625,4.755996704101562,4.958984375,4.755996704101562,1.7979736328125,0,3.30596923828125-.8699951171875,3.97296142578125-2.233001708984375v1.885009765625h4.05999755859375v-8.961013793945312c0-3.625-2.8709716796875-6.147979736328125-7.07598876953125-6.147979736328125-1.7979736328125,0-3.65399169921875.49298095703125-5.04595947265625,1.56597900390625v3.59600830078125c1.2760009765625-1.072998046875,2.81298828125-1.71099853515625,4.4659423828125-1.71099853515625,2.14599609375,0,3.59600830078125,1.072998046875,3.59600830078125,2.928985595703125m-22.90899658203125-6.379974365234375c-2.9580078125,0-5.916015625,1.188995361328125-5.916015625,4.813995361328125,0,1.884979248046875,1.07305908203125,3.566986083984375,4.20501708984375,4.204986572265625l1.6820068359375.348007202148438c1.15997314453125.23199462890625,1.5369873046875.724990844726562,1.5369873046875,1.391998291015625,0,.783004760742188-.782958984375,1.333999633789062-2.0589599609375,1.333999633789062-1.59503173828125,0-3.74102783203125-.725006103515625-5.510009765625-2.059005737304688v3.625c.98602294921875.725006103515625,2.98699951171875,1.798004150390625,5.510009765625,1.798004150390625,3.97296142578125,0,6.177001953125-1.71099853515625,6.177001953125-4.639999389648438,0-2.17498779296875-1.072998046875-3.944000244140625-4.031005859375-4.610992431640625l-2.0880126953125-.464019775390625c-.98602294921875-.23199462890625-1.36297607421875-.69598388671875-1.36297607421875-1.2760009765625,0-.753997802734375.7249755859375-1.15997314453125,1.885009765625-1.15997314453125,1.42095947265625,0,3.450927734375.52197265625,4.9010009765625,1.5369873046875v-3.4219970703125c-1.18902587890625-.8699951171875-3.0450439453125-1.420989990234375-4.9300537109375-1.420989990234375m-18.41497802734375,5.886993408203125c.4639892578125-1.826995849609375,1.65301513671875-2.696990966796875,3.30596923828125-2.696990966796875,1.7110595703125,0,2.81304931640625,1.217987060546875,2.9000244140625,2.696990966796875h-6.20599365234375Zm4.031005859375,9.569992065429688c2.552001953125,0,4.552978515625-.725006103515625,5.7130126953125-1.768997192382812v-3.59600830078125c-1.39202880859375,1.189010620117188-3.19000244140625,1.943008422851562-5.01702880859375,1.943008422851562-2.7550048828125,0-4.3790283203125-1.305007934570312-4.78497314453125-3.363998413085938h10.29498291015625c.6669921875-4.756011962890625-1.6240234375-8.670989990234375-6.6409912109375-8.670989990234375-4.43701171875,0-7.42401123046875,3.4219970703125-7.42401123046875,7.74298095703125,0,4.611007690429688,3.13201904296875,7.714004516601562,7.8590087890625,7.714004516601562m-26.47698974609375-7.714004516601562c0,4.43701171875,3.1319580078125,7.714004516601562,7.1629638671875,7.714004516601562,2.14599609375,0,3.85699462890625-.957000732421875,4.72698974609375-2.610000610351562v2.262008666992188h4.05999755859375v-20.416000366210938h-4.05999755859375v7.94598388671875c-.8699951171875-1.681976318359375-2.58099365234375-2.63897705078125-4.72698974609375-2.63897705078125-4.031005859375,0-7.1629638671875,3.2769775390625-7.1629638671875,7.74298095703125m8.00396728515625,4.031005859375c-2.2039794921875,0-3.885986328125-1.71099853515625-3.885986328125-4.031005859375s1.6820068359375-4.05999755859375,3.885986328125-4.05999755859375c2.20404052734375,0,3.885986328125,1.739990234375,3.885986328125,4.05999755859375s-1.68194580078125,4.031005859375-3.885986328125,4.031005859375m-21.6629638671875-4.031005859375c0-2.32000732421875,1.68194580078125-4.05999755859375,3.885986328125-4.05999755859375,2.2039794921875,0,3.885986328125,1.739990234375,3.885986328125,4.05999755859375s-1.6820068359375,4.031005859375-3.885986328125,4.031005859375c-2.20404052734375,0-3.885986328125-1.71099853515625-3.885986328125-4.031005859375m3.885986328125,7.714004516601562c4.4949951171875,0,8.00396728515625-3.363998413085938,8.00396728515625-7.714004516601562,0-4.407989501953125-3.50897216796875-7.74298095703125-8.00396728515625-7.74298095703125-4.52398681640625,0-8.0040283203125,3.334991455078125-8.0040283203125,7.74298095703125,0,4.350006103515625,3.48004150390625,7.714004516601562,8.0040283203125,7.714004516601562m-26.18701171875-11.774002075195312c1.47900390625,0,2.43597412109375,1.218017578125,2.43597412109375,3.19000244140625v8.236007690429688h4.06005859375v-7.975021362304688c0-2.116973876953125,1.072998046875-3.45098876953125,2.7259521484375-3.45098876953125,1.50799560546875,0,2.46502685546875,1.218017578125,2.46502685546875,3.19000244140625v8.236007690429688h4.05999755859375v-8.583999633789062c0-4.20501708984375-1.9429931640625-6.524993896484375-5.22003173828125-6.524993896484375-2.0589599609375,0-3.65399169921875.8699951171875-4.81396484375,2.522979736328125-.81201171875-1.652984619140625-2.291015625-2.522979736328125-4.40802001953125-2.522979736328125-1.50799560546875,0-3.218994140625.927978515625-4.05999755859375,2.6099853515625v-2.261993408203125h-4.05999755859375v14.761001586914062h4.05999755859375v-7.975021362304688c0-2.116973876953125,1.072998046875-3.45098876953125,2.7550048828125-3.45098876953125m-21.60400390625-3.6829833984375c-2.9580078125,0-5.916015625,1.188995361328125-5.916015625,4.813995361328125,0,1.884979248046875,1.072998046875,3.566986083984375,4.20501708984375,4.204986572265625l1.6820068359375.348007202148438c1.15997314453125.23199462890625,1.5369873046875.724990844726562,1.5369873046875,1.391998291015625,0,.783004760742188-.782958984375,1.333999633789062-2.0589599609375,1.333999633789062-1.59503173828125,0-3.74102783203125-.725006103515625-5.510009765625-2.059005737304688v3.625c.9859619140625.725006103515625,2.98699951171875,1.798004150390625,5.510009765625,1.798004150390625,3.97296142578125,0,6.177001953125-1.71099853515625,6.177001953125-4.639999389648438,0-2.17498779296875-1.07305908203125-3.944000244140625-4.031005859375-4.610992431640625l-2.0880126953125-.464019775390625c-.98602294921875-.23199462890625-1.363037109375-.69598388671875-1.363037109375-1.2760009765625,0-.753997802734375.72503662109375-1.15997314453125,1.885009765625-1.15997314453125,1.4210205078125,0,3.45098876953125.52197265625,4.9010009765625,1.5369873046875v-3.4219970703125c-1.18896484375-.8699951171875-3.04498291015625-1.420989990234375-4.92999267578125-1.420989990234375m-18.41497802734375,5.886993408203125c.4639892578125-1.826995849609375,1.6529541015625-2.696990966796875,3.30596923828125-2.696990966796875,1.71099853515625,0,2.81298828125,1.217987060546875,2.9000244140625,2.696990966796875h-6.20599365234375Zm4.031005859375,9.569992065429688c2.552001953125,0,4.552978515625-.725006103515625,5.71295166015625-1.768997192382812v-3.59600830078125c-1.3919677734375,1.189010620117188-3.19000244140625,1.943008422851562-5.0169677734375,1.943008422851562-2.7550048828125,0-4.3790283203125-1.305007934570312-4.7850341796875-3.363998413085938h10.2950439453125c.6669921875-4.756011962890625-1.6240234375-8.670989990234375-6.6409912109375-8.670989990234375-4.43701171875,0-7.42401123046875,3.4219970703125-7.42401123046875,7.74298095703125,0,4.611007690429688,3.1319580078125,7.714004516601562,7.8590087890625,7.714004516601562m-26.47705078125-7.714004516601562c0,4.43701171875,3.13201904296875,7.714004516601562,7.16302490234375,7.714004516601562,2.14599609375,0,3.85699462890625-.957000732421875,4.72698974609375-2.610000610351562v2.262008666992188h4.05999755859375v-20.416000366210938h-4.05999755859375v7.94598388671875c-.8699951171875-1.681976318359375-2.58099365234375-2.63897705078125-4.72698974609375-2.63897705078125-4.031005859375,0-7.16302490234375,3.2769775390625-7.16302490234375,7.74298095703125m8.0040283203125,4.031005859375c-2.2039794921875,0-3.885986328125-1.71099853515625-3.885986328125-4.031005859375s1.6820068359375-4.05999755859375,3.885986328125-4.05999755859375,3.885986328125,1.739990234375,3.885986328125,4.05999755859375-1.6820068359375,4.031005859375-3.885986328125,4.031005859375" style="fill: #fff; stroke-width: 0px;"/>
      <path d="m236.054420472137281,111.972518920897528v3.972991943359375h-2.3780517578125v3.364013671875h2.3780517578125v5.480987548828125c0,4.26300048828125,2.52294921875,6.264007568359375,5.8289794921875,6.264007568359375.95703125,0,2.0880126953125-.2030029296875,3.1329345703125-.63800048828125v-3.537994384765625c-.638916015625.347991943359375-1.3638916015625.63800048828125-2.407958984375.63800048828125-1.2760009765625,0-2.4649658203125-.870025634765625-2.4649658203125-2.9580078125v-5.248992919921875h4.8729248046875v-3.364013671875h-4.8729248046875v-3.972991943359375h-4.0889892578125Zm-14.26708984375,3.972991943359375h-4.0609130859375v14.760986328125h4.0609130859375v-7.7139892578125c0-2.14599609375,1.3040771484375-3.6829833984375,3.10302734375-3.6829833984375,1.798095703125,0,3.0159912109375,1.333984375,3.0159912109375,3.363983154296875v8.032989501953125h4.05908203125v-8.583984375c0-4.031005859375-2.319091796875-6.524993896484375-5.799072265625-6.524993896484375-1.9149169921875,0-3.4520263671875.927978515625-4.3790283203125,2.522979736328125v-2.17498779296875Zm-17.10992431640625,5.53900146484375c.4639892578125-1.826995849609375,1.65301513671875-2.696990966796875,3.30596923828125-2.696990966796875,1.71099853515625,0,2.81298828125,1.217987060546875,2.9000244140625,2.696990966796875h-6.20599365234375Zm4.031005859375,9.57000732421875c2.552001953125,0,4.55303955078125-.725006103515625,5.71295166015625-1.769012451171875v-3.59600830078125c-1.3919677734375,1.18902587890625-3.18994140625,1.943023681640625-5.0169677734375,1.943023681640625-2.7550048828125,0-4.3790283203125-1.305023193359375-4.7850341796875-3.364013671875h10.2950439453125c.6669921875-4.7559814453125-1.6240234375-8.670989990234375-6.6409912109375-8.670989990234375-4.43701171875,0-7.42401123046875,3.4219970703125-7.42401123046875,7.74298095703125,0,4.61102294921875,3.13201904296875,7.714019775390625,7.8590087890625,7.714019775390625m-26.07098388671875-11.774017333984375c1.47894287109375,0,2.43597412109375,1.218017578125,2.43597412109375,3.19000244140625v8.235992431640625h4.05999755859375v-7.9749755859375c0-2.11700439453125,1.072998046875-3.451019287109375,2.72601318359375-3.451019287109375,1.50799560546875,0,2.4649658203125,1.218017578125,2.4649658203125,3.19000244140625v8.235992431640625h4.05999755859375v-8.583984375c0-4.204986572265625-1.9429931640625-6.524993896484375-5.219970703125-6.524993896484375-2.05902099609375,0-3.65399169921875.8699951171875-4.81402587890625,2.522979736328125-.81195068359375-1.652984619140625-2.29095458984375-2.522979736328125-4.40802001953125-2.522979736328125-1.5079345703125,0-3.218994140625.927978515625-4.0599365234375,2.6099853515625v-2.261993408203125h-4.06005859375v14.760986328125h4.06005859375v-7.9749755859375c0-2.11700439453125,1.072998046875-3.451019287109375,2.7550048828125-3.451019287109375m-19.864013671875,2.204010009765625c.4639892578125-1.826995849609375,1.6529541015625-2.696990966796875,3.30596923828125-2.696990966796875,1.71099853515625,0,2.81298828125,1.217987060546875,2.9000244140625,2.696990966796875h-6.20599365234375Zm4.031005859375,9.57000732421875c2.552001953125,0,4.552978515625-.725006103515625,5.71295166015625-1.769012451171875v-3.59600830078125c-1.3919677734375,1.18902587890625-3.19000244140625,1.943023681640625-5.0169677734375,1.943023681640625-2.7550048828125,0-4.3790283203125-1.305023193359375-4.7850341796875-3.364013671875h10.2950439453125c.6669921875-4.7559814453125-1.6240234375-8.670989990234375-6.64105224609375-8.670989990234375-4.43695068359375,0-7.4239501953125,3.4219970703125-7.4239501953125,7.74298095703125,0,4.61102294921875,3.1319580078125,7.714019775390625,7.8590087890625,7.714019775390625m-21.5469970703125-7.714019775390625c0-2.319976806640625,1.68194580078125-4.05999755859375,3.885986328125-4.05999755859375,2.2039794921875,0,3.885986328125,1.740020751953125,3.885986328125,4.05999755859375,0,2.32000732421875-1.6820068359375,4.031005859375-3.885986328125,4.031005859375-2.20404052734375,0-3.885986328125-1.71099853515625-3.885986328125-4.031005859375m4.72698974609375,7.714019775390625c4.001953125,0,7.1629638671875-3.277008056640625,7.1629638671875-7.714019775390625,0-4.465972900390625-3.1610107421875-7.74298095703125-7.1629638671875-7.74298095703125-2.14599609375,0-3.8280029296875.927978515625-4.72698974609375,2.58099365234375v-2.233001708984375h-4.06005859375v20.50299072265625h4.06005859375v-7.9749755859375c.89898681640625,1.652984619140625,2.58099365234375,2.58099365234375,4.72698974609375,2.58099365234375m-23.34503173828125-7.714019775390625c0-2.319976806640625,1.6820068359375-4.05999755859375,3.885986328125-4.05999755859375,2.20404052734375,0,3.88604736328125,1.740020751953125,3.88604736328125,4.05999755859375,0,2.32000732421875-1.6820068359375,4.031005859375-3.88604736328125,4.031005859375-2.2039794921875,0-3.885986328125-1.71099853515625-3.885986328125-4.031005859375m4.72698974609375,7.714019775390625c4.00201416015625,0,7.16302490234375-3.277008056640625,7.16302490234375-7.714019775390625,0-4.465972900390625-3.1610107421875-7.74298095703125-7.16302490234375-7.74298095703125-2.14599609375,0-3.8280029296875.927978515625-4.72698974609375,2.58099365234375v-2.233001708984375h-4.05999755859375v20.50299072265625h4.05999755859375v-7.9749755859375c.89898681640625,1.652984619140625,2.58099365234375,2.58099365234375,4.72698974609375,2.58099365234375m-23.31597900390625-7.714019775390625c0-2.319976806640625,1.6820068359375-4.05999755859375,3.885986328125-4.05999755859375s3.885986328125,1.740020751953125,3.885986328125,4.05999755859375c0,2.32000732421875-1.6820068359375,4.031005859375-3.885986328125,4.031005859375s-3.885986328125-1.71099853515625-3.885986328125-4.031005859375m3.885986328125,7.714019775390625c4.4949951171875,0,8.0040283203125-3.364013671875,8.0040283203125-7.714019775390625,0-4.407989501953125-3.509033203125-7.74298095703125-8.0040283203125-7.74298095703125-4.52398681640625,0-8.00396728515625,3.334991455078125-8.00396728515625,7.74298095703125,0,4.350006103515625,3.47998046875,7.714019775390625,8.00396728515625,7.714019775390625m-10.64300537109375-20.764007568359375h-4.05999755859375v20.415985107421875h4.05999755859375v-20.415985107421875Zm-17.1099853515625,11.194000244140625c.4639892578125-1.826995849609375,1.65301513671875-2.696990966796875,3.3060302734375-2.696990966796875,1.71099853515625,0,2.81298828125,1.217987060546875,2.89996337890625,2.696990966796875h-6.20599365234375Zm4.031005859375,9.57000732421875c2.552001953125,0,4.552978515625-.725006103515625,5.7130126953125-1.769012451171875v-3.59600830078125c-1.39202880859375,1.18902587890625-3.19000244140625,1.943023681640625-5.01702880859375,1.943023681640625-2.7550048828125,0-4.37896728515625-1.305023193359375-4.78497314453125-3.364013671875h10.29498291015625c.6669921875-4.7559814453125-1.6240234375-8.670989990234375-6.6409912109375-8.670989990234375-4.43701171875,0-7.42401123046875,3.4219970703125-7.42401123046875,7.74298095703125,0,4.61102294921875,3.13201904296875,7.714019775390625,7.8590087890625,7.714019775390625m-17.97900390625-.3480224609375h3.30499267578125l6.5260009765625-14.760986328125h-4.40899658203125l-3.77001953125,9.454010009765625-3.71197509765625-9.454010009765625h-4.46600341796875l6.5260009765625,14.760986328125Zm-16.1820068359375-16.4429931640625h3.59600830078125l2.98699951171875-4.552978515625h-4.2919921875l-2.291015625,4.552978515625Zm-1.218017578125,7.22100830078125c.46405029296875-1.826995849609375,1.65301513671875-2.696990966796875,3.3060302734375-2.696990966796875,1.71099853515625,0,2.81298828125,1.217987060546875,2.9000244140625,2.696990966796875h-6.2060546875Zm4.031005859375,9.57000732421875c2.552001953125,0,4.55303955078125-.725006103515625,5.7130126953125-1.769012451171875v-3.59600830078125c-1.3919677734375,1.18902587890625-3.19000244140625,1.943023681640625-5.0169677734375,1.943023681640625-2.7550048828125,0-4.3790283203125-1.305023193359375-4.7850341796875-3.364013671875h10.29498291015625c.66705322265625-4.7559814453125-1.62396240234375-8.670989990234375-6.6409912109375-8.670989990234375-4.43701171875,0-7.42401123046875,3.4219970703125-7.42401123046875,7.74298095703125,0,4.61102294921875,3.13201904296875,7.714019775390625,7.8590087890625,7.714019775390625m-23.0260009765625-4.20501708984375v-12.701995849609375h2.697021484375c3.885986328125,0,6.40899658203125,2.4940185546875,6.40899658203125,6.35101318359375,0,3.8280029296875-2.52301025390625,6.350982666015625-6.40899658203125,6.350982666015625h-2.697021484375Zm2.697021484375-16.558990478515625h-6.9310302734375v20.415985107421875h6.9310302734375c6.29302978515625,0,10.64300537109375-4.175994873046875,10.64300537109375-10.207977294921875,0-6.032012939453125-4.3499755859375-10.2080078125-10.64300537109375-10.2080078125" style="fill: #fff; stroke-width: 0px;"/>
    </g>
  </g>
</svg>