<?xml version="1.0" encoding="UTF-8"?>
<svg id="Calque_2" data-name="Calque 2" xmlns="http://www.w3.org/2000/svg" xmlns:xlink="http://www.w3.org/1999/xlink" viewBox="0 0 376.984669675521218 391.381865814607409">
  <defs>
    <linearGradient id="New_Gradient_Swatch_3" data-name="New Gradient Swatch 3" x1="106.412818935903488" y1="436.081413366925517" x2="489.875985538052191" y2="436.081413366925517" gradientTransform="translate(45.835610249406642 -327.593715579788068) rotate(19.341592655586808)" gradientUnits="userSpaceOnUse">
      <stop offset="0" stop-color="#298744"/>
      <stop offset="1" stop-color="#1c4d3e"/>
    </linearGradient>
  </defs>
  <g id="Calque_1-2" data-name="Calque 1">
    <path d="m217.80169306803873,0l-34.740792604976377,98.973746268385185c-5.151607523850544-22.513204807062721-21.273830716150769-39.417978071144717-46.919482620998679-48.419862991512673C80.838227662130521,31.141900474638533,22.0893758295515,61.379625265312825,0,124.283569443153283l71.323982560044897,25.035444037454909c8.871473552837415-25.24650482051311,33.506277911592406-37.744452665608151,57.146310257543519-29.446560629890882,23.976842574478724,8.416115855040516,35.3864341091612,33.461810408283782,26.65998028929971,58.645806751401324l-.033657126848993-.011813994191471-24.994095689185997,71.206184414889321c-20.678049702140925,58.910113762109177,6.299119633349619,111.582758195423594,69.220928804061259,133.668953829585007,62.517223841330633,21.944182064413326,116.893213614435808-2.172675254532805,137.571263316578552-61.082789016642892l40.089957264028271-114.213089588298317-70.530019567704585-24.756754943701708-39.104851877318652,111.406602940150151c-7.735743007520796,22.038514616793691-26.025329181318739,31.824708199654197-45.66207891218437,24.93200911977965-20.041335060246638-7.034712649623543-27.803875323243119-25.9654678519355-20.068132315724142-48.003982468730101l23.940984103424853-68.205953531652085.042287159374609.014843223471871,62.730796127672875-178.715033066489013L217.80169306803873,0Z" style="fill: url(#New_Gradient_Swatch_3);"/>
  </g>
</svg>