<svg width="70" height="70" viewBox="0 0 70 70" fill="none" xmlns="http://www.w3.org/2000/svg">
<path d="M68.2273 64.8116H1.68623V1.68619H68.2273V64.8116ZM64.8116 68.2273H61.3959V66.541H64.8116V68.2273ZM8.5176 68.2273H5.10192V66.541H8.5176V68.2273ZM69.092 -3.98575e-05H0.864731C0.635597 0.00063198 0.416039 0.0919533 0.254016 0.253976C0.0919931 0.416 0.000671837 0.635557 0 0.864691V65.7195C0.000674106 65.9487 0.0919961 66.1682 0.254019 66.3303C0.416041 66.4923 0.635598 66.5836 0.864731 66.5843H3.41569V69.1352C3.41636 69.3644 3.50768 69.5839 3.66971 69.7459C3.83173 69.908 4.05129 69.9993 4.28042 70H9.38233C9.61147 69.9993 9.83103 69.908 9.99305 69.7459C10.1551 69.5839 10.2464 69.3644 10.2471 69.1352V66.541H59.7097V69.092C59.7104 69.3211 59.8017 69.5407 59.9637 69.7027C60.1257 69.8647 60.3453 69.9561 60.5744 69.9567H65.6763C65.9055 69.9561 66.125 69.8647 66.2871 69.7027C66.4491 69.5407 66.5404 69.3211 66.5411 69.092V66.541H69.092C69.3212 66.5404 69.5407 66.449 69.7027 66.287C69.8648 66.125 69.9561 65.9054 69.9568 65.6763V0.821456C69.9469 0.599249 69.8513 0.389509 69.6901 0.236314C69.5288 0.08312 69.3145 -0.00160024 69.092 -3.98575e-05Z" fill="#009E3D"/>
<path d="M5.10193 25.5961H64.8116V44.3607H61.1798C61.2384 44.2646 61.2764 44.1572 61.2913 44.0456C61.3062 43.9339 61.2977 43.8204 61.2662 43.7122L57.8505 30.4818C57.7873 30.2678 57.6492 30.0836 57.4614 29.963C57.3689 29.896 57.2612 29.853 57.148 29.8379C57.0348 29.8228 56.9197 29.8361 56.8129 29.8765L51.8839 31.1736C51.774 31.1984 51.6703 31.2455 51.5794 31.3121C51.4884 31.3787 51.4122 31.4633 51.3554 31.5607C51.2986 31.6581 51.2625 31.7661 51.2493 31.878C51.2361 31.9899 51.246 32.1034 51.2786 32.2113L54.4349 44.3607H51.2786V36.7079C51.2779 36.4787 51.1866 36.2592 51.0246 36.0972C50.8625 35.9351 50.643 35.8438 50.4139 35.8431H41.0315V29.8765C41.0308 29.6474 40.9395 29.4278 40.7775 29.2658C40.6155 29.1038 40.3959 29.0124 40.1668 29.0118H35.0649C34.8357 29.0124 34.6162 29.1038 34.4542 29.2658C34.2921 29.4278 34.2008 29.6474 34.2001 29.8765V35.8431H30.7845V31.5627C30.7838 31.3336 30.6925 31.114 30.5304 30.952C30.3684 30.79 30.1489 30.6987 29.9197 30.698H25.6393V29.8333C25.6386 29.6041 25.5473 29.3846 25.3853 29.2225C25.2233 29.0605 25.0037 28.9692 24.7746 28.9685H19.6727C19.4435 28.9692 19.224 29.0605 19.0619 29.2225C18.8999 29.3846 18.8086 29.6041 18.8079 29.8333V35.8431H15.3922V31.5627C15.3916 31.3336 15.3002 31.114 15.1382 30.952C14.9762 30.79 14.7566 30.6987 14.5275 30.698H9.42559C9.19646 30.6987 8.9769 30.79 8.81488 30.952C8.65285 31.114 8.56153 31.3336 8.56086 31.5627V44.3607H5.10193V25.5961ZM13.7492 11.9333V23.8666H10.3336V11.9333H13.7492ZM18.8512 23.8666H15.4355V17.0352H18.8512V23.8666ZM23.9531 10.2471V23.9098H20.5374V10.2471H23.9531ZM29.0982 11.9333V23.8666H25.6825V11.9333H29.0982ZM34.2001 23.8666H30.7845V17.0352H34.2001V23.8666ZM39.3021 10.2471V23.9098H35.8864V10.2471H39.3021ZM44.4472 23.8666H41.0315V17.0352H44.4472V23.8666ZM49.5491 23.8666H46.1334V17.0352H49.5491V23.8666ZM59.4503 22.8289L56.1211 23.6937L53.1378 12.1063L56.467 11.2415L59.4503 22.8289ZM5.10193 5.10194H64.8116V23.8666H61.1798C61.2384 23.7704 61.2764 23.6631 61.2913 23.5514C61.3062 23.4398 61.2977 23.3262 61.2662 23.2181L57.8505 9.98767C57.7873 9.77362 57.6492 9.58947 57.4614 9.46883C57.3689 9.40186 57.2612 9.35889 57.148 9.3438C57.0348 9.32871 56.9197 9.34196 56.8129 9.38236L51.8839 10.6795C51.774 10.7042 51.6703 10.7514 51.5794 10.818C51.4884 10.8846 51.4122 10.9692 51.3554 11.0666C51.2986 11.1639 51.2625 11.2719 51.2493 11.3839C51.2361 11.4958 51.246 11.6092 51.2786 11.7171L54.4349 23.8666H51.2786V16.2137C51.2779 15.9846 51.1866 15.765 51.0246 15.603C50.8625 15.441 50.643 15.3497 50.4139 15.349H41.0315V9.38236C41.0308 9.15322 40.9395 8.93367 40.7775 8.77164C40.6155 8.60962 40.3959 8.5183 40.1668 8.51763H35.0649C34.8357 8.5183 34.6162 8.60962 34.4542 8.77164C34.2921 8.93366 34.2008 9.15322 34.2001 9.38236V15.349H30.7845V11.0686C30.7838 10.8394 30.6925 10.6199 30.5304 10.4579C30.3684 10.2958 30.1489 10.2045 29.9197 10.2039H25.6393V9.33912C25.6386 9.10999 25.5473 8.89043 25.3853 8.7284C25.2233 8.56638 25.0037 8.47506 24.7746 8.47439H19.6727C19.4435 8.47506 19.224 8.56638 19.0619 8.7284C18.8999 8.89043 18.8086 9.10999 18.8079 9.33912V15.3058H15.3922V11.0253C15.3916 10.7962 15.3002 10.5767 15.1382 10.4146C14.9762 10.2526 14.7566 10.1613 14.5275 10.1606H9.42559C9.19646 10.1613 8.9769 10.2526 8.81487 10.4146C8.65285 10.5767 8.56153 10.7962 8.56086 11.0253V23.8234H5.10193V5.10194ZM56.1643 44.1878L53.181 32.6004L56.5102 31.7357L59.4935 43.3231L56.1643 44.1878ZM49.5491 44.3607H46.1334V37.5294H49.5491V44.3607ZM44.4472 44.3607H41.0315V37.5294H44.4472V44.3607ZM39.3021 36.6646V44.3607H35.8864V30.698H39.3021V36.6646ZM34.2001 44.3607H30.7845V37.5294H34.2001V44.3607ZM29.0982 36.6646V44.3607H25.6825V32.4275H29.0982V36.6646ZM23.9531 31.5627V44.3607H20.5374V30.698H23.9531V31.5627ZM18.8512 44.3607H15.4355V37.5294H18.8512V44.3607ZM13.7492 36.6646V44.3607H10.3336V32.4275H13.7492V36.6646ZM4.28044 46.047H65.7196C65.9487 46.0463 66.1683 45.955 66.3303 45.7929C66.4923 45.6309 66.5837 45.4114 66.5843 45.1822V4.28044C66.5837 4.05131 66.4923 3.83175 66.3303 3.66973C66.1683 3.5077 65.9487 3.41638 65.7196 3.41571H4.28044C4.0513 3.41638 3.83175 3.5077 3.66972 3.66973C3.5077 3.83175 3.41638 4.05131 3.41571 4.28044V45.2255C3.41334 45.3377 3.43443 45.4492 3.47763 45.5528C3.52083 45.6565 3.58518 45.7499 3.66658 45.8273C3.74797 45.9046 3.84462 45.9641 3.95032 46.0019C4.05602 46.0397 4.16846 46.0551 4.28044 46.047Z" fill="#009E3D"/>
<path d="M5.10211 51.1921H34.1138V59.7097H5.10211V51.1921ZM35.8433 51.1921H64.855V59.7097H35.8433V51.1921ZM4.28061 61.4392H65.7198C65.9489 61.4385 66.1685 61.3472 66.3305 61.1852C66.4925 61.0231 66.5838 60.8036 66.5845 60.5744V50.3274C66.5838 50.0982 66.4925 49.8787 66.3305 49.7167C66.1685 49.5546 65.9489 49.4633 65.7198 49.4626H4.28061C4.05148 49.4633 3.83192 49.5546 3.6699 49.7167C3.50788 49.8787 3.41656 50.0982 3.41588 50.3274V60.5744C3.41255 60.6889 3.43264 60.8028 3.47492 60.9093C3.5172 61.0157 3.58077 61.1123 3.66174 61.1933C3.74271 61.2743 3.83938 61.3379 3.9458 61.3801C4.05222 61.4224 4.16615 61.4425 4.28061 61.4392Z" fill="#009E3D"/>
</svg>
