<svg width="70" height="62" viewBox="0 0 70 62" fill="none" xmlns="http://www.w3.org/2000/svg">
<path d="M67.5055 59.5892H54.6052V25.4562L67.5055 33.0695V59.5892ZM52.1943 59.5892H46.4843V48.1692C46.4841 47.844 46.3548 47.5321 46.1248 47.3022C45.8948 47.0722 45.583 46.9429 45.2577 46.9426H24.6172C24.292 46.9429 23.9802 47.0722 23.7502 47.3022C23.5202 47.5321 23.3909 47.844 23.3907 48.1692V59.5892H17.6807V19.1118L19.3302 17.7583V24.5257C19.3282 24.8444 19.451 25.1512 19.6724 25.3804C19.8937 25.6097 20.196 25.7431 20.5145 25.7523H20.6414C28.2547 25.7523 33.584 28.6284 33.7109 31.2085V31.6315C33.7532 31.6737 33.7532 31.7583 33.7955 31.8006C33.8378 31.8852 33.8801 31.9275 33.9224 32.0121L34.0493 32.139L34.2607 32.2659L34.3876 32.3505C34.5227 32.403 34.6658 32.4316 34.8106 32.4351C34.9549 32.4274 35.0974 32.3989 35.2336 32.3505L35.3604 32.2659L35.5719 32.139L35.6988 32.0121C35.7504 31.9476 35.793 31.8765 35.8257 31.8006C35.868 31.7583 35.868 31.6737 35.9103 31.6315V31.2085C36.0372 28.6284 41.3665 25.7523 48.9798 25.7523C49.2635 25.7505 49.5385 25.6538 49.7608 25.4774C49.9832 25.3011 50.14 25.0554 50.2064 24.7795V17.8006L51.8559 19.1541L52.1943 59.5892ZM25.8438 49.3958H44.0734V59.5892H25.8438V49.3958ZM15.3121 59.5892H2.4118V33.0695L15.3121 25.4562V59.5892ZM33.7532 8.87616V26.9789C31.2154 24.9487 26.8589 23.5529 21.7834 23.3414V3.41997C28.8468 3.75834 33.6686 6.42299 33.7532 8.87616ZM48.1339 3.41997V23.2991C43.0583 23.5106 38.7018 24.8641 36.1641 26.9366V8.83387C36.2064 6.42299 41.0704 3.75834 48.1339 3.41997ZM69.3242 31.3354L54.6052 22.6224V18.5197C54.6023 18.3438 54.5632 18.1705 54.4905 18.0104C54.4177 17.8503 54.3128 17.7069 54.1822 17.5892L50.5447 14.5861V2.19338C50.5445 1.86815 50.4152 1.5563 50.1852 1.32632C49.9552 1.09634 49.6434 0.967033 49.3182 0.966797C42.7623 0.966797 37.2638 2.91242 34.9375 5.78855C32.6112 2.91242 27.1127 0.966797 20.5568 0.966797C20.2316 0.967029 19.9197 1.09633 19.6897 1.32631C19.4598 1.55629 19.3305 1.86814 19.3302 2.19338V14.5861L15.6928 17.5892C15.5515 17.6978 15.4391 17.8395 15.3653 18.0017C15.2916 18.1639 15.2588 18.3418 15.2698 18.5197V22.6224L0.593071 31.3354C0.406364 31.4398 0.25221 31.5938 0.147693 31.7805C0.0431749 31.9671 -0.00762396 32.179 0.000925891 32.3928V60.7734C0.00116339 61.0987 0.130469 61.4105 0.360447 61.6405C0.590425 61.8705 0.902274 61.9998 1.22751 62H68.7743C69.0996 61.9998 69.4114 61.8705 69.6414 61.6405C69.8714 61.4105 70.0007 61.0987 70.0009 60.7734V32.3928C69.9649 32.1801 69.8864 31.9769 69.7701 31.7952C69.6539 31.6136 69.5022 31.4572 69.3242 31.3354Z" fill="#009E3D"/>
<path d="M29.9044 38.7372H25.844C25.5187 38.7372 25.2067 38.8664 24.9767 39.0965C24.7467 39.3265 24.6174 39.6385 24.6174 39.9638C24.6174 40.2891 24.7467 40.6011 24.9767 40.8311C25.2067 41.0612 25.5187 41.1904 25.844 41.1904H29.9044C30.2297 41.1902 30.5415 41.0608 30.7715 40.8309C31.0015 40.6009 31.1308 40.289 31.131 39.9638C31.1345 39.8018 31.1051 39.6407 31.0447 39.4903C30.9843 39.34 30.8941 39.2034 30.7795 39.0888C30.6649 38.9742 30.5283 38.8839 30.3779 38.8235C30.2275 38.7631 30.0665 38.7338 29.9044 38.7372Z" fill="#009E3D"/>
<path d="M44.0736 38.7372H40.0132C39.6879 38.7372 39.3759 38.8664 39.1459 39.0964C38.9159 39.3265 38.7866 39.6385 38.7866 39.9638C38.7866 40.2891 38.9159 40.6011 39.1459 40.8311C39.3759 41.0611 39.6879 41.1904 40.0132 41.1904H44.0736C44.3989 41.1901 44.7107 41.0608 44.9407 40.8308C45.1707 40.6009 45.3 40.289 45.3002 39.9638C45.2931 39.6407 45.1616 39.3328 44.9331 39.1043C44.7046 38.8758 44.3967 38.7443 44.0736 38.7372Z" fill="#009E3D"/>
<path d="M6.81081 54.8097H10.8289C11.1543 54.8097 11.4662 54.6805 11.6963 54.4505C11.9263 54.2205 12.0555 53.9085 12.0555 53.5832C12.0555 53.2578 11.9263 52.9459 11.6963 52.7158C11.4662 52.4858 11.1543 52.3566 10.8289 52.3566H6.81081C6.4855 52.3566 6.17352 52.4858 5.94349 52.7158C5.71346 52.9459 5.58423 53.2578 5.58423 53.5832C5.58423 53.9085 5.71346 54.2205 5.94349 54.4505C6.17352 54.6805 6.4855 54.8097 6.81081 54.8097Z" fill="#009E3D"/>
<path d="M6.81084 47.6194H10.829C11.1543 47.6194 11.4663 47.4902 11.6963 47.2602C11.9263 47.0301 12.0556 46.7182 12.0556 46.3928C12.0556 46.0675 11.9263 45.7555 11.6963 45.5255C11.4663 45.2955 11.1543 45.1663 10.829 45.1663H6.81084C6.4856 45.1665 6.17375 45.2958 5.94377 45.5258C5.7138 45.7558 5.58449 46.0676 5.58426 46.3928C5.5808 46.5549 5.61016 46.7159 5.67058 46.8663C5.73099 47.0167 5.82121 47.1533 5.93581 47.2679C6.05041 47.3825 6.18701 47.4727 6.33739 47.5331C6.48777 47.5935 6.64882 47.6229 6.81084 47.6194Z" fill="#009E3D"/>
<path d="M6.81081 40.4714H10.8289C11.1543 40.4714 11.4662 40.3421 11.6963 40.1121C11.9263 39.8821 12.0555 39.5701 12.0555 39.2448C12.0555 38.9195 11.9263 38.6075 11.6963 38.3774C11.4662 38.1474 11.1543 38.0182 10.8289 38.0182H6.81081C6.4855 38.0182 6.17352 38.1474 5.94349 38.3774C5.71346 38.6075 5.58423 38.9195 5.58423 39.2448C5.58423 39.5701 5.71346 39.8821 5.94349 40.1121C6.17352 40.3421 6.4855 40.4714 6.81081 40.4714Z" fill="#009E3D"/>
<path d="M59.0886 54.8097H63.1491C63.4744 54.8097 63.7864 54.6805 64.0164 54.4505C64.2464 54.2205 64.3757 53.9085 64.3757 53.5832C64.3757 53.2578 64.2464 52.9459 64.0164 52.7158C63.7864 52.4858 63.4744 52.3566 63.1491 52.3566H59.0886C58.7633 52.3566 58.4513 52.4858 58.2213 52.7158C57.9913 52.9459 57.8621 53.2578 57.8621 53.5832C57.8621 53.9085 57.9913 54.2205 58.2213 54.4505C58.4513 54.6805 58.7633 54.8097 59.0886 54.8097Z" fill="#009E3D"/>
<path d="M59.0887 47.6194H63.1491C63.4744 47.6194 63.7864 47.4902 64.0164 47.2602C64.2465 47.0301 64.3757 46.7182 64.3757 46.3928C64.3757 46.0675 64.2465 45.7555 64.0164 45.5255C63.7864 45.2955 63.4744 45.1663 63.1491 45.1663H59.0887C58.7634 45.1665 58.4516 45.2958 58.2216 45.5258C57.9916 45.7558 57.8623 46.0676 57.8621 46.3928C57.8586 46.5549 57.888 46.7159 57.9484 46.8663C58.0088 47.0167 58.099 47.1533 58.2136 47.2679C58.3282 47.3825 58.4648 47.4727 58.6152 47.5331C58.7656 47.5935 58.9266 47.6229 59.0887 47.6194Z" fill="#009E3D"/>
<path d="M59.0886 40.4714H63.1491C63.4744 40.4714 63.7864 40.3421 64.0164 40.1121C64.2464 39.8821 64.3757 39.5701 64.3757 39.2448C64.3757 38.9195 64.2464 38.6075 64.0164 38.3774C63.7864 38.1474 63.4744 38.0182 63.1491 38.0182H59.0886C58.7633 38.0182 58.4513 38.1474 58.2213 38.3774C57.9913 38.6075 57.8621 38.9195 57.8621 39.2448C57.8621 39.5701 57.9913 39.8821 58.2213 40.1121C58.4513 40.3421 58.7633 40.4714 59.0886 40.4714Z" fill="#009E3D"/>
<path d="M29.9044 31.5045H25.844C25.5187 31.5045 25.2067 31.6338 24.9767 31.8638C24.7467 32.0938 24.6174 32.4058 24.6174 32.7311C24.6174 33.0564 24.7467 33.3684 24.9767 33.5985C25.2067 33.8285 25.5187 33.9577 25.844 33.9577H29.9044C30.2297 33.9575 30.5415 33.8282 30.7715 33.5982C31.0015 33.3682 31.1308 33.0564 31.131 32.7311C31.1345 32.5691 31.1051 32.4081 31.0447 32.2577C30.9843 32.1073 30.8941 31.9707 30.7795 31.8561C30.6649 31.7415 30.5283 31.6513 30.3779 31.5909C30.2275 31.5304 30.0665 31.5011 29.9044 31.5045Z" fill="#009E3D"/>
<path d="M44.0736 31.5046H40.0132C39.6879 31.5046 39.3759 31.6338 39.1459 31.8638C38.9159 32.0939 38.7866 32.4059 38.7866 32.7312C38.7866 33.0565 38.9159 33.3685 39.1459 33.5985C39.3759 33.8285 39.6879 33.9577 40.0132 33.9577H44.0736C44.3989 33.9575 44.7107 33.8282 44.9407 33.5982C45.1707 33.3683 45.3 33.0564 45.3002 32.7312C45.2931 32.4081 45.1616 32.1002 44.9331 31.8717C44.7046 31.6432 44.3967 31.5117 44.0736 31.5046Z" fill="#009E3D"/>
</svg>
