<svg width="68" height="70" viewBox="0 0 68 70" fill="none" xmlns="http://www.w3.org/2000/svg">
<path d="M48.908 67.6128C44.583 67.6084 40.4365 65.8884 37.3783 62.8302C34.3201 59.772 32.6001 55.6255 32.5957 51.3006C32.5957 50.7259 32.6399 50.1512 32.6841 49.5765C32.6771 49.4859 32.6923 49.3948 32.7283 49.3113C32.8167 48.7366 32.9052 48.2061 33.0378 47.6757V47.5872C38.4752 47.8083 43.8242 47.2336 49.0406 46.6589C53.9917 46.1284 59.1639 45.5537 64.2476 45.7306C64.4213 46.1784 64.5689 46.636 64.6897 47.101V47.1452C64.7781 47.543 64.8665 47.9409 64.9549 48.3388C64.9549 48.4714 64.9991 48.5598 64.9991 48.6924C65.0433 49.0019 65.0875 49.3113 65.1318 49.665C65.1318 49.7976 65.176 49.9302 65.176 50.0628C65.2202 50.5049 65.2202 50.9469 65.2202 51.389C65.2163 53.5259 64.791 55.641 63.9688 57.6134C63.1466 59.5858 61.9435 61.3767 60.4284 62.8836C58.9133 64.3905 57.1159 65.5838 55.1391 66.3953C53.1623 67.2068 51.0448 67.6205 48.908 67.6128ZM41.3044 36.8893C41.4889 36.7904 41.6435 36.6439 41.7524 36.4652C41.8612 36.2864 41.9202 36.0818 41.9233 35.8725V21.0191H47.7586V44.4486C43.1611 44.9348 38.4752 45.4211 33.7893 45.2885C35.1939 41.6707 37.8645 38.686 41.3044 36.8893ZM55.9368 20.9749V23.3178H53.5938V25.6608H55.9368V28.0037H53.5938V30.3467H55.9368V32.6896H53.5938V35.0326H55.9368V35.8725C55.9287 36.084 55.9831 36.2932 56.0932 36.474C56.2032 36.6549 56.3641 36.7993 56.5557 36.8893C59.3409 38.3579 61.6433 40.5989 63.1867 43.3434C58.8119 43.3547 54.4419 43.6352 50.1015 44.1833V21.0191L55.9368 20.9749ZM41.7023 8.28758C40.3761 7.44766 39.5804 5.90043 39.0941 4.53002L46.0345 8.99489C44.6641 9.17172 43.0285 9.12751 41.7023 8.28758ZM44.4873 3.15962C45.8135 3.99955 46.6092 5.54678 47.0955 6.91718L40.155 2.45231C41.5254 2.23128 43.1611 2.27549 44.4873 3.15962ZM53.3728 5.7236C54.699 4.88368 56.3346 4.83947 57.7051 5.0163L50.7646 9.48116C51.2509 8.11076 52.0466 6.60773 53.3728 5.7236ZM56.1578 10.8516C54.8316 11.6915 53.196 11.7357 51.8256 11.5589L58.766 7.09401C58.2797 8.46441 57.484 10.0116 56.1578 10.8516ZM67.4747 49.665C67.4747 49.5323 67.4305 49.3997 67.4305 49.2671C67.3034 48.1452 67.0816 47.0361 66.7674 45.9516C66.7674 45.9074 66.7232 45.8632 66.7232 45.7748C65.3259 41.2983 62.2961 37.511 58.2355 35.1652V21.0191H59.3849V18.6761H50.0573V13.6366C51.0286 13.8629 52.0219 13.9815 53.0192 13.9902C54.5646 14.0395 56.0892 13.6237 57.3956 12.7967C61.0205 10.4537 61.6837 4.88368 61.7279 4.61844C61.76 4.3691 61.7078 4.11618 61.5797 3.8999C61.4515 3.68362 61.2547 3.51641 61.0205 3.42486C60.7995 3.33645 55.8042 1.39136 52.0908 3.73431C50.9988 4.48222 50.104 5.48325 49.4826 6.65194C48.9079 4.79526 47.8028 2.49652 45.7693 1.17032C42.1001 -1.21683 37.0606 0.772464 36.8395 0.860877C36.6032 0.949274 36.4041 1.11585 36.2755 1.33297C36.1468 1.55008 36.0963 1.80466 36.1322 2.05446C36.1764 2.27549 36.8395 7.84552 40.4645 10.2327C41.7796 11.0399 43.2981 11.454 44.8409 11.4263C45.838 11.4146 46.831 11.2961 47.8028 11.0726V18.6761H38.4752V21.0191H39.6246V35.1652C35.4946 37.545 32.4394 41.4234 31.0927 45.9958V46.04C31.0956 46.064 31.0932 46.0884 31.0856 46.1113C31.0779 46.1343 31.0653 46.1552 31.0485 46.1726C30.954 46.4767 30.8801 46.7869 30.8274 47.101C30.7832 47.2336 30.7832 47.322 30.739 47.4546C30.6948 47.7641 30.6064 48.0735 30.5622 48.383C30.5622 48.5156 30.518 48.604 30.518 48.7366C30.4666 49.0584 30.4371 49.3834 30.4296 49.7092C30.4296 49.7976 30.3854 49.9302 30.3854 50.0186C30.3486 50.4449 30.3338 50.8728 30.3412 51.3006C30.3412 56.2483 32.3066 60.9933 35.8051 64.4918C39.3037 67.9903 44.0487 69.9558 48.9963 69.9558C53.944 69.9558 58.689 67.9903 62.1876 64.4918C65.6861 60.9933 67.6515 56.2483 67.6515 51.3006C67.563 50.7702 67.5631 50.1954 67.4747 49.665Z" fill="#009E3D"/>
<path d="M53.5938 60.6282C53.1304 60.6282 52.6775 60.4908 52.2922 60.2333C51.9069 59.9759 51.6066 59.61 51.4292 59.1819C51.2519 58.7537 51.2055 58.2826 51.2959 57.8282C51.3863 57.3737 51.6094 56.9562 51.9371 56.6285C52.2648 56.3009 52.6823 56.0777 53.1367 55.9873C53.5912 55.8969 54.0623 55.9433 54.4904 56.1206C54.9186 56.298 55.2845 56.5983 55.5419 56.9836C55.7994 57.3689 55.9368 57.8219 55.9368 58.2852C55.9327 58.9054 55.6846 59.499 55.2461 59.9375C54.8075 60.376 54.214 60.6241 53.5938 60.6282ZM53.5938 53.6436C52.6758 53.6436 51.7784 53.9158 51.015 54.4258C50.2517 54.9359 49.6568 55.6608 49.3055 56.5089C48.9541 57.3571 48.8622 58.2904 49.0413 59.1908C49.2204 60.0912 49.6625 60.9183 50.3117 61.5674C50.9608 62.2166 51.7879 62.6586 52.6883 62.8377C53.5887 63.0168 54.522 62.9249 55.3701 62.5736C56.2183 62.2223 56.9432 61.6274 57.4533 60.864C57.9633 60.1007 58.2355 59.2033 58.2355 58.2852C58.2356 57.6757 58.1156 57.072 57.8823 56.5089C57.6491 55.9457 57.3072 55.4339 56.8762 55.0029C56.4451 54.5719 55.9334 54.23 55.3702 53.9967C54.807 53.7635 54.2034 53.6435 53.5938 53.6436Z" fill="#009E3D"/>
<path d="M5.54103 8.2877C4.21483 7.44777 3.4191 5.90054 2.93283 4.53014L9.87327 8.995C8.54707 9.17183 6.86722 9.12762 5.54103 8.2877ZM8.32604 3.15973C9.65223 3.99966 10.448 5.54689 10.9342 6.91729L3.9938 2.45243C5.3642 2.23139 7.04404 2.2756 8.32604 3.15973ZM17.2116 5.72371C18.5378 4.88379 20.1734 4.83958 21.5438 5.01641L14.6034 9.48127C15.0897 8.11087 15.8854 6.60785 17.2116 5.72371ZM19.9966 10.8517C18.6704 11.6916 17.0347 11.7358 15.6643 11.559L22.6048 7.09412C22.1185 8.46452 21.3228 10.0118 19.9966 10.8517ZM19.7756 20.975V24.4673H17.4326V26.8103H19.7756V28.888C17.8406 28.5905 15.8705 28.6055 13.9403 28.9322V20.975H19.7756ZM12.7909 67.6129C10.9397 67.609 9.16537 66.8719 7.85634 65.5629C6.54731 64.2538 5.81017 62.4795 5.80625 60.6283V31.7614C6.66927 31.8971 7.5409 31.971 8.41445 31.9824C9.95736 31.9416 11.4946 31.779 13.012 31.4962C15.1781 31.1425 17.2116 30.7889 19.8197 31.2751V33.8391H17.4768V36.1821H19.8197V38.525H17.4768V40.868H19.8197V43.2109H17.4768V45.5539H19.8197V47.8968H17.4768V50.2397H19.8197V52.5827H17.4768V54.9257H19.8197V57.2686H17.4768V59.6115H19.8197V60.7609C19.814 61.1455 19.7845 61.5294 19.7313 61.9103H17.521V64.2532H18.8914C18.2287 65.2712 17.3254 66.1103 16.2614 66.6962C15.1974 67.2822 14.0055 67.597 12.7909 67.6129ZM11.5973 20.9751V29.3301C9.67349 29.7229 7.69163 29.7379 5.76206 29.3743V20.9751H11.5973ZM16.9021 13.9904C18.4475 14.0397 19.9721 13.6239 21.2786 12.7968C24.9035 10.4539 25.5666 4.88386 25.6108 4.61862C25.643 4.36928 25.5908 4.11636 25.4626 3.90008C25.3345 3.68381 25.1376 3.51659 24.9035 3.42504C24.6825 3.33663 19.6871 1.39154 15.9738 3.73449C14.8818 4.48241 13.9869 5.48343 13.3656 6.65212C12.7909 4.79545 11.6857 2.4967 9.65223 1.17051C5.98309 -1.21665 0.94353 0.772647 0.722497 0.86106C0.486115 0.949457 0.287079 1.11604 0.158421 1.33315C0.0297617 1.55026 -0.0207711 1.80485 0.0152024 2.05464C0.059409 2.27567 0.722502 7.8457 4.34744 10.2329C5.66254 11.04 7.1811 11.4542 8.72391 11.4264C9.72099 11.4148 10.714 11.2963 11.6858 11.0728V18.6763H2.35815V21.0193H3.50753V60.6726C3.51134 63.1439 4.49572 65.5127 6.24457 67.2589C7.99342 69.0051 10.3638 69.9858 12.8351 69.9858C15.3065 69.9858 17.6768 69.0051 19.4256 67.2589C21.1745 65.5127 22.1589 63.1439 22.1627 60.6726V21.0193H23.3121V18.6763H13.9845V13.6368C14.9407 13.8633 15.9194 13.9819 16.9021 13.9904Z" fill="#009E3D"/>
<path d="M11.5973 60.6282C11.4461 60.6293 11.2961 60.6003 11.1562 60.5429C11.0163 60.4855 10.8891 60.4009 10.7822 60.2939C10.6753 60.187 10.5906 60.0599 10.5333 59.9199C10.4759 59.78 10.4469 59.6301 10.448 59.4788C10.448 59.174 10.569 58.8817 10.7846 58.6661C11.0001 58.4506 11.2925 58.3295 11.5973 58.3295C11.9021 58.3295 12.1945 58.4506 12.41 58.6661C12.6256 58.8817 12.7467 59.174 12.7467 59.4788C12.7477 59.6301 12.7187 59.78 12.6614 59.9199C12.604 60.0599 12.5194 60.187 12.4124 60.2939C12.3055 60.4009 12.1783 60.4855 12.0384 60.5429C11.8985 60.6003 11.7485 60.6293 11.5973 60.6282ZM11.5973 55.9865C10.9066 55.9865 10.2314 56.1913 9.65709 56.5751C9.08278 56.9588 8.63515 57.5042 8.37083 58.1424C8.1065 58.7805 8.03733 59.4827 8.17208 60.1602C8.30683 60.8376 8.63947 61.4599 9.12788 61.9483C9.61629 62.4367 10.2386 62.7693 10.916 62.9041C11.5934 63.0388 12.2956 62.9696 12.9338 62.7053C13.5719 62.441 14.1173 61.9934 14.5011 61.4191C14.8848 60.8448 15.0896 60.1696 15.0896 59.4788C15.0924 59.0195 15.0039 58.5641 14.8294 58.1391C14.6548 57.7142 14.3977 57.3281 14.0729 57.0033C13.748 56.6784 13.3619 56.4213 12.937 56.2468C12.5121 56.0722 12.0567 55.9838 11.5973 55.9865Z" fill="#009E3D"/>
</svg>
