<svg width="59" height="70" viewBox="0 0 59 70" fill="none" xmlns="http://www.w3.org/2000/svg">
<path d="M43.1123 29.3041L40.1589 29.7261C39.956 29.7617 39.7667 29.8519 39.6112 29.9871C39.4558 30.1222 39.3402 30.2972 39.2767 30.4932C39.0861 31.3143 38.7482 32.094 38.2795 32.7946C38.1566 32.9749 38.1008 33.1927 38.1218 33.4099C38.1429 33.6271 38.2393 33.8301 38.3945 33.9836L40.2356 36.4L38.3945 38.2411L35.9781 36.4C35.8105 36.2716 35.6102 36.1928 35.4 36.1725C35.1898 36.1521 34.9782 36.1911 34.789 36.285C34.059 36.6972 33.2877 37.0315 32.4877 37.2822C32.2788 37.3207 32.0893 37.429 31.9499 37.5892C31.8106 37.7495 31.7297 37.9523 31.7206 38.1644L31.2986 41.1178H28.6904L28.2685 38.1644C28.2329 37.9615 28.1426 37.7722 28.0075 37.6168C27.8723 37.4613 27.6973 37.3457 27.5014 37.2822C26.6803 37.0916 25.9006 36.7537 25.2 36.285C25.0196 36.1621 24.8019 36.1063 24.5847 36.1273C24.3674 36.1484 24.1644 36.2449 24.011 36.4L21.5945 38.2411L19.7534 36.4L21.5945 33.9836C21.7229 33.816 21.8018 33.6157 21.8221 33.4055C21.8424 33.1954 21.8035 32.9837 21.7096 32.7946C21.2973 32.0646 20.9631 31.2932 20.7123 30.4932C20.6738 30.2843 20.5656 30.0948 20.4053 29.9554C20.2451 29.8161 20.0423 29.7352 19.8301 29.7261L16.8767 29.3041V26.6959L19.8301 26.274C20.033 26.2384 20.2224 26.1482 20.3778 26.013C20.5332 25.8778 20.6489 25.7029 20.7123 25.5069C20.903 24.6858 21.2409 23.9061 21.7096 23.2055C21.8325 23.0251 21.8882 22.8074 21.8672 22.5902C21.8462 22.3729 21.7497 22.1699 21.5945 22.0165L19.7534 19.6L21.5945 17.7589L24.011 19.6C24.1786 19.7284 24.3789 19.8073 24.589 19.8276C24.7992 19.848 25.0109 19.809 25.2 19.7151C25.93 19.3028 26.7014 18.9686 27.5014 18.7178C27.7102 18.6793 27.8998 18.5711 28.0391 18.4108C28.1785 18.2506 28.2593 18.0478 28.2685 17.8357L28.6904 14.8822H31.2986L31.7206 17.8357C31.7562 18.0385 31.8464 18.2279 31.9816 18.3833C32.1167 18.5387 32.2917 18.6544 32.4877 18.7178C33.3087 18.9085 34.0885 19.2464 34.789 19.7151C34.9694 19.838 35.1872 19.8937 35.4044 19.8727C35.6216 19.8517 35.8246 19.7552 35.9781 19.6L38.3945 17.7589L40.2356 19.6L38.3945 22.0165C38.2661 22.1841 38.1873 22.3844 38.1669 22.5945C38.1466 22.8047 38.1856 23.0164 38.2795 23.2055C38.6917 23.9355 39.026 24.7069 39.2767 25.5069C39.3152 25.7157 39.4235 25.9053 39.5837 26.0447C39.744 26.184 39.9467 26.2649 40.1589 26.274L43.1123 26.6959V29.3041ZM44.4164 24.7014L41.1178 24.2795C40.8877 23.7425 40.6959 23.2822 40.4658 22.7452L42.4219 20.137C42.5105 20.0377 42.578 19.9214 42.6203 19.7952C42.6626 19.669 42.6789 19.5355 42.6681 19.4028C42.6574 19.2701 42.6198 19.141 42.5577 19.0233C42.4956 18.9056 42.4103 18.8016 42.3069 18.7178L39.1233 15.5343C38.9425 15.3435 38.6977 15.2263 38.4357 15.205C38.1738 15.1838 37.9132 15.2601 37.7041 15.4192L35.0959 17.3754C34.674 17.1452 34.0986 16.9535 33.5616 16.7233L33.1397 13.4247C33.097 13.156 32.9631 12.9102 32.7606 12.7286C32.558 12.547 32.2991 12.4407 32.0274 12.4274H27.4247C27.1527 12.4398 26.8933 12.5458 26.6906 12.7276C26.4878 12.9094 26.3542 13.1556 26.3123 13.4247L25.8904 16.7233C25.3534 16.9535 24.8932 17.1452 24.3562 17.3754L21.8247 15.3041C21.7253 15.2156 21.609 15.1481 21.4828 15.1058C21.3566 15.0635 21.2231 15.0472 21.0904 15.0579C20.9578 15.0687 20.8287 15.1063 20.7109 15.1684C20.5932 15.2305 20.4893 15.3158 20.4055 15.4192L17.1069 18.7178C16.9161 18.8986 16.7988 19.1435 16.7776 19.4054C16.7564 19.6673 16.8326 19.9279 16.9918 20.137L18.948 22.7452C18.7178 23.1672 18.526 23.7425 18.2959 24.2795L14.9973 24.7014C14.7286 24.7441 14.4828 24.878 14.3012 25.0806C14.1196 25.2831 14.0132 25.542 14 25.8137V30.4165C14.0124 30.6885 14.1184 30.9478 14.3002 31.1506C14.4819 31.3533 14.7282 31.4869 14.9973 31.5288L18.2959 31.9507C18.526 32.4877 18.7178 32.948 18.948 33.485L16.9918 36.0932C16.9032 36.1926 16.8357 36.3089 16.7934 36.4351C16.7511 36.5613 16.7348 36.6947 16.7456 36.8274C16.7563 36.9601 16.7939 37.0892 16.856 37.2069C16.9181 37.3247 17.0034 37.4286 17.1069 37.5124L20.2904 40.6959C20.4712 40.8867 20.716 41.004 20.978 41.0252C21.2399 41.0464 21.5005 40.9701 21.7096 40.811L24.3178 38.8548C24.7397 39.085 25.3151 39.2767 25.8521 39.5069L26.274 42.8055C26.3167 43.0742 26.4506 43.32 26.6531 43.5016C26.8557 43.6832 27.1146 43.7895 27.3863 43.8028H31.989C32.2611 43.7904 32.5204 43.6844 32.7232 43.5026C32.9259 43.3208 33.0595 43.0746 33.1014 42.8055L33.5233 39.5069C34.0603 39.2767 34.5206 39.085 35.0575 38.8548L37.6658 40.811C37.7651 40.8996 37.8814 40.967 38.0076 41.0094C38.1338 41.0517 38.2673 41.0679 38.4 41.0572C38.5326 41.0464 38.6618 41.0089 38.7795 40.9468C38.8972 40.8847 39.0011 40.7993 39.0849 40.6959L42.2685 37.5124C42.4593 37.3316 42.5765 37.0868 42.5978 36.8248C42.619 36.5629 42.5427 36.3023 42.3836 36.0932L40.4274 33.485C40.6575 33.063 40.8493 32.4877 41.0795 31.9507L44.3781 31.5288C44.6468 31.4861 44.8926 31.3522 45.0742 31.1497C45.2558 30.9471 45.3621 30.6882 45.3753 30.4165V25.8137C45.2986 25.2767 44.9534 24.7014 44.4164 24.7014Z" fill="#009E3D"/>
<path d="M29.7641 31.8356C28.7518 31.8197 27.7855 31.4104 27.0696 30.6945C26.3537 29.9787 25.9445 29.0123 25.9285 28C25.9445 26.9877 26.3537 26.0214 27.0696 25.3055C27.7855 24.5896 28.7518 24.1804 29.7641 24.1644C30.7764 24.1804 31.7427 24.5896 32.4586 25.3055C33.1745 26.0214 33.5837 26.9877 33.5997 28C33.7148 30.1863 31.9504 31.8356 29.7641 31.8356ZM29.7641 21.9781C28.1698 21.9873 26.6435 22.6247 25.5162 23.7521C24.3888 24.8794 23.7514 26.4058 23.7422 28C23.7514 29.5943 24.3888 31.1206 25.5162 32.248C26.6435 33.3753 28.1698 34.0127 29.7641 34.0219C31.3584 34.0127 32.8847 33.3753 34.012 32.248C35.1394 31.1206 35.7768 29.5943 35.786 28C35.7879 27.2087 35.6334 26.4248 35.3315 25.6933C35.0295 24.9618 34.586 24.2972 34.0265 23.7377C33.4669 23.1781 32.8023 22.7346 32.0708 22.4326C31.3394 22.1307 30.5554 21.9762 29.7641 21.9781Z" fill="#009E3D"/>
<path d="M41.9231 42.3069C39.3944 44.4533 37.8215 47.5161 37.5505 50.8219H22.1313C21.9795 49.1774 21.505 47.5788 20.735 46.1177C19.9649 44.6567 18.9145 43.3617 17.6436 42.3069C15.2889 40.3175 13.4591 37.7798 12.3154 34.9172C11.1717 32.0546 10.7491 28.9547 11.0847 25.8904C11.5754 21.6794 13.4758 17.7581 16.4771 14.7638C19.4784 11.7695 23.4041 9.8782 27.6162 9.39728C39.0847 8.09317 48.5203 17.1452 48.5203 28.1151C48.5468 30.8226 47.9682 33.5018 46.8268 35.9571C45.6854 38.4124 44.0101 40.5818 41.9231 42.3069ZM37.0902 56.537H22.4382C22.2113 56.5384 21.9866 56.4928 21.7782 56.4031C21.5698 56.3134 21.3822 56.1816 21.2273 56.0158C21.0724 55.8501 20.9534 55.6541 20.878 55.4401C20.8025 55.2262 20.7722 54.9989 20.7888 54.7726C20.7839 54.5547 20.8232 54.338 20.9043 54.1357C20.9854 53.9333 21.1067 53.7495 21.2609 53.5954C21.415 53.4412 21.5988 53.3199 21.8012 53.2388C22.0035 53.1576 22.2202 53.1184 22.4382 53.1233H37.0902C37.5424 53.1402 37.9695 53.3351 38.2785 53.6656C38.5874 53.9962 38.7532 54.4354 38.7395 54.8877C38.8546 55.7699 38.0875 56.537 37.0902 56.537ZM34.6738 62.0987H25.0464C24.8195 62.1001 24.5948 62.0545 24.3864 61.9648C24.178 61.8751 23.9904 61.7432 23.8355 61.5775C23.6806 61.4117 23.5616 61.2157 23.4862 61.0018C23.4107 60.7878 23.3804 60.5605 23.3971 60.3343C23.3921 60.1163 23.4314 59.8996 23.5125 59.6973C23.5937 59.495 23.715 59.3112 23.8691 59.157C24.0233 59.0029 24.2071 58.8816 24.4094 58.8004C24.6117 58.7193 24.8284 58.68 25.0464 58.685H34.6738C34.9006 58.6835 35.1254 58.7291 35.3338 58.8188C35.5421 58.9085 35.7297 59.0404 35.8846 59.2061C36.0396 59.3719 36.1585 59.5679 36.234 59.7818C36.3094 59.9958 36.3398 60.2231 36.3231 60.4493C36.328 60.6673 36.2888 60.884 36.2076 61.0863C36.1265 61.2887 36.0052 61.4725 35.851 61.6266C35.6969 61.7808 35.5131 61.9021 35.3108 61.9832C35.1084 62.0643 34.8917 62.1036 34.6738 62.0987ZM33.2546 64.5151C33.2482 65.388 32.8986 66.2232 32.2813 66.8405C31.6641 67.4577 30.8288 67.8073 29.956 67.8137H29.8409C28.968 67.8073 28.1327 67.4577 27.5155 66.8405C26.8983 66.2232 26.5487 65.388 26.5423 64.5151V64.4H33.3313V64.5151H33.2546ZM27.4628 7.21098C22.7569 7.77933 18.3776 9.90988 15.0258 13.2617C11.674 16.6134 9.54349 20.9927 8.97514 25.6986C8.58693 29.1277 9.05266 32.5995 10.3308 35.805C11.609 39.0105 13.66 41.8502 16.3012 44.0713C17.4351 45.0502 18.3519 46.2554 18.9926 47.6095C19.6333 48.9636 19.9839 50.4367 20.0217 51.9343C19.5974 52.2978 19.26 52.7518 19.0343 53.2629C18.8086 53.774 18.7004 54.3292 18.7176 54.8877C18.7141 55.7511 19.0046 56.59 19.5414 57.2662C20.0783 57.9425 20.8293 58.4158 21.671 58.6082C21.3568 59.1688 21.2103 59.8079 21.2491 60.4493C21.2484 61.3598 21.5664 62.2418 22.1479 62.9424C22.7294 63.6429 23.5377 64.1179 24.4327 64.285V64.5151C24.4388 65.9679 25.0187 67.3594 26.046 68.3867C27.0733 69.414 28.4648 69.9939 29.9176 70H30.0327C31.4855 69.9939 32.877 69.414 33.9043 68.3867C34.9316 67.3594 35.5115 65.9679 35.5176 64.5151V64.285C36.4056 64.1035 37.2051 63.6244 37.7839 62.927C38.3628 62.2296 38.6864 61.3556 38.7012 60.4493C38.6652 59.8163 38.5226 59.1938 38.2793 58.6082C39.1258 58.3844 39.8745 57.8869 40.4088 57.1931C40.943 56.4993 41.2327 55.6483 41.2327 54.7726C41.2239 54.2181 41.1039 53.6711 40.8799 53.1638C40.6559 52.6565 40.3324 52.1992 39.9286 51.8192C39.9408 50.3171 40.2799 48.8356 40.9224 47.4777C41.5649 46.1199 42.4954 44.9182 43.6491 43.9562C45.9753 41.9978 47.8462 39.5555 49.1314 36.7997C50.4165 34.0438 51.085 31.0408 51.0902 28C50.745 15.8795 40.2738 5.7918 27.4628 7.21098Z" fill="#009E3D"/>
<path d="M29.2275 5.02467C29.376 5.0343 29.5249 5.01213 29.6642 4.95963C29.8036 4.90714 29.9301 4.82553 30.0354 4.72026C30.1406 4.61498 30.2222 4.48846 30.2747 4.34914C30.3272 4.20982 30.3494 4.06091 30.3398 3.91235V1.11234C30.3494 0.963775 30.3272 0.814859 30.2747 0.67554C30.2222 0.536222 30.1406 0.409707 30.0354 0.304433C29.9301 0.199159 29.8036 0.117547 29.6642 0.0650525C29.5249 0.0125578 29.376 -0.00961554 29.2275 1.15859e-05C29.0781 -0.0128559 28.9278 0.00708354 28.787 0.0584331C28.6462 0.109783 28.5184 0.191303 28.4124 0.297275C28.3064 0.403248 28.2249 0.531115 28.1735 0.671912C28.1222 0.812708 28.1023 0.963029 28.1151 1.11234V3.9507C28.1096 4.09653 28.1348 4.24189 28.1893 4.37729C28.2437 4.51268 28.3261 4.63507 28.4311 4.73643C28.5361 4.8378 28.6613 4.91587 28.7985 4.96554C28.9357 5.0152 29.0819 5.03536 29.2275 5.02467Z" fill="#009E3D"/>
<path d="M15.6492 7.86306C15.8116 8.10602 16.056 8.28239 16.3378 8.35987C16.6195 8.43735 16.9197 8.41076 17.1835 8.28498C17.4264 8.12263 17.6028 7.87821 17.6803 7.59646C17.7578 7.31471 17.7312 7.01448 17.6054 6.75073L16.0712 4.21922C15.9088 3.97626 15.6644 3.7999 15.3826 3.72242C15.1009 3.64493 14.8007 3.67151 14.5369 3.7973C14.294 3.95965 14.1176 4.20407 14.0401 4.48582C13.9626 4.76757 13.9892 5.0678 14.115 5.33155L15.6492 7.86306Z" fill="#009E3D"/>
<path d="M7.9011 15.6493L5.3696 14.2301C5.24185 14.1543 5.10013 14.1051 4.95292 14.0853C4.8057 14.0655 4.65602 14.0756 4.5128 14.115C4.36958 14.1544 4.23577 14.2222 4.11937 14.3145C4.00297 14.4068 3.90637 14.5216 3.83535 14.652C3.75955 14.7798 3.71029 14.9215 3.69051 15.0687C3.67072 15.2159 3.68083 15.3656 3.72022 15.5088C3.7596 15.6521 3.82746 15.7859 3.91973 15.9023C4.01201 16.0187 4.12681 16.1153 4.25727 16.1863L6.78877 17.6055C6.91651 17.6813 7.05823 17.7305 7.20544 17.7503C7.35266 17.7701 7.50236 17.76 7.64558 17.7206C7.7888 17.6812 7.9226 17.6134 8.03899 17.5211C8.15539 17.4288 8.25199 17.314 8.32301 17.1835C8.45393 16.9207 8.48327 16.6189 8.40542 16.3358C8.32757 16.0526 8.14799 15.8082 7.9011 15.6493Z" fill="#009E3D"/>
<path d="M5.06291 29.189C5.07254 29.0405 5.05036 28.8916 4.99786 28.7522C4.94537 28.6129 4.86376 28.4864 4.75849 28.3811C4.65321 28.2759 4.5267 28.1943 4.38738 28.1418C4.24806 28.0893 4.09915 28.0671 3.95058 28.0767H1.11222C0.963647 28.0671 0.814737 28.0893 0.675418 28.1418C0.5361 28.1943 0.409585 28.2759 0.304311 28.3811C0.199037 28.4864 0.117431 28.6129 0.0649363 28.7522C0.0124416 28.8916 -0.00973761 29.0405 -0.000110484 29.189C-0.012978 29.3384 0.00696147 29.4887 0.058311 29.6295C0.109661 29.7703 0.191175 29.8981 0.297147 30.0041C0.40312 30.1101 0.530993 30.1916 0.67179 30.2429C0.812586 30.2943 0.962901 30.3142 1.11222 30.3014H3.95058C4.24556 30.3013 4.52842 30.1841 4.73701 29.9755C4.94559 29.7669 5.06282 29.484 5.06291 29.189Z" fill="#009E3D"/>
<path d="M6.78913 40.8877L4.25762 42.3069C4.01465 42.4692 3.83829 42.7136 3.7608 42.9954C3.68332 43.2771 3.70991 43.5774 3.8357 43.8411C3.99804 44.0841 4.24247 44.2605 4.52422 44.3379C4.80597 44.4154 5.10619 44.3888 5.36994 44.263L7.90145 42.8439C8.14441 42.6815 8.32078 42.4371 8.39826 42.1554C8.47574 41.8736 8.44916 41.5734 8.32337 41.3096C8.1525 41.0768 7.90804 40.9085 7.62959 40.8319C7.35115 40.7553 7.05501 40.775 6.78913 40.8877Z" fill="#009E3D"/>
<path d="M54.1589 42.422L51.6274 41.0028C51.4997 40.927 51.3579 40.8777 51.2107 40.8579C51.0635 40.8381 50.9138 40.8482 50.7706 40.8876C50.6274 40.927 50.4936 40.9949 50.3772 41.0872C50.2608 41.1794 50.1642 41.2942 50.0932 41.4247C50.0174 41.5524 49.9681 41.6941 49.9483 41.8414C49.9285 41.9886 49.9386 42.1383 49.978 42.2815C50.0174 42.4247 50.0853 42.5585 50.1775 42.6749C50.2698 42.7913 50.3846 42.8879 50.5151 42.9589L53.0466 44.3781C53.1743 44.4539 53.316 44.5032 53.4633 44.523C53.6105 44.5427 53.7602 44.5326 53.9034 44.4933C54.0466 44.4539 54.1804 44.386 54.2968 44.2937C54.4132 44.2015 54.5098 44.0867 54.5808 43.9562C54.811 43.3041 54.6959 42.6521 54.1589 42.422Z" fill="#009E3D"/>
<path d="M57.3425 28.1151H54.5042C54.3556 28.1055 54.2067 28.1277 54.0674 28.1801C53.9281 28.2326 53.8015 28.3142 53.6963 28.4195C53.591 28.5248 53.5094 28.6513 53.4569 28.7906C53.4044 28.93 53.3822 29.0789 53.3918 29.2274C53.3822 29.376 53.4044 29.5249 53.4569 29.6642C53.5094 29.8036 53.591 29.9301 53.6963 30.0353C53.8015 30.1406 53.9281 30.2222 54.0674 30.2747C54.2067 30.3272 54.3556 30.3494 54.5042 30.3398H57.3425C57.4911 30.3494 57.64 30.3272 57.7793 30.2747C57.9186 30.2222 58.0452 30.1406 58.1504 30.0353C58.2557 29.9301 58.3373 29.8036 58.3898 29.6642C58.4423 29.5249 58.4645 29.376 58.4549 29.2274C58.4613 29.0797 58.4369 28.9321 58.3833 28.7943C58.3297 28.6564 58.248 28.5312 58.1434 28.4266C58.0388 28.322 57.9135 28.2403 57.7757 28.1867C57.6378 28.1331 57.4903 28.1087 57.3425 28.1151Z" fill="#009E3D"/>
<path d="M51.6273 17.6055L54.1588 16.1863C54.4017 16.024 54.5781 15.7796 54.6556 15.4978C54.7331 15.2161 54.7065 14.9158 54.5807 14.6521C54.4183 14.4091 54.1739 14.2328 53.8922 14.1553C53.6104 14.0778 53.3102 14.1044 53.0464 14.2302L50.5149 15.6493C50.272 15.8117 50.0956 16.0561 50.0181 16.3379C49.9406 16.6196 49.9672 16.9198 50.093 17.1836C50.2554 17.4266 50.4998 17.6029 50.7815 17.6804C51.0633 17.7579 51.3635 17.7313 51.6273 17.6055Z" fill="#009E3D"/>
<path d="M41.3476 8.32333C41.4754 8.39913 41.6171 8.4484 41.7643 8.46818C41.9115 8.48796 42.0612 8.47786 42.2044 8.43847C42.3476 8.39909 42.4814 8.33122 42.5978 8.23895C42.7142 8.14667 42.8108 8.03188 42.8819 7.90142L44.301 5.36991C44.3768 5.24216 44.4261 5.10045 44.4459 4.95324C44.4657 4.80602 44.4556 4.65633 44.4162 4.51311C44.3768 4.36989 44.3089 4.23608 44.2166 4.11968C44.1244 4.00328 44.0096 3.90668 43.8791 3.83566C43.7514 3.75986 43.6097 3.7106 43.4624 3.69081C43.3152 3.67103 43.1655 3.68113 43.0223 3.72052C42.8791 3.75991 42.7453 3.82777 42.6289 3.92004C42.5125 4.01232 42.4159 4.12712 42.3449 4.25758L40.9257 6.78908C40.8499 6.91683 40.8006 7.05855 40.7808 7.20576C40.7611 7.35298 40.7712 7.50267 40.8105 7.64589C40.8499 7.78911 40.9178 7.92292 41.0101 8.03932C41.1024 8.15572 41.2172 8.25231 41.3476 8.32333Z" fill="#009E3D"/>
</svg>
