<svg width="70" height="70" viewBox="0 0 70 70" fill="none" xmlns="http://www.w3.org/2000/svg">
<path d="M41.0516 37.1993C41.2679 37.1993 41.4793 37.2635 41.6592 37.3836C41.839 37.5038 41.9791 37.6746 42.0619 37.8744C42.1447 38.0742 42.1664 38.2941 42.1243 38.5062C42.0821 38.7184 41.978 38.9132 41.8251 39.0662C41.6723 39.2192 41.4775 39.3235 41.2654 39.3658C41.0532 39.4081 40.8334 39.3865 40.6335 39.3039C40.4336 39.2212 40.2627 39.0812 40.1424 38.9015C40.0221 38.7217 39.9578 38.5103 39.9576 38.2941C39.9575 38.1503 39.9857 38.008 40.0407 37.8752C40.0956 37.7424 40.1762 37.6217 40.2778 37.52C40.3794 37.4183 40.5 37.3377 40.6328 37.2826C40.7656 37.2276 40.9079 37.1993 41.0516 37.1993ZM42.1515 43.0993C43.2241 42.5266 44.0744 41.6117 44.5673 40.5002C45.0602 39.3887 45.1674 38.1443 44.8718 36.9649C44.5762 35.7855 43.8948 34.7387 42.936 33.991C41.9772 33.2433 40.7959 32.8376 39.58 32.8384H34.5926C33.1458 32.8384 31.7583 33.4131 30.7352 34.4361C29.7122 35.4592 29.1375 36.8467 29.1375 38.2935C29.1375 39.7402 29.7122 41.1278 30.7352 42.1508C31.7583 43.1738 33.1458 43.7485 34.5926 43.7485H38.9292C39.1298 43.7483 39.3267 43.8031 39.4984 43.9069L41.7748 45.2901L41.5933 44.2486C41.5539 44.0227 41.5866 43.7901 41.6868 43.5838C41.787 43.3775 41.9496 43.208 42.1515 43.0993ZM26.9568 38.5892C26.9524 38.491 26.9501 38.3939 26.9501 38.2949C26.9521 36.2688 27.7577 34.3262 29.1901 32.8933C30.6226 31.4604 32.5649 30.6542 34.591 30.6516H37.8984C37.4248 29.7969 36.7328 29.0832 35.893 28.5837C35.0532 28.0841 34.0957 27.8166 33.1186 27.8084H28.7816C28.5811 27.8084 28.3845 27.7534 28.2131 27.6493L25.936 26.2668L26.1178 27.3095C26.157 27.5355 26.124 27.7681 26.0237 27.9743C25.9233 28.1805 25.7605 28.3499 25.5585 28.4584C24.5772 28.9847 23.7805 29.7989 23.2755 30.7913C22.7705 31.7838 22.5814 32.9071 22.7337 34.0102C22.8859 35.1134 23.3722 36.1434 24.1272 36.962C24.8822 37.7806 25.8696 38.3484 26.9568 38.5892ZM40.3124 30.6878C41.8766 30.8373 43.3565 31.4657 44.5505 32.4873C45.7444 33.5088 46.5942 34.8738 46.9839 36.396C47.3736 37.9182 47.2842 39.5236 46.7281 40.9932C46.1719 42.4628 45.1759 43.725 43.876 44.6078L44.3423 47.2879C44.3781 47.4948 44.3537 47.7075 44.2719 47.9008C44.1901 48.0942 44.0544 48.2599 43.8811 48.3782C43.7077 48.4965 43.5039 48.5624 43.2941 48.5681C43.0842 48.5738 42.8772 48.5189 42.6977 48.4102L38.6248 45.9369H34.5926C33.0179 45.9347 31.4822 45.4469 30.1949 44.5402C28.9075 43.6334 27.931 42.3518 27.3984 40.8699C25.8346 40.7198 24.3552 40.091 23.1619 39.0693C21.9685 38.0477 21.1192 36.6829 20.7298 35.1609C20.3404 33.639 20.4299 32.034 20.9859 30.5647C21.542 29.0954 22.5377 27.8334 23.8372 26.9507L23.3709 24.271C23.335 24.0641 23.3594 23.8512 23.4412 23.6577C23.5231 23.4643 23.6588 23.2985 23.8323 23.1802C24.0058 23.0618 24.2097 22.996 24.4197 22.9904C24.6296 22.9848 24.8367 23.0398 25.0163 23.1487L29.088 25.6216H33.1194C34.6952 25.6182 36.2332 26.1036 37.5215 27.011C38.8097 27.9184 39.7848 29.203 40.3124 30.6878ZM67.8132 21.2439C67.8126 20.6411 67.5729 20.0632 67.1468 19.6369C66.7207 19.2106 66.1428 18.9708 65.5401 18.9699H61.5738C60.5116 20.1431 59.2153 21.0806 57.7687 21.7223C56.322 22.364 54.7569 22.6955 53.1743 22.6955C51.5917 22.6955 50.0267 22.364 48.58 21.7223C47.1333 21.0806 45.8371 20.1431 44.7748 18.9699H25.2268C24.1646 20.143 22.8685 21.0806 21.4218 21.7223C19.9752 22.364 18.4102 22.6955 16.8277 22.6955C15.2451 22.6955 13.6802 22.364 12.2335 21.7223C10.7869 21.0806 9.49076 20.143 8.42857 18.9699H4.46153C3.85873 18.9706 3.28083 19.2104 2.85466 19.6368C2.42849 20.0631 2.18887 20.6411 2.1884 21.2439V54.1923C2.18901 54.7951 2.42867 55.373 2.85481 55.7993C3.28095 56.2256 3.85877 56.4654 4.46153 56.4662H5.69317C6.19949 53.8854 7.5867 51.5605 9.61758 49.8894C11.6485 48.2182 14.1968 47.3045 16.8269 47.3045C19.457 47.3045 22.0053 48.2182 24.0362 49.8894C26.0671 51.5605 27.4543 53.8854 27.9606 56.4662H42.0402C42.5464 53.8854 43.9336 51.5606 45.9644 49.8894C47.9952 48.2183 50.5435 47.3045 53.1735 47.3045C55.8035 47.3045 58.3519 48.2183 60.3827 49.8894C62.4135 51.5606 63.8006 53.8854 64.3068 56.4662H65.5393C66.1422 56.4656 66.7202 56.2258 67.1465 55.7995C67.5728 55.3732 67.8126 54.7952 67.8132 54.1923V21.2439ZM60.8224 63.6847C61.7322 62.3038 62.2512 60.7024 62.3243 59.0504C62.3974 57.3984 62.022 55.7574 61.2378 54.3015C60.4535 52.8457 59.2898 51.6293 57.8701 50.7815C56.4503 49.9336 54.8275 49.4859 53.1739 49.4859C51.5203 49.4859 49.8975 49.9336 48.4778 50.7815C47.058 51.6293 45.8943 52.8457 45.1101 54.3015C44.3259 55.7574 43.9504 57.3984 44.0235 59.0504C44.0967 60.7024 44.6157 62.3038 45.5255 63.6847C46.3223 61.7249 47.8425 60.1467 49.771 59.2769C49.1317 58.6099 48.7025 57.7698 48.5367 56.8609C48.3709 55.9521 48.4758 55.0145 48.8384 54.1648C49.201 53.315 49.8052 52.5906 50.5761 52.0814C51.347 51.5722 52.2505 51.3007 53.1743 51.3007C54.0982 51.3007 55.0017 51.5722 55.7725 52.0814C56.5434 52.5906 57.1477 53.315 57.5102 54.1648C57.8728 55.0145 57.9777 55.9521 57.8119 56.8609C57.6461 57.7698 57.2169 58.6099 56.5776 59.2769C58.5066 60.1458 60.0268 61.7243 60.8224 63.6847ZM50.6478 56.0207C50.6479 56.5204 50.7961 57.0088 51.0737 57.4242C51.3514 57.8396 51.746 58.1634 52.2076 58.3546C52.6693 58.5458 53.1772 58.5958 53.6673 58.4983C54.1574 58.4008 54.6075 58.1601 54.9608 57.8068C55.3142 57.4535 55.5548 57.0034 55.6523 56.5133C55.7498 56.0232 55.6998 55.5153 55.5086 55.0536C55.3174 54.592 54.9937 54.1974 54.5782 53.9197C54.1628 53.6421 53.6744 53.4938 53.1747 53.4938C52.5047 53.4944 51.8624 53.7608 51.3886 54.2346C50.9149 54.7083 50.6484 55.3507 50.6478 56.0207ZM53.1747 67.8124C55.3577 67.8136 57.4687 67.0316 59.1241 65.6085C58.8482 64.2337 58.1047 62.9969 57.0201 62.1083C55.9354 61.2196 54.5765 60.734 53.1743 60.734C51.7721 60.734 50.4132 61.2196 49.3285 62.1083C48.2439 62.9969 47.5004 64.2337 47.2246 65.6085C48.8802 67.0317 50.9915 67.8137 53.1747 67.8124ZM24.4761 63.6847C25.3858 62.3038 25.9047 60.7024 25.9777 59.0505C26.0507 57.3985 25.6752 55.7576 24.891 54.3018C24.1067 52.8461 22.943 51.6298 21.5233 50.782C20.1036 49.9342 18.4809 49.4865 16.8273 49.4865C15.1737 49.4865 13.551 49.9342 12.1313 50.782C10.7116 51.6298 9.54788 52.8461 8.76362 54.3018C7.97937 55.7576 7.60384 57.3985 7.67688 59.0505C7.74991 60.7024 8.26879 62.3038 9.17845 63.6847C9.97478 61.7248 11.4947 60.1465 13.4232 59.2769C12.7836 58.6098 12.3542 57.7694 12.1882 56.8603C12.0223 55.9512 12.1271 55.0133 12.4897 54.1633C12.8524 53.3133 13.4568 52.5886 14.2279 52.0792C14.999 51.5698 15.9027 51.2982 16.8269 51.2982C17.751 51.2982 18.6548 51.5698 19.4259 52.0792C20.197 52.5886 20.8014 53.3133 21.1641 54.1633C21.5267 55.0133 21.6315 55.9512 21.4656 56.8603C21.2996 57.7694 20.8702 58.6098 20.2306 59.2769C22.1598 60.1457 23.6802 61.7242 24.4761 63.6847ZM14.2992 56.0207C14.299 56.5206 14.4471 57.0094 14.7247 57.4252C15.0023 57.8409 15.397 58.165 15.8588 58.3565C16.3207 58.548 16.8289 58.5982 17.3193 58.5008C17.8096 58.4034 18.2601 58.1628 18.6137 57.8094C18.9673 57.456 19.2082 57.0057 19.3059 56.5154C19.4036 56.0251 19.3537 55.5168 19.1625 55.0549C18.9714 54.593 18.6475 54.1981 18.2319 53.9202C17.8163 53.6423 17.3276 53.4939 16.8277 53.4938C16.1575 53.4943 15.515 53.7607 15.041 54.2344C14.5669 54.7082 14.3002 55.3505 14.2992 56.0207ZM16.8261 67.8124C19.0094 67.8138 21.1207 67.0318 22.7763 65.6085C22.5005 64.2337 21.7572 62.9969 20.6726 62.1083C19.5881 61.2196 18.2292 60.734 16.8271 60.734C15.425 60.734 14.0661 61.2196 12.9816 62.1083C11.897 62.9969 11.1537 64.2337 10.878 65.6085C12.5329 67.0315 14.6435 67.8135 16.8261 67.8124ZM14.2992 8.71619C14.299 9.21612 14.4471 9.70488 14.7247 10.1207C15.0024 10.5364 15.397 10.8605 15.8589 11.052C16.3207 11.2435 16.8289 11.2937 17.3193 11.1963C17.8096 11.0989 18.2601 10.8583 18.6137 10.5049C18.9674 10.1515 19.2082 9.7012 19.3059 9.2109C19.4036 8.72059 19.3537 8.21234 19.1625 7.75039C18.9714 7.28845 18.6475 6.89357 18.2319 6.61569C17.8163 6.33781 17.3277 6.1894 16.8277 6.18925C16.1576 6.18996 15.5151 6.45638 15.0411 6.93007C14.5671 7.40376 14.3003 8.04607 14.2992 8.71619ZM16.8277 13.4299C15.4246 13.4267 14.064 13.9112 12.9787 14.8004C11.8933 15.6897 11.1508 16.9285 10.878 18.3048C12.5339 19.7268 14.6444 20.5087 16.8271 20.5087C19.0098 20.5087 21.1203 19.7268 22.7763 18.3048C22.5037 16.9286 21.7614 15.6898 20.6762 14.8005C19.5911 13.9113 18.2307 13.4268 16.8277 13.4299ZM16.8269 2.1876C15.1736 2.18701 13.551 2.6341 12.1314 3.48139C10.7117 4.32869 9.548 5.54458 8.76371 7C7.97943 8.45541 7.60386 10.096 7.67688 11.7477C7.7499 13.3993 8.26879 15.0004 9.17845 16.3809C9.97465 14.421 11.4946 12.8426 13.4232 11.9731C12.7836 11.306 12.3542 10.4657 12.1882 9.55658C12.0223 8.64746 12.1271 7.70961 12.4897 6.85958C12.8524 6.00955 13.4568 5.28482 14.2279 4.77544C14.999 4.26606 15.9027 3.9945 16.8269 3.9945C17.751 3.9945 18.6548 4.26606 19.4259 4.77544C20.197 5.28482 20.8014 6.00955 21.1641 6.85958C21.5267 7.70961 21.6315 8.64746 21.4656 9.55658C21.2996 10.4657 20.8702 11.306 20.2306 11.9731C22.1599 12.8419 23.6804 14.4204 24.4761 16.3809C25.3867 15.0005 25.9062 13.3992 25.9796 11.7472C26.053 10.0952 25.6775 8.45414 24.893 6.99843C24.1084 5.54272 22.9442 4.32673 21.524 3.47966C20.1037 2.63259 18.4805 2.18609 16.8269 2.1876ZM50.6478 8.71619C50.6479 9.21585 50.7961 9.70428 51.0737 10.1197C51.3514 10.5351 51.746 10.8589 52.2076 11.0501C52.6693 11.2413 53.1772 11.2913 53.6673 11.1938C54.1574 11.0963 54.6075 10.8556 54.9608 10.5023C55.3142 10.149 55.5548 9.69885 55.6523 9.20879C55.7498 8.71872 55.6998 8.21075 55.5086 7.74911C55.3174 7.28746 54.9937 6.89286 54.5782 6.61521C54.1628 6.33756 53.6744 6.18932 53.1747 6.18925C52.5047 6.18975 51.8622 6.45615 51.3885 6.92993C50.9147 7.40371 50.6483 8.04616 50.6478 8.71619ZM53.1747 13.4299C51.7715 13.4265 50.4108 13.9109 49.3253 14.8002C48.2399 15.6895 47.4973 16.9283 47.2246 18.3048C48.8807 19.7268 50.9914 20.5087 53.1743 20.5087C55.3572 20.5087 57.4679 19.7268 59.1241 18.3048C58.8511 16.9286 58.1085 15.69 57.0233 14.8008C55.9381 13.9116 54.5777 13.427 53.1747 13.4299ZM53.1747 2.1876C51.5213 2.18671 49.8985 2.63359 48.4787 3.48079C47.0588 4.32799 45.8949 5.5439 45.1104 6.99939C44.326 8.45489 43.9504 10.0956 44.0235 11.7474C44.0966 13.3992 44.6156 15.0004 45.5255 16.3809C46.3222 14.4211 47.8424 12.8428 49.771 11.9731C49.1317 11.3061 48.7025 10.466 48.5367 9.55718C48.3709 8.64833 48.4758 7.71078 48.8384 6.86105C49.201 6.01131 49.8052 5.28684 50.5761 4.77765C51.347 4.26846 52.2505 3.99701 53.1743 3.99701C54.0982 3.99701 55.0017 4.26846 55.7725 4.77765C56.5434 5.28684 57.1477 6.01131 57.5102 6.86105C57.8728 7.71078 57.9777 8.64833 57.8119 9.55718C57.6461 10.466 57.2169 11.3061 56.5776 11.9731C58.5067 12.8419 60.0269 14.4205 60.8224 16.3809C61.7328 15.0006 62.2524 13.3995 62.3258 11.7476C62.3993 10.0957 62.0239 8.45479 61.2395 6.99913C60.4552 5.54347 59.2912 4.32745 57.8712 3.48027C56.4512 2.63309 54.8282 2.18638 53.1747 2.1876ZM65.5401 16.7823C66.7227 16.7839 67.8565 17.2545 68.6926 18.0909C69.5287 18.9273 69.9989 20.0612 70 21.2439V54.1923C69.9987 55.375 69.5283 56.5088 68.692 57.3451C67.8558 58.1813 66.7219 58.6517 65.5393 58.6531H64.5217C64.5217 61.6627 63.3261 64.549 61.198 66.6771C59.0699 68.8052 56.1835 70.0008 53.1739 70.0008C50.1643 70.0008 47.278 68.8052 45.1498 66.6771C43.0217 64.549 41.8262 61.6627 41.8262 58.6531H28.1754C28.1754 61.6627 26.9799 64.549 24.8518 66.6771C22.7236 68.8052 19.8373 70.0008 16.8277 70.0008C13.8181 70.0008 10.9317 68.8052 8.80362 66.6771C6.6755 64.549 5.47994 61.6627 5.47994 58.6531H4.46073C3.27808 58.6517 2.14423 58.1814 1.30797 57.3451C0.471703 56.5088 0.00131305 55.375 0 54.1923V21.2439C0.00141978 20.0612 0.471819 18.9273 1.30804 18.0909C2.14426 17.2546 3.27804 16.784 4.46073 16.7823H6.86832C5.92386 15.0541 5.44544 13.1097 5.48011 11.1405C5.51477 9.17131 6.06132 7.24502 7.06602 5.55104C8.07072 3.85707 9.49898 2.45373 11.2104 1.47899C12.9218 0.504261 14.8574 -0.00830078 16.8269 -0.00830078C18.7964 -0.00830078 20.732 0.504261 22.4434 1.47899C24.1548 2.45373 25.5831 3.85707 26.5878 5.55104C27.5925 7.24502 28.139 9.17131 28.1737 11.1405C28.2083 13.1097 27.7299 15.0541 26.7855 16.7823H43.2161C42.2717 15.0541 41.7933 13.1098 41.8279 11.1407C41.8626 9.17155 42.4091 7.24532 43.4138 5.55139C44.4184 3.85746 45.8466 2.45416 47.558 1.47945C49.2693 0.504748 51.2049 -0.00780302 53.1743 -0.00780302C55.1438 -0.00780302 57.0793 0.504748 58.7906 1.47945C60.502 2.45416 61.9302 3.85746 62.9349 5.55139C63.9395 7.24532 64.4861 9.17155 64.5207 11.1407C64.5554 13.1098 64.0769 15.0541 63.1325 16.7823H65.5401ZM37.0854 37.1993C36.8692 37.1993 36.6577 37.2635 36.4779 37.3836C36.2981 37.5038 36.1579 37.6746 36.0751 37.8744C35.9923 38.0742 35.9707 38.2941 36.0128 38.5062C36.0549 38.7184 36.159 38.9132 36.3119 39.0662C36.4648 39.2192 36.6596 39.3235 36.8717 39.3658C37.0838 39.4081 37.3037 39.3865 37.5036 39.3039C37.7035 39.2212 37.8743 39.0812 37.9946 38.9015C38.1149 38.7217 38.1793 38.5103 38.1794 38.2941C38.1795 38.1503 38.1513 38.008 38.0964 37.8752C38.0415 37.7424 37.9609 37.6217 37.8593 37.52C37.7577 37.4183 37.6371 37.3377 37.5043 37.2826C37.3715 37.2276 37.2292 37.1993 37.0854 37.1993ZM33.1193 37.1993C32.903 37.1993 32.6916 37.2635 32.5118 37.3836C32.332 37.5038 32.1918 37.6746 32.109 37.8744C32.0262 38.0742 32.0045 38.2941 32.0467 38.5062C32.0888 38.7184 32.1929 38.9132 32.3458 39.0662C32.4987 39.2192 32.6935 39.3235 32.9056 39.3658C33.1177 39.4081 33.3376 39.3865 33.5374 39.3039C33.7373 39.2212 33.9082 39.0812 34.0285 38.9015C34.1488 38.7217 34.2131 38.5103 34.2133 38.2941C34.2134 38.1503 34.1852 38.008 34.1303 37.8752C34.0753 37.7424 33.9947 37.6217 33.8932 37.52C33.7916 37.4183 33.6709 37.3377 33.5381 37.2826C33.4054 37.2276 33.263 37.1993 33.1193 37.1993Z" fill="#009E3D"/>
</svg>
