<svg width="329" height="419" viewBox="0 0 329 419" fill="none" xmlns="http://www.w3.org/2000/svg">
<path d="M219.529 159.719L162.248 147.313C145.998 144.235 139.029 136.485 139.029 127.203C139.029 114.813 152.966 105.516 173.857 105.516C211.779 105.516 268.295 119.453 310.092 146.547V37.4056C278.373 14.9686 227.263 0.265625 172.31 0.265625C92.5913 0.265625 4.34229 30.4526 4.34229 138.813C4.34229 190.672 32.9824 240.219 120.451 256.469L164.576 264.985C184.701 268.844 190.904 277.36 190.904 286.657C190.904 298.266 176.185 309.11 152.966 309.11C111.935 309.11 51.5603 290.531 0.482422 254.141V370.266C22.9043 387.281 77.8733 418.235 152.966 418.235C266.763 418.235 328.67 371.797 328.67 288.203C328.67 229.375 300.795 177.516 219.529 159.719Z" fill="black"/>
</svg>
