<svg width="617" height="410" viewBox="0 0 617 410" fill="none" xmlns="http://www.w3.org/2000/svg">
<path d="M476.812 0.328125C424.171 0.328125 383.14 18.9061 348.312 55.2811C325.859 18.9061 288.718 0.328125 236.078 0.328125C205.125 0.328125 161.765 18.9061 136.218 55.2811V9.60913H0V209.312H136.218V192.297C136.218 150.484 157.89 124.172 191.187 124.172C221.375 124.172 240.718 149.719 240.718 189.984V409.031H376.968V192.297C376.968 150.484 398.624 124.172 431.14 124.172C462.109 124.172 480.687 149.719 480.687 189.984V409.031H616.921V178.344C616.921 63.7971 565.046 0.328125 476.812 0.328125Z" fill="black"/>
</svg>
