<svg width="700" height="671" viewBox="0 0 700 671" fill="none" xmlns="http://www.w3.org/2000/svg">
<path d="M699.029 482.734V262.125H562.795V477.312C562.795 519.89 537.248 547.75 499.31 547.75C460.607 547.75 435.826 519.89 435.826 477.312V345.562H435.904V0.343262H299.67V191.531C277.217 155.922 239.295 136.578 189.748 136.578C82.9351 136.578 0.137939 224.047 0.123047 345.562H137.904C137.92 296.797 172.732 260.422 218.404 260.422C264.717 260.422 299.451 296.609 299.654 345.187H299.592V482.734C299.592 596.515 377.779 670.812 499.31 670.812C620.076 670.812 699.029 596.515 699.029 482.734Z" fill="black"/>
</svg>
