<svg width="618" height="409" viewBox="0 0 618 409" fill="none" xmlns="http://www.w3.org/2000/svg">
<path d="M477.501 0C424.86 0 383.828 18.578 349 54.953C326.547 18.578 289.406 0 236.766 0C205.813 0 162.453 18.578 136.906 54.953V9.28101H0.688477V208.984H136.906V191.969C136.906 150.156 158.578 123.844 191.875 123.844C222.063 123.844 241.406 149.391 241.406 189.656V408.703H377.656V191.969C377.656 150.156 399.312 123.844 431.828 123.844C462.797 123.844 481.376 149.391 481.376 189.656V408.703H617.609V178.016C617.609 63.469 565.735 0 477.501 0Z" fill="black"/>
</svg>
