<svg width="329" height="419" viewBox="0 0 329 419" fill="none" xmlns="http://www.w3.org/2000/svg">
<path d="M219.795 160.297L162.514 147.891C146.264 144.813 139.295 137.063 139.295 127.781C139.295 115.391 153.232 106.094 174.123 106.094C212.045 106.094 268.561 120.031 310.358 147.125V37.9837C278.639 15.5468 227.529 0.84375 172.576 0.84375C92.8569 0.84375 4.60791 31.0307 4.60791 139.391C4.60791 191.25 33.248 240.797 120.717 257.047L164.842 265.563C184.967 269.422 191.17 277.938 191.17 287.235C191.17 298.844 176.451 309.688 153.232 309.688C112.201 309.688 51.8262 291.109 0.748047 254.719V370.844C23.1699 387.859 78.1387 418.813 153.232 418.813C267.029 418.813 328.936 372.375 328.936 288.781C328.936 229.953 301.061 178.094 219.795 160.297Z" fill="black"/>
</svg>
