<svg width="700" height="672" viewBox="0 0 700 672" fill="none" xmlns="http://www.w3.org/2000/svg">
<path d="M699.751 483.109V262.5H563.517V477.687C563.517 520.265 537.97 548.125 500.032 548.125C461.329 548.125 436.548 520.265 436.548 477.687V345.937H436.626V0.718262H300.392V191.906C277.939 156.297 240.017 136.953 190.47 136.953C83.6569 136.953 0.859741 224.422 0.844727 345.937H138.626C138.642 297.172 173.454 260.797 219.126 260.797C265.439 260.797 300.173 296.984 300.376 345.562H300.314V483.109C300.314 596.89 378.501 671.187 500.032 671.187C620.798 671.187 699.751 596.89 699.751 483.109Z" fill="black"/>
</svg>
