<svg width="700" height="671" viewBox="0 0 700 671" fill="none" xmlns="http://www.w3.org/2000/svg">
<path d="M699.251 482.719V262.11H563.017V477.297C563.017 519.875 537.47 547.735 499.532 547.735C460.829 547.735 436.048 519.875 436.048 477.297V345.547H436.126V0.327637H299.892V191.516C277.439 155.907 239.517 136.563 189.97 136.563C83.1567 136.563 0.359741 224.032 0.344727 345.547H138.126C138.142 296.782 172.954 260.407 218.626 260.407C264.939 260.407 299.673 296.594 299.876 345.172H299.814V482.719C299.814 596.5 378.001 670.797 499.532 670.797C620.298 670.797 699.251 596.5 699.251 482.719Z" fill="black"/>
</svg>
