<svg width="329" height="419" viewBox="0 0 329 419" fill="none" xmlns="http://www.w3.org/2000/svg">
<path d="M219.516 159.672L162.235 147.266C145.985 144.188 139.016 136.438 139.016 127.156C139.016 114.766 152.953 105.469 173.844 105.469C211.766 105.469 268.282 119.406 310.079 146.5V37.3588C278.36 14.9218 227.25 0.21875 172.297 0.21875C92.5784 0.21875 4.32935 30.4057 4.32935 138.766C4.32935 190.625 32.9692 240.172 120.438 256.422L164.563 264.938C184.688 268.797 190.891 277.313 190.891 286.61C190.891 298.219 176.172 309.063 152.953 309.063C111.922 309.063 51.5472 290.484 0.469238 254.094V370.219C22.8912 387.234 77.8604 418.188 152.953 418.188C266.75 418.188 328.657 371.75 328.657 288.156C328.657 229.328 300.782 177.469 219.516 159.672Z" fill="black"/>
</svg>
