<?xml version="1.0" encoding="UTF-8"?>
<svg id="Calque_2" data-name="Calque 2" xmlns="http://www.w3.org/2000/svg" viewBox="0 0 3464.250649469659947 1012.031097412107556">
  <g id="Calque_1-2" data-name="Calque 1">
    <g>
      <path d="M219.529375614390119,295.71868896484375l-57.281005859369543-12.406005859375c-16.25-3.0780029296875-23.218994140630457-10.8280029296875-23.218994140630457-20.1099853515625,0-12.3900146484375,13.93701171875-21.68701171875,34.827880859380457-21.68701171875,37.922119140619543,0,94.438232421869543,13.93701171875,136.235107421869543,41.031005859375v-109.1409912109375c-31.718994140619543-22.43701171875-82.8291015625-37.1400146484375-137.781982421869543-37.1400146484375-79.718994140630457,0-167.968017578130457,30.18701171875-167.968017578130457,138.5469970703125,0,51.8590087890625,28.64013671875,101.406005859375,116.10888671875,117.656005859375l44.125244140630457,8.5159912109375c20.125,3.8590087890625,26.327880859369543,12.375,26.327880859369543,21.6719970703125,0,11.6090087890625-14.718994140619543,22.4530029296875-37.93798828125,22.4530029296875-41.031005859369543,0-101.406005859369543-18.5789794921875-152.48388671875-54.968994140625v116.125c22.421875,17.0150146484375,77.390869140630457,47.968994140625,152.48388671875,47.968994140625,113.796875,0,175.7041015625-46.43798828125,175.7041015625-130.031982421875,0-58.8280029296875-27.875-110.68701171875-109.14111328125-128.4840087890625"/>
      <path d="M476.81201171875,603.328094482421875c-52.64111328125,0-93.671875,18.5780029296875-128.5,54.9530029296875-22.453125-36.375-59.593994140629547-54.9530029296875-112.23388671875-54.9530029296875-30.953125,0-74.31298828125,18.5780029296875-99.860107421879547,54.9530029296875v-45.6719970703125H0v199.702987670900256H136.218017578120453v-17.014999389650256c0-41.81298828125,21.672119140629547-68.125,54.968994140629547-68.125,30.18798828125,0,49.531005859370453,25.547027587890625,49.531005859370453,65.81201171875v219.046997070310681h136.249999999999545v-216.734008789060681c0-41.81298828125,21.656005859380002-68.125,54.171875-68.125,30.96923828125,0,49.547119140630002,25.547027587890625,49.547119140630002,65.81201171875v219.046997070310681h136.23388671875v-230.686996459960938c0-114.547012329099744-51.875-178.016006469724744-140.10888671875-178.016006469724744"/>
      <path d="M581.170000614390119,455.42181396484375c46.43798828125,0,81.281005859380457,36.375,81.296875,85.1409912109375h137.78125c-.01611328125-119.218994140625-95.21923828125-208.9849853515625-219.078125-208.9849853515625-123.828125,0-218.25,89.7659912109375-218.281005859369998,208.9849853515625h137.781005859369998c.031005859380002-48.7659912109375,34.827880859380002-85.1409912109375,80.5-85.1409912109375"/>
      <path d="M1546.029375614390119,677.734283447265625v-220.608978271484375h-136.23388671875v215.186981201171875c0,42.578002929683862-25.547119140619543,70.437988281253638-63.485107421869543,70.437988281253638-38.702880859380457,0-63.484130859380457-27.859985351569776-63.484130859380457-70.437988281253638v-131.75h.078125V195.34332275390625h-136.23388671875v191.18798828125c-22.453125-35.6090087890625-60.375-54.9530029296875-109.922119140619543-54.9530029296875-106.81298828125,0-189.610107421880457,87.468994140625-189.625,208.983978271484375h137.781005859369543c.01611328125-48.764984130859375,34.828125-85.139984130859375,80.5-85.139984130859375,46.31298828125,0,81.046875,36.18701171875,81.25,84.764984130859375h-.06201171875v137.5469970703125c0,113.781005859371362,78.18701171875,188.078002929691138,199.718017578130457,188.078002929691138,120.765869140619543,0,199.718994140619543-74.296997070319776,199.718994140619543-188.078002929691138"/>
      <path d="M1823.795000614390119,607.296783447265625l-57.28076171875-12.406005859375c-16.25-3.0780029296875-23.21923828125-10.8280029296875-23.21923828125-20.1099853515625,0-12.3900146484375,13.93701171875-21.68701171875,34.828125-21.68701171875,37.921875,0,94.43798828125,13.93701171875,136.23486328125,41.031005859375v-109.141021728515625c-31.71875-22.43695068359375-82.8291015625-37.13995361328125-137.7822265625-37.13995361328125-79.71875,0-167.9677734375,30.18695068359375-167.9677734375,138.546966552734375,0,51.8590087890625,28.64013671875,101.406005859375,116.10888671875,117.656005859376819l44.125,8.515991210939319c20.125,3.859008789060681,26.328125,12.375,26.328125,21.672027587890625,0,11.608978271480737-14.71923828125,22.452987670889343-37.93798828125,22.452987670889343-41.03125,0-101.40576171875-18.579025268549231-152.48388671875-54.969009399408606v116.125c22.421875,17.014999389650256,77.390625,47.968994140628638,152.48388671875,47.968994140628638,113.796875,0,175.7041015625-46.43798828125,175.7041015625-130.032012939458582,0-58.827972412107556-27.875-110.686981201170056-109.14111328125-128.483978271482556"/>
      <path d="M2081.500649469659947,0c-52.640991210939319,0-93.671997070309772,18.5780029296875-128.5,54.9530029296875-22.453002929689319-36.375-59.593994140619543-54.9530029296875-112.234008789059772-54.9530029296875-30.953002929690228,0-74.31298828125,18.5780029296875-99.859985351559772,54.9530029296875V9.281005859375h-136.218017578130457V208.9840087890625h136.218017578130457v-17.0150146484375c0-41.81298828125,21.671997070309772-68.125,54.968994140619543-68.125,30.18798828125,0,49.531005859380457,25.5469970703125,49.531005859380457,65.81201171875v219.0469970703125h136.25V191.968994140625c0-41.81298828125,21.656005859369543-68.125,54.171997070309772-68.125,30.968994140620453,0,49.546997070309772,25.5469970703125,49.546997070309772,65.81201171875v219.0469970703125h136.234008789060681V178.0159912109375c0-114.5469970703125-51.875-178.0159912109375-140.109008789060681-178.0159912109375"/>
      <path d="M2496.672646539970629,143.84368896484375c46.43798828125,0,81.281005859379547,36.375,81.296997070319776,85.1409912109375h137.781005859369543c-.015991210939319-119.218994140625-95.218994140619543-208.9849853515625-219.078002929689319-208.9849853515625-123.828002929680224,0-218.25,89.7659912109375-218.281005859370453,208.9849853515625h137.781005859370453c.031005859379547-48.7659912109375,34.828002929689319-85.1409912109375,80.5-85.1409912109375"/>
      <path d="M3464.250649469659947,493.71868896484375v-220.6090087890625h-136.23388671875v215.18701171875c0,42.5780029296875-25.547119140629547,70.43798828125-63.485107421879547,70.43798828125-38.702880859370453,0-63.484130859370453-27.8599853515625-63.484130859370453-70.43798828125v-131.75h.078125V11.32769775390625h-136.23388671875V202.51568603515625c-22.453125-35.6090087890625-60.375-54.9530029296875-109.922119140619543-54.9530029296875-106.81298828125,0-189.609985351569776,87.468994140625-189.625,208.9840087890625h137.781005859369543c.01611328125-48.7650146484375,34.828125-85.1400146484375,80.5-85.1400146484375,46.31298828125,0,81.046875,36.18701171875,81.25,84.7650146484375h-.06201171875v137.5469970703125c0,113.781005859375,78.18701171875,188.0780029296875,199.718017578120453,188.0780029296875,120.765869140629547,0,199.718994140629547-74.2969970703125,199.718994140629547-188.0780029296875"/>
      <path d="M2677.750649469659947,802.109283447267444v-220.608978271486194h-136.234008789059772v215.186981201175513c0,42.578002929680224-25.546997070309772,70.43798828125-63.484985351559772,70.43798828125-38.703002929690228,0-63.484008789069776-27.859985351569776-63.484008789069776-70.43798828125v-131.750000000003638h.078002929689319V319.71832275390625h-136.234008789059772v191.187957763671875c-22.453002929690228-35.608978271484375-60.375-54.952972412109375-109.921997070309772-54.952972412109375-106.81298828125,0-189.609985351569776,87.468963623046875-189.625,208.983978271484375h137.781005859369543c.015991210940228-48.764984130859375,34.828002929690228-85.139984130859375,80.5-85.139984130859375,46.31298828125,0,81.046997070310681,36.186981201171875,81.25,84.764984130859375h-.06201171875v137.546997070314319c0,113.780998229980469,78.18701171875,188.078002929689319,199.718017578130457,188.078002929689319,120.765991210930224,0,199.718994140619543-74.29700469970885,199.718994140619543-188.078002929689319"/>
      <path d="M2955.516274469659947,731.671783447267444l-57.281005859369543-12.406005859380457c-16.25-3.078002929680224-23.218994140630457-10.828002929680224-23.218994140630457-20.109985351558862,0-12.3900146484375,13.93701171875-21.68701171875,34.827880859380457-21.68701171875,37.922119140619543,0,94.438232421869543,13.93701171875,136.235107421869543,41.031005859378638v-109.141021728519263c-31.718994140619543-22.436981201171875-82.8291015625-37.139984130859375-137.781982421869543-37.139984130859375-79.718994140630457,0-167.968017578130457,30.186981201171875-167.968017578130457,138.546997070308862,0,51.859008789069776,28.640014648440228,101.406005859380457,116.109008789060681,117.656005859380457l44.125122070319776,8.515991210939319c20.125,3.859008789060681,26.327880859369543,12.375,26.327880859369543,21.672012329101562,0,11.6089935302698-14.718994140619543,22.453002929678405-37.93798828125,22.453002929678405-41.031005859369543,0-101.406005859369543-18.579010009758349-152.484008789059772-54.969009399408606v116.125c22.421997070309772,17.014999389650256,77.390991210940228,47.968994140628638,152.484008789059772,47.968994140628638,113.796875,0,175.7041015625-46.43798828125,175.7041015625-130.031997680669519,0-58.827987670900256-27.875-110.686996459959119-109.14111328125-128.4839935302698"/>
    </g>
  </g>
</svg>