<svg xmlns="http://www.w3.org/2000/svg" viewBox="0 0 152.96357 158.23646">
  <defs>
    <style>
      .cls-1 {
        fill: #00695b;
      }
    </style>
  </defs>
  <g id="Calque_2" data-name="Calque 2">
    <g id="Calque_1-2" data-name="Calque 1">
      <g>
        <path class="cls-1" d="M110.76657,152.96145a36.75538,36.75538,0,0,1-36.701-40.783c.021-.214.04-.424.066-.638a36.59753,36.59753,0,0,1,.654-3.735c.016-.068.035-.137.05-.205,12.264.543,24.44-.81,36.232-2.118,11.242-1.25,22.854-2.537,34.358-2.134q.558,1.5195.979,3.07c.01.035.016.071.026.108.24.897.438,1.804.609,2.714.05.266.095.535.14.805.119.722.214,1.447.29,2.178.029.287.066.572.09.86.079.978.129,1.965.129,2.956a36.96235,36.96235,0,0,1-36.922,36.922m-17.227-69.566a2.637,2.637,0,0,0,1.403-2.332v-33.594h13.187v53.029c-10.386,1.144-21.033,2.204-31.645,1.867a36.91474,36.91474,0,0,1,17.055-18.97m33.051-35.926v5.275h-5.275v5.275h5.275v5.274h-5.275v5.275h5.275v5.274h-5.275v5.275h5.275v1.946a2.637,2.637,0,0,0,1.403,2.332,36.95352,36.95352,0,0,1,14.977,14.618,237.8381,237.8381,0,0,0-29.567,1.904v-52.448Zm-32.154-28.77c-2.988-1.933-4.808-5.425-5.905-8.521l15.668,10.135c-3.054.396-6.791.309-9.763-1.614m6.287-11.614c2.988,1.933,4.808,5.424,5.905,8.521l-15.668-10.138c3.049-.396,6.786-.309,9.763,1.617m20.086,5.86c2.975-1.923,6.712-2.013,9.763-1.614l-15.671,10.135c1.1-3.096,2.917-6.588,5.908-8.521m6.287,11.614c-2.972,1.925-6.712,2.012-9.766,1.614l15.671-10.135c-1.097,3.096-2.914,6.591-5.905,8.521m25.682,87.751c-.026-.301-.058-.601-.09-.902a42.08211,42.08211,0,0,0-1.527-7.511c-.037-.121-.074-.24-.11-.361a42.117,42.117,0,0,0-19.189-24.026v-32.041h2.637v-5.274h-21.098v-11.375a29.15836,29.15836,0,0,0,6.669.823,18.01745,18.01745,0,0,0,9.887-2.653c8.239-5.33,9.737-17.939,9.801-18.474a2.64219,2.64219,0,0,0-1.641-2.743c-.477-.19-11.846-4.647-20.175.738a18.59538,18.59538,0,0,0-5.921,6.557c-1.316-4.151-3.813-9.426-8.434-12.414-8.328-5.391-19.7-.934-20.175-.741a2.64118,2.64118,0,0,0-1.641,2.743c.061.535,1.562,13.144,9.801,18.471a18.01747,18.01747,0,0,0,9.887,2.653,29.17615,29.17615,0,0,0,6.67-.823v17.238h-21.099v5.274h2.637v32.041a42.124,42.124,0,0,0-19.341,24.529c-.008.024-.027.043-.035.069-.026.09-.044.182-.071.274-.2.696-.377,1.401-.541,2.11-.058.253-.123.506-.179.762-.15.704-.272,1.416-.388,2.134-.042.261-.092.519-.129.781-.103.733-.174,1.474-.24,2.215-.021.24-.055.477-.071.72-.066.968-.103,1.949-.103,2.935a42.197,42.197,0,0,0,84.394,0c0-1.255-.077-2.495-.185-3.729"/>
        <path class="cls-1" d="M121.31577,137.13805a5.2745,5.2745,0,1,1,5.275-5.275,5.28053,5.28053,0,0,1-5.275,5.275m0-15.824a10.549,10.549,0,1,0,10.549,10.549,10.55933,10.55933,0,0,0-10.549-10.549"/>
        <path class="cls-1" d="M12.68047,18.69945c-2.991-1.933-4.808-5.425-5.908-8.521l15.668,10.135c-3.051.396-6.788.309-9.76-1.614m6.287-11.614c2.988,1.933,4.808,5.424,5.905,8.521l-15.668-10.138c3.049-.396,6.786-.309,9.763,1.617m20.086,5.86c2.975-1.923,6.712-2.013,9.763-1.614l-15.671,10.135c1.1-3.096,2.917-6.588,5.908-8.521m6.287,11.614c-2.972,1.925-6.712,2.012-9.766,1.614l15.671-10.135c-1.097,3.096-2.914,6.591-5.905,8.521m-.506,22.91v7.912h-5.275v5.275h5.275v4.673a40.177,40.177,0,0,0-13.187.137v-17.997Zm-15.824,105.492a15.83984,15.83984,0,0,1-15.824-15.824v-65.336a35.75851,35.75851,0,0,0,5.876.504,59.77452,59.77452,0,0,0,10.394-1.137c4.873-.836,9.51-1.609,15.378-.477v5.789h-5.275v5.274h5.275v5.275h-5.275v5.274h5.275v5.275h-5.275v5.275h5.275v5.274h-5.275v5.275h5.275v5.274h-5.275v5.275h5.275v5.275h-5.275v5.274h5.275v2.637a15.82722,15.82722,0,0,1-.238,2.638h-5.037v5.274h3.133a15.81982,15.81982,0,0,1-13.682,7.912m-2.637-105.492v18.865a35.7565,35.7565,0,0,1-13.187.111v-18.976Zm11.944-15.826a18.01966,18.01966,0,0,0,9.887-2.653c8.239-5.33,9.737-17.939,9.8-18.474a2.64143,2.64143,0,0,0-1.64-2.743c-.477-.19-11.844-4.647-20.175.738a18.58586,18.58586,0,0,0-5.921,6.557c-1.319-4.151-3.816-9.426-8.437-12.414-8.328-5.391-19.7-.934-20.175-.741a2.63917,2.63917,0,0,0-1.64,2.743c.06.535,1.561,13.144,9.8,18.471a18.01745,18.01745,0,0,0,9.887,2.653,29.17615,29.17615,0,0,0,6.67-.823v17.238H5.27447v5.274h2.638v89.668a21.098,21.098,0,1,0,42.196,0v-89.668h2.638v-5.274h-21.099v-11.375a29.17552,29.17552,0,0,0,6.67.823"/>
        <path class="cls-1" d="M26.37307,137.13775a2.637,2.637,0,1,1,2.637-2.637,2.63941,2.63941,0,0,1-2.637,2.637m0-10.549a7.912,7.912,0,1,0,7.912,7.912,7.92185,7.92185,0,0,0-7.912-7.912"/>
      </g>
    </g>
  </g>
</svg>
