<?xml version="1.0" encoding="utf-8"?>
<!-- Generator: Adobe Illustrator 16.0.0, SVG Export Plug-In . SVG Version: 6.00 Build 0)  -->
<!DOCTYPE svg PUBLIC "-//W3C//DTD SVG 1.1//EN" "http://www.w3.org/Graphics/SVG/1.1/DTD/svg11.dtd">
<svg version="1.1" id="Layer_1" xmlns="http://www.w3.org/2000/svg" xmlns:xlink="http://www.w3.org/1999/xlink" x="0px" y="0px"
	 width="259.02246px" height="25.66113px" viewBox="0 0 259.02246 25.66113" enable-background="new 0 0 259.02246 25.66113"
	 xml:space="preserve">
<g>
	<path fill="#FFFFFF" d="M15.02441,4.67676c0-2.49414,1.99023-4.37695,4.66504-4.37695c0.80371,0,1.72754,0.26367,2.43457,0.74316
		v1.85938c-0.64746-0.63574-1.52344-0.99609-2.38672-0.99609c-1.72656,0-2.90234,1.17578-2.90234,2.77051
		c0,1.58301,1.17578,2.74707,2.90234,2.74707c0.86328,0,1.75195-0.36035,2.38672-0.99609v1.85938
		c-0.70703,0.47949-1.63086,0.74316-2.43457,0.74316C17.01465,9.03027,15.02441,7.16016,15.02441,4.67676z"/>
	<path fill="#FFFFFF" d="M22.88379,5.84082c0-1.78711,1.23535-3.20312,3.07031-3.20312c2.0752,0,3.02246,1.61914,2.74609,3.58691
		h-4.25684c0.16699,0.85156,0.83887,1.39062,1.97852,1.39062c0.75586,0,1.49902-0.31152,2.0752-0.80371v1.4873
		c-0.48047,0.43164-1.30762,0.73145-2.36328,0.73145C24.17871,9.03027,22.88379,7.74707,22.88379,5.84082z M27.03418,5.07324
		c-0.03711-0.6123-0.49219-1.11621-1.19922-1.11621c-0.68359,0-1.17578,0.36035-1.36719,1.11621H27.03418z"/>
	<path fill="#FFFFFF" d="M36.81348,3.22559v1.41504c-0.59961-0.41895-1.43945-0.63477-2.02734-0.63477
		c-0.47949,0-0.7793,0.16699-0.7793,0.47949c0,0.23926,0.15625,0.43164,0.56445,0.52734l0.86328,0.19238
		c1.22266,0.27539,1.66699,1.00684,1.66699,1.90625c0,1.21191-0.91113,1.91895-2.55469,1.91895
		c-1.04395,0-1.87109-0.44336-2.27832-0.74316V6.78809c0.73047,0.55176,1.61914,0.85156,2.27832,0.85156
		c0.52734,0,0.85156-0.22852,0.85156-0.55176c0-0.27637-0.15625-0.47949-0.63574-0.57617l-0.69531-0.14355
		c-1.2959-0.26367-1.73926-0.95996-1.73926-1.73926c0-1.49902,1.22363-1.99121,2.44629-1.99121
		C35.55371,2.6377,36.32129,2.86621,36.81348,3.22559z"/>
	<path fill="#FFFFFF" d="M39.03516,0c0.58789,0,1.04395,0.47949,1.04395,1.03125s-0.45605,1.01953-1.04395,1.01953
		c-0.59961,0-1.03125-0.46777-1.03125-1.01953S38.43555,0,39.03516,0z M39.88672,8.88672h-1.67871V2.78223h1.67871V8.88672z"/>
	<path fill="#FFFFFF" d="M43.43848,1.13867v1.64355h2.01562v1.39062h-2.01562v2.1709c0,0.86426,0.49219,1.22363,1.01953,1.22363
		c0.43164,0,0.73145-0.12012,0.99609-0.26367V8.7666c-0.43262,0.17969-0.90039,0.26367-1.2959,0.26367
		c-1.36719,0-2.41113-0.82715-2.41113-2.58984V4.17285h-0.98242V2.78223h0.98242V1.13867H43.43848z"/>
	<path fill="#FFFFFF" d="M45.97168,5.84082c0-1.78711,1.23633-3.20312,3.07031-3.20312c2.07617,0,3.02344,1.61914,2.74707,3.58691
		h-4.25684c0.16699,0.85156,0.83887,1.39062,1.97852,1.39062c0.75586,0,1.49902-0.31152,2.07422-0.80371v1.4873
		c-0.47949,0.43164-1.30664,0.73145-2.3623,0.73145C47.26758,9.03027,45.97168,7.74707,45.97168,5.84082z M50.12207,5.07324
		c-0.03613-0.6123-0.49219-1.11621-1.19922-1.11621c-0.68359,0-1.17578,0.36035-1.36719,1.11621H50.12207z"/>
	<path fill="#FFFFFF" d="M55.28418,5.84082c0-1.78711,1.23535-3.20312,3.07031-3.20312c2.0752,0,3.02246,1.61914,2.74609,3.58691
		h-4.25684c0.16699,0.85156,0.83887,1.39062,1.97852,1.39062c0.75586,0,1.49902-0.31152,2.0752-0.80371v1.4873
		c-0.48047,0.43164-1.30762,0.73145-2.36328,0.73145C56.5791,9.03027,55.28418,7.74707,55.28418,5.84082z M59.43457,5.07324
		c-0.03711-0.6123-0.49219-1.11621-1.19922-1.11621c-0.68359,0-1.17578,0.36035-1.36719,1.11621H59.43457z"/>
	<path fill="#FFFFFF" d="M66.52637,3.22559v1.41504c-0.59961-0.41895-1.43945-0.63477-2.02734-0.63477
		c-0.48047,0-0.7793,0.16699-0.7793,0.47949c0,0.23926,0.15625,0.43164,0.56348,0.52734l0.86328,0.19238
		c1.22363,0.27539,1.66699,1.00684,1.66699,1.90625c0,1.21191-0.91113,1.91895-2.55469,1.91895
		c-1.04297,0-1.87109-0.44336-2.27832-0.74316V6.78809c0.73145,0.55176,1.61914,0.85156,2.27832,0.85156
		c0.52734,0,0.85156-0.22852,0.85156-0.55176c0-0.27637-0.15625-0.47949-0.63477-0.57617L63.7793,6.36816
		c-1.2959-0.26367-1.73926-0.95996-1.73926-1.73926c0-1.49902,1.22363-1.99121,2.44727-1.99121
		C65.2666,2.6377,66.03418,2.86621,66.52637,3.22559z"/>
	<path fill="#FFFFFF" d="M69.95898,1.13867v1.64355h2.01465v1.39062h-2.01465v2.1709c0,0.86426,0.49121,1.22363,1.01953,1.22363
		c0.43164,0,0.73145-0.12012,0.99512-0.26367V8.7666c-0.43164,0.17969-0.89941,0.26367-1.29492,0.26367
		c-1.36719,0-2.41016-0.82715-2.41016-2.58984V4.17285h-0.98438V2.78223h0.98438V1.13867H69.95898z"/>
	<path fill="#FFFFFF" d="M77.53027,4.06543c-0.68359,0-1.31934,0.26367-1.84766,0.70801v-1.4873
		c0.57617-0.44434,1.34375-0.64844,2.08789-0.64844c1.73828,0,2.92578,1.04395,2.92578,2.54297v3.70605h-1.67871v-0.7793
		c-0.27637,0.56348-0.89941,0.92285-1.64355,0.92285c-1.1875,0-2.05078-0.83887-2.05078-1.9668
		c0-1.15137,0.91211-1.94238,2.19531-1.94238c0.5752,0,1.13867,0.17969,1.49902,0.44336V5.27637
		C79.01758,4.50879,78.41797,4.06543,77.53027,4.06543z M77.80566,7.72363c0.66016,0,1.17578-0.41992,1.21191-1.08008V6.63184
		c-0.33594-0.21582-0.73145-0.34766-1.13965-0.34766c-0.56348,0-0.92383,0.2998-0.92383,0.73145S77.29004,7.72363,77.80566,7.72363z
		"/>
	<path fill="#FFFFFF" d="M81.71973,5.84082c0-1.93164,1.42676-3.20312,3.37012-3.20312c0.52734,0,1.29492,0.16797,1.82324,0.63574
		v1.67969c-0.45605-0.51562-1.04395-0.79199-1.74023-0.79199c-0.99414,0-1.76172,0.71973-1.76172,1.67969
		c0,0.95898,0.76758,1.66699,1.76172,1.66699c0.68457,0,1.32031-0.28809,1.77539-0.81543v1.69043
		c-0.52734,0.46777-1.33105,0.64746-1.8584,0.64746C83.14648,9.03027,81.71973,7.75977,81.71973,5.84082z"/>
	<path fill="#FFFFFF" d="M90.22656,1.13867v1.64355h2.01465v1.39062h-2.01465v2.1709c0,0.86426,0.49121,1.22363,1.01953,1.22363
		c0.43164,0,0.73145-0.12012,0.99512-0.26367V8.7666c-0.43164,0.17969-0.89941,0.26367-1.29492,0.26367
		c-1.36719,0-2.41016-0.82715-2.41016-2.58984V4.17285h-0.98438V2.78223h0.98438V1.13867H90.22656z"/>
	<path fill="#FFFFFF" d="M93.13184,6.17578V2.78223h1.67871v3.33398c0,0.83984,0.50293,1.3916,1.27051,1.3916
		c0.76855,0,1.27148-0.55176,1.27148-1.3916V2.78223h1.67969v3.39355c0,1.72754-1.16406,2.85449-2.95117,2.85449
		S93.13184,7.90332,93.13184,6.17578z"/>
	<path fill="#FFFFFF" d="M100.04395,5.84082c0-1.78711,1.23535-3.20312,3.07031-3.20312c2.07422,0,3.02246,1.61914,2.74609,3.58691
		h-4.25781c0.16797,0.85156,0.83984,1.39062,1.97949,1.39062c0.75488,0,1.49902-0.31152,2.07422-0.80371v1.4873
		c-0.47949,0.43164-1.30664,0.73145-2.3623,0.73145C101.33887,9.03027,100.04395,7.74707,100.04395,5.84082z M104.19336,5.07324
		c-0.03613-0.6123-0.49121-1.11621-1.19922-1.11621c-0.68359,0-1.17578,0.36035-1.36719,1.11621H104.19336z"/>
	<path fill="#FFFFFF" d="M108.70703,8.88672h-1.67969V0.44336h1.67969V8.88672z"/>
	<path fill="#FFFFFF" d="M111.85059,8.88672h-1.67969V0.44336h1.67969V8.88672z"/>
	<path fill="#FFFFFF" d="M112.95508,5.84082c0-1.78711,1.23535-3.20312,3.07031-3.20312c2.07422,0,3.02246,1.61914,2.74609,3.58691
		h-4.25781c0.16797,0.85156,0.83984,1.39062,1.97949,1.39062c0.75488,0,1.49902-0.31152,2.07422-0.80371v1.4873
		c-0.47949,0.43164-1.30664,0.73145-2.3623,0.73145C114.25,9.03027,112.95508,7.74707,112.95508,5.84082z M117.10449,5.07324
		c-0.03613-0.6123-0.49219-1.11621-1.19922-1.11621c-0.68359,0-1.17578,0.36035-1.36719,1.11621H117.10449z"/>
	<path fill="#FFFFFF" d="M121.61816,5.58887v3.29785h-1.67969V2.78223h1.67969v0.93555
		c0.34766-0.69629,1.05469-1.08008,1.67871-1.08008c0.875,0,1.4873,0.36035,1.82324,1.04395
		c0.47949-0.68359,1.13867-1.04395,1.99023-1.04395c1.35547,0,2.15918,0.95996,2.15918,2.69922v3.5498h-1.67871V5.48047
		c0-0.81543-0.39648-1.31934-1.01953-1.31934c-0.68359,0-1.12793,0.55176-1.12793,1.42773v3.29785h-1.67871V5.48047
		c0-0.81543-0.39551-1.31934-1.00781-1.31934C122.06152,4.16113,121.61816,4.71289,121.61816,5.58887z"/>
	<path fill="#FFFFFF" d="M130.29492,5.84082c0-1.78711,1.23535-3.20312,3.07031-3.20312c2.07422,0,3.02246,1.61914,2.74609,3.58691
		h-4.25781c0.16797,0.85156,0.83984,1.39062,1.97949,1.39062c0.75488,0,1.49902-0.31152,2.07422-0.80371v1.4873
		c-0.47949,0.43164-1.30664,0.73145-2.3623,0.73145C131.58984,9.03027,130.29492,7.74707,130.29492,5.84082z M134.44434,5.07324
		c-0.03613-0.6123-0.49219-1.11621-1.19922-1.11621c-0.68359,0-1.17578,0.36035-1.36719,1.11621H134.44434z"/>
	<path fill="#FFFFFF" d="M138.95801,3.68164c0.38379-0.66016,1.01855-1.04395,1.81055-1.04395
		c1.43945,0,2.39844,1.03223,2.39844,2.69922v3.5498h-1.67871V5.56445c0-0.83984-0.50391-1.3916-1.24707-1.3916
		c-0.74414,0-1.2832,0.63574-1.2832,1.52344v3.19043h-1.67969V2.78223h1.67969V3.68164z"/>
	<path fill="#FFFFFF" d="M146.55273,1.13867v1.64355h2.01465v1.39062h-2.01465v2.1709c0,0.86426,0.49219,1.22363,1.01953,1.22363
		c0.43164,0,0.73145-0.12012,0.99512-0.26367V8.7666c-0.43164,0.17969-0.89941,0.26367-1.29492,0.26367
		c-1.36719,0-2.41113-0.82715-2.41113-2.58984V4.17285h-0.9834V2.78223h0.9834V1.13867H146.55273z"/>
	<path fill="#FFFFFF" d="M151.89453,5.84082c0-1.78711,1.23535-3.20312,3.07031-3.20312c2.07422,0,3.02246,1.61914,2.74609,3.58691
		h-4.25781c0.16797,0.85156,0.83984,1.39062,1.97949,1.39062c0.75488,0,1.49902-0.31152,2.07422-0.80371v1.4873
		c-0.47949,0.43164-1.30664,0.73145-2.3623,0.73145C153.18945,9.03027,151.89453,7.74707,151.89453,5.84082z M156.04395,5.07324
		c-0.03613-0.6123-0.49219-1.11621-1.19922-1.11621c-0.68359,0-1.17578,0.36035-1.36719,1.11621H156.04395z"/>
	<path fill="#FFFFFF" d="M160.55762,3.68164c0.38379-0.66016,1.01855-1.04395,1.81055-1.04395
		c1.43945,0,2.39844,1.03223,2.39844,2.69922v3.5498h-1.67871V5.56445c0-0.83984-0.50391-1.3916-1.24707-1.3916
		c-0.74414,0-1.2832,0.63574-1.2832,1.52344v3.19043h-1.67969V2.78223h1.67969V3.68164z"/>
	<path fill="#FFFFFF" d="M168.47852,5.84082c0-1.93164,1.42676-3.20312,3.37012-3.20312c0.52734,0,1.29492,0.16797,1.82227,0.63574
		v1.67969c-0.45508-0.51562-1.04297-0.79199-1.73828-0.79199c-0.99609,0-1.76367,0.71973-1.76367,1.67969
		c0,0.95898,0.76758,1.66699,1.76367,1.66699c0.68359,0,1.31934-0.28809,1.77441-0.81543v1.69043
		c-0.52734,0.46777-1.33105,0.64746-1.8584,0.64746C169.90527,9.03027,168.47852,7.75977,168.47852,5.84082z"/>
	<path fill="#FFFFFF" d="M174.50098,5.84082c0-1.82324,1.43945-3.20312,3.31055-3.20312c1.85938,0,3.31055,1.37988,3.31055,3.20312
		c0,1.79883-1.45117,3.18945-3.31055,3.18945C175.94043,9.03027,174.50098,7.63965,174.50098,5.84082z M177.81152,7.50781
		c0.91113,0,1.60742-0.70801,1.60742-1.66699c0-0.95996-0.69629-1.67969-1.60742-1.67969s-1.60742,0.71973-1.60742,1.67969
		C176.2041,6.7998,176.90039,7.50781,177.81152,7.50781z"/>
	<path fill="#FFFFFF" d="M183.89648,3.68164c0.38379-0.66016,1.01855-1.04395,1.81055-1.04395
		c1.43945,0,2.39844,1.03223,2.39844,2.69922v3.5498h-1.67871V5.56445c0-0.83984-0.50391-1.3916-1.24707-1.3916
		c-0.74414,0-1.2832,0.63574-1.2832,1.52344v3.19043h-1.67969V2.78223h1.67969V3.68164z"/>
	<path fill="#FFFFFF" d="M193.74609,3.22559v1.41504c-0.59961-0.41895-1.43945-0.63477-2.02734-0.63477
		c-0.47949,0-0.7793,0.16699-0.7793,0.47949c0,0.23926,0.15625,0.43164,0.56348,0.52734l0.86426,0.19238
		c1.22266,0.27539,1.66699,1.00684,1.66699,1.90625c0,1.21191-0.91211,1.91895-2.55469,1.91895
		c-1.04395,0-1.87109-0.44336-2.2793-0.74316V6.78809c0.73242,0.55176,1.61914,0.85156,2.2793,0.85156
		c0.52734,0,0.85156-0.22852,0.85156-0.55176c0-0.27637-0.15625-0.47949-0.63574-0.57617L191,6.36816
		c-1.2959-0.26367-1.73926-0.95996-1.73926-1.73926c0-1.49902,1.22266-1.99121,2.44629-1.99121
		C192.48633,2.6377,193.25391,2.86621,193.74609,3.22559z"/>
	<path fill="#FFFFFF" d="M197.17969,1.13867v1.64355h2.01465v1.39062h-2.01465v2.1709c0,0.86426,0.49219,1.22363,1.01953,1.22363
		c0.43164,0,0.73145-0.12012,0.99512-0.26367V8.7666c-0.43164,0.17969-0.89941,0.26367-1.29492,0.26367
		c-1.36719,0-2.41113-0.82715-2.41113-2.58984V4.17285h-0.9834V2.78223h0.9834V1.13867H197.17969z"/>
	<path fill="#FFFFFF" d="M200.19238,2.78223h1.67969V4.0293c0.21582-0.80371,0.875-1.3916,1.69043-1.3916
		c0.2998,0,0.64746,0.07227,0.93555,0.22852v1.59473c-0.33594-0.2041-0.71973-0.26367-1.03125-0.26367
		c-0.8877,0-1.58301,0.75586-1.59473,1.95508v2.73438h-1.67969V2.78223z"/>
	<path fill="#FFFFFF" d="M205.28027,6.17578V2.78223h1.67871v3.33398c0,0.83984,0.50391,1.3916,1.27148,1.3916
		s1.27148-0.55176,1.27148-1.3916V2.78223h1.67871v3.39355c0,1.72754-1.16309,2.85449-2.9502,2.85449
		S205.28027,7.90332,205.28027,6.17578z"/>
	<path fill="#FFFFFF" d="M212.19238,5.84082c0-1.93164,1.42676-3.20312,3.37012-3.20312c0.52734,0,1.29492,0.16797,1.82324,0.63574
		v1.67969c-0.45605-0.51562-1.04395-0.79199-1.73926-0.79199c-0.99609,0-1.76367,0.71973-1.76367,1.67969
		c0,0.95898,0.76758,1.66699,1.76367,1.66699c0.68359,0,1.31934-0.28809,1.77441-0.81543v1.69043
		c-0.52734,0.46777-1.33105,0.64746-1.8584,0.64746C213.61914,9.03027,212.19238,7.75977,212.19238,5.84082z"/>
	<path fill="#FFFFFF" d="M220.69824,1.13867v1.64355h2.01465v1.39062h-2.01465v2.1709c0,0.86426,0.49219,1.22363,1.01953,1.22363
		c0.43164,0,0.73145-0.12012,0.99512-0.26367V8.7666c-0.43164,0.17969-0.89941,0.26367-1.29492,0.26367
		c-1.36719,0-2.41113-0.82715-2.41113-2.58984V4.17285h-0.9834V2.78223h0.9834V1.13867H220.69824z"/>
	<path fill="#FFFFFF" d="M224.53906,0c0.58691,0,1.04297,0.47949,1.04297,1.03125s-0.45605,1.01953-1.04297,1.01953
		c-0.60059,0-1.03223-0.46777-1.03223-1.01953S223.93848,0,224.53906,0z M225.39062,8.88672h-1.67969V2.78223h1.67969V8.88672z"/>
	<path fill="#FFFFFF" d="M226.48242,5.84082c0-1.82324,1.43945-3.20312,3.31055-3.20312c1.85938,0,3.31055,1.37988,3.31055,3.20312
		c0,1.79883-1.45117,3.18945-3.31055,3.18945C227.92188,9.03027,226.48242,7.63965,226.48242,5.84082z M229.79297,7.50781
		c0.91113,0,1.60742-0.70801,1.60742-1.66699c0-0.95996-0.69629-1.67969-1.60742-1.67969s-1.60742,0.71973-1.60742,1.67969
		C228.18555,6.7998,228.88184,7.50781,229.79297,7.50781z"/>
	<path fill="#FFFFFF" d="M235.87793,3.68164c0.38379-0.66016,1.01855-1.04395,1.81055-1.04395
		c1.43945,0,2.39844,1.03223,2.39844,2.69922v3.5498h-1.67871V5.56445c0-0.83984-0.50391-1.3916-1.24707-1.3916
		c-0.74414,0-1.2832,0.63574-1.2832,1.52344v3.19043h-1.67969V2.78223h1.67969V3.68164z"/>
	<path fill="#FFFFFF" d="M243.66504,7.86719c0,0.69531-0.51562,1.16309-1.24805,1.16309c-0.70703,0-1.19922-0.46777-1.19922-1.16309
		c0-0.70703,0.49219-1.1875,1.19922-1.1875C243.14941,6.67969,243.66504,7.16016,243.66504,7.86719z"/>
	<path fill="#FFFFFF" d="M7.53223,14.84277v8.44336h-2.0752l-3.70605-5.88867v5.88867H0v-8.44336h2.0752l3.69336,5.87695v-5.87695
		H7.53223z"/>
	<path fill="#FFFFFF" d="M10.78809,14.05078v3.70605H9.14453v-3.70605H10.78809z"/>
	<path fill="#FFFFFF" d="M13.85938,18.08105c0.38379-0.66016,1.01953-1.04395,1.81152-1.04395
		c1.43848,0,2.39844,1.03223,2.39844,2.69922v3.5498h-1.67969v-3.32227c0-0.83984-0.50391-1.3916-1.24707-1.3916
		s-1.2832,0.63574-1.2832,1.52344v3.19043h-1.67871v-8.44336h1.67871V18.08105z"/>
	<path fill="#FFFFFF" d="M19.09277,20.24023c0-1.78711,1.23438-3.20312,3.07031-3.20312c2.07422,0,3.02148,1.61914,2.74609,3.58691
		h-4.25781c0.16797,0.85156,0.83984,1.39062,1.97852,1.39062c0.75586,0,1.5-0.31152,2.07617-0.80371v1.4873
		c-0.48047,0.43164-1.30859,0.73145-2.36328,0.73145C20.3877,23.42969,19.09277,22.14648,19.09277,20.24023z M23.24219,19.47266
		c-0.03613-0.6123-0.49121-1.11621-1.19922-1.11621c-0.68359,0-1.1748,0.36035-1.36719,1.11621H23.24219z M22.12695,14.60254
		h1.77441l-1.23438,1.88379h-1.48828L22.12695,14.60254z"/>
	<path fill="#FFFFFF" d="M30.3584,17.625v1.41504c-0.59961-0.41895-1.43945-0.63477-2.02734-0.63477
		c-0.48047,0-0.7793,0.16699-0.7793,0.47949c0,0.23926,0.15625,0.43164,0.56348,0.52734l0.86328,0.19238
		c1.22363,0.27539,1.66699,1.00684,1.66699,1.90625c0,1.21191-0.91113,1.91895-2.55469,1.91895
		c-1.04297,0-1.87109-0.44336-2.27832-0.74316V21.1875c0.73145,0.55176,1.61914,0.85156,2.27832,0.85156
		c0.52734,0,0.85156-0.22852,0.85156-0.55176c0-0.27637-0.15625-0.47949-0.63477-0.57617l-0.69629-0.14355
		c-1.2959-0.26367-1.73926-0.95996-1.73926-1.73926c0-1.49902,1.22363-1.99121,2.44727-1.99121
		C29.09863,17.03711,29.86621,17.26562,30.3584,17.625z"/>
	<path fill="#FFFFFF" d="M32.5791,14.39941c0.58789,0,1.04395,0.47949,1.04395,1.03125s-0.45605,1.01953-1.04395,1.01953
		c-0.59961,0-1.03125-0.46777-1.03125-1.01953S31.97949,14.39941,32.5791,14.39941z M33.43066,23.28613h-1.67871v-6.10449h1.67871
		V23.28613z"/>
	<path fill="#FFFFFF" d="M36.9834,15.53809v1.64355h2.01465v1.39062H36.9834v2.1709c0,0.86426,0.49121,1.22363,1.01953,1.22363
		c0.43164,0,0.73047-0.12012,0.99512-0.26367v1.46289c-0.43262,0.17969-0.89941,0.26367-1.2959,0.26367
		c-1.36719,0-2.41016-0.82715-2.41016-2.58984v-2.26758h-0.9834v-1.39062h0.9834v-1.64355H36.9834z"/>
	<path fill="#FFFFFF" d="M39.5166,20.24023c0-1.78711,1.23438-3.20312,3.07031-3.20312c2.07422,0,3.02148,1.61914,2.74609,3.58691
		H41.0752c0.16797,0.85156,0.83984,1.39062,1.97852,1.39062c0.75586,0,1.5-0.31152,2.07617-0.80371v1.4873
		c-0.48047,0.43164-1.30859,0.73145-2.36328,0.73145C40.81152,23.42969,39.5166,22.14648,39.5166,20.24023z M43.66602,19.47266
		c-0.03613-0.6123-0.49121-1.11621-1.19922-1.11621c-0.68359,0-1.1748,0.36035-1.36719,1.11621H43.66602z"/>
	<path fill="#FFFFFF" d="M51.27344,18.18848l-2.86621,3.70605h2.86621v1.3916h-5.19238v-1.00781l2.85352-3.70605h-2.74609v-1.39062
		h5.08496V18.18848z"/>
	<path fill="#FFFFFF" d="M56.79492,22.3623v3.29883h-1.67871v-8.47949h1.67871v0.92383
		c0.37207-0.68457,1.06738-1.06836,1.95508-1.06836c1.65527,0,2.96191,1.35547,2.96191,3.20312
		c0,1.83496-1.30664,3.18945-2.96191,3.18945C57.8623,23.42969,57.16699,23.0459,56.79492,22.3623z M58.40137,21.90723
		c0.91211,0,1.60742-0.70801,1.60742-1.66699c0-0.95996-0.69531-1.67969-1.60742-1.67969
		c-0.91016,0-1.60645,0.71973-1.60645,1.67969C56.79492,21.19922,57.49121,21.90723,58.40137,21.90723z"/>
	<path fill="#FFFFFF" d="M64.69043,18.46484c-0.68359,0-1.31836,0.26367-1.84668,0.70801v-1.4873
		c0.5752-0.44434,1.34277-0.64844,2.08691-0.64844c1.73926,0,2.92676,1.04395,2.92676,2.54297v3.70605h-1.67871v-0.7793
		c-0.27637,0.56348-0.90039,0.92285-1.64355,0.92285c-1.1875,0-2.05078-0.83887-2.05078-1.9668
		c0-1.15137,0.91113-1.94238,2.19434-1.94238c0.57617,0,1.13965,0.17969,1.5,0.44336v-0.28809
		C66.17871,18.9082,65.5791,18.46484,64.69043,18.46484z M64.9668,22.12305c0.65918,0,1.1748-0.41992,1.21191-1.08008v-0.01172
		c-0.33594-0.21582-0.73242-0.34766-1.14062-0.34766c-0.5625,0-0.92285,0.2998-0.92285,0.73145S64.45117,22.12305,64.9668,22.12305z
		"/>
	<path fill="#FFFFFF" d="M73.49707,17.625v1.41504c-0.59961-0.41895-1.43848-0.63477-2.02637-0.63477
		c-0.47949,0-0.78027,0.16699-0.78027,0.47949c0,0.23926,0.15625,0.43164,0.56445,0.52734l0.86328,0.19238
		c1.22363,0.27539,1.66699,1.00684,1.66699,1.90625c0,1.21191-0.91113,1.91895-2.55371,1.91895
		c-1.04395,0-1.87109-0.44336-2.2793-0.74316V21.1875c0.73145,0.55176,1.61914,0.85156,2.2793,0.85156
		c0.52734,0,0.85156-0.22852,0.85156-0.55176c0-0.27637-0.15625-0.47949-0.63672-0.57617l-0.69531-0.14355
		c-1.29492-0.26367-1.73828-0.95996-1.73828-1.73926c0-1.49902,1.22266-1.99121,2.44531-1.99121
		C72.23828,17.03711,73.00586,17.26562,73.49707,17.625z"/>
	<path fill="#FFFFFF" d="M79.4502,18.46484c-0.68359,0-1.31836,0.26367-1.84668,0.70801v-1.4873
		c0.5752-0.44434,1.34277-0.64844,2.08691-0.64844c1.73926,0,2.92676,1.04395,2.92676,2.54297v3.70605h-1.67871v-0.7793
		c-0.27637,0.56348-0.90039,0.92285-1.64355,0.92285c-1.1875,0-2.05078-0.83887-2.05078-1.9668
		c0-1.15137,0.91113-1.94238,2.19434-1.94238c0.57617,0,1.13965,0.17969,1.5,0.44336v-0.28809
		C80.93848,18.9082,80.33887,18.46484,79.4502,18.46484z M79.71387,14.60254l0.94824,1.88379h-1.4873l-1.23535-1.88379H79.71387z
		 M79.72656,22.12305c0.65918,0,1.1748-0.41992,1.21191-1.08008v-0.01172c-0.33594-0.21582-0.73242-0.34766-1.14062-0.34766
		c-0.5625,0-0.92285,0.2998-0.92285,0.73145S79.21094,22.12305,79.72656,22.12305z"/>
	<path fill="#FFFFFF" d="M85.68066,17.18164h1.84668l1.53516,3.91016l1.55957-3.91016h1.82227l-2.69824,6.10449h-1.36719
		L85.68066,17.18164z"/>
	<path fill="#FFFFFF" d="M92.56738,20.24023c0-1.78711,1.23633-3.20312,3.07031-3.20312c2.0752,0,3.02344,1.61914,2.74707,3.58691
		h-4.25684c0.16699,0.85156,0.83887,1.39062,1.97852,1.39062c0.75488,0,1.49902-0.31152,2.07422-0.80371v1.4873
		c-0.47949,0.43164-1.30664,0.73145-2.3623,0.73145C93.86328,23.42969,92.56738,22.14648,92.56738,20.24023z M96.71777,19.47266
		c-0.03613-0.6123-0.49219-1.11621-1.19922-1.11621c-0.68359,0-1.17578,0.36035-1.36719,1.11621H96.71777z"/>
	<path fill="#FFFFFF" d="M101.23047,18.08105c0.38379-0.66016,1.01855-1.04395,1.81055-1.04395
		c1.43945,0,2.39844,1.03223,2.39844,2.69922v3.5498h-1.67871v-3.32227c0-0.83984-0.50391-1.3916-1.24707-1.3916
		c-0.74414,0-1.2832,0.63574-1.2832,1.52344v3.19043h-1.67969v-6.10449h1.67969V18.08105z"/>
	<path fill="#FFFFFF" d="M107.65039,14.39941c0.58691,0,1.04297,0.47949,1.04297,1.03125s-0.45605,1.01953-1.04297,1.01953
		c-0.60059,0-1.03223-0.46777-1.03223-1.01953S107.0498,14.39941,107.65039,14.39941z M108.50195,23.28613h-1.67969v-6.10449
		h1.67969V23.28613z"/>
	<path fill="#FFFFFF" d="M109.96582,17.18164h1.67969v1.24707c0.21582-0.80371,0.875-1.3916,1.69043-1.3916
		c0.2998,0,0.64746,0.07227,0.93555,0.22852v1.59473c-0.33594-0.2041-0.71973-0.26367-1.03125-0.26367
		c-0.8877,0-1.58301,0.75586-1.59473,1.95508v2.73438h-1.67969V17.18164z"/>
	<path fill="#FFFFFF" d="M119.24121,23.28613h-1.67969v-8.44336h1.67969V23.28613z"/>
	<path fill="#FFFFFF" d="M120.3457,20.24023c0-1.78711,1.23535-3.20312,3.07031-3.20312c2.07422,0,3.02246,1.61914,2.74609,3.58691
		h-4.25781c0.16797,0.85156,0.83984,1.39062,1.97949,1.39062c0.75488,0,1.49902-0.31152,2.07422-0.80371v1.4873
		c-0.47949,0.43164-1.30664,0.73145-2.3623,0.73145C121.64062,23.42969,120.3457,22.14648,120.3457,20.24023z M124.49512,19.47266
		c-0.03613-0.6123-0.49219-1.11621-1.19922-1.11621c-0.68359,0-1.17578,0.36035-1.36719,1.11621H124.49512z"/>
	<path fill="#FFFFFF" d="M129.00879,17.18164h1.84766l1.53516,3.91016l1.55859-3.91016h1.82324l-2.69824,6.10449h-1.36719
		L129.00879,17.18164z"/>
	<path fill="#FFFFFF" d="M137.33691,14.39941c0.58691,0,1.04297,0.47949,1.04297,1.03125s-0.45605,1.01953-1.04297,1.01953
		c-0.59961,0-1.03223-0.46777-1.03223-1.01953S136.7373,14.39941,137.33691,14.39941z M138.18848,23.28613h-1.67969v-6.10449
		h1.67969V23.28613z"/>
	<path fill="#FFFFFF" d="M143.91016,17.625v1.41504c-0.59961-0.41895-1.43945-0.63477-2.02734-0.63477
		c-0.47949,0-0.7793,0.16699-0.7793,0.47949c0,0.23926,0.15625,0.43164,0.56348,0.52734l0.86426,0.19238
		c1.22266,0.27539,1.66699,1.00684,1.66699,1.90625c0,1.21191-0.91211,1.91895-2.55469,1.91895
		c-1.04395,0-1.87109-0.44336-2.2793-0.74316V21.1875c0.73242,0.55176,1.61914,0.85156,2.2793,0.85156
		c0.52734,0,0.85156-0.22852,0.85156-0.55176c0-0.27637-0.15625-0.47949-0.63574-0.57617l-0.69531-0.14355
		c-1.2959-0.26367-1.73926-0.95996-1.73926-1.73926c0-1.49902,1.22266-1.99121,2.44629-1.99121
		C142.65039,17.03711,143.41797,17.26562,143.91016,17.625z"/>
	<path fill="#FFFFFF" d="M146.13281,14.39941c0.58691,0,1.04297,0.47949,1.04297,1.03125s-0.45605,1.01953-1.04297,1.01953
		c-0.60059,0-1.03223-0.46777-1.03223-1.01953S145.53223,14.39941,146.13281,14.39941z M146.98438,23.28613h-1.67969v-6.10449
		h1.67969V23.28613z"/>
	<path fill="#FFFFFF" d="M150.53516,15.53809v1.64355h2.01465v1.39062h-2.01465v2.1709c0,0.86426,0.49219,1.22363,1.01953,1.22363
		c0.43164,0,0.73145-0.12012,0.99512-0.26367v1.46289c-0.43164,0.17969-0.89941,0.26367-1.29492,0.26367
		c-1.36719,0-2.41113-0.82715-2.41113-2.58984v-2.26758h-0.9834v-1.39062h0.9834v-1.64355H150.53516z"/>
	<path fill="#FFFFFF" d="M153.06836,20.24023c0-1.78711,1.23535-3.20312,3.07031-3.20312c2.07422,0,3.02246,1.61914,2.74609,3.58691
		h-4.25781c0.16797,0.85156,0.83984,1.39062,1.97949,1.39062c0.75488,0,1.49902-0.31152,2.07422-0.80371v1.4873
		c-0.47949,0.43164-1.30664,0.73145-2.3623,0.73145C154.36328,23.42969,153.06836,22.14648,153.06836,20.24023z M157.21777,19.47266
		c-0.03613-0.6123-0.49219-1.11621-1.19922-1.11621c-0.68359,0-1.17578,0.36035-1.36719,1.11621H157.21777z"/>
	<path fill="#FFFFFF" d="M160.05176,17.18164h1.67969v1.24707c0.21582-0.80371,0.875-1.3916,1.69043-1.3916
		c0.2998,0,0.64746,0.07227,0.93555,0.22852v1.59473c-0.33594-0.2041-0.71973-0.26367-1.03125-0.26367
		c-0.8877,0-1.58301,0.75586-1.59473,1.95508v2.73438h-1.67969V17.18164z"/>
	<path fill="#FFFFFF" d="M169.32715,22.3623v3.29883h-1.67969v-8.47949h1.67969v0.92383
		c0.37109-0.68457,1.06738-1.06836,1.9541-1.06836c1.65527,0,2.96289,1.35547,2.96289,3.20312
		c0,1.83496-1.30762,3.18945-2.96289,3.18945C170.39453,23.42969,169.69824,23.0459,169.32715,22.3623z M170.93359,21.90723
		c0.91211,0,1.60742-0.70801,1.60742-1.66699c0-0.95996-0.69531-1.67969-1.60742-1.67969
		c-0.91113,0-1.60645,0.71973-1.60645,1.67969C169.32715,21.19922,170.02246,21.90723,170.93359,21.90723z"/>
	<path fill="#FFFFFF" d="M175.35156,17.18164h1.67969v1.24707c0.21582-0.80371,0.875-1.3916,1.69043-1.3916
		c0.2998,0,0.64746,0.07227,0.93555,0.22852v1.59473c-0.33594-0.2041-0.71973-0.26367-1.03125-0.26367
		c-0.8877,0-1.58301,0.75586-1.59473,1.95508v2.73438h-1.67969V17.18164z"/>
	<path fill="#FFFFFF" d="M179.94727,20.24023c0-1.82324,1.43945-3.20312,3.31055-3.20312c1.85938,0,3.31055,1.37988,3.31055,3.20312
		c0,1.79883-1.45117,3.18945-3.31055,3.18945C181.38672,23.42969,179.94727,22.03906,179.94727,20.24023z M183.25781,21.90723
		c0.91113,0,1.60742-0.70801,1.60742-1.66699c0-0.95996-0.69629-1.67969-1.60742-1.67969s-1.60742,0.71973-1.60742,1.67969
		C181.65039,21.19922,182.34668,21.90723,183.25781,21.90723z"/>
	<path fill="#FFFFFF" d="M187.30371,20.24023c0-1.93164,1.42676-3.20312,3.37012-3.20312c0.52734,0,1.29492,0.16797,1.82324,0.63574
		v1.67969c-0.45605-0.51562-1.04395-0.79199-1.73926-0.79199c-0.99609,0-1.76367,0.71973-1.76367,1.67969
		c0,0.95898,0.76758,1.66699,1.76367,1.66699c0.68359,0,1.31934-0.28809,1.77441-0.81543v1.69043
		c-0.52734,0.46777-1.33105,0.64746-1.8584,0.64746C188.73047,23.42969,187.30371,22.15918,187.30371,20.24023z"/>
	<path fill="#FFFFFF" d="M195.40234,18.08105c0.38379-0.66016,1.01855-1.04395,1.81055-1.04395
		c1.43945,0,2.39844,1.03223,2.39844,2.69922v3.5498h-1.67871v-3.32227c0-0.83984-0.50391-1.3916-1.24707-1.3916
		c-0.74414,0-1.2832,0.63574-1.2832,1.52344v3.19043h-1.67969v-8.44336h1.67969V18.08105z"/>
	<path fill="#FFFFFF" d="M202.86523,18.46484c-0.68359,0-1.31934,0.26367-1.84668,0.70801v-1.4873
		c0.5752-0.44434,1.34277-0.64844,2.08691-0.64844c1.73828,0,2.92578,1.04395,2.92578,2.54297v3.70605h-1.67871v-0.7793
		c-0.27637,0.56348-0.89941,0.92285-1.64355,0.92285c-1.18652,0-2.05078-0.83887-2.05078-1.9668
		c0-1.15137,0.91211-1.94238,2.19531-1.94238c0.5752,0,1.13867,0.17969,1.49902,0.44336v-0.28809
		C204.35254,18.9082,203.75293,18.46484,202.86523,18.46484z M203.1416,22.12305c0.65918,0,1.1748-0.41992,1.21094-1.08008v-0.01172
		c-0.33594-0.21582-0.73145-0.34766-1.13965-0.34766c-0.56348,0-0.92285,0.2998-0.92285,0.73145S202.625,22.12305,203.1416,22.12305
		z"/>
	<path fill="#FFFFFF" d="M208.24219,14.39941c0.58691,0,1.04297,0.47949,1.04297,1.03125s-0.45605,1.01953-1.04297,1.01953
		c-0.60059,0-1.03223-0.46777-1.03223-1.01953S207.6416,14.39941,208.24219,14.39941z M209.09375,23.28613h-1.67969v-6.10449
		h1.67969V23.28613z"/>
	<path fill="#FFFFFF" d="M212.2373,18.08105c0.38379-0.66016,1.01855-1.04395,1.81055-1.04395
		c1.43945,0,2.39844,1.03223,2.39844,2.69922v3.5498h-1.67871v-3.32227c0-0.83984-0.50391-1.3916-1.24707-1.3916
		c-0.74414,0-1.2832,0.63574-1.2832,1.52344v3.19043h-1.67969v-6.10449h1.67969V18.08105z"/>
	<path fill="#FFFFFF" d="M217.46973,20.24023c0-1.78711,1.23535-3.20312,3.07031-3.20312c2.07422,0,3.02246,1.61914,2.74609,3.58691
		h-4.25781c0.16797,0.85156,0.83984,1.39062,1.97949,1.39062c0.75488,0,1.49902-0.31152,2.07422-0.80371v1.4873
		c-0.47949,0.43164-1.30664,0.73145-2.3623,0.73145C218.76465,23.42969,217.46973,22.14648,217.46973,20.24023z M221.61914,19.47266
		c-0.03613-0.6123-0.49121-1.11621-1.19922-1.11621c-0.68359,0-1.17578,0.36035-1.36719,1.11621H221.61914z"/>
	<path fill="#FFFFFF" d="M226.13281,19.98828v3.29785h-1.67969v-6.10449h1.67969v0.93555
		c0.34766-0.69629,1.05469-1.08008,1.67871-1.08008c0.875,0,1.4873,0.36035,1.82324,1.04395
		c0.47949-0.68359,1.13867-1.04395,1.99023-1.04395c1.35547,0,2.15918,0.95996,2.15918,2.69922v3.5498h-1.67871v-3.40625
		c0-0.81543-0.39648-1.31934-1.01953-1.31934c-0.68359,0-1.12793,0.55176-1.12793,1.42773v3.29785h-1.67871v-3.40625
		c0-0.81543-0.39551-1.31934-1.00781-1.31934C226.57617,18.56055,226.13281,19.1123,226.13281,19.98828z"/>
	<path fill="#FFFFFF" d="M234.80957,20.24023c0-1.78711,1.23535-3.20312,3.07031-3.20312c2.07422,0,3.02246,1.61914,2.74609,3.58691
		h-4.25781c0.16797,0.85156,0.83984,1.39062,1.97949,1.39062c0.75488,0,1.49902-0.31152,2.07422-0.80371v1.4873
		c-0.47949,0.43164-1.30664,0.73145-2.3623,0.73145C236.10449,23.42969,234.80957,22.14648,234.80957,20.24023z M238.95898,19.47266
		c-0.03613-0.6123-0.49121-1.11621-1.19922-1.11621c-0.68359,0-1.17578,0.36035-1.36719,1.11621H238.95898z"/>
	<path fill="#FFFFFF" d="M243.47266,18.08105c0.38379-0.66016,1.01855-1.04395,1.81055-1.04395
		c1.43945,0,2.39844,1.03223,2.39844,2.69922v3.5498h-1.67871v-3.32227c0-0.83984-0.50391-1.3916-1.24707-1.3916
		c-0.74414,0-1.2832,0.63574-1.2832,1.52344v3.19043h-1.67969v-6.10449h1.67969V18.08105z"/>
	<path fill="#FFFFFF" d="M251.06738,15.53809v1.64355h2.01465v1.39062h-2.01465v2.1709c0,0.86426,0.49219,1.22363,1.01953,1.22363
		c0.43164,0,0.73145-0.12012,0.99512-0.26367v1.46289c-0.43164,0.17969-0.89941,0.26367-1.29492,0.26367
		c-1.36719,0-2.41113-0.82715-2.41113-2.58984v-2.26758h-0.9834v-1.39062h0.9834v-1.64355H251.06738z"/>
	<path fill="#FFFFFF" d="M257.77539,21.0791c0.73145,0,1.24707,0.47949,1.24707,1.1875c0,0.69531-0.51562,1.16309-1.24707,1.16309
		c-0.70801,0-1.19922-0.46777-1.19922-1.16309C256.57617,21.55859,257.06738,21.0791,257.77539,21.0791z M258.49512,20.51562
		h-1.41602l-0.23926-5.67285h1.90723L258.49512,20.51562z"/>
</g>
</svg>
